<svg id="Objects" xmlns="http://www.w3.org/2000/svg" viewBox="0 0 69.12 103.68"><defs><style>.cls-1{fill:#f2f2f2;}.cls-2,.cls-4{fill:#333;}.cls-3{fill:#4d4d4d;}.cls-4{font-size:10.89px;font-family:ChunkFive;}</style></defs><title>3</title><rect class="cls-1" width="69.12" height="103.68" rx="2.72" ry="2.72"/><path class="cls-2" d="M622.77,112.9a1.79,1.79,0,0,1,2.15-1.73,2.05,2.05,0,0,1,1.28.83c0.31,0.38.39,0.14,0.35-.12a2.37,2.37,0,0,0-1.71-2.12c-0.1,0-.51-0.12-0.13-0.12h3.91c0.38,0,0,.09-0.13.13a2.37,2.37,0,0,0-1.71,2.12c0,0.25,0,.5.34,0.12a2.05,2.05,0,0,1,1.28-.83,1.79,1.79,0,0,1,2.15,1.73h0a1.71,1.71,0,0,1-1.62,1.77,1,1,0,0,0-.63,0c-0.2.19,0.08,0.33,0.1,0.76h0a1.58,1.58,0,0,1-1.47,1.68h0l-0.25,0a2.1,2.1,0,0,1-.29,0h0a1.58,1.58,0,0,1-1.47-1.68h0c0-.43.29-0.57,0.1-0.76a1,1,0,0,0-.63,0,1.71,1.71,0,0,1-1.62-1.77h0Z" transform="translate(-564.94 -25.98)"/><path class="cls-3" d="M626.67,117.18h0l0.25,0h0a1.58,1.58,0,0,0,1.47-1.68h0c0-.43-0.29-0.57-0.1-0.76a1,1,0,0,1,.63,0,1.71,1.71,0,0,0,1.62-1.77h0a1.79,1.79,0,0,0-2.15-1.73,2.05,2.05,0,0,0-1.28.83c-0.31.38-.39,0.14-0.34-0.12a2.37,2.37,0,0,1,1.71-2.12c0.1,0,.51-0.12.13-0.12h-1.95v7.55Z" transform="translate(-564.94 -25.98)"/><path class="cls-2" d="M576.23,42.74a1.79,1.79,0,0,1-2.15,1.73,2.06,2.06,0,0,1-1.28-.83c-0.31-.38-0.39-0.14-0.34.12a2.37,2.37,0,0,0,1.71,2.12c0.1,0,.51.13,0.13,0.13h-3.91c-0.38,0,0-.09.13-0.12a2.37,2.37,0,0,0,1.71-2.12c0-.25,0-0.5-0.34-0.12a2.06,2.06,0,0,1-1.28.83,1.79,1.79,0,0,1-2.15-1.73h0A1.71,1.71,0,0,1,570.06,41a1,1,0,0,0,.63,0c0.2-.19-0.08-0.33-0.1-0.76h0a1.58,1.58,0,0,1,1.47-1.68h0l0.25,0a2.08,2.08,0,0,1,.29,0h0a1.58,1.58,0,0,1,1.47,1.68h0c0,0.43-.29.57-0.1,0.76a1,1,0,0,0,.63,0,1.71,1.71,0,0,1,1.62,1.77h0Z" transform="translate(-564.94 -25.98)"/><path class="cls-3" d="M572.33,38.46h0l-0.25,0h0a1.58,1.58,0,0,0-1.47,1.68h0c0,0.43.29,0.57,0.1,0.76a1,1,0,0,1-.63,0,1.71,1.71,0,0,0-1.62,1.77h0a1.79,1.79,0,0,0,2.15,1.73,2.06,2.06,0,0,0,1.28-.83c0.31-.38.39-0.14,0.34,0.12a2.37,2.37,0,0,1-1.71,2.12c-0.1,0-.51.13-0.13,0.13h1.95V38.46Z" transform="translate(-564.94 -25.98)"/><text class="cls-4" transform="translate(4.62 10.45)">3</text><text class="cls-4" transform="translate(64.51 93.23) rotate(180)">3</text><path class="cls-2" d="M622.77,54.27a3.46,3.46,0,0,1-4.16,3.35A4,4,0,0,1,616.13,56c-0.6-.74-0.75-0.26-0.67.22,0.38,2.23,1.4,3.5,3.29,4.1,0.19,0.06,1,.24.26,0.24h-7.55c-0.73,0,.07-0.18.26-0.24,1.9-.59,2.91-1.86,3.3-4.1,0.08-.48-0.06-1-0.66-0.22a4,4,0,0,1-2.48,1.59,3.47,3.47,0,0,1-4.16-3.35h0c0-1.68,1.36-3.55,3.13-3.42a2,2,0,0,0,1.22-.06c0.38-.37-0.15-0.64-0.19-1.48h0A3.05,3.05,0,0,1,614.72,46h0s0.33,0,.48,0a4.34,4.34,0,0,1,.56,0h0a3.05,3.05,0,0,1,2.84,3.25h0c0,0.84-.56,1.11-0.19,1.48a2,2,0,0,0,1.22.06c1.77-.13,3.13,1.74,3.13,3.42h0Z" transform="translate(-564.94 -25.98)"/><path class="cls-3" d="M615.23,46h0c-0.15,0-.48,0-0.48,0h0a3.05,3.05,0,0,0-2.84,3.25h0c0,0.84.57,1.11,0.19,1.48a2,2,0,0,1-1.22.06c-1.77-.13-3.13,1.74-3.13,3.42h0a3.47,3.47,0,0,0,4.16,3.35A4,4,0,0,0,614.36,56c0.6-.74.75-0.26,0.66,0.22-0.38,2.23-1.4,3.5-3.3,4.1-0.19.06-1,.24-0.26,0.24h3.76V46Z" transform="translate(-564.94 -25.98)"/><path class="cls-2" d="M607,78.79a3.46,3.46,0,0,1-4.16,3.35,4,4,0,0,1-2.47-1.59c-0.6-.74-0.75-0.26-0.67.22,0.38,2.23,1.4,3.5,3.29,4.1,0.19,0.06,1,.24.26,0.24h-7.55c-0.73,0,.07-0.18.26-0.24,1.9-.59,2.91-1.86,3.29-4.1,0.08-.48-0.06-1-0.66-0.22a4,4,0,0,1-2.48,1.59A3.47,3.47,0,0,1,592,78.79h0c0-1.68,1.36-3.55,3.13-3.42a2,2,0,0,0,1.22-.06c0.38-.37-0.15-0.64-0.19-1.48h0A3.05,3.05,0,0,1,599,70.57h0a4.51,4.51,0,0,1,.48,0,4.12,4.12,0,0,1,.56,0h0a3.05,3.05,0,0,1,2.84,3.25h0c0,0.84-.56,1.11-0.19,1.48a2,2,0,0,0,1.22.06c1.77-.13,3.13,1.74,3.13,3.42h0Z" transform="translate(-564.94 -25.98)"/><path class="cls-3" d="M599.5,70.53h0a4.51,4.51,0,0,0-.48,0h0a3.05,3.05,0,0,0-2.84,3.25h0c0,0.84.57,1.11,0.19,1.48a2,2,0,0,1-1.22.06c-1.77-.13-3.13,1.74-3.13,3.42h0a3.47,3.47,0,0,0,4.16,3.35,4,4,0,0,0,2.48-1.59c0.6-.74.75-0.26,0.66,0.22-0.38,2.23-1.4,3.5-3.29,4.1-0.19.06-1,.24-0.26,0.24h3.76V70.53Z" transform="translate(-564.94 -25.98)"/><path class="cls-2" d="M591.29,103.32a3.46,3.46,0,0,1-4.16,3.35,4,4,0,0,1-2.47-1.59c-0.6-.74-0.75-0.26-0.67.22,0.38,2.23,1.4,3.5,3.29,4.1,0.19,0.06,1,.24.26,0.24H580c-0.73,0,.07-0.18.26-0.24,1.9-.59,2.91-1.86,3.29-4.1,0.08-.48-0.06-1-0.66-0.22a4,4,0,0,1-2.48,1.59,3.47,3.47,0,0,1-4.16-3.35h0c0-1.68,1.36-3.55,3.13-3.42a2,2,0,0,0,1.22-.06c0.38-.37-0.15-0.64-0.19-1.48h0a3.05,3.05,0,0,1,2.84-3.25h0s0.33,0,.48,0a4.31,4.31,0,0,1,.56,0h0a3.05,3.05,0,0,1,2.84,3.25h0c0,0.84-.56,1.11-0.19,1.48a2,2,0,0,0,1.22.06c1.77-.13,3.13,1.74,3.13,3.42h0Z" transform="translate(-564.94 -25.98)"/><path class="cls-3" d="M583.75,95.06h0c-0.15,0-.48,0-0.48,0h0a3.05,3.05,0,0,0-2.84,3.25h0c0,0.84.57,1.11,0.19,1.48a2,2,0,0,1-1.22.06c-1.77-.13-3.13,1.74-3.13,3.42h0a3.47,3.47,0,0,0,4.16,3.35,4,4,0,0,0,2.48-1.59c0.6-.74.75-0.26,0.66,0.22-0.38,2.23-1.4,3.5-3.29,4.1-0.19.06-1,.24-0.26,0.24h3.76V95.06Z" transform="translate(-564.94 -25.98)"/></svg>