<svg id="Objects" xmlns="http://www.w3.org/2000/svg" viewBox="0 0 69.12 103.68"><defs><style>.cls-1{fill:#f2f2f2;}.cls-2,.cls-4{fill:#333;}.cls-3{fill:#4d4d4d;}.cls-4{font-size:10.89px;font-family:ChunkFive;}</style></defs><title>7</title><rect class="cls-1" width="69.12" height="103.68" rx="2.72" ry="2.72"/><path class="cls-2" d="M591.26,267.08a3.46,3.46,0,0,1-4.16,3.35,4,4,0,0,1-2.47-1.59c-0.6-.74-0.75-0.26-0.67.22,0.38,2.23,1.4,3.5,3.29,4.1,0.19,0.06,1,.24.26,0.24H580c-0.73,0,.07-0.18.26-0.24,1.9-.59,2.91-1.86,3.29-4.1,0.08-.48-0.07-1-0.66-0.22a4,4,0,0,1-2.48,1.59,3.47,3.47,0,0,1-4.16-3.35h0c0-1.68,1.36-3.55,3.13-3.42a2,2,0,0,0,1.22-.06c0.38-.37-0.15-0.64-0.19-1.48h0a3.05,3.05,0,0,1,2.84-3.25h0s0.33,0,.48,0a4.34,4.34,0,0,1,.56,0h0a3.05,3.05,0,0,1,2.84,3.25h0c0,0.84-.56,1.11-0.19,1.48a2,2,0,0,0,1.22.06c1.77-.13,3.13,1.74,3.13,3.42h0Z" transform="translate(-564.94 -238.79)"/><path class="cls-3" d="M583.72,258.82h0c-0.15,0-.48,0-0.48,0h0a3.05,3.05,0,0,0-2.84,3.25h0c0,0.84.57,1.11,0.19,1.48a2,2,0,0,1-1.22.06c-1.77-.13-3.13,1.74-3.13,3.42h0a3.47,3.47,0,0,0,4.16,3.35,4,4,0,0,0,2.48-1.59c0.6-.74.75-0.26,0.66,0.22-0.38,2.23-1.4,3.5-3.29,4.1-0.19.06-1,.24-0.26,0.24h3.76V258.82Z" transform="translate(-564.94 -238.79)"/><path class="cls-2" d="M622.72,267.08a3.46,3.46,0,0,1-4.16,3.35,4,4,0,0,1-2.47-1.59c-0.6-.74-0.75-0.26-0.67.22,0.38,2.23,1.4,3.5,3.29,4.1,0.19,0.06,1,.24.26,0.24h-7.55c-0.73,0,.07-0.18.26-0.24,1.9-.59,2.91-1.86,3.29-4.1,0.08-.48-0.06-1-0.66-0.22a4,4,0,0,1-2.48,1.59,3.47,3.47,0,0,1-4.16-3.35h0c0-1.68,1.36-3.55,3.13-3.42a2,2,0,0,0,1.22-.06c0.38-.37-0.15-0.64-0.19-1.48h0a3.05,3.05,0,0,1,2.84-3.25h0a4.83,4.83,0,0,1,.48,0,4.34,4.34,0,0,1,.56,0h0a3.05,3.05,0,0,1,2.84,3.25h0c0,0.84-.56,1.11-0.19,1.48a2,2,0,0,0,1.22.06c1.77-.13,3.13,1.74,3.13,3.42h0Z" transform="translate(-564.94 -238.79)"/><path class="cls-3" d="M615.18,258.82h0a4.83,4.83,0,0,0-.48,0h0a3.05,3.05,0,0,0-2.84,3.25h0c0,0.84.57,1.11,0.19,1.48a2,2,0,0,1-1.22.06c-1.77-.13-3.13,1.74-3.13,3.42h0a3.47,3.47,0,0,0,4.16,3.35,4,4,0,0,0,2.48-1.59c0.6-.74.75-0.26,0.66,0.22-0.38,2.23-1.4,3.5-3.29,4.1-0.19.06-1,.24-0.26,0.24h3.76V258.82Z" transform="translate(-564.94 -238.79)"/><path class="cls-2" d="M591.26,291.6A3.46,3.46,0,0,1,587.1,295a4,4,0,0,1-2.47-1.59c-0.6-.74-0.75-0.26-0.67.22,0.38,2.23,1.4,3.5,3.29,4.1,0.19,0.06,1,.24.26,0.24H580c-0.73,0,.07-0.18.26-0.24,1.9-.59,2.91-1.86,3.29-4.1,0.08-.48-0.07-1-0.66-0.22a4,4,0,0,1-2.48,1.59,3.47,3.47,0,0,1-4.16-3.35h0c0-1.68,1.36-3.55,3.13-3.42a2,2,0,0,0,1.22-.06c0.38-.37-0.15-0.64-0.19-1.48h0a3.05,3.05,0,0,1,2.84-3.25h0a3.11,3.11,0,0,1,1,0h0a3.05,3.05,0,0,1,2.84,3.25h0c0,0.84-.56,1.11-0.19,1.48a2,2,0,0,0,1.22.06c1.77-.13,3.13,1.74,3.13,3.42h0Z" transform="translate(-564.94 -238.79)"/><path class="cls-3" d="M583.72,283.34h0a4.49,4.49,0,0,0-.48,0h0a3.05,3.05,0,0,0-2.84,3.25h0c0,0.84.57,1.11,0.19,1.48a2,2,0,0,1-1.22.06c-1.77-.13-3.13,1.74-3.13,3.42h0a3.47,3.47,0,0,0,4.16,3.35,4,4,0,0,0,2.48-1.59c0.6-.74.75-0.26,0.66,0.22-0.38,2.23-1.4,3.5-3.29,4.1-0.19.06-1,.24-0.26,0.24h3.76V283.34Z" transform="translate(-564.94 -238.79)"/><path class="cls-2" d="M622.72,291.6a3.46,3.46,0,0,1-4.16,3.35,4,4,0,0,1-2.47-1.59c-0.6-.74-0.75-0.26-0.67.22,0.38,2.23,1.4,3.5,3.29,4.1,0.19,0.06,1,.24.26,0.24h-7.55c-0.73,0,.07-0.18.26-0.24,1.9-.59,2.91-1.86,3.29-4.1,0.08-.48-0.06-1-0.66-0.22a4,4,0,0,1-2.48,1.59,3.47,3.47,0,0,1-4.16-3.35h0c0-1.68,1.36-3.55,3.13-3.42a2,2,0,0,0,1.22-.06c0.38-.37-0.15-0.64-0.19-1.48h0a3.05,3.05,0,0,1,2.84-3.25h0a3.11,3.11,0,0,1,1,0h0a3.05,3.05,0,0,1,2.84,3.25h0c0,0.84-.56,1.11-0.19,1.48a2,2,0,0,0,1.22.06c1.77-.13,3.13,1.74,3.13,3.42h0Z" transform="translate(-564.94 -238.79)"/><path class="cls-3" d="M615.18,283.34h0a4.49,4.49,0,0,0-.48,0h0a3.05,3.05,0,0,0-2.84,3.25h0c0,0.84.57,1.11,0.19,1.48a2,2,0,0,1-1.22.06c-1.77-.13-3.13,1.74-3.13,3.42h0a3.47,3.47,0,0,0,4.16,3.35,4,4,0,0,0,2.48-1.59c0.6-.74.75-0.26,0.66,0.22-0.38,2.23-1.4,3.5-3.29,4.1-0.19.06-1,.24-0.26,0.24h3.76V283.34Z" transform="translate(-564.94 -238.79)"/><path class="cls-2" d="M591.26,316.13a3.46,3.46,0,0,1-4.16,3.35,4,4,0,0,1-2.47-1.59c-0.6-.74-0.75-0.26-0.67.22,0.38,2.23,1.4,3.5,3.29,4.1,0.19,0.06,1,.24.26,0.24H580c-0.73,0,.07-0.18.26-0.24,1.9-.59,2.91-1.86,3.29-4.1,0.08-.48-0.07-1-0.66-0.22a4,4,0,0,1-2.48,1.59,3.47,3.47,0,0,1-4.16-3.35h0c0-1.68,1.36-3.55,3.13-3.42a2,2,0,0,0,1.22-.06c0.38-.37-0.15-0.64-0.19-1.48h0a3.05,3.05,0,0,1,2.84-3.25h0s0.33,0,.48,0a4.35,4.35,0,0,1,.56,0h0a3.05,3.05,0,0,1,2.84,3.25h0c0,0.84-.56,1.11-0.19,1.48a2,2,0,0,0,1.22.06c1.77-.13,3.13,1.74,3.13,3.42h0Z" transform="translate(-564.94 -238.79)"/><path class="cls-3" d="M583.72,307.87h0c-0.15,0-.48,0-0.48,0h0a3.05,3.05,0,0,0-2.84,3.25h0c0,0.84.57,1.11,0.19,1.48a2,2,0,0,1-1.22.06c-1.77-.13-3.13,1.74-3.13,3.42h0a3.47,3.47,0,0,0,4.16,3.35,4,4,0,0,0,2.48-1.59c0.6-.74.75-0.26,0.66,0.22-0.38,2.23-1.4,3.5-3.29,4.1-0.19.06-1,.24-0.26,0.24h3.76V307.87Z" transform="translate(-564.94 -238.79)"/><path class="cls-2" d="M622.72,316.13a3.46,3.46,0,0,1-4.16,3.35,4,4,0,0,1-2.47-1.59c-0.6-.74-0.75-0.26-0.67.22,0.38,2.23,1.4,3.5,3.29,4.1,0.19,0.06,1,.24.26,0.24h-7.55c-0.73,0,.07-0.18.26-0.24,1.9-.59,2.91-1.86,3.29-4.1,0.08-.48-0.06-1-0.66-0.22a4,4,0,0,1-2.48,1.59,3.47,3.47,0,0,1-4.16-3.35h0c0-1.68,1.36-3.55,3.13-3.42a2,2,0,0,0,1.22-.06c0.38-.37-0.15-0.64-0.19-1.48h0a3.05,3.05,0,0,1,2.84-3.25h0s0.33,0,.48,0a4.35,4.35,0,0,1,.56,0h0a3.05,3.05,0,0,1,2.84,3.25h0c0,0.84-.56,1.11-0.19,1.48a2,2,0,0,0,1.22.06c1.77-.13,3.13,1.74,3.13,3.42h0Z" transform="translate(-564.94 -238.79)"/><path class="cls-3" d="M615.18,307.87h0c-0.15,0-.48,0-0.48,0h0a3.05,3.05,0,0,0-2.84,3.25h0c0,0.84.57,1.11,0.19,1.48a2,2,0,0,1-1.22.06c-1.77-.13-3.13,1.74-3.13,3.42h0a3.47,3.47,0,0,0,4.16,3.35,4,4,0,0,0,2.48-1.59c0.6-.74.75-0.26,0.66,0.22-0.38,2.23-1.4,3.5-3.29,4.1-0.19.06-1,.24-0.26,0.24h3.76V307.87Z" transform="translate(-564.94 -238.79)"/><path class="cls-2" d="M622.77,325.71a1.79,1.79,0,0,1,2.15-1.73,2.05,2.05,0,0,1,1.28.83c0.31,0.38.39,0.14,0.35-.11a2.37,2.37,0,0,0-1.71-2.12c-0.1,0-.51-0.13-0.13-0.13h3.91c0.38,0,0,.09-0.13.13a2.37,2.37,0,0,0-1.71,2.12c0,0.25,0,.5.34,0.11a2.05,2.05,0,0,1,1.28-.83,1.79,1.79,0,0,1,2.15,1.73h0a1.71,1.71,0,0,1-1.62,1.77,1,1,0,0,0-.63,0c-0.2.19,0.08,0.33,0.1,0.76h0a1.58,1.58,0,0,1-1.47,1.68h0l-0.25,0a2.1,2.1,0,0,1-.29,0h0a1.58,1.58,0,0,1-1.47-1.68h0c0-.43.29-0.57,0.1-0.76a1,1,0,0,0-.63,0,1.71,1.71,0,0,1-1.62-1.77h0Z" transform="translate(-564.94 -238.79)"/><path class="cls-3" d="M626.67,330h0l0.25,0h0a1.58,1.58,0,0,0,1.47-1.68h0c0-.43-0.29-0.57-0.1-0.76a1,1,0,0,1,.63,0,1.71,1.71,0,0,0,1.62-1.77h0A1.79,1.79,0,0,0,628.4,324a2.05,2.05,0,0,0-1.28.83c-0.31.38-.39,0.14-0.34-0.11a2.37,2.37,0,0,1,1.71-2.12c0.1,0,.51-0.13.13-0.13h-1.95V330Z" transform="translate(-564.94 -238.79)"/><path class="cls-2" d="M576.23,255.55a1.79,1.79,0,0,1-2.15,1.73,2.06,2.06,0,0,1-1.28-.83c-0.31-.38-0.39-0.14-0.34.12a2.37,2.37,0,0,0,1.71,2.12c0.1,0,.51.13,0.13,0.13h-3.91c-0.38,0,0-.09.13-0.12a2.37,2.37,0,0,0,1.71-2.12c0-.25,0-0.5-0.34-0.12a2.05,2.05,0,0,1-1.28.83,1.79,1.79,0,0,1-2.15-1.73h0a1.71,1.71,0,0,1,1.62-1.77,1,1,0,0,0,.63,0c0.2-.19-0.08-0.33-0.1-0.76h0a1.58,1.58,0,0,1,1.47-1.68h0l0.25,0a2.06,2.06,0,0,1,.29,0h0a1.58,1.58,0,0,1,1.47,1.68h0c0,0.43-.29.57-0.1,0.76a1,1,0,0,0,.63,0,1.71,1.71,0,0,1,1.62,1.77h0Z" transform="translate(-564.94 -238.79)"/><path class="cls-3" d="M572.33,251.27h0l-0.25,0h0A1.58,1.58,0,0,0,570.6,253h0c0,0.43.29,0.57,0.1,0.76a1,1,0,0,1-.63,0,1.71,1.71,0,0,0-1.62,1.77h0a1.79,1.79,0,0,0,2.15,1.73,2.05,2.05,0,0,0,1.28-.83c0.31-.38.39-0.14,0.34,0.12a2.37,2.37,0,0,1-1.71,2.12c-0.1,0-.51.13-0.13,0.13h1.95v-7.55Z" transform="translate(-564.94 -238.79)"/><text class="cls-4" transform="translate(4.62 10.45)">7</text><text class="cls-4" transform="translate(64.51 93.23) rotate(180)">7</text><path class="cls-2" d="M607,278.17a3.46,3.46,0,0,1-4.16,3.35,4,4,0,0,1-2.47-1.59c-0.6-.74-0.75-0.26-0.66.22,0.38,2.23,1.4,3.5,3.29,4.1,0.19,0.06,1,.24.26,0.24h-7.55c-0.73,0,.07-0.18.26-0.24,1.9-.59,2.91-1.86,3.29-4.1,0.08-.48-0.06-1-0.66-0.22a4,4,0,0,1-2.48,1.59,3.47,3.47,0,0,1-4.16-3.35h0c0-1.68,1.36-3.55,3.13-3.42a2,2,0,0,0,1.22-.06c0.38-.37-0.15-0.64-0.19-1.48h0A3.05,3.05,0,0,1,599,270h0s0.33,0,.48,0a4.36,4.36,0,0,1,.56,0h0a3.05,3.05,0,0,1,2.84,3.25h0c0,0.84-.56,1.11-0.19,1.48a2,2,0,0,0,1.22.06c1.77-.13,3.13,1.74,3.13,3.42h0Z" transform="translate(-564.94 -238.79)"/><path class="cls-3" d="M599.48,269.91h0c-0.15,0-.48,0-0.48,0h0a3.05,3.05,0,0,0-2.84,3.25h0c0,0.84.57,1.11,0.19,1.48a2,2,0,0,1-1.22.06c-1.77-.13-3.13,1.74-3.13,3.42h0a3.47,3.47,0,0,0,4.16,3.35,4,4,0,0,0,2.48-1.59c0.6-.74.75-0.26,0.66,0.22-0.38,2.23-1.4,3.5-3.29,4.1-0.19.06-1,.24-0.26,0.24h3.76V269.91Z" transform="translate(-564.94 -238.79)"/></svg>