<svg id="Objects" xmlns="http://www.w3.org/2000/svg" viewBox="0 0 69.12 103.69"><defs><style>.cls-1{fill:#f2f2f2;}.cls-2,.cls-4{fill:#333;}.cls-3{fill:#4d4d4d;}.cls-4{font-size:10.89px;font-family:ChunkFive;}</style></defs><title>A</title><rect class="cls-1" width="69.12" height="103.69" rx="2.72" ry="2.72"/><path class="cls-2" d="M616.72,724.45c0,6.11-5.48,9.52-10.83,8.73a10.32,10.32,0,0,1-6.45-4.16c-1.56-1.92-2-.68-1.74.58,1,5.82,3.65,9.13,8.58,10.68,0.5,0.16,2.57.63,0.68,0.63H587.29c-1.9,0,.18-0.47.67-0.63,4.94-1.55,7.59-4.85,8.59-10.68,0.21-1.26-.17-2.5-1.73-0.58a10.33,10.33,0,0,1-6.45,4.16c-5.35.79-10.84-2.62-10.84-8.73h0c0-4.38,3.54-9.25,8.15-8.92,0.32,0,2.5.5,3.18-.17,1-1-.39-1.67-0.49-3.85h0c-0.15-5.19,3.42-8,7.41-8.47h0a12.29,12.29,0,0,1,1.25-.11,11,11,0,0,1,1.47.11h0c4,0.5,7.55,3.28,7.4,8.47h0c-0.1,2.18-1.47,2.89-.49,3.85,0.68,0.66,2.87.19,3.18,0.17,4.61-.33,8.15,4.54,8.15,8.92h0Z" transform="translate(-562.56 -670.07)"/><path class="cls-3" d="M597.08,702.92H597a12.29,12.29,0,0,0-1.25.11h0c-4,.5-7.55,3.28-7.41,8.47h0c0.1,2.18,1.47,2.89.49,3.85-0.68.66-2.86,0.2-3.18,0.17-4.61-.33-8.15,4.54-8.15,8.92h0c0,6.11,5.49,9.52,10.84,8.72a10.33,10.33,0,0,0,6.45-4.15c1.56-1.92,1.94-.68,1.73.58-1,5.82-3.65,9.13-8.59,10.68-0.49.16-2.57,0.63-.67,0.63h9.79v-38Z" transform="translate(-562.56 -670.07)"/><text class="cls-4" transform="translate(4.08 10.45)">A</text><text class="cls-4" transform="translate(65.04 93.23) rotate(180)">A</text><path class="cls-2" d="M620.35,757a1.79,1.79,0,0,1,2.15-1.73,2,2,0,0,1,1.28.83c0.31,0.38.39,0.13,0.35-.12a2.37,2.37,0,0,0-1.71-2.12c-0.1,0-.51-0.13-0.13-0.13h3.91c0.38,0,0,.09-0.13.13a2.37,2.37,0,0,0-1.71,2.12c0,0.25,0,.5.34,0.12a2,2,0,0,1,1.28-.83,1.79,1.79,0,0,1,2.15,1.73h0a1.71,1.71,0,0,1-1.62,1.77,1,1,0,0,0-.63,0c-0.2.19,0.08,0.33,0.1,0.77h0a1.58,1.58,0,0,1-1.47,1.68h0l-0.25,0a2.65,2.65,0,0,1-.29,0h0a1.58,1.58,0,0,1-1.47-1.68h0c0-.43.29-0.57,0.1-0.77a1,1,0,0,0-.63,0,1.71,1.71,0,0,1-1.62-1.77h0Z" transform="translate(-562.56 -670.07)"/><path class="cls-3" d="M624.25,761.27h0l0.25,0h0a1.58,1.58,0,0,0,1.47-1.68h0c0-.43-0.29-0.57-0.1-0.77a1,1,0,0,1,.63,0,1.71,1.71,0,0,0,1.62-1.77h0a1.79,1.79,0,0,0-2.15-1.73,2,2,0,0,0-1.28.83c-0.31.38-.39,0.13-0.34-0.12a2.37,2.37,0,0,1,1.71-2.12c0.1,0,.51-0.13.13-0.13h-1.95v7.55Z" transform="translate(-562.56 -670.07)"/><path class="cls-2" d="M573.81,686.83a1.79,1.79,0,0,1-2.15,1.73,2,2,0,0,1-1.28-.83c-0.31-.38-0.39-0.14-0.34.12a2.37,2.37,0,0,0,1.71,2.12c0.1,0,.51.13,0.13,0.13H568c-0.38,0,0-.09.13-0.12a2.37,2.37,0,0,0,1.71-2.12c0-.25,0-0.5-0.34-0.12a2.05,2.05,0,0,1-1.28.83,1.8,1.8,0,0,1-2.15-1.73h0a1.71,1.71,0,0,1,1.62-1.77,1,1,0,0,0,.63,0c0.2-.19-0.08-0.33-0.1-0.76h0a1.58,1.58,0,0,1,1.47-1.68h0l0.25,0a1.89,1.89,0,0,1,.29,0h0a1.58,1.58,0,0,1,1.47,1.68h0c0,0.43-.29.57-0.1,0.76a1,1,0,0,0,.63,0,1.71,1.71,0,0,1,1.62,1.77h0Z" transform="translate(-562.56 -670.07)"/><path class="cls-3" d="M569.91,682.55h0l-0.25,0h0a1.58,1.58,0,0,0-1.47,1.68h0c0,0.43.29,0.57,0.1,0.76a1,1,0,0,1-.63,0,1.71,1.71,0,0,0-1.62,1.77h0a1.8,1.8,0,0,0,2.15,1.73,2.05,2.05,0,0,0,1.28-.83c0.31-.38.39-0.14,0.34,0.12A2.37,2.37,0,0,1,568.1,690c-0.1,0-.51.13-0.13,0.13h1.95v-7.55Z" transform="translate(-562.56 -670.07)"/></svg>