<?xml version="1.0" encoding="utf-8"?>
<!-- Generator: Adobe Illustrator 19.2.1, SVG Export Plug-In . SVG Version: 6.00 Build 0)  -->
<svg version="1.1" id="Objects" xmlns="http://www.w3.org/2000/svg" xmlns:xlink="http://www.w3.org/1999/xlink" x="0px" y="0px"
	 viewBox="0 0 69.1 103.7" style="enable-background:new 0 0 69.1 103.7;" xml:space="preserve">
<style type="text/css">
	.st0{fill:#F2F2F2;}
	.st1{fill:#333333;}
	.st2{font-family:'ChunkFive-Roman';}
	.st3{font-size:10.89px;}
	.st4{fill:#4D4D4D;}
	.st5{fill:#AA292E;}
	.st6{fill:#0B050F;}
	.st7{fill:#AD6E2D;}
	.st8{fill:#1F2D6C;}
	.st9{fill:#3856C8;}
	.st10{fill:#BF9B4D;}
	.st11{fill:#E8EFFF;}
	.st12{fill:#C9D8F7;}
	.st13{fill:#715C57;}
	.st14{fill:#AA7941;}
	.st15{fill:#DCE3F2;}
	.st16{fill:#D28537;}
	.st17{fill:#A86B2C;}
	.st18{fill:#B3712E;}
	.st19{fill:#B87530;}
	.st20{fill:#BD7831;}
	.st21{fill:#2A3757;}
</style>
<title>J</title>
<path class="st0" d="M2.7,0h63.7c1.5,0,2.7,1.2,2.7,2.7V101c0,1.5-1.2,2.7-2.7,2.7H2.7c-1.5,0-2.7-1.2-2.7-2.7V2.7
	C0,1.2,1.2,0,2.7,0z"/>
<text transform="matrix(1 0 0 1 5.39 10.45)" class="st1 st2 st3">J</text>
<text transform="matrix(-1 0 0 -1 63.7305 93.2405)" class="st1 st2 st3">J</text>
<path class="st1" d="M57.8,84.9c0-1,0.8-1.8,1.8-1.8c0.1,0,0.2,0,0.3,0c0.5,0.1,1,0.4,1.3,0.8c0.3,0.4,0.4,0.1,0.3-0.1
	c-0.1-1-0.8-1.8-1.7-2.1c-0.1,0-0.5-0.1-0.1-0.1h3.9c0.4,0,0,0.1-0.1,0.1c-1,0.3-1.6,1.1-1.7,2.1c0,0.2,0,0.5,0.3,0.1
	c0.3-0.4,0.8-0.7,1.3-0.8c1-0.2,1.9,0.4,2.1,1.4c0,0.1,0,0.2,0,0.3l0,0c0,0.9-0.7,1.7-1.6,1.8c-0.2-0.1-0.4-0.1-0.6,0
	c-0.2,0.2,0.1,0.3,0.1,0.8l0,0c0.1,0.9-0.6,1.6-1.5,1.7l0,0h-0.2c-0.1,0-0.2,0-0.3,0l0,0c-0.9-0.1-1.5-0.8-1.5-1.7l0,0
	c0-0.4,0.3-0.6,0.1-0.8c-0.2-0.1-0.4-0.1-0.6,0C58.5,86.6,57.7,85.9,57.8,84.9L57.8,84.9L57.8,84.9z"/>
<path class="st4" d="M61.7,89.2L61.7,89.2h0.2l0,0c0.9-0.1,1.5-0.8,1.5-1.7l0,0c0-0.4-0.3-0.6-0.1-0.8c0.2-0.1,0.4-0.1,0.6,0
	c0.9,0,1.7-0.8,1.6-1.8l0,0c0-1-0.8-1.8-1.8-1.8c-0.1,0-0.2,0-0.3,0c-0.5,0.1-1,0.4-1.3,0.8c-0.3,0.4-0.4,0.1-0.3-0.1
	c0.1-1,0.8-1.8,1.7-2.1c0.1,0,0.5-0.1,0.1-0.1h-2L61.7,89.2L61.7,89.2z"/>
<path class="st1" d="M11.2,18.8c0,1-0.8,1.8-1.8,1.8c-0.1,0-0.2,0-0.3,0c-0.5-0.1-1-0.4-1.3-0.8c-0.3-0.4-0.4-0.1-0.3,0.1
	c0.1,1,0.8,1.8,1.7,2.1c0.1,0,0.5,0.1,0.1,0.1H5.4c-0.4,0,0-0.1,0.1-0.1c1-0.3,1.6-1.1,1.7-2.1c0-0.2,0-0.5-0.3-0.1
	c-0.3,0.4-0.8,0.7-1.3,0.8c-1,0.2-1.9-0.4-2.1-1.4c0-0.1,0-0.2,0-0.3l0,0c0-0.9,0.7-1.7,1.6-1.8c0.2,0.1,0.4,0.1,0.6,0
	c0.2-0.2-0.1-0.3-0.1-0.8l0,0c-0.1-0.9,0.6-1.6,1.5-1.7l0,0h0.2c0.1,0,0.2,0,0.3,0l0,0c0.9,0.1,1.5,0.8,1.5,1.7l0,0
	c0,0.4-0.3,0.6-0.1,0.8c0.2,0.1,0.4,0.1,0.6,0C10.6,17,11.3,17.8,11.2,18.8L11.2,18.8L11.2,18.8z"/>
<path class="st4" d="M7.3,14.5L7.3,14.5H7.1l0,0c-0.9,0.1-1.5,0.8-1.5,1.7l0,0c0,0.4,0.3,0.6,0.1,0.8c-0.2,0.1-0.4,0.1-0.6,0
	c-0.9,0-1.7,0.8-1.6,1.8l0,0c0,1,0.8,1.8,1.8,1.8c0.1,0,0.2,0,0.3,0c0.5-0.1,1-0.4,1.3-0.8c0.3-0.4,0.4-0.1,0.3,0.1
	c-0.1,1-0.8,1.8-1.7,2.1C5.4,21.8,5,22,5.4,22h2L7.3,14.5L7.3,14.5z"/>
<path class="st1" d="M19.1,73.5c-2.7-1.2-5.2-2.9-7.2-5.1v-4.6h7.2V73.5z"/>
<path class="st1" d="M22,16.7l-3.9-5c0,0,7.5-5,9-5.1s18.7,5.2,18.7,5.2L41.9,18L22,16.7z"/>
<path class="st5" d="M42,10.6c0,0-2.1,6.8-2.7,7.3S35.9,17,35.9,17s2.2-2.1,3.2-7.3L42,10.6z"/>
<path class="st1" d="M11.8,61.5V35.6c2.5-2.8,6-4.5,9.8-4.8C21.6,30.9,21.7,57.1,11.8,61.5z"/>
<rect x="30.9" y="32.3" class="st6" width="3.3" height="6.1"/>
<rect x="24.2" y="30.2" class="st6" width="3.3" height="6.1"/>
<rect x="34.3" y="29.9" class="st5" width="3.3" height="6.1"/>
<rect x="27.6" y="31.9" class="st5" width="3.3" height="6.1"/>
<rect x="37.5" y="28" class="st6" width="3.3" height="6.1"/>
<rect x="40.8" y="27.9" class="st5" width="3.3" height="3.8"/>
<polygon class="st7" points="24.3,28 25,30.7 22.5,30.9 "/>
<path class="st6" d="M20.7,31c0,0,1.2,17.1-8.9,30.5c0,1.2,0,1.8,0,1.8s5.9-2.8,9.3-14.5S22.9,31,22.9,31L20.7,31L20.7,31z"/>
<path class="st8" d="M22.2,31.3c0,0,0.3,11.3-2.5,18s-4.7,11.4-8,13.9v5.2c0,0,9.1-8.8,12.1-18.8c1.8-6,2.6-12.3,2.4-18.6L22.2,31.3
	z"/>
<ellipse class="st5" cx="24" cy="31" rx="1.9" ry="0.8"/>
<ellipse transform="matrix(5.268448e-02 -0.9986 0.9986 5.268448e-02 -9.9649 55.2384)" class="st5" cx="24.1" cy="32.9" rx="0.8" ry="1.9"/>
<ellipse transform="matrix(0.1071 -0.9942 0.9942 0.1071 -13.1599 55.0186)" class="st5" cx="24.1" cy="34.8" rx="0.7" ry="1.8"/>
<ellipse transform="matrix(0.1633 -0.9866 0.9866 0.1633 -16.5888 54.7435)" class="st5" cx="24" cy="37.2" rx="0.7" ry="1.8"/>
<ellipse transform="matrix(0.2204 -0.9754 0.9754 0.2204 -20.0778 53.8863)" class="st5" cx="23.7" cy="39.5" rx="0.7" ry="1.8"/>
<ellipse transform="matrix(0.28 -0.96 0.96 0.28 -24.2462 54.5182)" class="st5" cx="24.2" cy="43.4" rx="0.7" ry="1.8"/>
<ellipse transform="matrix(0.3355 -0.9421 0.9421 0.3355 -26.9955 51.2251)" class="st5" cx="22.8" cy="44.7" rx="0.7" ry="1.8"/>
<ellipse transform="matrix(0.392 -0.92 0.92 0.392 -30.1644 49.199)" class="st5" cx="22.1" cy="47.4" rx="0.7" ry="1.8"/>
<ellipse transform="matrix(0.4471 -0.8945 0.8945 0.4471 -33.0043 46.769)" class="st5" cx="21.3" cy="50.1" rx="0.7" ry="1.8"/>
<ellipse transform="matrix(0.5 -0.866 0.866 0.5 -35.5869 44.1458)" class="st5" cx="20.4" cy="52.9" rx="0.7" ry="1.8"/>
<ellipse transform="matrix(0.5505 -0.8348 0.8348 0.5505 -37.5832 41.0246)" class="st5" cx="19.3" cy="55.4" rx="0.7" ry="1.8"/>
<ellipse transform="matrix(0.5985 -0.8011 0.8011 0.5985 -39.2388 37.7743)" class="st5" cx="18.1" cy="58" rx="0.7" ry="1.8"/>
<ellipse transform="matrix(0.6427 -0.7662 0.7662 0.6427 -40.3282 34.3294)" class="st5" cx="16.6" cy="60.4" rx="0.7" ry="1.8"/>
<ellipse transform="matrix(0.6838 -0.7297 0.7297 0.6838 -40.8518 30.7312)" class="st5" cx="15" cy="62.5" rx="0.8" ry="1.9"/>
<ellipse transform="matrix(0.721 -0.6929 0.6929 0.721 -41.0005 27.1893)" class="st5" cx="13.3" cy="64.5" rx="0.8" ry="1.9"/>
<rect x="31.1" y="40.1" class="st9" width="5.3" height="5.8"/>
<polygon class="st10" points="36.2,45.7 31.1,45.7 31.1,51 "/>
<rect x="31" y="40.9" class="st10" width="5.3" height="4.3"/>
<polygon class="st10" points="36.4,40.5 31.1,40.5 31.1,39.1 36.4,35.9 "/>
<path class="st1" d="M30.1,51.5l0.2-12.3L26,36.7c0,0-0.8,10.2-1.9,12S30.1,51.5,30.1,51.5z"/>
<polygon class="st11" points="30,51.5 31.3,50.9 31.3,38.3 30,38.3 "/>
<polygon class="st6" points="29.6,52 30.9,51.4 30.9,38.8 29.6,38.8 "/>
<path class="st6" d="M21.2,56.3c0.4-1.1,1.2-2.1,1.7-3.2c0.9-1.7,1.5-3.5,1.8-5.4h0.1c2.6,0,4.9,1.6,5.9,4c-0.2,0.2-0.4,0.5-0.6,0.7
	c-0.4,0.4-1,0.7-1.4,1c-1.1,0.9-2,2-3.2,2.7c-1,0.5-2,0.9-3,1.2c-0.4,0.2-0.9,0.3-1.3,0.4l-0.4-0.1C20.9,57.2,21.1,56.7,21.2,56.3z"
	/>
<path class="st10" d="M21.2,56.3c0.4-1.1,1.2-2.1,1.7-3.2c0.8-1.5,1.4-3.2,1.7-4.9h0.2c2.5,0,4.7,1.6,5.5,3.9
	c-0.1,0.1-0.2,0.2-0.3,0.2c-0.4,0.4-1,0.7-1.4,1c-1.1,0.9-2,2-3.2,2.7c-1,0.5-2,0.9-3,1.2c-0.4,0.2-0.9,0.3-1.3,0.4l-0.4-0.1
	C20.9,57.2,21.1,56.7,21.2,56.3z"/>
<path class="st9" d="M22.9,53.1c0.4-0.7,0.7-1.4,0.9-2.1c1.7-0.5,3.4,0.4,4,2.1c0.1,0.3,0.1,0.6,0.1,0.9c-0.8,0.8-1.6,1.6-2.6,2.2
	c-0.6,0.3-1.2,0.6-1.9,0.8c-0.8-0.4-1.4-1-1.7-1.9C22.2,54.4,22.6,53.8,22.9,53.1z"/>
<polygon class="st1" points="42.7,41.6 37.5,44.5 37.2,34.9 42.7,31.9 "/>
<rect x="36.2" y="35.3" class="st11" width="1.3" height="9.8"/>
<path class="st12" d="M47.6,29c-1.4-0.8-2.9-1.3-4.5-1.6l-0.3,14c0,0,3.5-1.3,5.1-1.2L47.6,29z"/>
<polygon class="st13" points="47.6,29 48.4,29.3 48.4,40 47.6,40 "/>
<path class="st6" d="M48.4,29.3c0.6,0.2,1.2,0.5,1.7,0.9v9.7h-1.7V29.3z"/>
<path class="st1" d="M50.1,30.2c2.7,1.2,5.2,2.9,7.2,5.1v4.6h-7.2V30.2z"/>
<rect x="36.7" y="34.9" class="st6" width="1.3" height="9.8"/>
<rect x="42.3" y="27.4" class="st13" width="0.8" height="13.7"/>
<path class="st14" d="M21.8,57.9c0.7,0,1.3-0.1,1.9-0.4c2.6-1,5.8-3.7,9.5-8.1c4.5-5.3,8.8-7.4,11.7-8.2c2.2-0.6,4.4-0.8,6.7-0.7
	l0.2-0.9c-2.4-0.1-4.7,0.1-7,0.7c-3,0.9-7.6,3-12.2,8.5c-8.3,9.9-11.5,8.1-11.5,8.1l-0.5,0.7C20.9,57.8,21.3,57.9,21.8,57.9z"/>
<path class="st11" d="M42.3,31.4c0,0-10.7,7-11.7,7s-4-2.1-4-2.1v1.2c1.3,0.9,2.7,1.7,4.1,2.4c0.5,0,11.6-7.2,11.6-7.2L42.3,31.4
	L42.3,31.4z"/>
<path class="st10" d="M41.1,28c0,0-9.1,6.7-10.3,6.7s-5-3.3-5-3.3L41.1,28z"/>
<path class="st10" d="M42.3,30.5c0,0-10.7,7.1-11.7,7.1s-4-2.4-4-2.4v1.2c1.3,0.9,2.7,1.7,4.1,2.4c0.5,0,11.6-7,11.6-7L42.3,30.5
	L42.3,30.5z"/>
<path class="st14" d="M26.8,31.8c0,0,0,11.3-2.6,18.8s-9.3,18-11.3,18.9l-1.1-1.1c0,0,4.7-3.9,11.4-18.4C25,42.9,25,46,25.9,31.4
	S26.8,31.8,26.8,31.8z"/>
<path class="st15" d="M35.1,30.5c0,0-3.7,2.7-4.5,2.7s-2.5-1.5-2.5-1.5s5.1-3.4,6.5-2.9c0.5,0.1,0.9,0.7,0.8,1.2
	C35.4,30.2,35.3,30.4,35.1,30.5z"/>
<path class="st16" d="M24.8,17.1c0,0-1.8,1.7-1.3,6.3s0.8,9.1-2.5,7.7s-0.5-4.9,1.5-3c0,0,0-2.2-0.3-5.2S22.2,17.1,24.8,17.1z"/>
<path class="st11" d="M23.1,17.9c0,0-0.5,2.7,0,3.3s0,1.4,0,2.1s-0.7,6.3,3.1,8.3s3.5-0.8,8.2-2.5c0,0,0.7-10.9-2.5-11.8
	C31.9,17.2,25.5,16.6,23.1,17.9z"/>
<path class="st17" d="M38.7,18.6c0,0,1.2,1,1.2,4s1.5,6,3.6,4.9s0-3.2-1.2-1.9c0,0-0.1-1.4-0.1-3.4S41.1,18.1,38.7,18.6z"/>
<path class="st7" d="M37.5,17.9c0,0,1.4,1.2,1.4,4.6s0.8,7,3.2,5.7s0-3.7-1.4-2.2c0,0-0.2-1.7-0.2-3.9S39.4,17.7,37.5,17.9z"/>
<path class="st18" d="M35.9,17.5c0.9,1.9,1.4,4,1.4,6.1c0,3.7,1,6.4,3.6,5s0-4-1.5-2.3c0,0-0.2-1.8-0.2-4.2S38.1,17.3,35.9,17.5z"/>
<path class="st19" d="M34.7,17.3c0,0,1,1.6,1,5.7s0.8,8,3.7,6.4s0-4.4-1.7-2.6c0,0-0.2-2-0.2-4.7S37.1,17.1,34.7,17.3z"/>
<path class="st20" d="M33.1,17.2c0,0,1.8,1.5,1.8,5.9s0.1,8.8,3.1,7.1s0-4.7-1.8-2.8c0,0-0.2-2.1-0.2-5S35.6,16.9,33.1,17.2z"/>
<path class="st16" d="M31.9,17.2c0,0,1.9,1.6,1.9,6.1s0.1,9.1,3.2,7.4s0-4.9-1.8-2.9c0,0-0.2-2.2-0.2-5.2S34.5,16.9,31.9,17.2z"/>
<path class="st1" d="M41.5,19.8c0,0-7.2-4-18.8-1.4L22,16.7c6.6-2.1,13.7-1.6,20,1.3L41.5,19.8z"/>
<path class="st16" d="M26,20.8c-0.5-0.1-1-0.1-1.5-0.1c-0.3,0.1-0.7,0.1-1,0.2c-0.1,0.1-0.3,0.1-0.4,0.2l0,0
	c0.1-0.2,0.2-0.3,0.3-0.4c0.1-0.1,0.3-0.2,0.5-0.2c0.2,0,0.4,0,0.6,0C24.9,20.5,25.5,20.6,26,20.8L26,20.8L26,20.8z"/>
<path class="st16" d="M29.2,20.8c0.5-0.2,1-0.3,1.5-0.3c0.2,0,0.4,0,0.6,0c0.2,0.1,0.3,0.1,0.5,0.2c0.1,0.1,0.2,0.3,0.3,0.4l0,0
	C32,21,31.8,21,31.7,20.9c-0.3-0.1-0.7-0.2-1-0.2C30.2,20.6,29.7,20.6,29.2,20.8L29.2,20.8L29.2,20.8z"/>
<path class="st21" d="M28.2,22.1c0.2,0.1,0.3,0.2,0.5,0.3c0.4,0.2,0.8,0.3,1.3,0.3c0.4,0,0.9-0.1,1.3-0.2l0.6-0.1l0,0l-0.1,0.1
	c-0.1,0.1-0.3,0.2-0.4,0.2c-0.2,0.1-0.4,0.2-0.6,0.2c-0.3,0-0.5,0-0.8,0c-0.5,0-0.9-0.2-1.3-0.4C28.4,22.4,28.3,22.2,28.2,22.1
	L28.2,22.1z"/>
<path class="st21" d="M25.9,22.1c-0.1,0.1-0.2,0.2-0.3,0.3c-0.3,0.2-0.6,0.3-0.9,0.4c-0.2,0-0.4,0-0.6,0c-0.2,0-0.3-0.1-0.5-0.1
	c-0.1-0.1-0.3-0.2-0.4-0.3l0,0h0.5h0.4c0.2,0,0.3,0,0.5,0c0.3,0,0.6-0.1,0.9-0.2c0.1-0.1,0.3-0.1,0.4-0.2L25.9,22.1z"/>
<path class="st21" d="M26.5,21.5c0.1,0.4,0.1,0.9,0.1,1.3c0,0.4,0,0.9-0.1,1.3c0,0.2-0.1,0.5-0.2,0.7c-0.1,0.2-0.2,0.5-0.3,0.7
	c-0.1,0.2-0.1,0.4,0.1,0.5c0.2,0.1,0.4,0.2,0.6,0.3c0.2,0,0.4,0,0.6,0c0.2,0,0.4-0.1,0.5-0.1c0.1-0.1,0.3-0.1,0.4-0.3
	c0.1-0.1,0.1-0.2,0.2-0.3c0-0.1,0.1-0.2,0.1-0.3l0,0c0,0.1,0,0.2,0,0.4c0,0.1-0.1,0.3-0.2,0.4c-0.1,0.2-0.2,0.3-0.4,0.4
	c-0.2,0.1-0.4,0.2-0.6,0.2c-0.2,0-0.5,0-0.8,0c-0.3-0.1-0.5-0.2-0.7-0.4l-0.1-0.2l-0.1-0.2c0-0.2,0-0.3,0.1-0.4
	c0.1-0.3,0.3-0.4,0.4-0.7c0.1-0.2,0.2-0.5,0.2-0.7c0.1-0.4,0.2-0.8,0.2-1.3C26.5,22.4,26.5,22,26.5,21.5L26.5,21.5L26.5,21.5z"/>
<path class="st21" d="M29.4,28c0,0-1,0.1-2.1,0.1c-0.5,0.1-1,0.1-1.4,0c-0.2,0-0.4-0.1-0.7-0.1l0,0c0.2-0.1,0.4-0.1,0.7-0.1
	c0.5-0.1,1-0.1,1.4,0C28.4,27.9,29.4,28,29.4,28L29.4,28z"/>
<path class="st21" d="M27.9,29c0,0-0.4,0.1-0.8,0.1c-0.2,0.1-0.3,0.1-0.5,0c-0.1,0-0.2-0.1-0.2-0.1l0,0c0.1-0.1,0.1-0.1,0.2-0.1
	c0.2-0.1,0.3-0.1,0.5,0C27.5,28.9,27.9,29,27.9,29L27.9,29z"/>
<path class="st1" d="M47.2,87l3.9,5c0,0-7.5,5-9,5.1s-18.7-5.2-18.7-5.2l3.9-6.2L47.2,87z"/>
<path class="st5" d="M27.2,93.1c0,0,2.1-6.8,2.7-7.3s3.3,0.8,3.3,0.8S31,88.8,30,93.9L27.2,93.1z"/>
<path class="st1" d="M57.3,42.2v25.9c-2.5,2.8-6,4.5-9.8,4.8C47.5,72.8,47.4,46.6,57.3,42.2z"/>
<rect x="34.9" y="65.3" class="st6" width="3.3" height="6.1"/>
<rect x="41.5" y="67.4" class="st6" width="3.3" height="6.1"/>
<rect x="31.5" y="67.7" class="st5" width="3.3" height="6.1"/>
<rect x="38.2" y="65.7" class="st5" width="3.3" height="6.1"/>
<rect x="28.3" y="69.6" class="st6" width="3.3" height="6.1"/>
<rect x="25" y="72" class="st5" width="3.3" height="3.8"/>
<polygon class="st7" points="44.8,75.7 44.1,72.9 46.7,72.8 "/>
<path class="st6" d="M48.4,72.7c0,0-1.2-17.1,8.9-30.5v-1.8c0,0-5.9,2.8-9.3,14.5c-3.4,11.7-1.8,17.8-1.8,17.8H48.4L48.4,72.7z"/>
<path class="st8" d="M46.9,72.3c0,0-0.3-11.3,2.5-18s4.7-11.4,8-13.9v-5.1c0,0-5,1-12.1,18.8c-1.8,6-2.6,12.3-2.4,18.7L46.9,72.3z"
	/>
<ellipse class="st5" cx="45.1" cy="72.6" rx="1.9" ry="0.8"/>
<ellipse transform="matrix(5.268448e-02 -0.9986 0.9986 5.268448e-02 -28.0961 112.1299)" class="st5" cx="45.1" cy="70.9" rx="0.8" ry="1.9"/>
<ellipse transform="matrix(0.1071 -0.9942 0.9942 0.1071 -28.2087 106.1967)" class="st5" cx="45" cy="68.8" rx="0.7" ry="1.8"/>
<ellipse transform="matrix(0.1632 -0.9866 0.9866 0.1632 -27.8731 100.2038)" class="st5" cx="45.1" cy="66.5" rx="0.7" ry="1.8"/>
<ellipse transform="matrix(0.2204 -0.9754 0.9754 0.2204 -27.1572 94.2675)" class="st5" cx="45.4" cy="64.1" rx="0.7" ry="1.8"/>
<ellipse transform="matrix(0.278 -0.9606 0.9606 0.278 -26.0973 88.474)" class="st5" cx="45.8" cy="61.6" rx="0.7" ry="1.8"/>
<ellipse transform="matrix(0.3355 -0.9421 0.9421 0.3355 -24.7336 82.755)" class="st5" cx="46.3" cy="58.9" rx="0.7" ry="1.8"/>
<ellipse transform="matrix(0.392 -0.92 0.92 0.392 -23.1807 77.3948)" class="st5" cx="47" cy="56.2" rx="0.7" ry="1.8"/>
<ellipse transform="matrix(0.4468 -0.8946 0.8946 0.4468 -21.4437 72.3042)" class="st5" cx="47.7" cy="53.5" rx="0.7" ry="1.8"/>
<ellipse transform="matrix(0.5 -0.866 0.866 0.5 -19.6455 67.57)" class="st5" cx="48.7" cy="50.8" rx="0.7" ry="1.8"/>
<ellipse transform="matrix(0.5505 -0.8348 0.8348 0.5505 -17.8374 63.2309)" class="st5" cx="49.8" cy="48.2" rx="0.7" ry="1.8"/>
<ellipse transform="matrix(0.5985 -0.8011 0.8011 0.5985 -16.0733 59.2321)" class="st5" cx="51.1" cy="45.7" rx="0.7" ry="1.8"/>
<ellipse transform="matrix(0.6427 -0.7662 0.7662 0.6427 -14.4856 55.7374)" class="st5" cx="52.5" cy="43.4" rx="0.7" ry="1.8"/>
<ellipse transform="matrix(0.6835 -0.7299 0.7299 0.6835 -12.907 52.4957)" class="st5" cx="54.1" cy="41.1" rx="0.8" ry="1.9"/>
<ellipse transform="matrix(0.721 -0.6929 0.6929 0.721 -11.5977 49.6558)" class="st5" cx="55.9" cy="39.2" rx="0.8" ry="1.9"/>
<rect x="32.7" y="57.7" class="st9" width="5.3" height="5.8"/>
<polygon class="st10" points="32.9,58 38,58 38,52.7 "/>
<rect x="32.7" y="58.4" class="st10" width="5.3" height="4.3"/>
<polygon class="st10" points="32.7,63.2 38,63.2 38,64.6 32.7,67.8 "/>
<path class="st1" d="M39,52.2l-0.2,12.3l4.3,2.5c0,0,0.8-10.2,1.9-12S39,52.2,39,52.2z"/>
<polygon class="st11" points="39.1,52.1 37.8,52.8 37.8,65.4 39.1,65.4 "/>
<polygon class="st6" points="39.5,51.7 38.2,52.3 38.2,64.9 39.5,64.9 "/>
<path class="st6" d="M47.9,47.4c-0.4,1.1-1.2,2.1-1.7,3.2c-0.9,1.7-1.5,3.5-1.8,5.4h-0.1c-2.6,0-4.9-1.6-5.9-4
	c0.2-0.2,0.4-0.5,0.6-0.7c0.4-0.4,1-0.7,1.4-1c1.1-0.9,2-2,3.2-2.7c1-0.5,2-0.9,3-1.2c0.4-0.2,0.9-0.3,1.3-0.4l0.4,0.1
	C48.2,46.5,48.1,46.9,47.9,47.4z"/>
<path class="st10" d="M47.9,47.4c-0.4,1.1-1.2,2.1-1.7,3.2c-0.8,1.5-1.4,3.2-1.7,4.9h-0.2c-2.5,0-4.7-1.6-5.5-3.9l0.3-0.2
	c0.4-0.4,1-0.7,1.4-1c1.1-0.9,2-2,3.2-2.7c1-0.5,2-0.9,3-1.2c0.4-0.2,0.9-0.3,1.3-0.4l0.4,0.1C48.2,46.5,48.1,46.9,47.9,47.4z"/>
<path class="st9" d="M46.2,50.6c-0.4,0.7-0.7,1.4-0.9,2.1c-1.7,0.5-3.4-0.4-4-2.1c-0.1-0.3-0.1-0.6-0.1-0.9c0.8-0.8,1.6-1.6,2.6-2.2
	c0.6-0.3,1.2-0.6,1.9-0.8c0.8,0.4,1.4,1,1.7,1.9C46.9,49.3,46.5,49.9,46.2,50.6z"/>
<polygon class="st1" points="26.5,62.1 31.6,59.1 31.9,68.8 26.5,71.8 "/>
<rect x="31.6" y="58.6" class="st11" width="1.3" height="9.8"/>
<path class="st12" d="M21.5,74.7c1.4,0.8,3,1.3,4.5,1.6l0.3-14c0,0-3.5,1.3-5.1,1.2L21.5,74.7z"/>
<polygon class="st13" points="21.5,74.7 20.7,74.4 20.7,63.6 21.5,63.6 "/>
<path class="st6" d="M20.7,74.4c-0.6-0.2-1.2-0.5-1.7-0.9v-9.7h1.7V74.4z"/>
<rect x="31.1" y="59" class="st6" width="1.3" height="9.8"/>
<rect x="26" y="62.6" class="st13" width="0.8" height="13.7"/>
<path class="st14" d="M47.4,45.8c-0.7,0-1.3,0.2-1.9,0.4c-2.6,1-5.8,3.7-9.5,8.1c-4.5,5.3-8.8,7.4-11.7,8.2
	c-2.1,0.5-4.4,0.7-6.5,0.5l-0.2,0.9c2.3,0.3,4.6,0.1,6.9-0.5c3-0.9,7.6-3,12.2-8.5c8.3-9.9,11.5-8.1,11.5-8.1l0.5-0.7
	C48.2,45.9,47.8,45.8,47.4,45.8z"/>
<path class="st11" d="M26.8,72.3c0,0,10.7-7,11.7-7s4,2.1,4,2.1v-1.2c-1.3-0.9-2.7-1.7-4.1-2.4C38,63.8,26.8,71,26.8,71L26.8,72.3
	L26.8,72.3z"/>
<path class="st10" d="M28.1,75.7c0,0,9.1-6.7,10.3-6.7s5,3.3,5,3.3L28.1,75.7z"/>
<path class="st10" d="M26.8,73.2c0,0,10.7-7.1,11.7-7.1s4,2.4,4,2.4v-1.2c-1.3-0.9-2.7-1.7-4.1-2.4c-0.5,0-11.6,7-11.6,7L26.8,73.2
	L26.8,73.2z"/>
<path class="st14" d="M42.3,71.9c0,0,0-11.3,2.6-18.8s8.7-17.8,11.4-18.8l0.9,1c-2.3,1.2-10,12.7-11.4,18.4
	c-1.8,7.2-1.8,4.1-2.7,18.7C42.4,87,42.3,71.9,42.3,71.9z"/>
<path class="st15" d="M34,73.2c0,0,3.7-2.7,4.5-2.7S41,72,41,72s-5.1,3.4-6.5,2.9c-0.5-0.1-0.9-0.7-0.8-1.2
	C33.7,73.5,33.8,73.3,34,73.2z"/>
<path class="st16" d="M44.3,86.5c0,0,1.8-1.7,1.3-6.3s-0.8-9.1,2.5-7.7s0.5,4.9-1.5,3c0,0,0,2.2,0.3,5.2S46.9,86.6,44.3,86.5z"/>
<path class="st11" d="M46.1,85.8c0,0,0.5-2.7,0-3.3s0-1.4,0-2.1s0.7-6.3-3.1-8.3s-3.5,0.8-8.2,2.5c0,0-0.7,10.9,2.5,11.8
	C37.2,86.5,43.6,87.1,46.1,85.8z"/>
<path class="st17" d="M30.5,85.1c0,0-1.2-1-1.2-4s-1.5-6-3.6-4.9s0,3.2,1.2,1.9c0,0,0.1,1.4,0.1,3.4S28.1,85.6,30.5,85.1z"/>
<path class="st7" d="M31.6,85.8c0,0-1.4-1.2-1.4-4.6s-0.8-7-3.2-5.7s0,3.7,1.4,2.2c0,0,0.2,1.7,0.2,3.9S29.7,86,31.6,85.8z"/>
<path class="st18" d="M33.2,86.2c-0.9-1.9-1.4-4-1.4-6.1c0-3.7-1-6.4-3.6-5s0,4,1.5,2.3c0,0,0.2,1.8,0.2,4.2S31.1,86.4,33.2,86.2z"
	/>
<path class="st19" d="M34.4,86.3c0,0-1-1.6-1-5.7s-0.8-8-3.7-6.4s0,4.5,1.7,2.6c0,0,0.2,2,0.2,4.7S32.1,86.6,34.4,86.3z"/>
<path class="st20" d="M36.1,86.5c0,0-1.8-1.5-1.8-5.9s-0.1-8.8-3.1-7.1s0,4.7,1.8,2.8c0,0,0.2,2.1,0.2,5S33.6,86.8,36.1,86.5z"/>
<path class="st16" d="M37.2,86.5c0,0-1.9-1.6-1.9-6.1s-0.1-9.1-3.2-7.4s0,4.9,1.8,2.9c0,0,0.2,2.2,0.2,5.2S34.6,86.8,37.2,86.5z"/>
<path class="st1" d="M27.6,83.9c0,0,7.2,4,18.8,1.4l0.7,1.7c-6.6,2.1-13.7,1.6-20-1.3L27.6,83.9z"/>
<path class="st16" d="M43.2,82.9c0.5,0.1,1,0.1,1.5,0.1c0.3-0.1,0.7-0.1,1-0.2c0.1-0.1,0.3-0.1,0.4-0.2l0,0
	c-0.1,0.2-0.2,0.3-0.3,0.4c-0.1,0.1-0.3,0.2-0.5,0.2c-0.2,0-0.4,0-0.6,0C44.2,83.1,43.7,83,43.2,82.9L43.2,82.9L43.2,82.9z"/>
<path class="st16" d="M40,82.9c-0.5,0.2-1,0.3-1.5,0.3c-0.2,0-0.4,0-0.6,0c-0.2-0.1-0.3-0.1-0.5-0.2c-0.1-0.1-0.2-0.3-0.3-0.4l0,0
	c0.1,0.1,0.3,0.1,0.4,0.2c0.3,0.1,0.7,0.2,1,0.2C39,83.1,39.5,83,40,82.9L40,82.9L40,82.9z"/>
<path class="st21" d="M41,81.6c-0.2-0.1-0.3-0.2-0.5-0.3C40,81.1,39.6,81,39.1,81c-0.4,0-0.9,0.1-1.3,0.2l-0.6,0.1l0,0l0.1-0.1
	c0.1-0.1,0.3-0.2,0.4-0.2c0.2-0.1,0.4-0.2,0.6-0.2c0.3,0,0.5,0,0.8,0c0.5,0,0.9,0.2,1.3,0.4C40.7,81.3,40.8,81.5,41,81.6L41,81.6z"
	/>
<path class="st21" d="M43.2,81.6c0.1-0.1,0.2-0.2,0.3-0.3c0.3-0.2,0.6-0.3,0.9-0.4c0.2,0,0.4,0,0.6,0c0.2,0,0.3,0.1,0.5,0.1
	c0.1,0.1,0.3,0.2,0.4,0.3l0,0h-0.5H45c-0.2,0-0.3,0-0.5,0c-0.3,0-0.6,0.1-0.9,0.2c-0.1,0.1-0.3,0.1-0.4,0.2L43.2,81.6z"/>
<path class="st21" d="M42.6,82.1c-0.1-0.4-0.1-0.9-0.1-1.3c0-0.4,0-0.9,0.1-1.3c0-0.2,0.1-0.5,0.2-0.7c0.1-0.2,0.2-0.5,0.3-0.7
	c0.1-0.2,0.1-0.4-0.1-0.5c-0.2-0.1-0.4-0.2-0.6-0.3c-0.2,0-0.4,0-0.6,0c-0.2,0-0.4,0.1-0.5,0.1c-0.1,0.1-0.3,0.1-0.4,0.3
	c-0.1,0.1-0.2,0.2-0.2,0.3c0,0.1-0.1,0.2-0.1,0.3l0,0c0-0.1,0-0.2,0-0.4c0-0.1,0.1-0.3,0.2-0.4c0.1-0.2,0.2-0.3,0.4-0.4
	c0.2-0.1,0.4-0.2,0.6-0.2c0.2,0,0.5,0,0.8,0c0.3,0.1,0.5,0.2,0.7,0.4l0.1,0.2l0.1,0.2c0,0.2,0,0.3-0.1,0.4c-0.1,0.3-0.3,0.4-0.4,0.7
	c-0.1,0.2-0.2,0.5-0.2,0.7c-0.1,0.4-0.2,0.8-0.2,1.3C42.6,81.3,42.6,81.7,42.6,82.1L42.6,82.1L42.6,82.1z"/>
<path class="st21" d="M39.7,75.7c0,0,1-0.1,2.1-0.1c0.5-0.1,1-0.1,1.4,0c0.2,0,0.4,0.1,0.7,0.1l0,0c-0.2,0.1-0.4,0.1-0.7,0.1
	c-0.5,0.1-1,0.1-1.4,0C40.8,75.8,39.7,75.7,39.7,75.7L39.7,75.7z"/>
<path class="st21" d="M41.2,74.7c0,0,0.4-0.1,0.8-0.1c0.2-0.1,0.3-0.1,0.5,0c0.1,0,0.2,0.1,0.2,0.1l0,0c-0.1,0.1-0.1,0.1-0.2,0.1
	c-0.2,0.1-0.3,0.1-0.5,0C41.6,74.8,41.2,74.7,41.2,74.7L41.2,74.7z"/>
</svg>
