<svg id="Objects" xmlns="http://www.w3.org/2000/svg" viewBox="0 0 69.12 103.69"><defs><style>.cls-1{fill:#f2f2f2;}.cls-2{font-size:10.89px;font-family:ChunkFive;}.cls-2,.cls-3{fill:#333;}.cls-4{fill:#4d4d4d;}.cls-5{fill:#0b050f;}.cls-6{fill:#aa292e;}.cls-7{fill:#3856c8;}.cls-8{fill:#bf9b4d;}.cls-9{fill:#e8efff;}.cls-10{fill:#c9d8f7;}.cls-11{fill:#715c57;}.cls-12{fill:#aa7941;}.cls-13{fill:#e6e6e6;}.cls-14{fill:#666;}.cls-15{fill:gray;}.cls-16{fill:#999;}.cls-17{fill:#b3b3b3;}.cls-18{fill:#ccc;}.cls-19{fill:#2a3757;}</style></defs><title>K</title><rect class="cls-1" width="69.12" height="103.69" rx="2.72" ry="2.72"/><text class="cls-2" transform="translate(4.46 10.45)">K</text><text class="cls-2" transform="translate(64.66 93.23) rotate(180)">K</text><path class="cls-3" d="M622.72,643a1.79,1.79,0,0,1,2.15-1.73,2,2,0,0,1,1.28.83c0.31,0.38.39,0.13,0.35-.12a2.37,2.37,0,0,0-1.71-2.12c-0.1,0-.51-0.12-0.13-0.12h3.91c0.38,0,0,.09-0.13.13a2.37,2.37,0,0,0-1.71,2.12c0,0.25,0,.5.34,0.12a2,2,0,0,1,1.28-.83,1.79,1.79,0,0,1,2.15,1.73h0a1.71,1.71,0,0,1-1.62,1.77,1,1,0,0,0-.63,0c-0.2.19,0.08,0.33,0.1,0.77h0a1.58,1.58,0,0,1-1.47,1.69h0l-0.25,0a2.64,2.64,0,0,1-.29,0h0a1.58,1.58,0,0,1-1.47-1.69h0c0-.43.29-0.57,0.1-0.77a1,1,0,0,0-.63,0,1.71,1.71,0,0,1-1.62-1.77h0Z" transform="translate(-564.94 -556.11)"/><path class="cls-4" d="M626.63,647.31h0l0.25,0h0a1.58,1.58,0,0,0,1.47-1.69h0c0-.43-0.29-0.57-0.1-0.77a1,1,0,0,1,.63,0,1.71,1.71,0,0,0,1.62-1.77h0a1.79,1.79,0,0,0-2.15-1.73,2,2,0,0,0-1.28.83c-0.31.38-.39,0.13-0.34-0.12a2.37,2.37,0,0,1,1.71-2.12c0.1,0,.51-0.12.13-0.12h-1.95v7.55Z" transform="translate(-564.94 -556.11)"/><path class="cls-3" d="M576.19,572.87a1.79,1.79,0,0,1-2.15,1.73,2,2,0,0,1-1.28-.83c-0.31-.38-0.39-0.13-0.34.12a2.37,2.37,0,0,0,1.71,2.12c0.1,0,.51.13,0.13,0.13h-3.91c-0.38,0,0-.09.13-0.12a2.37,2.37,0,0,0,1.71-2.12c0-.25,0-0.5-0.34-0.12a2.05,2.05,0,0,1-1.28.83,1.8,1.8,0,0,1-2.15-1.73h0A1.71,1.71,0,0,1,570,571.1a1,1,0,0,0,.63,0c0.2-.19-0.08-0.33-0.1-0.76h0a1.58,1.58,0,0,1,1.47-1.68h0l0.25,0a2.19,2.19,0,0,1,.29,0h0A1.58,1.58,0,0,1,574,570.3h0c0,0.43-.29.57-0.1,0.76a1,1,0,0,0,.63,0,1.71,1.71,0,0,1,1.62,1.77h0Z" transform="translate(-564.94 -556.11)"/><path class="cls-4" d="M572.29,568.59h0l-0.25,0h0a1.58,1.58,0,0,0-1.47,1.68h0c0,0.43.29,0.57,0.1,0.76a1,1,0,0,1-.63,0,1.71,1.71,0,0,0-1.62,1.77h0a1.8,1.8,0,0,0,2.15,1.73,2.05,2.05,0,0,0,1.28-.83c0.31-.38.39-0.13,0.34,0.12a2.37,2.37,0,0,1-1.71,2.12c-0.1,0-.51.13-0.13,0.13h1.95v-7.55Z" transform="translate(-564.94 -556.11)"/><path class="cls-3" d="M616.42,631.52a22.15,22.15,0,0,0,7.83-5.56v-5h-7.83v10.58Z" transform="translate(-564.94 -556.11)"/><path class="cls-3" d="M624.24,618.44V590.29a16,16,0,0,0-10.64-5.18S613.47,613.63,624.24,618.44Z" transform="translate(-564.94 -556.11)"/><rect class="cls-5" x="34.9" y="30.55" width="3.62" height="6.65"/><rect class="cls-5" x="42.16" y="28.25" width="3.62" height="6.65"/><rect class="cls-6" x="31.25" y="27.91" width="3.62" height="6.65"/><rect class="cls-6" x="38.53" y="30.07" width="3.62" height="6.65"/><rect class="cls-5" x="27.75" y="25.9" width="3.62" height="6.65"/><rect class="cls-6" x="24.1" y="25.77" width="3.62" height="4.14"/><path class="cls-5" d="M614.57,585.22s-1.27,18.63,9.67,33.23l0,1.94s-6.44-3-10.1-15.79-2-19.38-2-19.38h2.45Z" transform="translate(-564.94 -556.11)"/><path class="cls-1" d="M612.9,585.63s-0.34,12.26,2.69,19.6,5.13,12.35,8.66,15.12V626s-9.94-9.61-13.2-20.43a64,64,0,0,1-2.65-20.29Z" transform="translate(-564.94 -556.11)"/><ellipse class="cls-6" cx="46.06" cy="29.2" rx="2.08" ry="0.83"/><ellipse class="cls-6" cx="610.89" cy="587.25" rx="2.04" ry="0.82" transform="translate(-595.01 -523.13) rotate(-3.02)"/><ellipse class="cls-6" cx="610.9" cy="589.46" rx="2" ry="0.8" transform="translate(-624.63 -487.19) rotate(-6.16)"/><ellipse class="cls-6" cx="611.04" cy="591.91" rx="1.97" ry="0.79" transform="translate(-653.42 -448.35) rotate(-9.4)"/><ellipse class="cls-6" cx="611.32" cy="594.54" rx="1.95" ry="0.78" transform="translate(-680.82 -406.95) rotate(-12.72)"/><ellipse class="cls-6" cx="611.73" cy="597.32" rx="1.93" ry="0.77" transform="translate(-706.77 -362.71) rotate(-16.12)"/><ellipse class="cls-6" cx="612.29" cy="600.2" rx="1.92" ry="0.77" transform="translate(-730.76 -316.03) rotate(-19.59)"/><ellipse class="cls-6" cx="613" cy="603.14" rx="1.92" ry="0.77" transform="translate(-752.26 -267.65) rotate(-23.07)"/><ellipse class="cls-6" cx="613.87" cy="606.09" rx="1.92" ry="0.77" transform="translate(-771.16 -217.68) rotate(-26.56)"/><ellipse class="cls-6" cx="614.9" cy="609.02" rx="1.93" ry="0.77" transform="translate(-787.12 -166.86) rotate(-30.01)"/><ellipse class="cls-6" cx="616.09" cy="611.87" rx="1.95" ry="0.78" transform="translate(-800.03 -115.84) rotate(-33.4)"/><ellipse class="cls-6" cx="617.46" cy="614.61" rx="1.97" ry="0.79" transform="translate(-809.96 -64.51) rotate(-36.75)"/><ellipse class="cls-6" cx="619.02" cy="617.19" rx="2" ry="0.8" transform="translate(-816.82 -14.01) rotate(-39.99)"/><ellipse class="cls-6" cx="620.75" cy="619.57" rx="2.04" ry="0.81" transform="translate(-820.79 35.95) rotate(-43.15)"/><ellipse class="cls-6" cx="622.68" cy="621.7" rx="2.08" ry="0.83" transform="translate(-821.98 84.06) rotate(-46.16)"/><rect class="cls-7" x="32.52" y="39.04" width="5.76" height="6.37"/><polygon class="cls-8" points="32.77 45.14 38.28 45.14 38.28 50.91 32.77 45.14"/><rect class="cls-8" x="32.57" y="39.92" width="5.81" height="4.73"/><polygon class="cls-8" points="32.57 39.5 38.28 39.5 38.28 37.96 32.57 34.5 32.57 39.5"/><path class="cls-3" d="M604.33,607.57l-0.22-13.4,4.72-2.67s0.93,11.1,2.05,13.09S604.33,607.57,604.33,607.57Z" transform="translate(-564.94 -556.11)"/><polygon class="cls-9" points="39.48 51.51 38.07 50.81 38.07 37.09 39.48 37.09 39.48 51.51"/><polygon class="cls-5" points="39.93 52.03 38.52 51.33 38.52 37.62 39.93 37.62 39.93 52.03"/><path class="cls-5" d="M614,612.79c-0.48-1.2-1.28-2.31-1.88-3.46a19.15,19.15,0,0,1-2-5.91H610.1a6.89,6.89,0,0,0-6.4,4.34,6.64,6.64,0,0,0,.69.72c0.48,0.41,1.05.73,1.55,1.11,1.22,0.94,2.16,2.23,3.52,3a24,24,0,0,0,3.22,1.34,12.72,12.72,0,0,0,1.44.46l0.44-.06C614.39,613.78,614.23,613.27,614,612.79Z" transform="translate(-564.94 -556.11)"/><path class="cls-8" d="M614,612.79c-0.48-1.2-1.28-2.31-1.88-3.46a19.46,19.46,0,0,1-1.89-5.37H610.1a6.35,6.35,0,0,0-6,4.25l0.28,0.27c0.48,0.41,1.05.73,1.55,1.11,1.22,0.94,2.16,2.23,3.52,3a24,24,0,0,0,3.22,1.34,12.72,12.72,0,0,0,1.44.46l0.44-.06C614.39,613.78,614.23,613.27,614,612.79Z" transform="translate(-564.94 -556.11)"/><path class="cls-7" d="M612.17,609.33a21.08,21.08,0,0,1-1-2.3,3.39,3.39,0,0,0-1-.16,3.44,3.44,0,0,0-3.43,3.33,14.49,14.49,0,0,0,2.8,2.35,16.86,16.86,0,0,0,2,.9,3.44,3.44,0,0,0,1.86-2C613,610.71,612.53,610,612.17,609.33Z" transform="translate(-564.94 -556.11)"/><polygon class="cls-3" points="25.74 40.64 31.37 43.89 31.66 33.4 25.74 30.14 25.74 40.64"/><rect class="cls-9" x="31.37" y="33.87" width="1.4" height="10.62"/><path class="cls-10" d="M585.31,583.05a16.3,16.3,0,0,1,4.93-1.71l0.3,15.22s-3.84-1.42-5.56-1.36Z" transform="translate(-564.94 -556.11)"/><polygon class="cls-11" points="20.37 26.95 19.5 27.28 19.5 38.99 20.37 38.99 20.37 26.95"/><path class="cls-5" d="M584.44,583.39a11.3,11.3,0,0,0-1.85,1v10.58h1.85V583.39Z" transform="translate(-564.94 -556.11)"/><path class="cls-3" d="M582.58,584.36a22.15,22.15,0,0,0-7.83,5.56v5h7.83V584.36Z" transform="translate(-564.94 -556.11)"/><rect class="cls-5" x="30.85" y="33.4" width="1.4" height="10.62"/><rect class="cls-11" x="25.3" y="25.23" width="0.87" height="14.93"/><path class="cls-12" d="M613.43,614.53a5.88,5.88,0,0,1-2.07-.43C608.5,613,605,610,601,605.25c-4.85-5.77-9.62-8.06-12.77-9a25.69,25.69,0,0,0-7.29-.8l-0.17-.94a25.87,25.87,0,0,1,7.66.8c3.29,0.94,8.27,3.31,13.3,9.29,9,10.76,12.5,8.8,12.53,8.78l0.54,0.79A2.41,2.41,0,0,1,613.43,614.53Z" transform="translate(-564.94 -556.11)"/><path class="cls-9" d="M591.11,585.64s11.66,7.61,12.76,7.61,4.41-2.31,4.41-2.31v1.35s-4,2.66-4.5,2.66-12.67-7.87-12.67-7.87v-1.42Z" transform="translate(-564.94 -556.11)"/><path class="cls-8" d="M592.42,582s9.86,7.25,11.25,7.25,5.46-3.62,5.46-3.62Z" transform="translate(-564.94 -556.11)"/><path class="cls-8" d="M591.11,584.72s11.66,7.74,12.76,7.74,4.41-2.61,4.41-2.61v1.3s-4,2.58-4.5,2.58-12.67-7.63-12.67-7.63v-1.38Z" transform="translate(-564.94 -556.11)"/><path class="cls-12" d="M608,586.16s0,12.3,2.85,20.42,10.12,19.53,12.25,20.57l1.18-1.19s-5.1-4.2-12.39-20c-1.9-7.81-2-4.43-2.88-20.34S608,586.16,608,586.16Z" transform="translate(-564.94 -556.11)"/><path class="cls-3" d="M574.76,597.43v28.15a16,16,0,0,0,10.64,5.18S585.53,602.25,574.76,597.43Z" transform="translate(-564.94 -556.11)"/><rect class="cls-5" x="30.6" y="66.46" width="3.62" height="6.65"/><rect class="cls-5" x="23.33" y="68.75" width="3.62" height="6.65"/><rect class="cls-6" x="34.25" y="69.1" width="3.62" height="6.65"/><rect class="cls-6" x="26.97" y="66.93" width="3.62" height="6.65"/><rect class="cls-5" x="37.75" y="71.1" width="3.62" height="6.65"/><rect class="cls-6" x="41.4" y="73.74" width="3.62" height="4.14"/><path class="cls-5" d="M584.43,630.66s1.27-18.63-9.67-33.23c0-1.29,0-1.94,0-1.94s6.44,3,10.1,15.79,2,19.38,2,19.38h-2.45Z" transform="translate(-564.94 -556.11)"/><path class="cls-1" d="M586.1,630.24s0.33-12.26-2.69-19.6-5.13-12.35-8.66-15.12v-5.6S580.2,591,588,610.35a64,64,0,0,1,2.65,20.29Z" transform="translate(-564.94 -556.11)"/><ellipse class="cls-6" cx="23.06" cy="74.46" rx="2.08" ry="0.83"/><ellipse class="cls-6" cx="588.11" cy="628.63" rx="2.04" ry="0.81" transform="translate(-597.23 -524.27) rotate(-3.02)"/><ellipse class="cls-6" cx="588.1" cy="626.41" rx="2" ry="0.8" transform="translate(-628.71 -489.44) rotate(-6.16)"/><ellipse class="cls-6" cx="587.95" cy="623.97" rx="1.97" ry="0.79" transform="translate(-658.96 -451.7) rotate(-9.4)"/><ellipse class="cls-6" cx="587.68" cy="621.33" rx="1.95" ry="0.78" transform="translate(-687.29 -411.52) rotate(-12.72)"/><ellipse class="cls-6" cx="587.27" cy="618.55" rx="1.93" ry="0.77" transform="translate(-713.62 -368.69) rotate(-16.12)"/><ellipse class="cls-6" cx="586.71" cy="615.67" rx="1.92" ry="0.77" transform="translate(-737.54 -323.48) rotate(-19.61)"/><ellipse class="cls-6" cx="586" cy="612.73" rx="1.92" ry="0.77" transform="translate(-758.33 -277.12) rotate(-23.1)"/><ellipse class="cls-6" cx="585.13" cy="609.78" rx="1.92" ry="0.77" transform="translate(-775.96 -229.8) rotate(-26.58)"/><ellipse class="cls-6" cx="584.1" cy="606.86" rx="1.93" ry="0.77" transform="translate(-790.07 -182.9) rotate(-29.99)"/><ellipse class="cls-6" cx="582.9" cy="604" rx="1.95" ry="0.78" transform="translate(-801.25 -135.09) rotate(-33.43)"/><ellipse class="cls-6" cx="581.53" cy="601.26" rx="1.97" ry="0.79" transform="translate(-809.1 -88.74) rotate(-36.74)"/><ellipse class="cls-6" cx="579.98" cy="598.68" rx="2" ry="0.8" transform="translate(-814.05 -43.45) rotate(-39.99)"/><ellipse class="cls-6" cx="578.25" cy="596.31" rx="2.04" ry="0.82" transform="translate(-816.37 0.46) rotate(-43.14)"/><ellipse class="cls-6" cx="576.32" cy="594.17" rx="2.08" ry="0.83" transform="translate(-816.37 42.18) rotate(-46.16)"/><rect class="cls-7" x="30.84" y="58.25" width="5.76" height="6.37"/><polygon class="cls-8" points="36.35 58.52 30.84 58.52 30.84 52.74 36.35 58.52"/><rect class="cls-8" x="30.74" y="59.01" width="5.81" height="4.73"/><polygon class="cls-8" points="36.55 64.15 30.84 64.15 30.84 65.69 36.55 69.15 36.55 64.15"/><path class="cls-3" d="M594.67,608.3l0.22,13.4-4.72,2.67s-0.93-11.1-2.05-13.1S594.67,608.3,594.67,608.3Z" transform="translate(-564.94 -556.11)"/><polygon class="cls-9" points="29.65 52.15 31.05 52.84 31.05 66.56 29.65 66.56 29.65 52.15"/><polygon class="cls-5" points="29.19 51.62 30.6 52.32 30.6 66.04 29.19 66.04 29.19 51.62"/><path class="cls-5" d="M585,603.08c0.48,1.2,1.28,2.31,1.88,3.46a19.12,19.12,0,0,1,2,5.91h0.09a6.89,6.89,0,0,0,6.4-4.34,6.65,6.65,0,0,0-.69-0.72c-0.48-.41-1.05-0.73-1.55-1.11-1.22-.94-2.15-2.23-3.52-3a24.1,24.1,0,0,0-3.22-1.34,12.72,12.72,0,0,0-1.44-.46l-0.44.06C584.61,602.09,584.76,602.61,585,603.08Z" transform="translate(-564.94 -556.11)"/><path class="cls-8" d="M585,603.08c0.48,1.2,1.28,2.31,1.88,3.46a19.43,19.43,0,0,1,1.89,5.36h0.18a6.35,6.35,0,0,0,6-4.25l-0.28-.27c-0.48-.41-1.05-0.73-1.55-1.11-1.22-.94-2.15-2.23-3.52-3a24.1,24.1,0,0,0-3.22-1.34,12.72,12.72,0,0,0-1.44-.46l-0.44.06C584.61,602.09,584.76,602.61,585,603.08Z" transform="translate(-564.94 -556.11)"/><path class="cls-7" d="M586.83,606.54a20.7,20.7,0,0,1,1,2.3,3.43,3.43,0,0,0,4.47-3.17,14.62,14.62,0,0,0-2.8-2.35,17.26,17.26,0,0,0-2-.9,3.45,3.45,0,0,0-1.86,2C586,605.16,586.47,605.85,586.83,606.54Z" transform="translate(-564.94 -556.11)"/><polygon class="cls-3" points="43.39 63.01 37.75 59.76 37.47 70.26 43.39 73.52 43.39 63.01"/><rect class="cls-9" x="36.35" y="59.16" width="1.4" height="10.62"/><path class="cls-10" d="M613.69,632.82a16.26,16.26,0,0,1-4.93,1.71l-0.3-15.21s3.84,1.42,5.56,1.36Z" transform="translate(-564.94 -556.11)"/><polygon class="cls-11" points="48.75 76.71 49.62 76.38 49.62 64.67 48.75 64.67 48.75 76.71"/><path class="cls-5" d="M614.56,632.49a11.21,11.21,0,0,0,1.85-1V620.94h-1.85v11.55Z" transform="translate(-564.94 -556.11)"/><rect class="cls-5" x="36.87" y="59.63" width="1.4" height="10.62"/><rect class="cls-11" x="42.95" y="63.49" width="0.87" height="14.93"/><path class="cls-12" d="M585.57,601.34a5.88,5.88,0,0,1,2.07.43c2.85,1.08,6.34,4.06,10.37,8.85,4.85,5.77,9.62,8.06,12.77,9a20.23,20.23,0,0,0,7.13.52l0.17,0.94a20.89,20.89,0,0,1-7.49-.53c-3.29-.94-8.27-3.31-13.29-9.29-9-10.76-12.5-8.8-12.53-8.78l-0.54-.79A2.41,2.41,0,0,1,585.57,601.34Z" transform="translate(-564.94 -556.11)"/><path class="cls-9" d="M607.89,630.23s-11.66-7.61-12.76-7.61-4.41,2.31-4.41,2.31v-1.35s4-2.66,4.5-2.66,12.66,7.87,12.66,7.87v1.42Z" transform="translate(-564.94 -556.11)"/><path class="cls-8" d="M606.59,633.88s-9.86-7.24-11.25-7.24-5.45,3.62-5.45,3.62Z" transform="translate(-564.94 -556.11)"/><path class="cls-8" d="M607.89,631.15s-11.66-7.73-12.76-7.73-4.41,2.61-4.41,2.61v-1.3s4-2.57,4.5-2.57,12.66,7.63,12.66,7.63v1.38Z" transform="translate(-564.94 -556.11)"/><path class="cls-12" d="M591,629.72s0-12.3-2.85-20.42-9.46-19.41-12.41-20.41l-1,1c2.55,1.29,10.84,13.84,12.39,20,1.9,7.81,2,4.43,2.88,20.34S591,629.72,591,629.72Z" transform="translate(-564.94 -556.11)"/><path class="cls-13" d="M609.39,569.1s-0.63,5.83,0,7,1.82,3.84,1.82,3.84-2.59-.94-2.65,1.74,2.13,2.53,2.93,2.53,3.1-.94,1.59-4.64-1.78-2.22-2-4.9a36.22,36.22,0,0,1,0-5.44Z" transform="translate(-564.94 -556.11)"/><path class="cls-1" d="M610.21,567.38s-0.63,5.84,0,7,1.82,3.84,1.82,3.84-2.59-.94-2.65,1.74,2.13,2.53,2.93,2.53,3.1-.94,1.59-4.64-1.78-2.22-2-4.9a36.07,36.07,0,0,1,0-5.44Z" transform="translate(-564.94 -556.11)"/><path class="cls-13" d="M611.31,575.78s4.47,17-5.68,17-9-13-5.78-17.58S611.31,575.78,611.31,575.78Z" transform="translate(-564.94 -556.11)"/><path class="cls-9" d="M611.09,568.68s0.75,2.84.3,3.74,0,2.46-.08,3.36-1.3,2.43-4,.62c0,0-6.85,3.66-6.91-1.06a56,56,0,0,1,.28-7.25S609,567.16,611.09,568.68Z" transform="translate(-564.94 -556.11)"/><path class="cls-14" d="M592.5,566.59s0.63,5.84,0,7-1.82,3.84-1.82,3.84,2.59-.94,2.65,1.74-2.13,2.53-2.93,2.53-3.1-.94-1.59-4.64,1.78-2.22,2-4.9a36.22,36.22,0,0,0,0-5.44Z" transform="translate(-564.94 -556.11)"/><path class="cls-15" d="M593.3,567.38s0.63,5.84,0,7-1.82,3.84-1.82,3.84,2.59-.94,2.65,1.74-2.13,2.53-2.93,2.53-3.1-.94-1.59-4.64,1.78-2.22,2-4.9a36.24,36.24,0,0,0,0-5.44Z" transform="translate(-564.94 -556.11)"/><path class="cls-16" d="M594.46,568.21s0.63,5.83,0,7-1.82,3.84-1.82,3.84,2.59-.94,2.65,1.74-2.13,2.53-2.93,2.53-3.1-.94-1.59-4.64,1.78-2.22,2-4.9a36.24,36.24,0,0,0,0-5.44Z" transform="translate(-564.94 -556.11)"/><path class="cls-17" d="M596.16,568.46s0.63,5.84,0,7-1.82,3.84-1.82,3.84,2.59-.94,2.65,1.74-2.13,2.53-2.93,2.53-3.1-.94-1.59-4.64,1.78-2.22,2-4.9a36.22,36.22,0,0,0,0-5.44Z" transform="translate(-564.94 -556.11)"/><path class="cls-18" d="M597.81,568.21s0.63,5.83,0,7-1.82,3.84-1.82,3.84,2.59-.94,2.65,1.74-2.13,2.53-2.93,2.53-3.1-.94-1.59-4.64,1.78-2.22,2-4.9a36.22,36.22,0,0,0,0-5.44Z" transform="translate(-564.94 -556.11)"/><path class="cls-13" d="M599.49,568s0.63,5.84,0,7-1.82,3.84-1.82,3.84,2.59-.94,2.65,1.74-2.14,2.53-2.93,2.53-3.1-.94-1.59-4.64,1.78-2.22,2-4.9a36.21,36.21,0,0,0,0-5.44Z" transform="translate(-564.94 -556.11)"/><path class="cls-1" d="M601,567.67s0.63,5.83,0,7-1.82,3.84-1.82,3.84,2.59-.94,2.65,1.74-2.13,2.54-2.93,2.54-3.1-.94-1.59-4.64,1.78-2.22,2-4.9a36.24,36.24,0,0,0,0-5.44Z" transform="translate(-564.94 -556.11)"/><path class="cls-1" d="M607.34,576.4s2.74,0.24,3.73,1.91a3.16,3.16,0,0,1-3.57.36,8.22,8.22,0,0,1-4.59.28A6.25,6.25,0,0,1,607.34,576.4Z" transform="translate(-564.94 -556.11)"/><path class="cls-8" d="M589.29,560.71l3.34-.7,0.67,3.25c0.84-.2,1.73-0.36,2.64-0.49l-0.38-3.09,3.54-.43,0.39,3.16c1-.07,2-0.11,3-0.13V559h3.61v3.24c1.1,0,2.08.06,2.91,0.1l0.55-3.26,3.89,0.65-1.31,7.81-0.72-.12v0.35l-19.44.75,0-.31-1,.21Z" transform="translate(-564.94 -556.11)"/><path class="cls-5" d="M611.9,568.91a61.55,61.55,0,0,0-21,1.07l-0.1-1.76s13.77-3.21,21.37-.83Z" transform="translate(-564.94 -556.11)"/><path class="cls-15" d="M608.44,571.33a4.34,4.34,0,0,1,1.4-.28,2.49,2.49,0,0,1,.54,0,2.13,2.13,0,0,1,.44.21,1.77,1.77,0,0,1,.29.38l0,0a2.62,2.62,0,0,1-.39-0.18,2.19,2.19,0,0,1-.39-0.12c-0.15,0-.31-0.08-0.48-0.1a4.76,4.76,0,0,0-.94,0,3.73,3.73,0,0,0-.43.06v0Z" transform="translate(-564.94 -556.11)"/><path class="cls-15" d="M605.53,571.37a3.73,3.73,0,0,0-.43-0.06,4.77,4.77,0,0,0-.94,0c-0.17,0-.32.08-0.48,0.1a2.22,2.22,0,0,1-.4.12,2.62,2.62,0,0,1-.39.18l0,0a1.77,1.77,0,0,1,.29-0.38,2.15,2.15,0,0,1,.44-0.21,2.5,2.5,0,0,1,.54,0,4.34,4.34,0,0,1,1.4.28v0Z" transform="translate(-564.94 -556.11)"/><path class="cls-19" d="M606.47,572.56a2.19,2.19,0,0,1-.44.36,2.53,2.53,0,0,1-.54.25,2.46,2.46,0,0,1-.67.14,1.78,1.78,0,0,1-.69,0,1.35,1.35,0,0,1-.57-0.17,3.36,3.36,0,0,1-.5-0.3v0a3.89,3.89,0,0,1,.56.09,3.44,3.44,0,0,0,.54.1,2.77,2.77,0,0,0,.63.07,2.24,2.24,0,0,0,.63-0.06,3.12,3.12,0,0,0,.53-0.17,2.12,2.12,0,0,0,.48-0.28Z" transform="translate(-564.94 -556.11)"/><path class="cls-19" d="M608.55,572.54a1.62,1.62,0,0,0,.35.19,2.16,2.16,0,0,0,.83.17,2.24,2.24,0,0,0,.44,0c0.14,0,.27,0,0.39,0a2.12,2.12,0,0,1,.41,0v0a1.82,1.82,0,0,1-.35.24,0.92,0.92,0,0,1-.42.12,1.2,1.2,0,0,1-.5,0,2.1,2.1,0,0,1-.48-0.13,2.13,2.13,0,0,1-.38-0.2,1.7,1.7,0,0,1-.32-0.27Z" transform="translate(-564.94 -556.11)"/><path class="cls-19" d="M608,572a8.26,8.26,0,0,0,0,1.16,8,8,0,0,0,.19,1.17c0.05,0.21.14,0.41,0.21,0.63l0.33,0.61a0.79,0.79,0,0,1,.1.4,0.73,0.73,0,0,1-.17.4,1.28,1.28,0,0,1-.67.36,1.83,1.83,0,0,1-.68,0,1.59,1.59,0,0,1-.58-0.19,1,1,0,0,1-.38-0.35,0.91,0.91,0,0,1-.15-0.37,2.39,2.39,0,0,1,0-.33h0a2.59,2.59,0,0,0,.08.3,1.08,1.08,0,0,0,.19.28,0.89,0.89,0,0,0,.35.24,1.32,1.32,0,0,0,.5.12,2.13,2.13,0,0,0,.57,0,1.19,1.19,0,0,0,.51-0.25,0.38,0.38,0,0,0,.06-0.49l-0.3-.63c-0.06-.23-0.14-0.45-0.18-0.67a7,7,0,0,1-.12-1.2,8.32,8.32,0,0,1,.05-1.17h0Z" transform="translate(-564.94 -556.11)"/><path class="cls-13" d="M589.61,646.81s0.63-5.84,0-7-1.82-3.84-1.82-3.84,2.59,0.94,2.65-1.74-2.13-2.53-2.93-2.53-3.1.94-1.59,4.64,1.78,2.22,2,4.9a36.08,36.08,0,0,1,0,5.44Z" transform="translate(-564.94 -556.11)"/><path class="cls-1" d="M588.79,648.52s0.63-5.84,0-7-1.82-3.84-1.82-3.84,2.59,0.94,2.65-1.74-2.13-2.53-2.93-2.53-3.1.94-1.59,4.64,1.78,2.22,2,4.9a36.22,36.22,0,0,1,0,5.44Z" transform="translate(-564.94 -556.11)"/><path class="cls-13" d="M587.69,640.12s-4.48-17,5.68-17,9,13,5.78,17.58S587.69,640.12,587.69,640.12Z" transform="translate(-564.94 -556.11)"/><path class="cls-9" d="M587.91,647.22s-0.75-2.84-.29-3.74,0-2.46.08-3.36,1.3-2.43,4-.62c0,0,6.85-3.66,6.91,1.06a56,56,0,0,1-.28,7.25S590,648.74,587.91,647.22Z" transform="translate(-564.94 -556.11)"/><path class="cls-14" d="M606.5,649.32s-0.63-5.84,0-7,1.82-3.84,1.82-3.84-2.59.94-2.65-1.74,2.14-2.53,2.93-2.53,3.1,0.94,1.59,4.64-1.78,2.22-2,4.9a36.22,36.22,0,0,0,0,5.44Z" transform="translate(-564.94 -556.11)"/><path class="cls-15" d="M605.7,648.52s-0.63-5.84,0-7,1.82-3.84,1.82-3.84-2.59.94-2.65-1.74,2.13-2.53,2.93-2.53,3.1,0.94,1.59,4.64-1.78,2.22-2,4.9a36.24,36.24,0,0,0,0,5.44Z" transform="translate(-564.94 -556.11)"/><path class="cls-16" d="M604.54,647.7s-0.63-5.84,0-7,1.82-3.84,1.82-3.84-2.59.94-2.65-1.74,2.13-2.54,2.93-2.54,3.1,0.94,1.59,4.64-1.78,2.22-2,4.9a36.22,36.22,0,0,0,0,5.44Z" transform="translate(-564.94 -556.11)"/><path class="cls-17" d="M602.84,647.44s-0.63-5.84,0-7,1.82-3.84,1.82-3.84-2.59.94-2.65-1.74,2.13-2.53,2.93-2.53,3.1,0.94,1.59,4.64-1.78,2.22-2,4.9a36.08,36.08,0,0,0,0,5.44Z" transform="translate(-564.94 -556.11)"/><path class="cls-18" d="M601.19,647.7s-0.63-5.84,0-7,1.82-3.84,1.82-3.84-2.59.94-2.65-1.74,2.13-2.54,2.93-2.54,3.1,0.94,1.59,4.64-1.78,2.22-2,4.9a36.23,36.23,0,0,0,0,5.44Z" transform="translate(-564.94 -556.11)"/><path class="cls-13" d="M599.51,647.92s-0.63-5.84,0-7,1.82-3.84,1.82-3.84-2.59.94-2.65-1.74,2.13-2.53,2.93-2.53,3.1,0.94,1.59,4.64-1.78,2.22-2,4.9a36.21,36.21,0,0,0,0,5.44Z" transform="translate(-564.94 -556.11)"/><path class="cls-1" d="M598,648.24s-0.63-5.84,0-7,1.82-3.84,1.82-3.84-2.59.94-2.65-1.74,2.13-2.53,2.93-2.53,3.1,0.94,1.59,4.64-1.78,2.22-2,4.9a36.24,36.24,0,0,0,0,5.44Z" transform="translate(-564.94 -556.11)"/><path class="cls-1" d="M591.65,639.5s-2.74-.24-3.73-1.91a3.16,3.16,0,0,1,3.57-.36,8.22,8.22,0,0,1,4.59-.28A6.25,6.25,0,0,1,591.65,639.5Z" transform="translate(-564.94 -556.11)"/><path class="cls-8" d="M609.71,655.19l-3.34.69-0.67-3.24c-0.84.2-1.73,0.36-2.64,0.49l0.38,3.09-3.54.43-0.39-3.16c-1,.07-2,0.11-3,0.13v3.25H592.9v-3.24c-1.1,0-2.08-.06-2.91-0.1l-0.55,3.26-3.89-.65,1.31-7.81,0.72,0.12V648.1l19.44-.75,0,0.31,1-.21Z" transform="translate(-564.94 -556.11)"/><path class="cls-5" d="M587.1,647a61.58,61.58,0,0,0,21-1.06l0.1,1.76s-13.77,3.21-21.37.83Z" transform="translate(-564.94 -556.11)"/><path class="cls-15" d="M590.56,644.57a4.34,4.34,0,0,1-1.4.28,2.5,2.5,0,0,1-.54,0,2.15,2.15,0,0,1-.44-0.21,1.77,1.77,0,0,1-.29-0.38l0,0a2.62,2.62,0,0,1,.39.18,2.22,2.22,0,0,1,.4.12c0.15,0,.31.08,0.48,0.1a4.77,4.77,0,0,0,.94,0,3.73,3.73,0,0,0,.43-0.06v0Z" transform="translate(-564.94 -556.11)"/><path class="cls-15" d="M593.47,644.54a3.73,3.73,0,0,0,.43.06,4.77,4.77,0,0,0,.94,0c0.17,0,.32-0.08.48-0.1a2.22,2.22,0,0,1,.4-0.12,2.62,2.62,0,0,1,.39-0.18l0,0a1.77,1.77,0,0,1-.29.38,2.15,2.15,0,0,1-.44.21,2.5,2.5,0,0,1-.54,0,4.34,4.34,0,0,1-1.4-.28v0Z" transform="translate(-564.94 -556.11)"/><path class="cls-19" d="M592.53,643.34A2.2,2.2,0,0,1,593,643a2.53,2.53,0,0,1,.54-0.25,2.46,2.46,0,0,1,.67-0.14,1.78,1.78,0,0,1,.69,0,1.35,1.35,0,0,1,.57.17,3.36,3.36,0,0,1,.5.3v0a3.82,3.82,0,0,1-.56-0.09,3.55,3.55,0,0,0-.54-0.1,2.71,2.71,0,0,0-.62-0.07,2.24,2.24,0,0,0-.63.06,3.12,3.12,0,0,0-.53.17,2.12,2.12,0,0,0-.48.28Z" transform="translate(-564.94 -556.11)"/><path class="cls-19" d="M590.45,643.37a1.62,1.62,0,0,0-.35-0.19,2.16,2.16,0,0,0-1.27-.13c-0.14,0-.27,0-0.39,0a2.13,2.13,0,0,1-.41,0v0a1.81,1.81,0,0,1,.35-0.24,0.91,0.91,0,0,1,.42-0.12,1.21,1.21,0,0,1,.5,0,2,2,0,0,1,.86.33,1.7,1.7,0,0,1,.32.27Z" transform="translate(-564.94 -556.11)"/><path class="cls-19" d="M591,643.86a8.27,8.27,0,0,0,0-1.16,7.91,7.91,0,0,0-.19-1.17c-0.05-.21-0.14-0.41-0.21-0.63l-0.33-.61a0.8,0.8,0,0,1-.1-0.4,0.73,0.73,0,0,1,.17-0.4,1.28,1.28,0,0,1,.66-0.36,1.83,1.83,0,0,1,.68,0,1.57,1.57,0,0,1,.58.19,1,1,0,0,1,.38.35,0.89,0.89,0,0,1,.15.37,2.33,2.33,0,0,1,0,.33h0a2.59,2.59,0,0,0-.08-0.3,1.06,1.06,0,0,0-.19-0.28,0.89,0.89,0,0,0-.35-0.24,1.28,1.28,0,0,0-.5-0.12,2.18,2.18,0,0,0-.57,0,1.19,1.19,0,0,0-.51.25,0.38,0.38,0,0,0-.06.49l0.3,0.64c0.06,0.23.14,0.45,0.18,0.67a7.14,7.14,0,0,1,.12,1.2,8.21,8.21,0,0,1-.05,1.17h0Z" transform="translate(-564.94 -556.11)"/></svg>