<svg id="Objects" xmlns="http://www.w3.org/2000/svg" viewBox="0 0 69.12 103.68"><defs><style>.cls-1{fill:#f2f2f2;}.cls-2,.cls-4{fill:#7a2b2b;}.cls-3{fill:#943434;}.cls-4{font-size:10.89px;font-family:ChunkFive;}</style></defs><title>2</title><rect class="cls-1" width="69.12" height="103.68" rx="2.72" ry="2.72"/><polygon class="cls-2" points="34.55 40.72 29.27 33.55 34.55 26.39 39.81 33.55 34.55 40.72"/><polygon class="cls-3" points="34.53 26.41 29.27 33.55 34.53 40.7 34.53 26.41"/><polygon class="cls-2" points="34.55 77.3 29.27 70.13 34.55 62.96 39.81 70.13 34.55 77.3"/><polygon class="cls-3" points="34.53 62.98 29.27 70.13 34.53 77.28 34.53 62.98"/><text class="cls-4" transform="translate(4.62 10.45)">2</text><text class="cls-4" transform="translate(64.51 93.23) rotate(180)">2</text><polygon class="cls-2" points="61.72 83.44 64.5 87.24 61.72 91.03 58.92 87.24 61.72 83.44"/><polygon class="cls-3" points="61.72 91.02 64.5 87.24 61.72 83.46 61.72 91.02"/><polygon class="cls-2" points="7.41 19.88 4.62 16.09 7.41 12.29 10.2 16.09 7.41 19.88"/><polygon class="cls-3" points="7.4 12.31 4.62 16.09 7.4 19.87 7.4 12.31"/></svg>