<svg id="Objects" xmlns="http://www.w3.org/2000/svg" viewBox="0 0 69.12 103.68"><defs><style>.cls-1{fill:#f2f2f2;}.cls-2,.cls-4{fill:#7a2b2b;}.cls-3{fill:#943434;}.cls-4{font-size:10.89px;font-family:ChunkFive;}</style></defs><title>3</title><rect class="cls-1" width="69.12" height="103.68" rx="2.72" ry="2.72"/><polygon class="cls-2" points="34.58 59.01 29.31 51.84 34.58 44.67 39.85 51.84 34.58 59.01"/><polygon class="cls-3" points="34.56 44.7 29.31 51.84 34.56 58.99 34.56 44.7"/><polygon class="cls-2" points="50.29 34.49 45.02 27.32 50.29 20.15 55.56 27.32 50.29 34.49"/><polygon class="cls-3" points="50.27 20.17 45.02 27.32 50.27 34.46 50.27 20.17"/><polygon class="cls-2" points="18.82 83.53 13.55 76.37 18.82 69.2 24.09 76.37 18.82 83.53"/><polygon class="cls-3" points="18.8 69.22 13.55 76.37 18.8 83.51 18.8 69.22"/><text class="cls-4" transform="translate(4.62 10.45)">3</text><text class="cls-4" transform="translate(64.51 93.23) rotate(180)">3</text><polygon class="cls-2" points="61.73 83.62 64.52 87.42 61.73 91.21 58.94 87.42 61.73 83.62"/><polygon class="cls-3" points="61.74 91.2 64.52 87.42 61.74 83.63 61.74 91.2"/><polygon class="cls-2" points="7.42 20.06 4.64 16.27 7.42 12.47 10.21 16.27 7.42 20.06"/><polygon class="cls-3" points="7.42 12.48 4.64 16.27 7.42 20.05 7.42 12.48"/></svg>