<svg id="Objects" xmlns="http://www.w3.org/2000/svg" viewBox="0 0 69.12 103.68"><defs><style>.cls-1{fill:#f2f2f2;}.cls-2,.cls-4{fill:#7a2b2b;}.cls-3{fill:#943434;}.cls-4{font-size:10.89px;font-family:ChunkFive;}</style></defs><title>5</title><rect class="cls-1" width="69.12" height="103.68" rx="2.72" ry="2.72"/><polygon class="cls-2" points="18.82 34.49 13.55 27.32 18.82 20.15 24.09 27.32 18.82 34.49"/><polygon class="cls-3" points="18.8 20.17 13.55 27.32 18.8 34.46 18.8 20.17"/><polygon class="cls-2" points="50.27 34.49 45 27.32 50.27 20.15 55.54 27.32 50.27 34.49"/><polygon class="cls-3" points="50.26 20.17 45 27.32 50.26 34.46 50.26 20.17"/><polygon class="cls-2" points="18.82 83.53 13.55 76.37 18.82 69.2 24.09 76.37 18.82 83.53"/><polygon class="cls-3" points="18.8 69.22 13.55 76.37 18.8 83.51 18.8 69.22"/><polygon class="cls-2" points="50.27 83.53 45 76.37 50.27 69.2 55.54 76.37 50.27 83.53"/><polygon class="cls-3" points="50.26 69.22 45 76.37 50.26 83.51 50.26 69.22"/><text class="cls-4" transform="translate(4.62 10.45)">5</text><text class="cls-4" transform="translate(64.51 93.23) rotate(180)">5</text><polygon class="cls-2" points="61.72 83.53 64.5 87.33 61.72 91.12 58.92 87.33 61.72 83.53"/><polygon class="cls-3" points="61.72 91.11 64.5 87.33 61.72 83.55 61.72 91.11"/><polygon class="cls-2" points="7.41 19.97 4.62 16.18 7.41 12.38 10.2 16.18 7.41 19.97"/><polygon class="cls-3" points="7.4 12.39 4.62 16.18 7.4 19.96 7.4 12.39"/><polygon class="cls-2" points="34.56 59.01 29.29 51.84 34.56 44.67 39.83 51.84 34.56 59.01"/><polygon class="cls-3" points="34.55 44.7 29.29 51.84 34.55 58.99 34.55 44.7"/></svg>