<svg id="Objects" xmlns="http://www.w3.org/2000/svg" viewBox="0 0 69.12 103.68"><defs><style>.cls-1{fill:#f2f2f2;}.cls-2,.cls-4{fill:#7a2b2b;}.cls-3{fill:#943434;}.cls-4{font-size:10.89px;font-family:ChunkFive;}</style></defs><title>9</title><rect class="cls-1" width="69.12" height="103.68" rx="2.72" ry="2.72"/><polygon class="cls-2" points="18.82 29.68 13.55 22.51 18.82 15.34 24.09 22.51 18.82 29.68"/><polygon class="cls-3" points="18.8 15.36 13.55 22.51 18.8 29.65 18.8 15.36"/><polygon class="cls-2" points="50.27 29.68 45 22.51 50.27 15.34 55.54 22.51 50.27 29.68"/><polygon class="cls-3" points="50.26 15.36 45 22.51 50.26 29.65 50.26 15.36"/><polygon class="cls-2" points="18.82 49.2 13.55 42.03 18.82 34.87 24.09 42.03 18.82 49.2"/><polygon class="cls-3" points="18.8 34.89 13.55 42.03 18.8 49.18 18.8 34.89"/><polygon class="cls-2" points="50.27 49.2 45 42.03 50.27 34.87 55.54 42.03 50.27 49.2"/><polygon class="cls-3" points="50.26 34.89 45 42.03 50.26 49.18 50.26 34.89"/><polygon class="cls-2" points="18.82 68.73 13.55 61.56 18.82 54.39 24.09 61.56 18.82 68.73"/><polygon class="cls-3" points="18.8 54.42 13.55 61.56 18.8 68.71 18.8 54.42"/><polygon class="cls-2" points="50.27 68.73 45 61.56 50.27 54.39 55.54 61.56 50.27 68.73"/><polygon class="cls-3" points="50.26 54.42 45 61.56 50.26 68.71 50.26 54.42"/><polygon class="cls-2" points="18.82 88.26 13.55 81.09 18.82 73.92 24.09 81.09 18.82 88.26"/><polygon class="cls-3" points="18.8 73.94 13.55 81.09 18.8 88.23 18.8 73.94"/><polygon class="cls-2" points="50.27 88.26 45 81.09 50.27 73.92 55.54 81.09 50.27 88.26"/><polygon class="cls-3" points="50.26 73.94 45 81.09 50.26 88.23 50.26 73.94"/><text class="cls-4" transform="translate(4.62 10.45)">9</text><text class="cls-4" transform="translate(64.51 93.23) rotate(180)">9</text><polygon class="cls-2" points="61.72 83.53 64.5 87.33 61.72 91.12 58.92 87.33 61.72 83.53"/><polygon class="cls-3" points="61.72 91.11 64.5 87.33 61.72 83.55 61.72 91.11"/><polygon class="cls-2" points="7.41 19.97 4.62 16.18 7.41 12.38 10.2 16.18 7.41 19.97"/><polygon class="cls-3" points="7.4 12.39 4.62 16.18 7.4 19.96 7.4 12.39"/><polygon class="cls-2" points="34.56 59.01 29.29 51.84 34.56 44.67 39.83 51.84 34.56 59.01"/><polygon class="cls-3" points="34.55 44.7 29.29 51.84 34.55 58.99 34.55 44.7"/></svg>