<svg id="Objects" xmlns="http://www.w3.org/2000/svg" viewBox="0 0 69.12 103.69"><defs><style>.cls-1{fill:#f2f2f2;}.cls-2,.cls-4{fill:#7a2b2b;}.cls-3{fill:#943434;}.cls-4{font-size:10.89px;font-family:ChunkFive;}</style></defs><title>A</title><rect class="cls-1" width="69.12" height="103.69" rx="2.72" ry="2.72"/><polygon class="cls-2" points="34.56 71.1 20.4 51.84 34.56 32.58 48.72 51.84 34.56 71.1"/><polygon class="cls-3" points="34.52 32.65 20.4 51.84 34.52 71.04 34.52 32.65"/><polygon class="cls-2" points="61.67 83.63 64.46 87.43 61.67 91.22 58.88 87.43 61.67 83.63"/><polygon class="cls-3" points="61.68 91.21 64.46 87.43 61.68 83.64 61.68 91.21"/><text class="cls-4" transform="translate(4.08 10.45)">A</text><text class="cls-4" transform="translate(65.05 93.23) rotate(180)">A</text><polygon class="cls-2" points="7.36 20.07 4.57 16.28 7.36 12.48 10.15 16.28 7.36 20.07"/><polygon class="cls-3" points="7.36 12.49 4.57 16.28 7.36 20.06 7.36 12.49"/></svg>