<svg id="Objects" xmlns="http://www.w3.org/2000/svg" viewBox="0 0 69.12 103.69"><defs><style>.cls-1{fill:#f2f2f2;}.cls-2,.cls-4{fill:#7a2b2b;}.cls-3{fill:#943434;}.cls-4{font-size:10.89px;font-family:ChunkFive;}.cls-5{fill:#aa292e;}.cls-6{fill:#0b050f;}.cls-7{fill:#3856c8;}.cls-8{fill:#bf9b4d;}.cls-9{fill:#e8efff;}.cls-10{fill:#c9d8f7;}.cls-11{fill:#715c57;}.cls-12{fill:#aa7941;}.cls-13{fill:#e6e6e6;}.cls-14{fill:#666;}.cls-15{fill:gray;}.cls-16{fill:#999;}.cls-17{fill:#b3b3b3;}.cls-18{fill:#ccc;}.cls-19{fill:#2a3757;}</style></defs><title>K</title><rect class="cls-1" width="69.12" height="103.69" rx="2.72" ry="2.72"/><polygon class="cls-2" points="61.67 83.63 64.46 87.43 61.67 91.22 58.88 87.43 61.67 83.63"/><polygon class="cls-3" points="61.68 91.21 64.46 87.43 61.68 83.64 61.68 91.21"/><text class="cls-4" transform="translate(4.46 10.45)">K</text><text class="cls-4" transform="translate(64.67 93.23) rotate(180)">K</text><polygon class="cls-2" points="7.36 20.07 4.58 16.28 7.36 12.48 10.15 16.28 7.36 20.07"/><polygon class="cls-3" points="7.36 12.49 4.58 16.28 7.36 20.06 7.36 12.49"/><path class="cls-5" d="M543.14,631.52A22.16,22.16,0,0,0,551,626v-5h-7.83v10.58Z" transform="translate(-491.66 -556.11)"/><path class="cls-5" d="M551,618.44V590.29a16,16,0,0,0-10.64-5.18S540.19,613.63,551,618.44Z" transform="translate(-491.66 -556.11)"/><rect class="cls-6" x="34.9" y="30.55" width="3.62" height="6.65"/><rect class="cls-6" x="42.17" y="28.25" width="3.62" height="6.65"/><rect class="cls-5" x="31.26" y="27.91" width="3.62" height="6.65"/><rect class="cls-5" x="38.53" y="30.07" width="3.62" height="6.65"/><rect class="cls-6" x="27.75" y="25.9" width="3.62" height="6.65"/><rect class="cls-5" x="24.1" y="25.77" width="3.62" height="4.14"/><path class="cls-6" d="M541.29,585.22S540,603.84,551,618.44l0,1.94s-6.44-3-10.1-15.79-2-19.38-2-19.38h2.45Z" transform="translate(-491.66 -556.11)"/><path class="cls-1" d="M539.62,585.63s-0.33,12.26,2.69,19.6,5.13,12.35,8.66,15.12V626s-9.94-9.61-13.2-20.43a64.06,64.06,0,0,1-2.65-20.29Z" transform="translate(-491.66 -556.11)"/><ellipse class="cls-5" cx="46.06" cy="29.2" rx="2.08" ry="0.83"/><ellipse class="cls-5" cx="537.61" cy="587.25" rx="2.04" ry="0.82" transform="translate(-521.83 -526.99) rotate(-3.02)"/><ellipse class="cls-5" cx="537.63" cy="589.46" rx="2" ry="0.8" transform="translate(-551.78 -495.05) rotate(-6.16)"/><ellipse class="cls-5" cx="537.77" cy="591.91" rx="1.97" ry="0.79" transform="translate(-581.13 -460.31) rotate(-9.4)"/><ellipse class="cls-5" cx="538.04" cy="594.54" rx="1.95" ry="0.78" transform="translate(-609.34 -423.08) rotate(-12.72)"/><ellipse class="cls-5" cx="538.46" cy="597.32" rx="1.93" ry="0.77" transform="translate(-636.37 -383.06) rotate(-16.12)"/><ellipse class="cls-5" cx="539.02" cy="600.2" rx="1.92" ry="0.77" transform="translate(-661.72 -340.6) rotate(-19.59)"/><ellipse class="cls-5" cx="539.73" cy="603.14" rx="1.92" ry="0.77" transform="translate(-684.84 -296.37) rotate(-23.07)"/><ellipse class="cls-5" cx="540.59" cy="606.09" rx="1.92" ry="0.77" transform="translate(-705.61 -250.45) rotate(-26.56)"/><ellipse class="cls-5" cx="541.62" cy="609.02" rx="1.93" ry="0.77" transform="translate(-723.67 -203.52) rotate(-30.01)"/><ellipse class="cls-5" cx="542.82" cy="611.87" rx="1.95" ry="0.78" transform="translate(-738.85 -156.18) rotate(-33.4)"/><ellipse class="cls-5" cx="544.19" cy="614.61" rx="1.97" ry="0.79" transform="translate(-751.27 -108.24) rotate(-36.76)"/><ellipse class="cls-5" cx="545.74" cy="617.19" rx="2" ry="0.8" transform="translate(-760.68 -61.1) rotate(-39.99)"/><ellipse class="cls-5" cx="547.47" cy="619.57" rx="2.04" ry="0.81" transform="matrix(0.73, -0.68, 0.68, 0.73, -767.32, -14.3)"/><ellipse class="cls-5" cx="549.4" cy="621.7" rx="2.08" ry="0.83" transform="translate(-771.22 31.21) rotate(-46.16)"/><rect class="cls-7" x="32.52" y="39.04" width="5.76" height="6.37"/><polygon class="cls-8" points="32.77 45.14 38.28 45.14 38.28 50.91 32.77 45.14"/><rect class="cls-8" x="32.57" y="39.92" width="5.81" height="4.73"/><polygon class="cls-8" points="32.57 39.5 38.28 39.5 38.28 37.96 32.57 34.5 32.57 39.5"/><path class="cls-5" d="M531.06,607.57l-0.22-13.4,4.72-2.67s0.93,11.1,2.05,13.09S531.06,607.57,531.06,607.57Z" transform="translate(-491.66 -556.11)"/><polygon class="cls-9" points="39.48 51.51 38.07 50.81 38.07 37.09 39.48 37.09 39.48 51.51"/><polygon class="cls-6" points="39.93 52.03 38.53 51.33 38.53 37.62 39.93 37.62 39.93 52.03"/><path class="cls-6" d="M540.77,612.79c-0.48-1.2-1.28-2.31-1.88-3.46a19.12,19.12,0,0,1-2-5.91h-0.09a6.89,6.89,0,0,0-6.4,4.34,6.62,6.62,0,0,0,.69.72c0.48,0.41,1.05.73,1.55,1.11,1.22,0.94,2.15,2.23,3.52,3a23.84,23.84,0,0,0,3.22,1.34,12.72,12.72,0,0,0,1.44.46l0.44-.06C541.11,613.78,541,613.27,540.77,612.79Z" transform="translate(-491.66 -556.11)"/><path class="cls-8" d="M540.77,612.79c-0.48-1.2-1.28-2.31-1.88-3.46A19.46,19.46,0,0,1,537,604h-0.18a6.35,6.35,0,0,0-6,4.25l0.28,0.27c0.48,0.41,1.05.73,1.55,1.11,1.22,0.94,2.15,2.23,3.52,3a23.84,23.84,0,0,0,3.22,1.34,12.72,12.72,0,0,0,1.44.46l0.44-.06C541.11,613.78,541,613.27,540.77,612.79Z" transform="translate(-491.66 -556.11)"/><path class="cls-7" d="M538.89,609.33a21.12,21.12,0,0,1-1-2.3,3.39,3.39,0,0,0-1-.16,3.44,3.44,0,0,0-3.43,3.33,14.53,14.53,0,0,0,2.8,2.35,16.8,16.8,0,0,0,2,.9,3.45,3.45,0,0,0,1.86-2C539.69,610.71,539.25,610,538.89,609.33Z" transform="translate(-491.66 -556.11)"/><polygon class="cls-5" points="25.74 40.64 31.37 43.89 31.66 33.4 25.74 30.14 25.74 40.64"/><rect class="cls-9" x="31.37" y="33.87" width="1.4" height="10.62"/><path class="cls-10" d="M512,583.05a16.29,16.29,0,0,1,4.93-1.71l0.3,15.22s-3.84-1.42-5.56-1.36Z" transform="translate(-491.66 -556.11)"/><polygon class="cls-11" points="20.37 26.95 19.5 27.28 19.5 38.99 20.37 38.99 20.37 26.95"/><path class="cls-6" d="M511.16,583.39a11.31,11.31,0,0,0-1.85,1v10.58h1.85V583.39Z" transform="translate(-491.66 -556.11)"/><path class="cls-5" d="M509.31,584.36a22.15,22.15,0,0,0-7.83,5.56v5h7.83V584.36Z" transform="translate(-491.66 -556.11)"/><rect class="cls-6" x="30.85" y="33.4" width="1.4" height="10.62"/><rect class="cls-11" x="25.3" y="25.23" width="0.87" height="14.93"/><path class="cls-12" d="M540.15,614.53a5.88,5.88,0,0,1-2.07-.43c-2.85-1.08-6.34-4.06-10.37-8.85-4.85-5.77-9.62-8.06-12.77-9a25.69,25.69,0,0,0-7.29-.8l-0.17-.94a25.87,25.87,0,0,1,7.66.8c3.29,0.94,8.27,3.31,13.29,9.29,9,10.76,12.5,8.8,12.53,8.78l0.54,0.79A2.41,2.41,0,0,1,540.15,614.53Z" transform="translate(-491.66 -556.11)"/><path class="cls-9" d="M517.84,585.64s11.66,7.61,12.76,7.61,4.41-2.31,4.41-2.31v1.35s-4,2.66-4.5,2.66-12.66-7.87-12.66-7.87v-1.42Z" transform="translate(-491.66 -556.11)"/><path class="cls-8" d="M519.14,582s9.86,7.25,11.25,7.25,5.46-3.62,5.46-3.62Z" transform="translate(-491.66 -556.11)"/><path class="cls-8" d="M517.84,584.72s11.66,7.74,12.76,7.74,4.41-2.61,4.41-2.61v1.3s-4,2.58-4.5,2.58-12.66-7.63-12.66-7.63v-1.38Z" transform="translate(-491.66 -556.11)"/><path class="cls-12" d="M534.68,586.16s0,12.3,2.85,20.42,10.12,19.53,12.25,20.57L551,626s-5.1-4.2-12.39-20c-1.9-7.81-2-4.43-2.88-20.34S534.68,586.16,534.68,586.16Z" transform="translate(-491.66 -556.11)"/><path class="cls-5" d="M501.48,597.43v28.15a16,16,0,0,0,10.64,5.18S512.25,602.25,501.48,597.43Z" transform="translate(-491.66 -556.11)"/><rect class="cls-6" x="30.6" y="66.46" width="3.62" height="6.65"/><rect class="cls-6" x="23.34" y="68.75" width="3.62" height="6.65"/><rect class="cls-5" x="34.25" y="69.1" width="3.62" height="6.65"/><rect class="cls-5" x="26.98" y="66.93" width="3.62" height="6.65"/><rect class="cls-6" x="37.75" y="71.1" width="3.62" height="6.65"/><rect class="cls-5" x="41.4" y="73.74" width="3.62" height="4.14"/><path class="cls-6" d="M511.15,630.66s1.27-18.63-9.67-33.23c0-1.29,0-1.94,0-1.94s6.44,3,10.1,15.79,2,19.38,2,19.38h-2.45Z" transform="translate(-491.66 -556.11)"/><path class="cls-1" d="M512.83,630.24s0.34-12.26-2.69-19.6-5.13-12.35-8.66-15.12v-5.6s5.44,1.11,13.2,20.44a64,64,0,0,1,2.65,20.29Z" transform="translate(-491.66 -556.11)"/><ellipse class="cls-5" cx="23.06" cy="74.46" rx="2.08" ry="0.83"/><ellipse class="cls-5" cx="514.83" cy="628.63" rx="2.04" ry="0.81" transform="translate(-524.06 -528.12) rotate(-3.02)"/><ellipse class="cls-5" cx="514.82" cy="626.41" rx="2" ry="0.8" transform="translate(-555.87 -497.28) rotate(-6.16)"/><ellipse class="cls-5" cx="514.68" cy="623.97" rx="1.97" ry="0.79" transform="translate(-586.68 -463.64) rotate(-9.4)"/><ellipse class="cls-5" cx="514.4" cy="621.33" rx="1.95" ry="0.78" transform="translate(-615.81 -427.65) rotate(-12.72)"/><ellipse class="cls-5" cx="513.99" cy="618.55" rx="1.93" ry="0.77" transform="translate(-643.22 -389.04) rotate(-16.12)"/><ellipse class="cls-5" cx="513.43" cy="615.67" rx="1.92" ry="0.77" transform="translate(-668.55 -348.02) rotate(-19.62)"/><ellipse class="cls-5" cx="512.72" cy="612.73" rx="1.92" ry="0.77" transform="translate(-690.93 -305.86) rotate(-23.1)"/><ellipse class="cls-5" cx="511.85" cy="609.78" rx="1.92" ry="0.77" transform="translate(-710.43 -262.59) rotate(-26.58)"/><ellipse class="cls-5" cx="510.83" cy="606.86" rx="1.93" ry="0.77" transform="translate(-726.6 -219.53) rotate(-29.99)"/><ellipse class="cls-5" cx="509.63" cy="604" rx="1.95" ry="0.78" transform="translate(-740.1 -175.45) rotate(-33.43)"/><ellipse class="cls-5" cx="508.26" cy="601.26" rx="1.97" ry="0.79" transform="translate(-750.36 -132.68) rotate(-36.74)"/><ellipse class="cls-5" cx="506.71" cy="598.68" rx="2" ry="0.8" transform="translate(-757.91 -90.52) rotate(-39.99)"/><ellipse class="cls-5" cx="504.97" cy="596.31" rx="2.04" ry="0.82" transform="translate(-762.91 -49.53) rotate(-43.15)"/><ellipse class="cls-5" cx="503.04" cy="594.17" rx="2.08" ry="0.83" transform="translate(-765.62 -10.54) rotate(-46.17)"/><rect class="cls-7" x="30.84" y="58.25" width="5.76" height="6.37"/><polygon class="cls-8" points="36.35 58.52 30.84 58.52 30.84 52.74 36.35 58.52"/><rect class="cls-8" x="30.74" y="59.01" width="5.81" height="4.73"/><polygon class="cls-8" points="36.55 64.15 30.84 64.15 30.84 65.69 36.55 69.15 36.55 64.15"/><path class="cls-5" d="M521.39,608.3l0.22,13.4-4.72,2.67s-0.93-11.1-2.05-13.1S521.39,608.3,521.39,608.3Z" transform="translate(-491.66 -556.11)"/><polygon class="cls-9" points="29.65 52.15 31.05 52.84 31.05 66.56 29.65 66.56 29.65 52.15"/><polygon class="cls-6" points="29.19 51.62 30.6 52.32 30.6 66.04 29.19 66.04 29.19 51.62"/><path class="cls-6" d="M511.68,603.08c0.48,1.2,1.28,2.31,1.88,3.46a19.12,19.12,0,0,1,2,5.91h0.09a6.89,6.89,0,0,0,6.4-4.34,6.64,6.64,0,0,0-.69-0.72c-0.48-.41-1.05-0.73-1.55-1.11-1.22-.94-2.16-2.23-3.52-3A24.21,24.21,0,0,0,513,602a12.72,12.72,0,0,0-1.44-.46l-0.44.06C511.33,602.09,511.49,602.61,511.68,603.08Z" transform="translate(-491.66 -556.11)"/><path class="cls-8" d="M511.68,603.08c0.48,1.2,1.28,2.31,1.88,3.46a19.42,19.42,0,0,1,1.89,5.36h0.18a6.35,6.35,0,0,0,6-4.25l-0.28-.27c-0.48-.41-1.05-0.73-1.55-1.11-1.22-.94-2.16-2.23-3.52-3A24.21,24.21,0,0,0,513,602a12.72,12.72,0,0,0-1.44-.46l-0.44.06C511.33,602.09,511.49,602.61,511.68,603.08Z" transform="translate(-491.66 -556.11)"/><path class="cls-7" d="M513.56,606.54a20.93,20.93,0,0,1,1,2.3,3.43,3.43,0,0,0,4.47-3.17,14.62,14.62,0,0,0-2.8-2.35,17.27,17.27,0,0,0-2-.9,3.46,3.46,0,0,0-1.86,2C512.76,605.16,513.2,605.85,513.56,606.54Z" transform="translate(-491.66 -556.11)"/><polygon class="cls-5" points="43.39 63.01 37.75 59.76 37.47 70.26 43.39 73.52 43.39 63.01"/><rect class="cls-9" x="36.35" y="59.16" width="1.4" height="10.62"/><path class="cls-10" d="M540.41,632.82a16.26,16.26,0,0,1-4.93,1.71l-0.3-15.21s3.84,1.42,5.56,1.36Z" transform="translate(-491.66 -556.11)"/><polygon class="cls-11" points="48.75 76.71 49.62 76.38 49.62 64.67 48.75 64.67 48.75 76.71"/><path class="cls-6" d="M541.28,632.49a11.21,11.21,0,0,0,1.85-1V620.94h-1.85v11.55Z" transform="translate(-491.66 -556.11)"/><rect class="cls-6" x="36.87" y="59.63" width="1.4" height="10.62"/><rect class="cls-11" x="42.95" y="63.49" width="0.87" height="14.93"/><path class="cls-12" d="M512.29,601.34a5.88,5.88,0,0,1,2.07.43c2.85,1.08,6.34,4.06,10.37,8.85,4.85,5.77,9.62,8.06,12.77,9a20.22,20.22,0,0,0,7.13.52l0.17,0.94a20.9,20.9,0,0,1-7.5-.53c-3.29-.94-8.27-3.31-13.29-9.29-9-10.76-12.5-8.8-12.53-8.78l-0.54-.79A2.41,2.41,0,0,1,512.29,601.34Z" transform="translate(-491.66 -556.11)"/><path class="cls-9" d="M534.61,630.23s-11.66-7.61-12.76-7.61-4.41,2.31-4.41,2.31v-1.35s4-2.66,4.5-2.66,12.66,7.87,12.66,7.87v1.42Z" transform="translate(-491.66 -556.11)"/><path class="cls-8" d="M533.31,633.88s-9.86-7.24-11.25-7.24-5.46,3.62-5.46,3.62Z" transform="translate(-491.66 -556.11)"/><path class="cls-8" d="M534.61,631.15s-11.66-7.73-12.76-7.73-4.41,2.61-4.41,2.61v-1.3s4-2.57,4.5-2.57,12.66,7.63,12.66,7.63v1.38Z" transform="translate(-491.66 -556.11)"/><path class="cls-12" d="M517.76,629.72s0-12.3-2.85-20.42-9.46-19.41-12.41-20.41l-1,1c2.55,1.29,10.84,13.84,12.39,20,1.9,7.81,2,4.43,2.88,20.34S517.76,629.72,517.76,629.72Z" transform="translate(-491.66 -556.11)"/><path class="cls-13" d="M536.11,569.1s-0.63,5.83,0,7,1.82,3.84,1.82,3.84-2.59-.94-2.65,1.74,2.13,2.53,2.93,2.53,3.1-.94,1.59-4.64-1.78-2.22-2-4.9a36.24,36.24,0,0,1,0-5.44Z" transform="translate(-491.66 -556.11)"/><path class="cls-1" d="M536.94,567.38s-0.62,5.84,0,7,1.82,3.84,1.82,3.84-2.59-.94-2.65,1.74,2.13,2.53,2.93,2.53,3.1-.94,1.59-4.64-1.78-2.22-2-4.9a36.08,36.08,0,0,1,0-5.44Z" transform="translate(-491.66 -556.11)"/><path class="cls-13" d="M538,575.78s4.48,17-5.68,17-9-13-5.78-17.58S538,575.78,538,575.78Z" transform="translate(-491.66 -556.11)"/><path class="cls-9" d="M537.81,568.68s0.75,2.84.3,3.74,0,2.46-.08,3.36-1.3,2.43-4,.62c0,0-6.85,3.66-6.91-1.06a56,56,0,0,1,.28-7.25S535.7,567.16,537.81,568.68Z" transform="translate(-491.66 -556.11)"/><path class="cls-14" d="M519.22,566.59s0.63,5.84,0,7-1.82,3.84-1.82,3.84,2.59-.94,2.65,1.74-2.14,2.53-2.93,2.53-3.1-.94-1.59-4.64,1.78-2.22,2-4.9a36.24,36.24,0,0,0,0-5.44Z" transform="translate(-491.66 -556.11)"/><path class="cls-15" d="M520,567.38s0.63,5.84,0,7-1.82,3.84-1.82,3.84,2.59-.94,2.65,1.74-2.13,2.53-2.93,2.53-3.1-.94-1.59-4.64,1.78-2.22,2-4.9a36.22,36.22,0,0,0,0-5.44Z" transform="translate(-491.66 -556.11)"/><path class="cls-16" d="M521.19,568.21s0.63,5.83,0,7-1.82,3.84-1.82,3.84,2.59-.94,2.65,1.74-2.13,2.53-2.93,2.53-3.1-.94-1.59-4.64,1.78-2.22,2-4.9a36.22,36.22,0,0,0,0-5.44Z" transform="translate(-491.66 -556.11)"/><path class="cls-17" d="M522.88,568.46s0.63,5.84,0,7-1.82,3.84-1.82,3.84,2.59-.94,2.65,1.74-2.14,2.53-2.93,2.53-3.1-.94-1.59-4.64,1.78-2.22,2-4.9a36.24,36.24,0,0,0,0-5.44Z" transform="translate(-491.66 -556.11)"/><path class="cls-18" d="M524.54,568.21s0.63,5.83,0,7-1.82,3.84-1.82,3.84,2.59-.94,2.65,1.74-2.13,2.53-2.93,2.53-3.1-.94-1.59-4.64,1.78-2.22,2-4.9a36.22,36.22,0,0,0,0-5.44Z" transform="translate(-491.66 -556.11)"/><path class="cls-13" d="M526.22,568s0.63,5.84,0,7-1.82,3.84-1.82,3.84,2.59-.94,2.65,1.74-2.13,2.53-2.93,2.53-3.1-.94-1.59-4.64,1.78-2.22,2-4.9a36.19,36.19,0,0,0,0-5.44Z" transform="translate(-491.66 -556.11)"/><path class="cls-1" d="M527.72,567.67s0.63,5.83,0,7-1.82,3.84-1.82,3.84,2.59-.94,2.65,1.74-2.13,2.54-2.93,2.54-3.1-.94-1.59-4.64,1.78-2.22,2-4.9a36.22,36.22,0,0,0,0-5.44Z" transform="translate(-491.66 -556.11)"/><path class="cls-1" d="M534.07,576.4s2.74,0.24,3.73,1.91a3.16,3.16,0,0,1-3.57.36,8.22,8.22,0,0,1-4.59.28A6.25,6.25,0,0,1,534.07,576.4Z" transform="translate(-491.66 -556.11)"/><path class="cls-8" d="M516,560.71l3.34-.7,0.67,3.25c0.84-.2,1.73-0.36,2.64-0.49l-0.38-3.09,3.54-.43,0.39,3.16c1-.07,2-0.11,3-0.13V559h3.61v3.24c1.1,0,2.08.06,2.91,0.1l0.55-3.26,3.89,0.65-1.31,7.81-0.72-.12v0.35l-19.44.75,0-.31-1,.21Z" transform="translate(-491.66 -556.11)"/><path class="cls-6" d="M538.63,568.91a61.56,61.56,0,0,0-21,1.07l-0.1-1.76s13.77-3.21,21.37-.83Z" transform="translate(-491.66 -556.11)"/><path class="cls-15" d="M535.17,571.33a4.34,4.34,0,0,1,1.4-.28,2.5,2.5,0,0,1,.54,0,2.15,2.15,0,0,1,.44.21,1.77,1.77,0,0,1,.29.38l0,0a2.62,2.62,0,0,1-.39-0.18,2.22,2.22,0,0,1-.4-0.12c-0.15,0-.31-0.08-0.48-0.1a4.77,4.77,0,0,0-.94,0,3.73,3.73,0,0,0-.43.06v0Z" transform="translate(-491.66 -556.11)"/><path class="cls-15" d="M532.26,571.37a3.73,3.73,0,0,0-.43-0.06,4.77,4.77,0,0,0-.94,0c-0.17,0-.32.08-0.48,0.1a2.22,2.22,0,0,1-.4.12,2.62,2.62,0,0,1-.39.18l0,0a1.77,1.77,0,0,1,.29-0.38,2.15,2.15,0,0,1,.44-0.21,2.49,2.49,0,0,1,.54,0,4.34,4.34,0,0,1,1.4.28v0Z" transform="translate(-491.66 -556.11)"/><path class="cls-19" d="M533.19,572.56a2.2,2.2,0,0,1-.44.36,2.53,2.53,0,0,1-.54.25,2.46,2.46,0,0,1-.67.14,1.78,1.78,0,0,1-.69,0,1.35,1.35,0,0,1-.57-0.17,3.37,3.37,0,0,1-.5-0.3v0a3.89,3.89,0,0,1,.56.09,3.44,3.44,0,0,0,.54.1,2.77,2.77,0,0,0,.63.07,2.25,2.25,0,0,0,.63-0.06,3.12,3.12,0,0,0,.53-0.17,2.12,2.12,0,0,0,.48-0.28Z" transform="translate(-491.66 -556.11)"/><path class="cls-19" d="M535.28,572.54a1.62,1.62,0,0,0,.35.19,2.16,2.16,0,0,0,1.27.13c0.14,0,.27,0,0.39,0a2.12,2.12,0,0,1,.41,0v0a1.82,1.82,0,0,1-.35.24,0.92,0.92,0,0,1-.42.12,1.2,1.2,0,0,1-.5,0A2.1,2.1,0,0,1,536,573a2.12,2.12,0,0,1-.38-0.2,1.7,1.7,0,0,1-.32-0.27Z" transform="translate(-491.66 -556.11)"/><path class="cls-19" d="M534.68,572a8.26,8.26,0,0,0,0,1.16,8.07,8.07,0,0,0,.19,1.17c0.05,0.21.14,0.41,0.21,0.63l0.33,0.61a0.81,0.81,0,0,1,.1.4,0.72,0.72,0,0,1-.17.4,1.29,1.29,0,0,1-.67.36,1.83,1.83,0,0,1-.68,0,1.58,1.58,0,0,1-.58-0.19,1,1,0,0,1-.38-0.35,0.9,0.9,0,0,1-.15-0.37,2.38,2.38,0,0,1,0-.33h0a2.58,2.58,0,0,0,.08.3,1.06,1.06,0,0,0,.19.28,0.89,0.89,0,0,0,.35.24,1.33,1.33,0,0,0,.5.12,2.13,2.13,0,0,0,.57,0,1.19,1.19,0,0,0,.51-0.25,0.38,0.38,0,0,0,.06-0.49l-0.3-.64c-0.06-.23-0.14-0.45-0.18-0.67a7,7,0,0,1-.12-1.2,8.34,8.34,0,0,1,.05-1.17h0Z" transform="translate(-491.66 -556.11)"/><path class="cls-13" d="M516.33,646.81s0.63-5.84,0-7-1.82-3.84-1.82-3.84,2.59,0.94,2.65-1.74-2.13-2.53-2.93-2.53-3.1.94-1.59,4.64,1.78,2.22,2,4.9a36.08,36.08,0,0,1,0,5.44Z" transform="translate(-491.66 -556.11)"/><path class="cls-1" d="M515.51,648.52s0.63-5.84,0-7-1.82-3.84-1.82-3.84,2.59,0.94,2.65-1.74-2.13-2.53-2.93-2.53-3.1.94-1.59,4.64,1.78,2.22,2,4.9a36.24,36.24,0,0,1,0,5.44Z" transform="translate(-491.66 -556.11)"/><path class="cls-13" d="M514.42,640.12s-4.48-17,5.68-17,9,13,5.78,17.58S514.42,640.12,514.42,640.12Z" transform="translate(-491.66 -556.11)"/><path class="cls-9" d="M514.64,647.22s-0.75-2.84-.29-3.74,0-2.46.08-3.36,1.3-2.43,4-.62c0,0,6.85-3.66,6.91,1.06a56,56,0,0,1-.28,7.25S516.74,648.74,514.64,647.22Z" transform="translate(-491.66 -556.11)"/><path class="cls-14" d="M533.22,649.32s-0.63-5.84,0-7,1.82-3.84,1.82-3.84-2.59.94-2.65-1.74,2.13-2.53,2.93-2.53,3.1,0.94,1.59,4.64-1.78,2.22-2,4.9a36.22,36.22,0,0,0,0,5.44Z" transform="translate(-491.66 -556.11)"/><path class="cls-15" d="M532.43,648.52s-0.63-5.84,0-7,1.82-3.84,1.82-3.84-2.59.94-2.65-1.74,2.13-2.53,2.93-2.53,3.1,0.94,1.59,4.64-1.78,2.22-2,4.9a36.22,36.22,0,0,0,0,5.44Z" transform="translate(-491.66 -556.11)"/><path class="cls-16" d="M531.26,647.7s-0.63-5.84,0-7,1.82-3.84,1.82-3.84-2.59.94-2.65-1.74,2.13-2.54,2.93-2.54,3.1,0.94,1.59,4.64-1.78,2.22-2,4.9a36.22,36.22,0,0,0,0,5.44Z" transform="translate(-491.66 -556.11)"/><path class="cls-17" d="M529.56,647.44s-0.63-5.84,0-7,1.82-3.84,1.82-3.84-2.59.94-2.65-1.74,2.13-2.53,2.93-2.53,3.1,0.94,1.59,4.64-1.78,2.22-2,4.9a36.08,36.08,0,0,0,0,5.44Z" transform="translate(-491.66 -556.11)"/><path class="cls-18" d="M527.91,647.7s-0.63-5.84,0-7,1.82-3.84,1.82-3.84-2.59.94-2.65-1.74,2.14-2.54,2.93-2.54,3.1,0.94,1.59,4.64-1.78,2.22-2,4.9a36.38,36.38,0,0,0,0,5.44Z" transform="translate(-491.66 -556.11)"/><path class="cls-13" d="M526.23,647.92s-0.63-5.84,0-7,1.82-3.84,1.82-3.84-2.59.94-2.65-1.74,2.13-2.53,2.93-2.53,3.1,0.94,1.59,4.64-1.78,2.22-2,4.9a36.19,36.19,0,0,0,0,5.44Z" transform="translate(-491.66 -556.11)"/><path class="cls-1" d="M524.72,648.24s-0.63-5.84,0-7,1.82-3.84,1.82-3.84-2.59.94-2.65-1.74,2.13-2.53,2.93-2.53,3.1,0.94,1.59,4.64-1.78,2.22-2,4.9a36.22,36.22,0,0,0,0,5.44Z" transform="translate(-491.66 -556.11)"/><path class="cls-1" d="M518.38,639.5s-2.74-.24-3.73-1.91a3.16,3.16,0,0,1,3.57-.36,8.22,8.22,0,0,1,4.59-.28A6.25,6.25,0,0,1,518.38,639.5Z" transform="translate(-491.66 -556.11)"/><path class="cls-8" d="M536.43,655.19l-3.34.69-0.67-3.24c-0.84.2-1.73,0.36-2.64,0.49l0.38,3.09-3.54.43-0.39-3.16c-1,.07-2,0.11-3,0.13v3.25h-3.61v-3.24c-1.1,0-2.08-.06-2.91-0.1l-0.55,3.26-3.89-.65,1.31-7.81,0.72,0.12V648.1l19.44-.75,0,0.31,1-.21Z" transform="translate(-491.66 -556.11)"/><path class="cls-6" d="M513.82,647a61.58,61.58,0,0,0,21-1.06l0.1,1.76s-13.77,3.21-21.37.83Z" transform="translate(-491.66 -556.11)"/><path class="cls-15" d="M517.28,644.57a4.34,4.34,0,0,1-1.4.28,2.5,2.5,0,0,1-.54,0,2.15,2.15,0,0,1-.44-0.21,1.77,1.77,0,0,1-.29-0.38l0,0a2.62,2.62,0,0,1,.39.18,2.22,2.22,0,0,1,.4.12c0.15,0,.31.08,0.48,0.1a4.77,4.77,0,0,0,.94,0,3.73,3.73,0,0,0,.43-0.06v0Z" transform="translate(-491.66 -556.11)"/><path class="cls-15" d="M520.19,644.54a3.73,3.73,0,0,0,.43.06,4.77,4.77,0,0,0,.94,0c0.17,0,.32-0.08.48-0.1a2.22,2.22,0,0,1,.4-0.12,2.62,2.62,0,0,1,.39-0.18l0,0a1.77,1.77,0,0,1-.29.38,2.15,2.15,0,0,1-.44.21,2.49,2.49,0,0,1-.54,0,4.34,4.34,0,0,1-1.4-.28v0Z" transform="translate(-491.66 -556.11)"/><path class="cls-19" d="M519.26,643.34a2.2,2.2,0,0,1,.44-0.36,2.53,2.53,0,0,1,.54-0.25,2.46,2.46,0,0,1,.67-0.14,1.78,1.78,0,0,1,.69,0,1.35,1.35,0,0,1,.57.17,3.37,3.37,0,0,1,.5.3v0a3.89,3.89,0,0,1-.56-0.09,3.44,3.44,0,0,0-.54-0.1,2.77,2.77,0,0,0-.62-0.07,2.25,2.25,0,0,0-.63.06,3.12,3.12,0,0,0-.53.17,2.12,2.12,0,0,0-.48.28Z" transform="translate(-491.66 -556.11)"/><path class="cls-19" d="M517.17,643.37a1.62,1.62,0,0,0-.35-0.19A2.16,2.16,0,0,0,516,643a2.24,2.24,0,0,0-.44,0c-0.14,0-.27,0-0.39,0a2.12,2.12,0,0,1-.41,0v0a1.82,1.82,0,0,1,.35-0.24,0.92,0.92,0,0,1,.42-0.12,1.2,1.2,0,0,1,.5,0,2.1,2.1,0,0,1,.48.13,2.12,2.12,0,0,1,.38.2,1.7,1.7,0,0,1,.32.27Z" transform="translate(-491.66 -556.11)"/><path class="cls-19" d="M517.77,643.86a8.25,8.25,0,0,0,0-1.16,8.08,8.08,0,0,0-.19-1.17c-0.05-.21-0.14-0.41-0.21-0.63l-0.33-.61a0.81,0.81,0,0,1-.1-0.4,0.73,0.73,0,0,1,.17-0.4,1.27,1.27,0,0,1,.66-0.36,1.83,1.83,0,0,1,.68,0,1.57,1.57,0,0,1,.58.19,1,1,0,0,1,.38.35,0.9,0.9,0,0,1,.15.37,2.31,2.31,0,0,1,0,.33h0a2.59,2.59,0,0,0-.08-0.3,1.06,1.06,0,0,0-.19-0.28,0.88,0.88,0,0,0-.35-0.24,1.29,1.29,0,0,0-.5-0.12,2.18,2.18,0,0,0-.57,0,1.18,1.18,0,0,0-.51.25,0.38,0.38,0,0,0-.06.49l0.3,0.64c0.06,0.23.14,0.45,0.18,0.67a7,7,0,0,1,.12,1.2,8.33,8.33,0,0,1-.05,1.17h0Z" transform="translate(-491.66 -556.11)"/></svg>