<svg id="Objects" xmlns="http://www.w3.org/2000/svg" viewBox="0 0 69.12 103.69"><defs><style>.cls-1{fill:#f2f2f2;}.cls-2,.cls-4{fill:#7a2b2b;}.cls-3{fill:#943434;}.cls-4{font-size:10.89px;font-family:ChunkFive;}.cls-5{fill:#1f2d6c;}.cls-6{fill:#aa292e;}.cls-7{fill:#0b050f;}.cls-8{fill:none;stroke:#aa7941;stroke-miterlimit:10;stroke-width:0.77px;}.cls-9{fill:#dce3f2;}.cls-10{fill:#e8efff;}.cls-11{fill:#aa7941;}.cls-12{fill:#bf9b4d;}.cls-13{fill:#d28537;}.cls-14{fill:#bd7831;}.cls-15{fill:#2a3757;}</style></defs><title>Q</title><rect class="cls-1" width="69.12" height="103.69" rx="2.72" ry="2.72"/><polygon class="cls-2" points="61.67 83.63 64.46 87.43 61.67 91.22 58.88 87.43 61.67 83.63"/><polygon class="cls-3" points="61.68 91.21 64.46 87.43 61.68 83.64 61.68 91.21"/><text class="cls-4" transform="translate(3.66 10.45)">Q</text><text class="cls-4" transform="translate(65.46 93.24) rotate(180)">Q</text><polygon class="cls-2" points="7.36 20.07 4.57 16.28 7.36 12.48 10.15 16.28 7.36 20.07"/><polygon class="cls-3" points="7.36 12.49 4.57 16.28 7.36 20.06 7.36 12.49"/><rect class="cls-5" x="35.14" y="44.48" width="4.06" height="1.38"/><rect class="cls-6" x="34.79" y="43.1" width="4.06" height="1.38"/><rect class="cls-5" x="34.19" y="41.73" width="4.06" height="1.38"/><rect class="cls-6" x="33.83" y="40.35" width="4.06" height="1.38"/><rect class="cls-5" x="33.23" y="38.98" width="4.06" height="1.38"/><rect class="cls-6" x="32.88" y="37.6" width="4.06" height="1.38"/><rect class="cls-5" x="32.28" y="36.23" width="4.06" height="1.38"/><polygon class="cls-6" points="34.79 45.91 31.81 38.21 24.11 37.67 28.52 46.49 34.79 45.91"/><polygon class="cls-6" points="44.38 45.42 45.46 36.9 37.6 37.26 37.48 40.4 40.18 45.98 44.38 45.42"/><path class="cls-7" d="M201.37,592.85l3.49,9,2.56-.34s-3.58-4.71-3-6.51,4.7-.71,4.7-0.71l1.78-3.18Z" transform="translate(-165.94 -556.11)"/><path class="cls-7" d="M201.93,602.09l-3.41-9.15-8.7-.65,1.15,2.6s4.74-.89,6.11.22,2.69,6.85,2.69,6.85Z" transform="translate(-165.94 -556.11)"/><path class="cls-7" d="M193.53,605.33a162.07,162.07,0,0,0,17.33-.62v-3.18a162.3,162.3,0,0,1-17.33.62" transform="translate(-165.94 -556.11)"/><path class="cls-8" d="M210.87,601.53a162.3,162.3,0,0,1-17.33.62" transform="translate(-165.94 -556.11)"/><path class="cls-8" d="M210.87,604.71a162.07,162.07,0,0,1-17.33.62" transform="translate(-165.94 -556.11)"/><path class="cls-9" d="M216.5,595.13l-4.89-4.49s-3.86,2-3.4,6,2.6,5.36,2.6,5.36Z" transform="translate(-165.94 -556.11)"/><path class="cls-7" d="M216.5,595.14l-4.35-4s-3.43,1.78-3,5.3,2.32,4.77,2.32,4.77Z" transform="translate(-165.94 -556.11)"/><path class="cls-5" d="M216.5,595.14l-3.63-3.34s-2.87,1.48-2.52,4.43,1.93,4,1.93,4Z" transform="translate(-165.94 -556.11)"/><rect class="cls-5" x="29.92" y="57.83" width="4.06" height="1.38"/><rect class="cls-6" x="30.27" y="59.21" width="4.06" height="1.38"/><rect class="cls-5" x="30.87" y="60.58" width="4.06" height="1.38"/><rect class="cls-6" x="31.23" y="61.96" width="4.06" height="1.38"/><rect class="cls-5" x="31.83" y="63.33" width="4.06" height="1.38"/><rect class="cls-6" x="32.18" y="64.71" width="4.06" height="1.38"/><rect class="cls-5" x="32.78" y="66.08" width="4.06" height="1.38"/><polygon class="cls-6" points="34.34 57.77 37.31 65.47 45.02 66.02 40.6 57.2 34.34 57.77"/><polygon class="cls-6" points="24.74 58.27 23.67 66.78 31.52 66.43 31.65 63.29 28.94 57.7 24.74 58.27"/><path class="cls-7" d="M199.63,623.06l-3.49-9-2.56.34s3.58,4.71,3,6.51-4.7.7-4.7,0.7l-1.78,3.18Z" transform="translate(-165.94 -556.11)"/><path class="cls-7" d="M199.07,613.81l3.41,9.15,8.7,0.65L210,621s-4.74.89-6.11-.22-2.69-6.85-2.69-6.85Z" transform="translate(-165.94 -556.11)"/><path class="cls-7" d="M207.47,610.57a162.07,162.07,0,0,0-17.33.62v3.18a162.07,162.07,0,0,1,17.33-.62" transform="translate(-165.94 -556.11)"/><path class="cls-8" d="M190.13,614.38a162.07,162.07,0,0,1,17.33-.62" transform="translate(-165.94 -556.11)"/><path class="cls-8" d="M190.13,611.19a162.07,162.07,0,0,1,17.33-.62" transform="translate(-165.94 -556.11)"/><path class="cls-10" d="M225.78,627.25a14.38,14.38,0,0,1-4.43.7c-8.63,0-15.63-7.66-15.63-17.1s7-17.1,15.63-17.1a14.38,14.38,0,0,1,4.43.7v32.8Z" transform="translate(-165.94 -556.11)"/><path class="cls-9" d="M225.78,626.51a13.81,13.81,0,0,1-4.43.73c-8.27,0-15-7.34-15-16.38s6.71-16.38,15-16.38a13.81,13.81,0,0,1,4.43.73v31.31Z" transform="translate(-165.94 -556.11)"/><path class="cls-11" d="M225.78,622.95a11,11,0,0,1-4.43.93c-6.58,0-11.91-5.83-11.91-13s5.33-13,11.91-13a11,11,0,0,1,4.43.93v24.2Z" transform="translate(-165.94 -556.11)"/><path class="cls-12" d="M225.78,621.57a9.92,9.92,0,0,1-4.43,1c-5.94,0-10.75-5.27-10.75-11.77s4.82-11.77,10.75-11.77a9.92,9.92,0,0,1,4.43,1v21.44Z" transform="translate(-165.94 -556.11)"/><path class="cls-10" d="M225.78,617.58a7.12,7.12,0,0,1-4.43,1.56c-4.19,0-7.58-3.71-7.58-8.29s3.39-8.29,7.58-8.29a7.12,7.12,0,0,1,4.43,1.56v13.46Z" transform="translate(-165.94 -556.11)"/><path class="cls-6" d="M225.78,617.05a6.78,6.78,0,0,1-4.43,1.67c-4,0-7.19-3.53-7.19-7.87s3.22-7.87,7.19-7.87a6.78,6.78,0,0,1,4.43,1.67v12.4Z" transform="translate(-165.94 -556.11)"/><path class="cls-11" d="M225.78,612.05q-0.38.25-.74,0.51h0l-0.72.56h0q-0.35.29-.68,0.6h0c-0.22.21-.43,0.41-0.64,0.63h0c0-.22-0.06-0.45-0.1-0.67l0-.12c0-.18-0.06-0.35-0.1-0.53v0l0-.19-0.1-.4,0-.08-0.05-.19-0.11-.38,0-.07-0.06-.19-0.13-.38-0.09-.25-0.14-.37-0.11-.25-0.15-.35-0.12-.25-0.16-.34-0.13-.25-0.15-.28,0-.06-0.13-.23-0.14-.24-0.08-.13-0.11-.18-0.17-.26-0.12-.18-0.07-.1-0.21-.29-0.2-.27-0.2-.25-0.09-.12-0.17-.21-0.15-.17-0.15-.17-0.24-.27,0,0-0.2-.2-0.31-.31-0.16-.16-0.13-.12-0.28-.26-0.07-.06-0.21-.17-0.33-.27-0.25-.19-0.23-.18-0.29-.21-0.24-.17-0.3-.2-0.24-.15-0.31-.19-0.25-.14-0.33-.18-0.25-.13-0.34-.17-0.24-.12-0.37-.16-0.23-.1-0.42-.16-0.2-.07-0.54-.18-0.08,0-0.64-.18-0.1,0-0.55-.13-0.2,0-0.45-.09-0.24,0c-0.38-.06-0.76-0.1-1.14-0.13a15.23,15.23,0,0,1,12.62-7,14.35,14.35,0,0,1,4.41.69v17.61Z" transform="translate(-165.94 -556.11)"/><path class="cls-12" d="M225.78,610.87a2.18,2.18,0,0,1-.68,1.14c-0.56.61-1.32,1.07-1.9,1.68-0.83-6.65-6.47-13-13.16-13.51,3.75-5.6,15.31-9.92,15.75-.84v11.53Z" transform="translate(-165.94 -556.11)"/><path class="cls-7" d="M197.11,642.25s-5.18-11.44-4.38-15.13,8.17,6.75,8.17,6.75Z" transform="translate(-165.94 -556.11)"/><path class="cls-6" d="M201.56,652.73s-8.23-2-12-13.36-2-15.76-2-15.76l5.73,4s-0.53,5.38,3.41,14.69,4.91,8.46,4.91,8.46v2Z" transform="translate(-165.94 -556.11)"/><path class="cls-12" d="M206.27,651.73s-8.23-2-12-13.36-2-13.44-2-13.44l1.66,0.37s-2.1,3.7,1.83,13,10.47,11.46,10.47,11.46v2Z" transform="translate(-165.94 -556.11)"/><polygon class="cls-5" points="59.84 55.27 59.84 66.43 54.1 71.75 48.25 68.41 59.84 55.27"/><path class="cls-7" d="M212.93,624.26s12.54-14.44,12.85-14.6v2.23l-10.51,12.63Z" transform="translate(-165.94 -556.11)"/><path class="cls-11" d="M193.65,628.59l-5.12-3.9a49.73,49.73,0,0,1,32.18,1.25L216.56,631Z" transform="translate(-165.94 -556.11)"/><path class="cls-12" d="M194.67,629.39l-5.12-3.9s13.82-5.11,31.16,1.54l-4.15,5.12Z" transform="translate(-165.94 -556.11)"/><path class="cls-9" d="M198.3,633.82a8.58,8.58,0,0,0-3.63-4.43s13.52-2.44,21.89,1.66c0,0-1.29,8.3-5.32,6.58S198.3,633.82,198.3,633.82Z" transform="translate(-165.94 -556.11)"/><path class="cls-10" d="M196.8,644.42s-0.34-3,0-3.48a1.67,1.67,0,0,0,.28-1.54c-0.13-.74-0.13-4.29.45-5.06s3-5.41,4.68-5.45,8.68,2.85,8.78,6.6a0.94,0.94,0,0,1,1.18-.29c0.67,0.38.77,3.17,0.77,3.17s-5.74,12.53-11.37,12C201.56,650.36,196.78,646.93,196.8,644.42Z" transform="translate(-165.94 -556.11)"/><path class="cls-7" d="M201.56,652.73a11.28,11.28,0,0,0,10.6-3.35c4.64-4.95,9.74-16.82,13.62-18.11v-4.9s-9.44,4.82-11.72,12.28S201.56,652.73,201.56,652.73Z" transform="translate(-165.94 -556.11)"/><path class="cls-13" d="M201.56,650.11s1.53-6.71,8.07-6.94c1.83,1.75-4.18,6.94-4.18,6.94a5.42,5.42,0,0,1-3.89.66v-0.66Z" transform="translate(-165.94 -556.11)"/><path class="cls-6" d="M201.56,650.77s6.33-1.62,11.58-14.54c8.91-14.4,12.64-13.69,12.64-13.69v3.83a47.68,47.68,0,0,0-10.42,12.36c-4,7.15-6.59,14-13.8,14v-2Z" transform="translate(-165.94 -556.11)"/><path class="cls-12" d="M201.56,652.73s-8.23-2-12-13.36-2-15.76-2-15.76l1.51,0.91s-1.86,5.47,2.07,14.79,10.47,11.46,10.47,11.46v2Z" transform="translate(-165.94 -556.11)"/><path class="cls-14" d="M201.56,650.11s-1-4.32-4.92-5.75c0,0-1.22,7,4.92,6.42v-0.66Z" transform="translate(-165.94 -556.11)"/><path class="cls-9" d="M184.5,620.77l4.89,4.49s3.86-2,3.4-6-2.6-5.36-2.6-5.36Z" transform="translate(-165.94 -556.11)"/><path class="cls-7" d="M184.5,620.77l4.35,4s3.43-1.77,3-5.3-2.32-4.76-2.32-4.76Z" transform="translate(-165.94 -556.11)"/><path class="cls-5" d="M184.5,620.76l3.63,3.33s2.87-1.48,2.52-4.43-1.93-4-1.93-4Z" transform="translate(-165.94 -556.11)"/><path class="cls-13" d="M196.78,641.39a6,6,0,0,0,1.54.17c0.19,0,.38,0,0.56,0s0.35,0,.49,0a2.55,2.55,0,0,1,.5,0v0a2.3,2.3,0,0,1-.46.23,2.14,2.14,0,0,1-1.11.06,4.81,4.81,0,0,1-1.08-.25,3.84,3.84,0,0,1-.46-0.2v0Z" transform="translate(-165.94 -556.11)"/><path class="cls-13" d="M206.28,641.59a6,6,0,0,1-.61.2,7.74,7.74,0,0,1-1.4.26,4.88,4.88,0,0,1-.76,0,2.85,2.85,0,0,1-.66-0.11,3.52,3.52,0,0,1-.61-0.25v0a3.87,3.87,0,0,1,.65-0.05c0.19,0,.41,0,0.64,0s0.48,0,.73.06a10.21,10.21,0,0,0,2-.16v0Z" transform="translate(-165.94 -556.11)"/><path class="cls-15" d="M202.83,640.43a2.28,2.28,0,0,1,.46-0.21,3.35,3.35,0,0,1,.5-0.13,4.28,4.28,0,0,1,.59,0,3.41,3.41,0,0,1,1.09.19l0.46,0.2-0.49-.06a4.22,4.22,0,0,0-.5-0.05,3.18,3.18,0,0,0-.57,0,6.59,6.59,0,0,0-1.06.06C203,640.38,202.83,640.43,202.83,640.43Z" transform="translate(-165.94 -556.11)"/><path class="cls-15" d="M199.53,640.43a3,3,0,0,0-.38-0.09,3.79,3.79,0,0,0-.83-0.07,1.9,1.9,0,0,0-.44,0,2.46,2.46,0,0,0-.39.06l-0.39.07,0.35-.19a2.23,2.23,0,0,1,.87-0.18,2.67,2.67,0,0,1,.48,0,2.27,2.27,0,0,1,.4.12A1.52,1.52,0,0,1,199.53,640.43Z" transform="translate(-165.94 -556.11)"/><path class="cls-10" d="M201.33,632.88a1.81,1.81,0,0,1,1.62,0" transform="translate(-165.94 -556.11)"/><path class="cls-15" d="M201.33,632.88a0.93,0.93,0,0,1,.22-0.15,1.32,1.32,0,0,1,.26-0.09,1.55,1.55,0,0,1,.32,0,1.37,1.37,0,0,1,.58.14l0.23,0.14-0.26,0a2.79,2.79,0,0,0-.55,0,2.73,2.73,0,0,0-.55,0Z" transform="translate(-165.94 -556.11)"/><path class="cls-15" d="M200.21,634a19.44,19.44,0,0,1,3.85,0A19.44,19.44,0,0,1,200.21,634Z" transform="translate(-165.94 -556.11)"/><path class="cls-15" d="M200.67,636.22a0.41,0.41,0,0,1,0-.09,0.68,0.68,0,0,1,.15-0.22,1,1,0,0,1,.31-0.22,2.06,2.06,0,0,1,.41-0.14,4.16,4.16,0,0,1,.43,0,1.67,1.67,0,0,1,.37,0l0.35,0.07-0.36,0a2.89,2.89,0,0,0-.36,0c-0.13,0-.27,0-0.4.06a1.91,1.91,0,0,0-.38.11,1.24,1.24,0,0,0-.31.15A0.89,0.89,0,0,0,200.67,636.22Z" transform="translate(-165.94 -556.11)"/><path class="cls-10" d="M175.22,588.65a14.38,14.38,0,0,1,4.43-.7c8.63,0,15.63,7.66,15.63,17.1s-7,17.1-15.63,17.1a14.38,14.38,0,0,1-4.43-.7v-32.8Z" transform="translate(-165.94 -556.11)"/><path class="cls-9" d="M175.22,589.4a13.75,13.75,0,0,1,4.43-.73c8.27,0,15,7.34,15,16.38s-6.71,16.38-15,16.38a13.81,13.81,0,0,1-4.43-.73V589.4Z" transform="translate(-165.94 -556.11)"/><path class="cls-11" d="M175.22,593a11,11,0,0,1,4.43-.94c6.58,0,11.91,5.84,11.91,13s-5.33,13-11.91,13a11,11,0,0,1-4.43-.93V593Z" transform="translate(-165.94 -556.11)"/><path class="cls-12" d="M175.22,594.33a9.93,9.93,0,0,1,4.43-1c5.94,0,10.75,5.27,10.75,11.77s-4.82,11.77-10.75,11.77a10,10,0,0,1-4.43-1V594.33Z" transform="translate(-165.94 -556.11)"/><path class="cls-10" d="M175.22,598.32a7.12,7.12,0,0,1,4.43-1.56c4.19,0,7.58,3.71,7.58,8.29s-3.39,8.29-7.58,8.29a7.12,7.12,0,0,1-4.43-1.56V598.32Z" transform="translate(-165.94 -556.11)"/><path class="cls-6" d="M175.22,598.85a6.78,6.78,0,0,1,4.43-1.67c4,0,7.19,3.52,7.19,7.87s-3.22,7.87-7.19,7.87a6.78,6.78,0,0,1-4.43-1.67v-12.4Z" transform="translate(-165.94 -556.11)"/><path class="cls-11" d="M175.22,603.85q0.38-.25.74-0.51h0l0.72-.56h0q0.35-.29.68-0.6h0c0.22-.2.43-0.41,0.64-0.63h0c0,0.22.06,0.45,0.1,0.67l0,0.12c0,0.18.06,0.35,0.1,0.53v0l0,0.19,0.1,0.41,0,0.08,0.05,0.19,0.11,0.38,0,0.07,0.06,0.19,0.13,0.38,0.09,0.25,0.14,0.37,0.11,0.25,0.15,0.35,0.12,0.25,0.16,0.34,0.13,0.25,0.15,0.28,0,0.06,0.13,0.23,0.14,0.24,0.08,0.13,0.11,0.18,0.17,0.26,0.12,0.18,0.07,0.1,0.21,0.29,0.2,0.27,0.2,0.25,0.09,0.12,0.17,0.21,0.15,0.17,0.15,0.17,0.24,0.27,0,0,0.2,0.2,0.31,0.3,0.16,0.16,0.13,0.12,0.28,0.26,0.07,0.06,0.21,0.18,0.33,0.27,0.25,0.19,0.23,0.18,0.29,0.21,0.24,0.17,0.3,0.2,0.24,0.15,0.31,0.19,0.25,0.14,0.33,0.18,0.25,0.13,0.34,0.17,0.24,0.12,0.37,0.16,0.23,0.1,0.42,0.16,0.2,0.07,0.54,0.18,0.08,0,0.64,0.18,0.1,0,0.55,0.13,0.2,0,0.45,0.09,0.24,0c0.38,0.06.76,0.11,1.14,0.13a15.23,15.23,0,0,1-12.62,7,14.41,14.41,0,0,1-4.41-.69V603.85Z" transform="translate(-165.94 -556.11)"/><path class="cls-12" d="M175.22,605a2.18,2.18,0,0,1,.68-1.14c0.56-.61,1.32-1.07,1.9-1.68,0.83,6.65,6.47,13,13.16,13.51-3.75,5.6-15.31,9.92-15.75.85V605Z" transform="translate(-165.94 -556.11)"/><polygon class="cls-5" points="9.28 48.41 9.28 37.25 15.02 31.93 20.87 35.27 9.28 48.41"/><path class="cls-7" d="M188.07,591.65s-12.54,14.44-12.85,14.6V604l10.51-12.63Z" transform="translate(-165.94 -556.11)"/><path class="cls-7" d="M203.89,573.65s5.18,11.45,4.38,15.13S200.1,582,200.1,582Z" transform="translate(-165.94 -556.11)"/><path class="cls-6" d="M199.44,563.17s8.23,2,12,13.36,2,15.76,2,15.76l-5.73-4s0.53-5.38-3.41-14.69-4.91-8.46-4.91-8.46v-2Z" transform="translate(-165.94 -556.11)"/><path class="cls-12" d="M194.73,564.17s8.23,2,12,13.36,2,13.45,2,13.45l-1.66-.37s2.1-3.71-1.83-13-10.47-11.46-10.47-11.46v-2Z" transform="translate(-165.94 -556.11)"/><path class="cls-11" d="M207.35,587.32l5.12,3.9A49.73,49.73,0,0,1,180.29,590l4.15-5.12Z" transform="translate(-165.94 -556.11)"/><path class="cls-12" d="M206.33,586.51l5.12,3.9s-13.82,5.11-31.16-1.54l4.15-5.12Z" transform="translate(-165.94 -556.11)"/><path class="cls-9" d="M202.7,582.09a8.59,8.59,0,0,0,3.63,4.43s-13.52,2.44-21.89-1.66c0,0,1.29-8.3,5.32-6.58S202.7,582.09,202.7,582.09Z" transform="translate(-165.94 -556.11)"/><path class="cls-10" d="M204.2,571.49s0.34,3,0,3.48a1.68,1.68,0,0,0-.28,1.54c0.13,0.74.13,4.29-.45,5.06s-3,5.41-4.68,5.45-8.68-2.85-8.78-6.6a0.94,0.94,0,0,1-1.18.29c-0.67-.38-0.77-3.17-0.77-3.17s5.74-12.52,11.37-12C199.44,565.55,204.22,569,204.2,571.49Z" transform="translate(-165.94 -556.11)"/><path class="cls-7" d="M199.44,563.17a11.28,11.28,0,0,0-10.6,3.35c-4.64,4.95-9.74,16.82-13.62,18.11v4.9s9.44-4.83,11.72-12.28S199.44,563.17,199.44,563.17Z" transform="translate(-165.94 -556.11)"/><path class="cls-13" d="M199.44,565.79s-1.53,6.71-8.07,6.94c-1.83-1.75,4.18-6.94,4.18-6.94a5.42,5.42,0,0,1,3.89-.66v0.66Z" transform="translate(-165.94 -556.11)"/><path class="cls-6" d="M199.44,565.13s-6.33,1.63-11.58,14.54c-8.91,14.4-12.64,13.69-12.64,13.69v-3.83a47.72,47.72,0,0,0,10.42-12.36c4-7.15,6.59-14,13.8-14v2Z" transform="translate(-165.94 -556.11)"/><path class="cls-12" d="M199.44,563.17s8.23,2,12,13.36,2,15.76,2,15.76l-1.51-.91s1.87-5.48-2.07-14.79-10.47-11.46-10.47-11.46v-2Z" transform="translate(-165.94 -556.11)"/><path class="cls-14" d="M199.44,565.79s1,4.32,4.92,5.75c0,0,1.22-7-4.92-6.41v0.66Z" transform="translate(-165.94 -556.11)"/><path class="cls-13" d="M204.22,574.51a6,6,0,0,0-1.54-.17c-0.19,0-.38,0-0.56,0s-0.35,0-.49,0a2.55,2.55,0,0,1-.5,0v0a2.3,2.3,0,0,1,.46-0.23,2.14,2.14,0,0,1,1.11-.06,4.81,4.81,0,0,1,1.08.25,3.84,3.84,0,0,1,.46.2v0Z" transform="translate(-165.94 -556.11)"/><path class="cls-13" d="M194.72,574.31a5.74,5.74,0,0,1,.61-0.2,7.74,7.74,0,0,1,1.39-.26,4.88,4.88,0,0,1,.76,0,2.85,2.85,0,0,1,.66.11,3.52,3.52,0,0,1,.61.25v0a3.87,3.87,0,0,1-.65.05c-0.19,0-.41,0-0.64,0s-0.48,0-.73-0.06a10.34,10.34,0,0,0-2,.16v0Z" transform="translate(-165.94 -556.11)"/><path class="cls-15" d="M198.17,575.48a2.28,2.28,0,0,1-.46.21,3.35,3.35,0,0,1-.5.13,4.28,4.28,0,0,1-.59,0,3.41,3.41,0,0,1-1.09-.19l-0.46-.2,0.49,0.06a4.22,4.22,0,0,0,.5.05,3.18,3.18,0,0,0,.57,0,6.61,6.61,0,0,0,1.06-.06C198,575.52,198.17,575.48,198.17,575.48Z" transform="translate(-165.94 -556.11)"/><path class="cls-15" d="M201.47,575.48a3,3,0,0,0,.38.09,3.79,3.79,0,0,0,.83.07,1.9,1.9,0,0,0,.44,0,2.46,2.46,0,0,0,.39-0.06l0.39-.07-0.35.19a2.23,2.23,0,0,1-.87.18,2.67,2.67,0,0,1-.48,0,2.27,2.27,0,0,1-.4-0.12A1.52,1.52,0,0,1,201.47,575.48Z" transform="translate(-165.94 -556.11)"/><path class="cls-10" d="M199.67,583a1.8,1.8,0,0,1-1.62,0" transform="translate(-165.94 -556.11)"/><path class="cls-15" d="M199.67,583a0.92,0.92,0,0,1-.22.15,1.28,1.28,0,0,1-.26.09,1.63,1.63,0,0,1-.32,0,1.38,1.38,0,0,1-.58-0.14L198,583l0.26,0a2.8,2.8,0,0,0,.55,0,2.66,2.66,0,0,0,.55,0Z" transform="translate(-165.94 -556.11)"/><path class="cls-15" d="M200.79,581.86a19.44,19.44,0,0,1-3.85,0A19.44,19.44,0,0,1,200.79,581.86Z" transform="translate(-165.94 -556.11)"/><path class="cls-15" d="M200.33,579.68a0.41,0.41,0,0,1,0,.09,0.68,0.68,0,0,1-.15.22,1,1,0,0,1-.31.22,2.06,2.06,0,0,1-.41.14,4.16,4.16,0,0,1-.43,0,1.67,1.67,0,0,1-.37,0l-0.35-.07,0.36,0a2.89,2.89,0,0,0,.36,0c0.13,0,.27,0,0.4-0.06a1.91,1.91,0,0,0,.38-0.11,1.24,1.24,0,0,0,.31-0.15A0.89,0.89,0,0,0,200.33,579.68Z" transform="translate(-165.94 -556.11)"/></svg>