<svg id="Objects" xmlns="http://www.w3.org/2000/svg" viewBox="0 0 69.12 103.69"><defs><style>.cls-1{fill:#f2f2f2;}.cls-2,.cls-4{fill:#7a2b2b;}.cls-3{fill:#943434;}.cls-4{font-size:8.44px;font-family:ChunkFive;}</style></defs><title>10</title><rect class="cls-1" width="69.12" height="103.69" rx="2.72" ry="2.72"/><path class="cls-2" d="M143,479.57l-1.08-1.08c-4-3.54-6.62-5.93-6.62-8.86a4.18,4.18,0,0,1,4.24-4.24c1.31,0,2.62,1.4,3.47,2.4,0.85-1,2.16-2.4,3.47-2.4a4.18,4.18,0,0,1,4.24,4.24c0,2.93-2.62,5.32-6.62,8.86Zm0,0" transform="translate(-92.66 -450.06)"/><path class="cls-3" d="M142.94,467.79c-0.85-1-2.15-2.38-3.45-2.38a4.18,4.18,0,0,0-4.24,4.23c0,2.93,2.62,5.32,6.62,8.86l1.06,1.06V467.79Z" transform="translate(-92.66 -450.06)"/><path class="cls-2" d="M111.5,479.57l-1.08-1.08c-4-3.54-6.63-5.93-6.63-8.86a4.18,4.18,0,0,1,4.24-4.24c1.32,0,2.62,1.4,3.47,2.4,0.85-1,2.16-2.4,3.47-2.4a4.18,4.18,0,0,1,4.24,4.24c0,2.93-2.62,5.32-6.62,8.86Zm0,0" transform="translate(-92.66 -450.06)"/><path class="cls-3" d="M111.48,467.79c-0.85-1-2.15-2.38-3.45-2.38a4.18,4.18,0,0,0-4.24,4.23c0,2.93,2.62,5.32,6.63,8.86l1.06,1.06V467.79Z" transform="translate(-92.66 -450.06)"/><path class="cls-2" d="M143,499.18l-1.08-1.08c-4-3.54-6.62-5.93-6.62-8.86a4.18,4.18,0,0,1,4.24-4.23c1.31,0,2.62,1.4,3.47,2.4,0.85-1,2.16-2.4,3.47-2.4a4.18,4.18,0,0,1,4.24,4.23c0,2.93-2.62,5.32-6.62,8.86Zm0,0" transform="translate(-92.66 -450.06)"/><path class="cls-3" d="M142.94,487.39c-0.85-1-2.15-2.38-3.45-2.38a4.18,4.18,0,0,0-4.24,4.24c0,2.93,2.62,5.32,6.62,8.86l1.06,1.06V487.39Z" transform="translate(-92.66 -450.06)"/><path class="cls-2" d="M111.5,499.18l-1.08-1.08c-4-3.54-6.63-5.93-6.63-8.86A4.18,4.18,0,0,1,108,485c1.32,0,2.62,1.4,3.47,2.4,0.85-1,2.16-2.4,3.47-2.4a4.18,4.18,0,0,1,4.24,4.23c0,2.93-2.62,5.32-6.62,8.86Zm0,0" transform="translate(-92.66 -450.06)"/><path class="cls-3" d="M111.48,487.39c-0.85-1-2.15-2.38-3.45-2.38a4.18,4.18,0,0,0-4.24,4.24c0,2.93,2.62,5.32,6.63,8.86l1.06,1.06V487.39Z" transform="translate(-92.66 -450.06)"/><path class="cls-2" d="M111.5,518.79l-1.08-1.08c-4-3.54-6.63-5.93-6.63-8.86a4.18,4.18,0,0,1,4.24-4.23c1.32,0,2.62,1.4,3.47,2.4,0.85-1,2.16-2.4,3.47-2.4a4.18,4.18,0,0,1,4.24,4.23c0,2.93-2.62,5.32-6.62,8.86Zm0,0" transform="translate(-92.66 -450.06)"/><path class="cls-3" d="M111.48,507c-0.85-1-2.15-2.38-3.45-2.38a4.18,4.18,0,0,0-4.24,4.23c0,2.93,2.62,5.32,6.63,8.86l1.06,1.06V507Z" transform="translate(-92.66 -450.06)"/><path class="cls-2" d="M143,518.79l-1.08-1.08c-4-3.54-6.62-5.93-6.62-8.86a4.18,4.18,0,0,1,4.24-4.23c1.31,0,2.62,1.4,3.47,2.4,0.85-1,2.16-2.4,3.47-2.4a4.18,4.18,0,0,1,4.24,4.23c0,2.93-2.62,5.32-6.62,8.86Zm0,0" transform="translate(-92.66 -450.06)"/><path class="cls-3" d="M142.94,507c-0.85-1-2.15-2.38-3.45-2.38a4.18,4.18,0,0,0-4.24,4.23c0,2.93,2.62,5.32,6.62,8.86l1.06,1.06V507Z" transform="translate(-92.66 -450.06)"/><path class="cls-2" d="M111.5,538.4l-1.08-1.08c-4-3.54-6.63-5.93-6.63-8.86a4.18,4.18,0,0,1,4.24-4.23c1.32,0,2.62,1.4,3.47,2.4,0.85-1,2.16-2.4,3.47-2.4a4.18,4.18,0,0,1,4.24,4.23c0,2.93-2.62,5.32-6.62,8.86Zm0,0" transform="translate(-92.66 -450.06)"/><path class="cls-3" d="M111.48,526.62c-0.85-1-2.15-2.38-3.45-2.38a4.18,4.18,0,0,0-4.24,4.23c0,2.93,2.62,5.32,6.63,8.86l1.06,1.06V526.62Z" transform="translate(-92.66 -450.06)"/><path class="cls-2" d="M143,538.4l-1.08-1.08c-4-3.54-6.62-5.93-6.62-8.86a4.18,4.18,0,0,1,4.24-4.23c1.31,0,2.62,1.4,3.47,2.4,0.85-1,2.16-2.4,3.47-2.4a4.18,4.18,0,0,1,4.24,4.23c0,2.93-2.62,5.32-6.62,8.86Zm0,0" transform="translate(-92.66 -450.06)"/><path class="cls-3" d="M142.94,526.62c-0.85-1-2.15-2.38-3.45-2.38a4.18,4.18,0,0,0-4.24,4.23c0,2.93,2.62,5.32,6.62,8.86l1.06,1.06V526.62Z" transform="translate(-92.66 -450.06)"/><text class="cls-4" transform="translate(3.08 8.71)">10</text><text class="cls-4" transform="translate(66.04 94.97) rotate(180)">10</text><path class="cls-2" d="M100.08,470l-0.58-.58c-2.14-1.9-3.54-3.17-3.54-4.74a2.24,2.24,0,0,1,2.27-2.27,3,3,0,0,1,1.86,1.28,3,3,0,0,1,1.86-1.28,2.24,2.24,0,0,1,2.27,2.27c0,1.57-1.4,2.85-3.54,4.74Zm0,0" transform="translate(-92.66 -450.06)"/><path class="cls-3" d="M100.07,463.71a3,3,0,0,0-1.85-1.27A2.24,2.24,0,0,0,96,464.71c0,1.57,1.4,2.85,3.54,4.74l0.57,0.57v-6.3Z" transform="translate(-92.66 -450.06)"/><path class="cls-2" d="M154.37,533.78l0.58,0.58c2.14,1.9,3.54,3.17,3.54,4.74a2.24,2.24,0,0,1-2.27,2.27,3,3,0,0,1-1.86-1.29,3,3,0,0,1-1.86,1.29,2.24,2.24,0,0,1-2.27-2.27c0-1.57,1.4-2.85,3.54-4.74Zm0,0" transform="translate(-92.66 -450.06)"/><path class="cls-3" d="M154.38,540.08a3,3,0,0,0,1.85,1.28,2.24,2.24,0,0,0,2.27-2.27c0-1.57-1.4-2.85-3.54-4.74l-0.57-.57v6.3Z" transform="translate(-92.66 -450.06)"/><path class="cls-2" d="M127.22,489.88l-1.08-1.08c-4-3.54-6.63-5.93-6.63-8.86a4.18,4.18,0,0,1,4.24-4.23c1.31,0,2.62,1.4,3.47,2.4,0.85-1,2.16-2.4,3.47-2.4a4.18,4.18,0,0,1,4.24,4.23c0,2.93-2.62,5.32-6.62,8.86Zm0,0" transform="translate(-92.66 -450.06)"/><path class="cls-3" d="M127.21,478.09c-0.85-1-2.15-2.38-3.45-2.38a4.18,4.18,0,0,0-4.24,4.23c0,2.93,2.62,5.32,6.63,8.86l1.06,1.06V478.09Z" transform="translate(-92.66 -450.06)"/><path class="cls-2" d="M127.22,528.25l-1.08-1.08c-4-3.54-6.63-5.93-6.63-8.86a4.18,4.18,0,0,1,4.24-4.23c1.31,0,2.62,1.4,3.47,2.4,0.85-1,2.16-2.4,3.47-2.4a4.18,4.18,0,0,1,4.24,4.23c0,2.93-2.62,5.32-6.62,8.86Zm0,0" transform="translate(-92.66 -450.06)"/><path class="cls-3" d="M127.21,516.47c-0.85-1-2.15-2.38-3.45-2.38a4.18,4.18,0,0,0-4.24,4.24c0,2.93,2.62,5.32,6.63,8.86l1.06,1.06V516.47Z" transform="translate(-92.66 -450.06)"/></svg>