<svg id="Objects" xmlns="http://www.w3.org/2000/svg" viewBox="0 0 69.12 103.68"><defs><style>.cls-1{fill:#f2f2f2;}.cls-2,.cls-4{fill:#7a2b2b;}.cls-3{fill:#943434;}.cls-4{font-size:10.89px;font-family:ChunkFive;}</style></defs><title>2</title><rect class="cls-1" width="69.12" height="103.68" rx="2.72" ry="2.72"/><path class="cls-2" d="M127.22,66.62l-1.08-1.08c-4-3.54-6.62-5.93-6.62-8.86a4.18,4.18,0,0,1,4.24-4.24c1.31,0,2.62,1.4,3.47,2.4,0.85-1,2.16-2.4,3.47-2.4a4.18,4.18,0,0,1,4.24,4.24c0,2.93-2.62,5.32-6.62,8.86Zm0,0" transform="translate(-92.66 -25.98)"/><path class="cls-3" d="M127.21,54.83c-0.85-1-2.15-2.38-3.45-2.38a4.18,4.18,0,0,0-4.24,4.23c0,2.93,2.62,5.32,6.62,8.86l1.06,1.06V54.83Z" transform="translate(-92.66 -25.98)"/><path class="cls-2" d="M127.22,103.19l-1.08-1.08c-4-3.54-6.62-5.93-6.62-8.86A4.18,4.18,0,0,1,123.75,89c1.31,0,2.62,1.4,3.47,2.4,0.85-1,2.16-2.4,3.47-2.4a4.18,4.18,0,0,1,4.24,4.24c0,2.93-2.62,5.32-6.62,8.86Zm0,0" transform="translate(-92.66 -25.98)"/><path class="cls-3" d="M127.21,91.41c-0.85-1-2.15-2.38-3.45-2.38a4.18,4.18,0,0,0-4.24,4.23c0,2.93,2.62,5.32,6.62,8.86l1.06,1.06V91.41Z" transform="translate(-92.66 -25.98)"/><path class="cls-2" d="M100,45.85l-0.58-.58c-2.14-1.89-3.54-3.17-3.54-4.74a2.24,2.24,0,0,1,2.27-2.27A3,3,0,0,1,100,39.55a3,3,0,0,1,1.86-1.29,2.24,2.24,0,0,1,2.27,2.27c0,1.57-1.4,2.85-3.54,4.74Zm0,0" transform="translate(-92.66 -25.98)"/><path class="cls-3" d="M100,39.55a3,3,0,0,0-1.85-1.27,2.24,2.24,0,0,0-2.27,2.27c0,1.57,1.4,2.85,3.54,4.74L100,45.85v-6.3Z" transform="translate(-92.66 -25.98)"/><path class="cls-2" d="M154.32,109.61l0.58,0.58c2.14,1.9,3.54,3.17,3.54,4.74a2.24,2.24,0,0,1-2.27,2.27,3,3,0,0,1-1.86-1.28,3,3,0,0,1-1.86,1.28,2.24,2.24,0,0,1-2.27-2.27c0-1.57,1.4-2.85,3.54-4.74Zm0,0" transform="translate(-92.66 -25.98)"/><path class="cls-3" d="M154.33,115.92a3,3,0,0,0,1.85,1.27,2.24,2.24,0,0,0,2.27-2.27c0-1.57-1.4-2.85-3.54-4.74l-0.57-.57v6.3Z" transform="translate(-92.66 -25.98)"/><text class="cls-4" transform="translate(4.62 10.45)">2</text><text class="cls-4" transform="translate(64.51 93.23) rotate(180)">2</text></svg>