<svg id="Objects" xmlns="http://www.w3.org/2000/svg" viewBox="0 0 69.12 103.68"><defs><style>.cls-1{fill:#f2f2f2;}.cls-2,.cls-4{fill:#7a2b2b;}.cls-3{fill:#943434;}.cls-4{font-size:10.89px;font-family:ChunkFive;}</style></defs><title>8</title><rect class="cls-1" width="69.12" height="103.68" rx="2.72" ry="2.72"/><path class="cls-2" d="M142.94,378.53l-1.08-1.08c-4-3.54-6.62-5.93-6.62-8.86a4.18,4.18,0,0,1,4.24-4.24c1.32,0,2.62,1.4,3.47,2.4,0.85-1,2.16-2.4,3.47-2.4a4.18,4.18,0,0,1,4.24,4.24c0,2.93-2.62,5.32-6.62,8.86Zm0,0" transform="translate(-92.66 -344.12)"/><path class="cls-3" d="M142.92,366.75c-0.85-1-2.15-2.38-3.45-2.38a4.18,4.18,0,0,0-4.24,4.24c0,2.93,2.62,5.32,6.62,8.86l1.06,1.06V366.75Z" transform="translate(-92.66 -344.12)"/><path class="cls-2" d="M111.48,427.58l-1.08-1.08c-4-3.54-6.62-5.93-6.62-8.86A4.18,4.18,0,0,1,108,413.4c1.31,0,2.62,1.4,3.47,2.4,0.85-1,2.16-2.4,3.47-2.4a4.18,4.18,0,0,1,4.24,4.23c0,2.93-2.62,5.32-6.62,8.86Zm0,0" transform="translate(-92.66 -344.12)"/><path class="cls-3" d="M111.46,415.79c-0.85-1-2.15-2.38-3.45-2.38a4.18,4.18,0,0,0-4.24,4.24c0,2.93,2.62,5.32,6.62,8.86l1.06,1.06V415.79Z" transform="translate(-92.66 -344.12)"/><path class="cls-2" d="M111.48,378.53l-1.08-1.08c-4-3.54-6.62-5.93-6.62-8.86a4.18,4.18,0,0,1,4.24-4.24c1.31,0,2.62,1.4,3.47,2.4,0.85-1,2.16-2.4,3.47-2.4a4.18,4.18,0,0,1,4.24,4.24c0,2.93-2.62,5.32-6.62,8.86Zm0,0" transform="translate(-92.66 -344.12)"/><path class="cls-3" d="M111.46,366.75c-0.85-1-2.15-2.38-3.45-2.38a4.18,4.18,0,0,0-4.24,4.24c0,2.93,2.62,5.32,6.62,8.86l1.06,1.06V366.75Z" transform="translate(-92.66 -344.12)"/><path class="cls-2" d="M142.94,403.05L141.86,402c-4-3.54-6.62-5.93-6.62-8.86a4.18,4.18,0,0,1,4.24-4.24c1.32,0,2.62,1.4,3.47,2.4,0.85-1,2.16-2.4,3.47-2.4a4.18,4.18,0,0,1,4.24,4.24c0,2.93-2.62,5.32-6.62,8.86Zm0,0" transform="translate(-92.66 -344.12)"/><path class="cls-3" d="M142.92,391.27c-0.85-1-2.15-2.38-3.45-2.38a4.18,4.18,0,0,0-4.24,4.24c0,2.93,2.62,5.32,6.62,8.86l1.06,1.06V391.27Z" transform="translate(-92.66 -344.12)"/><path class="cls-2" d="M111.48,403.05L110.4,402c-4-3.54-6.62-5.93-6.62-8.86a4.18,4.18,0,0,1,4.24-4.24c1.31,0,2.62,1.4,3.47,2.4,0.85-1,2.16-2.4,3.47-2.4a4.18,4.18,0,0,1,4.24,4.24c0,2.93-2.62,5.32-6.62,8.86Zm0,0" transform="translate(-92.66 -344.12)"/><path class="cls-3" d="M111.46,391.27c-0.85-1-2.15-2.38-3.45-2.38a4.18,4.18,0,0,0-4.24,4.24c0,2.93,2.62,5.32,6.62,8.86l1.06,1.06V391.27Z" transform="translate(-92.66 -344.12)"/><path class="cls-2" d="M142.94,427.58l-1.08-1.08c-4-3.54-6.62-5.93-6.62-8.86a4.18,4.18,0,0,1,4.24-4.23c1.32,0,2.62,1.4,3.47,2.4,0.85-1,2.16-2.4,3.47-2.4a4.18,4.18,0,0,1,4.24,4.23c0,2.93-2.62,5.32-6.62,8.86Zm0,0" transform="translate(-92.66 -344.12)"/><path class="cls-3" d="M142.92,415.79c-0.85-1-2.15-2.38-3.45-2.38a4.18,4.18,0,0,0-4.24,4.24c0,2.93,2.62,5.32,6.62,8.86l1.06,1.06V415.79Z" transform="translate(-92.66 -344.12)"/><text class="cls-4" transform="translate(4.62 10.45)">8</text><text class="cls-4" transform="translate(64.51 93.23) rotate(180)">8</text><path class="cls-2" d="M100.08,364.09l-0.58-.58c-2.14-1.9-3.54-3.17-3.54-4.74a2.24,2.24,0,0,1,2.27-2.27,3,3,0,0,1,1.86,1.29,3,3,0,0,1,1.86-1.29,2.24,2.24,0,0,1,2.27,2.27c0,1.57-1.4,2.85-3.54,4.74Zm0,0" transform="translate(-92.66 -344.12)"/><path class="cls-3" d="M100.07,357.78a3,3,0,0,0-1.85-1.27A2.24,2.24,0,0,0,96,358.77c0,1.57,1.4,2.85,3.54,4.74l0.57,0.57v-6.3Z" transform="translate(-92.66 -344.12)"/><path class="cls-2" d="M154.37,427.85l0.58,0.58c2.14,1.89,3.54,3.17,3.54,4.74a2.24,2.24,0,0,1-2.27,2.27,3,3,0,0,1-1.86-1.29,3,3,0,0,1-1.86,1.29,2.24,2.24,0,0,1-2.27-2.27c0-1.57,1.4-2.85,3.54-4.74Zm0,0" transform="translate(-92.66 -344.12)"/><path class="cls-3" d="M154.38,434.15a3,3,0,0,0,1.85,1.28,2.24,2.24,0,0,0,2.27-2.27c0-1.57-1.4-2.85-3.54-4.74l-0.57-.57v6.3Z" transform="translate(-92.66 -344.12)"/><path class="cls-2" d="M127.22,389.62l-1.08-1.08c-4-3.54-6.63-5.93-6.63-8.86a4.18,4.18,0,0,1,4.24-4.24c1.32,0,2.62,1.4,3.47,2.4,0.85-1,2.16-2.4,3.47-2.4a4.18,4.18,0,0,1,4.24,4.24c0,2.93-2.62,5.32-6.62,8.86Zm0,0" transform="translate(-92.66 -344.12)"/><path class="cls-3" d="M127.21,377.84c-0.85-1-2.15-2.38-3.45-2.38a4.18,4.18,0,0,0-4.24,4.24c0,2.93,2.62,5.32,6.63,8.86l1.06,1.06V377.84Z" transform="translate(-92.66 -344.12)"/><path class="cls-2" d="M127.22,415.65l-1.08-1.08c-4-3.54-6.63-5.93-6.63-8.86a4.18,4.18,0,0,1,4.24-4.24c1.32,0,2.62,1.4,3.47,2.4,0.85-1,2.16-2.4,3.47-2.4a4.18,4.18,0,0,1,4.24,4.24c0,2.93-2.62,5.32-6.62,8.86Zm0,0" transform="translate(-92.66 -344.12)"/><path class="cls-3" d="M127.21,403.87c-0.85-1-2.15-2.38-3.45-2.38a4.18,4.18,0,0,0-4.24,4.23c0,2.93,2.62,5.32,6.63,8.86l1.06,1.06V403.87Z" transform="translate(-92.66 -344.12)"/></svg>