<svg id="Objects" xmlns="http://www.w3.org/2000/svg" viewBox="0 0 69.12 103.68"><defs><style>.cls-1{fill:#f2f2f2;}.cls-2,.cls-4{fill:#7a2b2b;}.cls-3{fill:#943434;}.cls-4{font-size:10.89px;font-family:ChunkFive;}</style></defs><title>A</title><rect class="cls-1" width="69.12" height="103.68" rx="2.72" ry="2.72"/><path class="cls-2" d="M127.22,739.66L124.56,737c-9.88-8.74-16.34-14.63-16.34-21.86a10.31,10.31,0,0,1,10.45-10.45c3.24,0,6.47,3.46,8.56,5.92,2.09-2.47,5.32-5.92,8.56-5.92a10.31,10.31,0,0,1,10.45,10.45c0,7.23-6.46,13.12-16.34,21.86Zm0,0" transform="translate(-92.66 -670.34)"/><path class="cls-3" d="M127.18,710.6c-2.09-2.46-5.29-5.88-8.52-5.88a10.31,10.31,0,0,0-10.45,10.45c0,7.23,6.46,13.12,16.34,21.86l2.62,2.62v-29Z" transform="translate(-92.66 -670.34)"/><path class="cls-2" d="M100,690.21l-0.58-.58c-2.14-1.9-3.54-3.17-3.54-4.74a2.24,2.24,0,0,1,2.27-2.27,3,3,0,0,1,1.86,1.29,3,3,0,0,1,1.86-1.29,2.24,2.24,0,0,1,2.27,2.27c0,1.57-1.4,2.85-3.54,4.74Zm0,0" transform="translate(-92.66 -670.34)"/><path class="cls-3" d="M100,683.91a3,3,0,0,0-1.85-1.28,2.24,2.24,0,0,0-2.27,2.27c0,1.57,1.4,2.85,3.54,4.74l0.57,0.57v-6.3Z" transform="translate(-92.66 -670.34)"/><path class="cls-2" d="M154.32,754l0.58,0.58c2.14,1.9,3.54,3.17,3.54,4.74a2.24,2.24,0,0,1-2.27,2.27,3,3,0,0,1-1.86-1.29,3,3,0,0,1-1.86,1.29,2.24,2.24,0,0,1-2.27-2.27c0-1.57,1.4-2.85,3.54-4.74Zm0,0" transform="translate(-92.66 -670.34)"/><path class="cls-3" d="M154.33,760.28a3,3,0,0,0,1.85,1.28,2.24,2.24,0,0,0,2.27-2.27c0-1.57-1.4-2.85-3.54-4.74l-0.57-.57v6.3Z" transform="translate(-92.66 -670.34)"/><text class="cls-4" transform="translate(4.08 10.45)">A</text><text class="cls-4" transform="translate(65.04 93.23) rotate(180)">A</text></svg>