<?xml version="1.0" encoding="utf-8"?>
<!-- Generator: Adobe Illustrator 19.2.1, SVG Export Plug-In . SVG Version: 6.00 Build 0)  -->
<svg version="1.1" id="Objects" xmlns="http://www.w3.org/2000/svg" xmlns:xlink="http://www.w3.org/1999/xlink" x="0px" y="0px"
	 viewBox="0 0 69.1 103.7" style="enable-background:new 0 0 69.1 103.7;" xml:space="preserve">
<style type="text/css">
	.st0{fill:#F2F2F2;}
	.st1{fill:#7A2B2B;}
	.st2{fill:#943434;}
	.st3{font-family:'ChunkFive-Roman';}
	.st4{font-size:10.89px;}
	.st5{fill:#AA292E;}
	.st6{fill:#1F2D6C;}
	.st7{fill:#0B050F;}
	.st8{fill:#AD6E2D;}
	.st9{fill:#3856C8;}
	.st10{fill:#BF9B4D;}
	.st11{fill:#E8EFFF;}
	.st12{fill:#C9D8F7;}
	.st13{fill:#715C57;}
	.st14{fill:#AA7941;}
	.st15{fill:#DCE3F2;}
	.st16{fill:#D28537;}
	.st17{fill:#A86B2C;}
	.st18{fill:#B3712E;}
	.st19{fill:#B87530;}
	.st20{fill:#BD7831;}
	.st21{fill:#333333;}
	.st22{fill:#2A3757;}
</style>
<title>J</title>
<path class="st0" d="M2.7,0h63.7c1.5,0,2.7,1.2,2.7,2.7V101c0,1.5-1.2,2.7-2.7,2.7H2.7c-1.5,0-2.7-1.2-2.7-2.7V2.7
	C0,1.2,1.2,0,2.7,0z"/>
<path class="st1" d="M7.4,21.9l-0.6-0.6c-2.1-1.9-3.5-3.2-3.5-4.7c0-1.2,1-2.3,2.2-2.3c0,0,0,0,0.1,0c0.8,0.2,1.4,0.6,1.9,1.3
	c0.4-0.7,1.1-1.1,1.9-1.3c1.2,0,2.3,1,2.3,2.2c0,0,0,0,0,0.1c0,1.6-1.4,2.9-3.5,4.7L7.4,21.9z"/>
<path class="st2" d="M7.4,15.6c-0.4-0.7-1.1-1.1-1.9-1.3c-1.2,0-2.3,1-2.3,2.2c0,0,0,0,0,0.1c0,1.6,1.4,2.9,3.5,4.7l0.6,0.6
	L7.4,15.6L7.4,15.6z"/>
<path class="st1" d="M61.6,81.6l0.6,0.6c2.1,1.9,3.5,3.2,3.5,4.7c0,1.2-1,2.3-2.2,2.3c0,0,0,0-0.1,0c-0.8-0.2-1.4-0.6-1.9-1.3
	c-0.4,0.7-1.1,1.1-1.9,1.3c-1.2,0-2.3-1-2.3-2.2c0,0,0,0,0-0.1c0-1.6,1.4-2.8,3.5-4.7L61.6,81.6z"/>
<path class="st2" d="M61.7,87.9c0.4,0.6,1.1,1.1,1.9,1.3c1.2,0,2.3-1,2.3-2.2c0,0,0,0,0-0.1c0-1.6-1.4-2.8-3.5-4.7l-0.6-0.6
	L61.7,87.9L61.7,87.9z"/>
<text transform="matrix(1 0 0 1 5.39 10.45)" class="st1 st3 st4">J</text>
<text transform="matrix(-1 0 0 -1 63.7305 93.2308)" class="st1 st3 st4">J</text>
<path class="st5" d="M50.1,73.5c2.7-1.2,5.2-2.9,7.2-5.1v-4.6h-7.2V73.5L50.1,73.5z"/>
<path class="st5" d="M47.1,16.7l3.9-5c0,0-7.5-5-9-5.1s-18.7,5.2-18.7,5.2l3.9,6.2L47.1,16.7z"/>
<path class="st6" d="M27.2,10.6c0,0,2.1,6.8,2.7,7.2s3.4-0.8,3.4-0.8S31,14.9,30,9.8L27.2,10.6z"/>
<path class="st5" d="M57.3,61.5V35.6c-2.5-2.8-6-4.5-9.8-4.8C47.5,30.9,47.4,57.1,57.3,61.5z"/>
<rect x="34.9" y="32.3" class="st7" width="3.3" height="6.1"/>
<rect x="41.5" y="30.2" class="st7" width="3.3" height="6.1"/>
<rect x="31.5" y="29.9" class="st5" width="3.3" height="6.1"/>
<rect x="38.2" y="31.9" class="st5" width="3.3" height="6.1"/>
<rect x="28.3" y="28" class="st7" width="3.3" height="6.1"/>
<rect x="25" y="27.9" class="st5" width="3.3" height="3.8"/>
<polygon class="st8" points="44.8,28 44.1,30.7 46.7,30.9 "/>
<path class="st7" d="M48.4,31c0,0-1.2,17.1,8.9,30.5c0,1.2,0,1.8,0,1.8s-5.9-2.8-9.3-14.5S46.2,31,46.2,31L48.4,31L48.4,31z"/>
<path class="st6" d="M46.9,31.4c0,0-0.3,11.3,2.5,18s4.7,11.4,8,13.9v5.2c0,0-9.1-8.8-12.1-18.8c-1.8-6-2.6-12.3-2.4-18.6L46.9,31.4
	z"/>
<ellipse class="st5" cx="45.1" cy="31" rx="1.9" ry="0.8"/>
<ellipse transform="matrix(0.9986 -5.268454e-02 5.268454e-02 0.9986 -1.6652 2.4197)" class="st5" cx="45.1" cy="32.8" rx="1.9" ry="0.8"/>
<ellipse transform="matrix(0.9942 -0.1071 0.1071 0.9942 -3.4789 5.0226)" class="st5" cx="45" cy="34.9" rx="1.8" ry="0.7"/>
<ellipse transform="matrix(0.9866 -0.1633 0.1633 0.9866 -5.4503 7.8797)" class="st5" cx="45.2" cy="37.1" rx="1.8" ry="0.7"/>
<ellipse transform="matrix(0.9754 -0.2204 0.2204 0.9754 -7.6009 10.9776)" class="st5" cx="45.4" cy="39.6" rx="1.8" ry="0.7"/>
<ellipse transform="matrix(0.9606 -0.278 0.278 0.9606 -9.8949 14.3908)" class="st5" cx="45.8" cy="42.1" rx="1.8" ry="0.7"/>
<ellipse transform="matrix(0.9421 -0.3355 0.3355 0.9421 -12.3163 18.1323)" class="st5" cx="46.3" cy="44.7" rx="1.8" ry="0.7"/>
<ellipse transform="matrix(0.92 -0.392 0.392 0.92 -14.8487 22.2049)" class="st5" cx="47" cy="47.5" rx="1.8" ry="0.7"/>
<ellipse transform="matrix(0.8946 -0.4468 0.4468 0.8946 -17.3603 26.6268)" class="st5" cx="47.8" cy="50.1" rx="1.8" ry="0.7"/>
<ellipse transform="matrix(0.8661 -0.4998 0.4998 0.8661 -19.9159 31.4192)" class="st5" cx="48.7" cy="52.9" rx="1.8" ry="0.7"/>
<ellipse transform="matrix(0.8346 -0.5509 0.5509 0.8346 -22.3092 36.6117)" class="st5" cx="49.8" cy="55.5" rx="1.8" ry="0.7"/>
<ellipse transform="matrix(0.8011 -0.5985 0.5985 0.8011 -24.5201 42.0859)" class="st5" cx="51.1" cy="57.9" rx="1.8" ry="0.7"/>
<ellipse transform="matrix(0.7659 -0.6429 0.6429 0.7659 -26.4928 47.8719)" class="st5" cx="52.5" cy="60.3" rx="1.8" ry="0.7"/>
<ellipse transform="matrix(0.7299 -0.6835 0.6835 0.7299 -28.1472 53.8624)" class="st5" cx="54.1" cy="62.5" rx="1.9" ry="0.8"/>
<ellipse transform="matrix(0.6929 -0.721 0.721 0.6929 -29.3309 60.0697)" class="st5" cx="55.9" cy="64.5" rx="1.9" ry="0.8"/>
<rect x="32.7" y="40.1" class="st9" width="5.3" height="5.8"/>
<polygon class="st10" points="32.9,45.7 38,45.7 38,51 "/>
<rect x="32.7" y="40.9" class="st10" width="5.3" height="4.3"/>
<polygon class="st10" points="32.7,40.5 38,40.5 38,39.1 32.7,35.9 "/>
<path class="st5" d="M39,51.5l-0.2-12.3l4.3-2.5c0,0,0.9,10.2,1.9,12S39,51.5,39,51.5z"/>
<polygon class="st11" points="39.1,51.5 37.8,50.9 37.8,38.3 39.1,38.3 "/>
<polygon class="st7" points="39.5,52 38.2,51.4 38.2,38.8 39.5,38.8 "/>
<path class="st7" d="M47.9,56.3c-0.4-1.1-1.2-2.1-1.7-3.2c-0.9-1.7-1.5-3.5-1.8-5.4h-0.1c-2.6,0-4.9,1.6-5.9,4
	c0.2,0.2,0.4,0.5,0.6,0.7c0.4,0.4,1,0.7,1.4,1c1.1,0.9,2,2,3.2,2.7c1,0.5,2,0.9,3,1.2c0.4,0.2,0.9,0.3,1.3,0.4l0.4-0.1
	C48.2,57.2,48.1,56.7,47.9,56.3z"/>
<path class="st10" d="M47.9,56.3c-0.4-1.1-1.2-2.1-1.7-3.2c-0.8-1.5-1.4-3.2-1.7-4.9h-0.2c-2.5,0-4.7,1.6-5.5,3.9l0.3,0.2
	c0.4,0.4,1,0.7,1.4,1c1.1,0.9,2,2,3.2,2.7c1,0.5,2,0.9,3,1.2c0.4,0.2,0.9,0.3,1.3,0.4l0.4-0.1C48.2,57.2,48.1,56.7,47.9,56.3z"/>
<path class="st9" d="M46.2,53.1c-0.4-0.7-0.7-1.4-0.9-2.1c-1.7-0.5-3.4,0.4-4,2.1c-0.1,0.3-0.1,0.6-0.1,0.9c0.8,0.8,1.6,1.6,2.6,2.2
	c0.6,0.3,1.2,0.6,1.9,0.8c0.8-0.4,1.4-1,1.7-1.9C46.9,54.4,46.5,53.8,46.2,53.1z"/>
<polygon class="st5" points="26.5,41.6 31.6,44.5 31.9,34.9 26.5,31.9 "/>
<rect x="31.6" y="35.3" class="st11" width="1.3" height="9.8"/>
<path class="st12" d="M21.5,29c1.4-0.8,2.9-1.3,4.5-1.6l0.3,14c0,0-3.5-1.3-5.1-1.2L21.5,29z"/>
<polygon class="st13" points="21.5,29 20.7,29.3 20.7,40 21.5,40 "/>
<path class="st7" d="M20.7,29.3c-0.6,0.2-1.2,0.5-1.7,0.9v9.7h1.7V29.3z"/>
<path class="st5" d="M19,30.2c-2.7,1.2-5.2,2.9-7.2,5.1v4.6H19V30.2L19,30.2z"/>
<rect x="31.1" y="34.9" class="st7" width="1.3" height="9.8"/>
<rect x="26" y="27.4" class="st13" width="0.8" height="13.7"/>
<path class="st14" d="M47.4,57.9c-0.7,0-1.3-0.2-1.9-0.4c-2.6-1-5.8-3.7-9.5-8.1c-4.5-5.3-8.8-7.4-11.7-8.2
	c-2.2-0.6-4.4-0.8-6.7-0.7l-0.1-0.9c2.4-0.1,4.7,0.1,7,0.7c3,0.9,7.6,3,12.2,8.5c8.3,9.9,11.5,8.1,11.5,8.1l0.5,0.7
	C48.2,57.8,47.8,57.9,47.4,57.9z"/>
<path class="st11" d="M26.9,31.4c0,0,10.7,7,11.7,7s4-2.1,4-2.1v1.2c-1.3,0.9-2.7,1.7-4.1,2.4c-0.5,0-11.6-7.2-11.6-7.2L26.9,31.4
	L26.9,31.4z"/>
<path class="st10" d="M28.1,28c0,0,9.1,6.7,10.3,6.7s5-3.3,5-3.3L28.1,28z"/>
<path class="st10" d="M26.9,30.5c0,0,10.8,7.1,11.8,7.1s4-2.4,4-2.4v1.2c-1.3,0.9-2.7,1.7-4.1,2.4c-0.5,0-11.6-7-11.6-7L26.9,30.5
	L26.9,30.5z"/>
<path class="st14" d="M42.3,31.8c0,0,0,11.3,2.6,18.8s9.3,18,11.3,18.9l1.1-1.1c0,0-4.7-3.9-11.4-18.4c-1.8-7.2-1.8-4.1-2.6-18.7
	S42.3,31.8,42.3,31.8z"/>
<path class="st15" d="M34,30.5c0,0,3.7,2.7,4.5,2.7s2.5-1.5,2.5-1.5s-5.1-3.4-6.5-2.9S34,30.5,34,30.5z"/>
<path class="st16" d="M44.3,17.1c0,0,1.8,1.7,1.3,6.3s-0.8,9.1,2.5,7.7s0.5-4.9-1.5-3c0,0,0-2.2,0.3-5.2S46.9,17.1,44.3,17.1z"/>
<path class="st11" d="M46.1,17.9c0,0,0.5,2.7,0,3.3s0,1.4,0,2.1s0.7,6.3-3.1,8.3s-3.5-0.8-8.2-2.5c0,0-0.7-10.9,2.5-11.8
	C37.2,17.2,43.6,16.6,46.1,17.9z"/>
<path class="st17" d="M30.5,18.6c0,0-1.2,1-1.2,4s-1.5,6-3.6,4.9s0-3.2,1.2-1.9c0,0,0.1-1.4,0.1-3.4S28,18.1,30.5,18.6z"/>
<path class="st8" d="M31.6,17.9c0,0-1.4,1.2-1.4,4.6s-0.8,7-3.1,5.7s0-3.7,1.4-2.2c0,0,0.2-1.7,0.2-3.9S29.7,17.7,31.6,17.9z"/>
<path class="st18" d="M33.2,17.5c-0.9,1.9-1.4,4-1.4,6.1c0,3.7-1,6.4-3.6,5s0-4,1.5-2.3c0,0,0.2-1.8,0.2-4.2S31.1,17.3,33.2,17.5z"
	/>
<path class="st19" d="M34.4,17.4c0,0-1,1.6-1,5.7s-0.8,8-3.7,6.4s0-4.5,1.7-2.6c0,0,0.2-2,0.2-4.7S32.1,17.1,34.4,17.4z"/>
<path class="st20" d="M36.1,17.2c0,0-1.8,1.5-1.8,5.9s-0.1,8.8-3.1,7.1s0-4.7,1.8-2.8c0,0,0.2-2.1,0.2-5S33.6,16.9,36.1,17.2z"/>
<path class="st16" d="M37.2,17.2c0,0-1.9,1.6-1.9,6.1s-0.1,9.1-3.2,7.4s0-4.9,1.8-2.9c0,0,0.2-2.2,0.2-5.2S34.6,16.9,37.2,17.2z"/>
<path class="st21" d="M27.6,19.8c0,0,7.2-4,18.9-1.4l0.7-1.7c-6.6-2.1-13.7-1.6-20,1.3L27.6,19.8z"/>
<path class="st16" d="M43.1,20.8c0.5-0.2,1-0.3,1.5-0.3c0.2,0,0.4,0,0.6,0c0.2,0.1,0.3,0.1,0.5,0.2c0.1,0.1,0.2,0.3,0.3,0.4l0,0
	c-0.1-0.1-0.3-0.1-0.4-0.2c-0.1,0-0.3-0.1-0.4-0.1c-0.2,0-0.3-0.1-0.5-0.1c-0.2,0-0.4,0-0.5,0h-0.5C43.5,20.7,43.3,20.8,43.1,20.8
	L43.1,20.8L43.1,20.8z"/>
<path class="st16" d="M40,20.8c-0.2,0-0.3,0-0.5-0.1H39c-0.2,0-0.4,0-0.5,0c-0.2,0-0.4,0.1-0.5,0.1c-0.1,0-0.3,0.1-0.4,0.1
	c-0.1,0.1-0.3,0.1-0.4,0.2l0,0c0.1-0.2,0.2-0.3,0.3-0.4c0.2-0.1,0.3-0.2,0.5-0.2c0.2,0,0.4,0,0.6,0C39,20.5,39.5,20.6,40,20.8
	L40,20.8L40,20.8z"/>
<path class="st22" d="M41,22.1c-0.1,0.2-0.3,0.3-0.5,0.4c-0.2,0.1-0.4,0.2-0.6,0.3c-0.2,0.1-0.5,0.1-0.7,0.1c-0.3,0-0.5,0-0.8,0
	c-0.2,0-0.4-0.1-0.6-0.2c-0.2-0.1-0.4-0.2-0.5-0.3l0,0c0.2,0,0.4,0.1,0.6,0.1c0.2,0.1,0.4,0.1,0.6,0.1c0.5,0.1,0.9,0.1,1.4,0
	c0.1,0,0.2,0,0.3-0.1c0.1,0,0.2-0.1,0.3-0.1C40.6,22.3,40.8,22.2,41,22.1L41,22.1z"/>
<path class="st22" d="M43.3,22.1c0.1,0.1,0.2,0.2,0.4,0.2c0.1,0.1,0.3,0.1,0.4,0.1c0.2,0,0.3,0.1,0.5,0c0.2,0,0.3,0,0.5,0
	c0.1,0,0.3,0,0.4,0c0.1,0,0.3,0,0.5,0l0,0c-0.1,0.1-0.3,0.2-0.4,0.3c-0.1,0.1-0.3,0.1-0.5,0.1c-0.2,0-0.4,0-0.5,0
	c-0.2,0-0.4-0.1-0.5-0.1c-0.1-0.1-0.3-0.1-0.4-0.2c-0.1-0.1-0.2-0.2-0.4-0.3L43.3,22.1z"/>
<path class="st22" d="M42.6,21.5c0,0.4,0,0.9,0,1.3c0,0.4,0.1,0.9,0.2,1.3c0.1,0.2,0.1,0.5,0.2,0.7l0.4,0.7c0.1,0.1,0.1,0.3,0.1,0.4
	l-0.1,0.2l-0.1,0.2c-0.2,0.2-0.5,0.3-0.7,0.4c-0.2,0-0.5,0-0.8,0c-0.2,0-0.4-0.1-0.6-0.2c-0.2-0.1-0.3-0.2-0.4-0.4
	c-0.1-0.1-0.1-0.3-0.2-0.4c0-0.1,0-0.2,0-0.4l0,0c0,0.1,0,0.2,0.1,0.3c0.1,0.1,0.1,0.2,0.2,0.3c0.1,0.1,0.2,0.2,0.4,0.3
	c0.2,0.1,0.4,0.1,0.5,0.1c0.2,0,0.4,0,0.6,0c0.2,0,0.4-0.1,0.6-0.3c0.1-0.1,0.2-0.4,0.1-0.5l-0.3-0.7c-0.1-0.2-0.1-0.5-0.2-0.7
	c-0.1-0.4-0.1-0.9-0.1-1.3c0-0.4,0-0.9,0.1-1.3l0,0L42.6,21.5z"/>
<path class="st22" d="M39.7,28c0,0,1-0.1,2.1-0.1c0.5-0.1,1-0.1,1.4,0c0.2,0,0.4,0.1,0.6,0.1l0,0c-0.2,0.1-0.4,0.1-0.6,0.1
	c-0.5,0.1-1,0.1-1.4,0C40.8,28.1,39.7,28,39.7,28L39.7,28z"/>
<path class="st22" d="M41.2,29c0,0,0.4-0.1,0.8-0.1c0.2-0.1,0.3-0.1,0.5,0c0.1,0,0.2,0.1,0.2,0.1l0,0c-0.1,0.1-0.1,0.1-0.2,0.1
	c-0.2,0.1-0.3,0.1-0.5,0C41.6,29.1,41.2,29,41.2,29L41.2,29z"/>
<path class="st5" d="M22,87l-3.9,5c0,0,7.5,5,9,5.1s18.7-5.2,18.7-5.2l-3.9-6.2L22,87z"/>
<path class="st6" d="M42,93.1c0,0-2.1-6.8-2.7-7.2s-3.4,0.8-3.4,0.8s2.2,2.1,3.2,7.3L42,93.1z"/>
<path class="st5" d="M11.8,42.2v25.9c2.5,2.8,6,4.5,9.8,4.8C21.6,72.8,21.7,46.6,11.8,42.2z"/>
<rect x="30.9" y="65.3" class="st7" width="3.3" height="6.1"/>
<rect x="24.2" y="67.4" class="st7" width="3.3" height="6.1"/>
<rect x="34.3" y="67.7" class="st5" width="3.3" height="6.1"/>
<rect x="27.6" y="65.7" class="st5" width="3.3" height="6.1"/>
<rect x="37.5" y="69.6" class="st7" width="3.3" height="6.1"/>
<rect x="40.8" y="72" class="st5" width="3.3" height="3.8"/>
<polygon class="st8" points="24.3,75.7 25,72.9 22.5,72.8 "/>
<path class="st7" d="M20.7,72.7c0,0,1.2-17.1-8.9-30.5v-1.8c0,0,5.9,2.8,9.3,14.5c3.4,11.7,1.8,17.8,1.8,17.8L20.7,72.7L20.7,72.7z"
	/>
<path class="st6" d="M22.3,72.3c0,0,0.3-11.3-2.5-18s-4.7-11.4-8-13.9v-5.1c0,0,5,1,12.1,18.8c1.8,6,2.6,12.3,2.4,18.6L22.3,72.3z"
	/>
<ellipse class="st5" cx="24" cy="72.6" rx="1.9" ry="0.8"/>
<ellipse transform="matrix(0.9986 -5.251025e-02 5.251025e-02 0.9986 -3.6896 1.3607)" class="st5" cx="24.1" cy="70.9" rx="1.9" ry="0.8"/>
<ellipse transform="matrix(0.9942 -0.1071 0.1071 0.9942 -7.2342 2.9764)" class="st5" cx="24.1" cy="68.8" rx="1.8" ry="0.7"/>
<ellipse transform="matrix(0.9866 -0.1632 0.1632 0.9866 -10.5431 4.7972)" class="st5" cx="23.9" cy="66.6" rx="1.8" ry="0.7"/>
<ellipse transform="matrix(0.9754 -0.2204 0.2204 0.9754 -13.5577 6.7984)" class="st5" cx="23.7" cy="64.2" rx="1.8" ry="0.7"/>
<ellipse transform="matrix(0.9606 -0.278 0.278 0.9606 -16.2076 8.9082)" class="st5" cx="23.3" cy="61.6" rx="1.8" ry="0.7"/>
<ellipse transform="matrix(0.9421 -0.3355 0.3355 0.9421 -18.4689 11.0591)" class="st5" cx="22.8" cy="59" rx="1.8" ry="0.7"/>
<ellipse transform="matrix(0.9199 -0.3922 0.3922 0.9199 -20.2765 13.1961)" class="st5" cx="22.2" cy="56.2" rx="1.8" ry="0.7"/>
<ellipse transform="matrix(0.8945 -0.4471 0.4471 0.8945 -21.7086 15.1961)" class="st5" cx="21.3" cy="53.6" rx="1.8" ry="0.7"/>
<ellipse transform="matrix(0.8658 -0.5005 0.5005 0.8658 -22.7093 17.0427)" class="st5" cx="20.4" cy="50.9" rx="1.8" ry="0.7"/>
<ellipse transform="matrix(0.8346 -0.5509 0.5509 0.8346 -23.3777 18.621)" class="st5" cx="19.3" cy="48.2" rx="1.8" ry="0.7"/>
<ellipse transform="matrix(0.8014 -0.5982 0.5982 0.8014 -23.7577 19.8802)" class="st5" cx="18.1" cy="45.7" rx="1.8" ry="0.7"/>
<ellipse transform="matrix(0.7659 -0.6429 0.6429 0.7659 -23.9612 20.8318)" class="st5" cx="16.6" cy="43.3" rx="1.8" ry="0.7"/>
<ellipse transform="matrix(0.7297 -0.6838 0.6838 0.7297 -24.104 21.4178)" class="st5" cx="15" cy="41.2" rx="1.9" ry="0.8"/>
<ellipse transform="matrix(0.6929 -0.721 0.721 0.6929 -24.1563 21.5899)" class="st5" cx="13.3" cy="39.2" rx="1.9" ry="0.8"/>
<rect x="31.1" y="57.7" class="st9" width="5.3" height="5.8"/>
<polygon class="st10" points="36.2,58 31.1,58 31.1,52.7 "/>
<rect x="31" y="58.4" class="st10" width="5.3" height="4.3"/>
<polygon class="st10" points="36.4,63.2 31.1,63.2 31.1,64.6 36.4,67.8 "/>
<path class="st5" d="M30.1,52.2l0.2,12.3L26,67c0,0-0.9-10.2-1.9-12S30.1,52.2,30.1,52.2z"/>
<polygon class="st11" points="30,52.1 31.3,52.8 31.3,65.4 30,65.4 "/>
<polygon class="st7" points="29.6,51.7 30.9,52.3 30.9,64.9 29.6,64.9 "/>
<path class="st7" d="M21.2,47.4c0.4,1.1,1.2,2.1,1.7,3.2c0.9,1.7,1.5,3.5,1.8,5.4h0.1c2.6,0,4.9-1.6,5.9-4c-0.2-0.2-0.4-0.5-0.6-0.7
	c-0.4-0.4-1-0.7-1.4-1c-1.1-0.9-2-2-3.2-2.7c-1-0.5-2-0.9-3-1.2c-0.4-0.2-0.9-0.3-1.3-0.4L20.7,46C20.9,46.5,21,47,21.2,47.4z"/>
<path class="st10" d="M21.2,47.4c0.4,1.1,1.2,2.1,1.7,3.2c0.8,1.5,1.4,3.2,1.7,4.9h0.2c2.5,0,4.7-1.6,5.5-3.9
	c-0.1-0.1-0.2-0.2-0.3-0.2c-0.4-0.4-1-0.7-1.4-1c-1.1-0.9-2-2-3.2-2.7c-1-0.5-2-0.9-3-1.2c-0.4-0.2-0.9-0.3-1.3-0.4L20.7,46
	C20.9,46.5,21,47,21.2,47.4z"/>
<path class="st9" d="M22.9,50.6c0.4,0.7,0.7,1.4,0.9,2.1c1.7,0.5,3.4-0.4,4-2.1c0.1-0.3,0.1-0.6,0.1-0.9c-0.8-0.8-1.6-1.5-2.6-2.2
	c-0.6-0.3-1.2-0.6-1.9-0.8c-0.8,0.4-1.4,1-1.7,1.9C22.2,49.3,22.6,49.9,22.9,50.6z"/>
<polygon class="st5" points="42.7,62.1 37.5,59.1 37.2,68.8 42.7,71.8 "/>
<rect x="36.2" y="58.6" class="st11" width="1.3" height="9.8"/>
<path class="st12" d="M47.6,74.7c-1.4,0.8-2.9,1.3-4.5,1.6l-0.3-14c0,0,3.5,1.3,5.1,1.2L47.6,74.7z"/>
<polygon class="st13" points="47.6,74.7 48.4,74.4 48.4,63.6 47.6,63.6 "/>
<path class="st7" d="M48.4,74.4c0.6-0.2,1.2-0.5,1.7-0.9v-9.7h-1.7V74.4L48.4,74.4z"/>
<rect x="36.7" y="59" class="st7" width="1.3" height="9.8"/>
<rect x="42.3" y="62.6" class="st13" width="0.8" height="13.7"/>
<path class="st14" d="M21.8,45.8c0.7,0,1.3,0.2,1.9,0.4c2.6,1,5.8,3.7,9.5,8.1c4.5,5.3,8.8,7.4,11.7,8.2c2.1,0.5,4.4,0.7,6.5,0.5
	l0.1,0.9c-2.3,0.3-4.6,0.1-6.9-0.5c-3-0.9-7.6-3-12.2-8.5C24.2,45,21,46.8,21,46.8l-0.5-0.7C20.9,45.9,21.3,45.8,21.8,45.8z"/>
<path class="st11" d="M42.3,72.3c0,0-10.7-7-11.7-7s-4,2.1-4,2.1v-1.2c1.3-0.9,2.7-1.7,4.1-2.4c0.5,0,11.6,7.2,11.6,7.2L42.3,72.3
	L42.3,72.3z"/>
<path class="st10" d="M41.1,75.7c0,0-9-6.7-10.3-6.7s-5,3.3-5,3.3L41.1,75.7z"/>
<path class="st10" d="M42.3,73.2c0,0-10.7-7.1-11.7-7.1s-4,2.4-4,2.4v-1.2c1.3-0.9,2.7-1.7,4.1-2.4c0.5,0,11.6,7,11.6,7L42.3,73.2
	L42.3,73.2z"/>
<path class="st14" d="M26.8,71.8c0,0,0-11.3-2.6-18.8s-8.7-17.8-11.4-18.8l-0.9,1c2.3,1.2,10,12.7,11.4,18.4
	c1.8,7.2,1.8,4.1,2.6,18.7C26.7,86.9,26.8,71.8,26.8,71.8z"/>
<path class="st15" d="M35.1,73.2c0,0-3.7-2.7-4.5-2.7S28.2,72,28.2,72s5.1,3.4,6.5,2.9c0.5-0.1,0.9-0.7,0.8-1.2
	C35.4,73.5,35.3,73.3,35.1,73.2z"/>
<path class="st16" d="M24.8,86.5c0,0-1.8-1.7-1.3-6.3s0.8-9.1-2.5-7.7s-0.5,4.9,1.5,3c0,0,0,2.2-0.3,5.2S22.2,86.6,24.8,86.5z"/>
<path class="st11" d="M23.1,85.8c0,0-0.5-2.7,0-3.3s0-1.4,0-2.1s-0.7-6.3,3.1-8.3s3.5,0.8,8.2,2.5c0,0,0.7,10.9-2.5,11.8
	C31.9,86.5,25.5,87.1,23.1,85.8z"/>
<path class="st17" d="M38.6,85.1c0,0,1.2-1,1.2-4s1.5-6,3.6-4.9s0,3.2-1.2,1.9c0,0-0.1,1.4-0.1,3.4S41.1,85.6,38.6,85.1z"/>
<path class="st8" d="M37.5,85.8c0,0,1.4-1.2,1.4-4.6s0.8-7,3.1-5.7s0,3.7-1.4,2.2c0,0-0.2,1.7-0.2,3.9S39.4,86,37.5,85.8z"/>
<path class="st18" d="M35.9,86.2c0.9-1.9,1.4-4,1.4-6.1c0-3.7,1-6.4,3.6-5s0,4-1.5,2.3c0,0-0.2,1.8-0.2,4.2S38,86.4,35.9,86.2z"/>
<path class="st19" d="M34.7,86.3c0,0,1-1.6,1-5.7s0.8-8,3.7-6.5s0,4.5-1.7,2.6c0,0-0.2,2-0.2,4.7S37,86.6,34.7,86.3z"/>
<path class="st20" d="M33.1,86.5c0,0,1.8-1.5,1.8-5.9s0.1-8.8,3.1-7.1s0,4.7-1.8,2.8c0,0-0.2,2.1-0.2,5S35.6,86.8,33.1,86.5z"/>
<path class="st16" d="M31.9,86.5c0,0,1.9-1.6,1.9-6.1s0.1-9.1,3.2-7.4s0,4.9-1.8,2.9c0,0-0.2,2.2-0.2,5.2S34.5,86.8,31.9,86.5z"/>
<path class="st21" d="M41.5,83.9c0,0-7.2,4-18.9,1.4L22,87c6.6,2.1,13.7,1.6,20-1.3L41.5,83.9z"/>
<path class="st16" d="M26,82.9c-0.5,0.2-1,0.3-1.5,0.3c-0.2,0-0.4,0-0.6,0c-0.2-0.1-0.3-0.1-0.5-0.2c-0.1-0.1-0.2-0.3-0.3-0.4l0,0
	c0.1,0.1,0.3,0.1,0.4,0.2c0.1,0,0.3,0.1,0.4,0.1c0.2,0,0.3,0.1,0.5,0.1c0.2,0,0.4,0,0.5,0h0.5C25.6,83,25.8,83,26,82.9L26,82.9
	L26,82.9z"/>
<path class="st16" d="M29.2,82.9c0.2,0,0.3,0,0.5,0.1h0.5c0.2,0,0.4,0,0.5,0c0.2,0,0.4-0.1,0.5-0.1c0.1,0,0.3-0.1,0.4-0.1
	c0.1-0.1,0.3-0.1,0.4-0.2l0,0c-0.1,0.2-0.2,0.3-0.3,0.4c-0.2,0.1-0.3,0.2-0.5,0.2c-0.2,0-0.4,0-0.6,0C30.2,83.2,29.6,83.1,29.2,82.9
	L29.2,82.9L29.2,82.9z"/>
<path class="st22" d="M28.1,81.6c0.1-0.2,0.3-0.3,0.5-0.4c0.2-0.1,0.4-0.2,0.6-0.3c0.2-0.1,0.5-0.1,0.7-0.2c0.3,0,0.5,0,0.8,0
	c0.2,0,0.4,0.1,0.6,0.2c0.2,0.1,0.4,0.2,0.5,0.3l0,0c-0.2,0-0.4-0.1-0.6-0.1c-0.2-0.1-0.4-0.1-0.6-0.1C30.5,81,30.2,81,30,81
	c-0.2,0-0.5,0-0.7,0.1c-0.1,0-0.2,0-0.3,0.1C28.7,81.2,28.4,81.4,28.1,81.6L28.1,81.6z"/>
<path class="st22" d="M25.9,81.6c-0.1-0.1-0.2-0.2-0.4-0.2c-0.1-0.1-0.3-0.1-0.4-0.1c-0.2,0-0.3-0.1-0.5,0c-0.2,0-0.3,0-0.5,0
	c-0.1,0-0.3,0-0.4,0c-0.1,0-0.3,0-0.5,0l0,0c0.1-0.1,0.3-0.2,0.4-0.3c0.1-0.1,0.3-0.1,0.5-0.1c0.2,0,0.4,0,0.5,0
	c0.2,0,0.4,0.1,0.5,0.1c0.1,0.1,0.3,0.1,0.4,0.2c0.1,0.1,0.2,0.2,0.4,0.3L25.9,81.6z"/>
<path class="st22" d="M26.5,82.1c0-0.4,0-0.9,0-1.3c0-0.4-0.1-0.9-0.2-1.3c-0.1-0.2-0.1-0.5-0.2-0.7l-0.4-0.7
	c-0.1-0.1-0.1-0.3-0.1-0.4l0.1-0.2l0.1-0.2c0.2-0.2,0.5-0.3,0.7-0.4c0.2,0,0.5,0,0.8,0c0.2,0,0.4,0.1,0.6,0.2
	c0.2,0.1,0.3,0.2,0.4,0.4c0.1,0.1,0.1,0.3,0.2,0.4c0,0.1,0,0.2,0,0.4l0,0c0-0.1-0.1-0.2-0.1-0.3c-0.1-0.1-0.1-0.2-0.2-0.3
	c-0.1-0.1-0.2-0.2-0.4-0.3c-0.2-0.1-0.4-0.1-0.5-0.1c-0.2,0-0.4,0-0.6,0c-0.2,0-0.4,0.1-0.6,0.3c-0.1,0.1-0.2,0.4-0.1,0.5l0.3,0.7
	c0.1,0.2,0.1,0.5,0.2,0.7c0.1,0.4,0.1,0.9,0.1,1.3C26.6,81.2,26.6,81.7,26.5,82.1L26.5,82.1L26.5,82.1z"/>
<path class="st22" d="M29.4,75.7c0,0-1,0.1-2.1,0.1c-0.5,0.1-1,0.1-1.4,0c-0.2,0-0.4-0.1-0.6-0.1l0,0c0.2-0.1,0.4-0.1,0.6-0.1
	c0.5-0.1,1-0.1,1.4,0C28.4,75.6,29.4,75.7,29.4,75.7L29.4,75.7z"/>
<path class="st22" d="M27.9,74.7c0,0-0.4,0.1-0.8,0.1c-0.2,0.1-0.3,0.1-0.5,0c-0.1,0-0.2-0.1-0.2-0.1l0,0c0.1-0.1,0.1-0.1,0.2-0.1
	c0.2-0.1,0.3-0.1,0.5,0C27.5,74.6,27.9,74.7,27.9,74.7L27.9,74.7z"/>
</svg>
