<svg id="Objects" xmlns="http://www.w3.org/2000/svg" viewBox="0 0 69.12 103.68"><defs><style>.cls-1{fill:#f2f2f2;}.cls-2,.cls-4{fill:#7a2b2b;}.cls-3{fill:#943434;}.cls-4{font-size:10.89px;font-family:ChunkFive;}.cls-5{fill:#1f2d6c;}.cls-6{fill:#aa292e;}.cls-7{fill:#0b050f;}.cls-8{fill:none;stroke:#aa7941;stroke-miterlimit:10;stroke-width:0.77px;}.cls-9{fill:#dce3f2;}.cls-10{fill:#e8efff;}.cls-11{fill:#aa7941;}.cls-12{fill:#bf9b4d;}.cls-13{fill:#d28537;}.cls-14{fill:#bd7831;}.cls-15{fill:#2a3757;}</style></defs><title>Q</title><rect class="cls-1" width="69.12" height="103.68" rx="2.72" ry="2.72"/><path class="cls-2" d="M100,576.26l-0.58-.58c-2.14-1.9-3.54-3.17-3.54-4.74a2.24,2.24,0,0,1,2.27-2.27A3,3,0,0,1,100,570a3,3,0,0,1,1.86-1.29,2.24,2.24,0,0,1,2.27,2.27c0,1.57-1.4,2.85-3.54,4.74Zm0,0" transform="translate(-92.66 -556.38)"/><path class="cls-3" d="M100,570a3,3,0,0,0-1.85-1.28,2.24,2.24,0,0,0-2.27,2.27c0,1.57,1.4,2.85,3.54,4.74l0.57,0.57V570Z" transform="translate(-92.66 -556.38)"/><path class="cls-2" d="M154.32,640l0.58,0.58c2.14,1.9,3.54,3.17,3.54,4.74a2.24,2.24,0,0,1-2.27,2.27,3,3,0,0,1-1.86-1.29,3,3,0,0,1-1.86,1.29,2.24,2.24,0,0,1-2.27-2.27c0-1.57,1.4-2.85,3.54-4.74Zm0,0" transform="translate(-92.66 -556.38)"/><path class="cls-3" d="M154.33,646.32a3,3,0,0,0,1.85,1.28,2.24,2.24,0,0,0,2.27-2.27c0-1.57-1.4-2.85-3.54-4.74l-0.57-.57v6.3Z" transform="translate(-92.66 -556.38)"/><text class="cls-4" transform="translate(3.66 10.45)">Q</text><text class="cls-4" transform="translate(65.46 93.23) rotate(180)">Q</text><rect class="cls-5" x="35.14" y="57.83" width="4.06" height="1.38"/><rect class="cls-6" x="34.79" y="59.21" width="4.06" height="1.38"/><rect class="cls-5" x="34.19" y="60.58" width="4.06" height="1.38"/><rect class="cls-6" x="33.83" y="61.96" width="4.06" height="1.38"/><rect class="cls-5" x="33.23" y="63.33" width="4.06" height="1.38"/><rect class="cls-6" x="32.88" y="64.71" width="4.06" height="1.38"/><rect class="cls-5" x="32.28" y="66.08" width="4.06" height="1.38"/><polygon class="cls-6" points="34.79 57.77 31.81 65.47 24.1 66.02 28.52 57.19 34.79 57.77"/><polygon class="cls-6" points="44.38 58.27 45.46 66.78 37.6 66.43 37.48 63.29 40.18 57.7 44.38 58.27"/><path class="cls-7" d="M128.09,623.33l3.49-9,2.56,0.34s-3.58,4.71-3,6.51,4.7,0.7,4.7.7l1.78,3.18Z" transform="translate(-92.66 -556.38)"/><path class="cls-7" d="M128.65,614.08l-3.41,9.15-8.7.65,1.15-2.6s4.74,0.9,6.11-.22,2.69-6.84,2.69-6.84Z" transform="translate(-92.66 -556.38)"/><path class="cls-7" d="M120.26,610.85a162.09,162.09,0,0,1,17.33.62v3.18a162.09,162.09,0,0,0-17.33-.62" transform="translate(-92.66 -556.38)"/><path class="cls-8" d="M137.59,614.65a162.09,162.09,0,0,0-17.33-.62" transform="translate(-92.66 -556.38)"/><path class="cls-8" d="M137.59,611.46a162.09,162.09,0,0,0-17.33-.62" transform="translate(-92.66 -556.38)"/><path class="cls-9" d="M143.22,621l-4.89,4.49s-3.86-2-3.4-6,2.6-5.36,2.6-5.36Z" transform="translate(-92.66 -556.38)"/><path class="cls-7" d="M143.22,621l-4.35,4s-3.43-1.78-3-5.3,2.32-4.76,2.32-4.76Z" transform="translate(-92.66 -556.38)"/><path class="cls-5" d="M143.22,621l-3.63,3.33s-2.87-1.48-2.52-4.43,1.93-4,1.93-4Z" transform="translate(-92.66 -556.38)"/><rect class="cls-5" x="29.92" y="44.48" width="4.06" height="1.38"/><rect class="cls-6" x="30.27" y="43.1" width="4.06" height="1.38"/><rect class="cls-5" x="30.87" y="41.73" width="4.06" height="1.38"/><rect class="cls-6" x="31.23" y="40.35" width="4.06" height="1.38"/><rect class="cls-5" x="31.83" y="38.98" width="4.06" height="1.38"/><rect class="cls-6" x="32.18" y="37.6" width="4.06" height="1.38"/><rect class="cls-5" x="32.78" y="36.23" width="4.06" height="1.38"/><polygon class="cls-6" points="34.34 45.91 37.31 38.21 45.02 37.67 40.6 46.49 34.34 45.91"/><polygon class="cls-6" points="24.74 45.42 23.66 36.9 31.52 37.26 31.65 40.4 28.94 45.98 24.74 45.42"/><path class="cls-7" d="M126.36,593.12l-3.49,9-2.56-.34s3.58-4.71,3-6.51-4.7-.7-4.7-0.7l-1.78-3.18Z" transform="translate(-92.66 -556.38)"/><path class="cls-7" d="M125.8,602.37l3.41-9.15,8.7-.65-1.15,2.6s-4.74-.9-6.11.22-2.69,6.84-2.69,6.84Z" transform="translate(-92.66 -556.38)"/><path class="cls-7" d="M134.19,605.6a162.29,162.29,0,0,1-17.33-.62V601.8a162.07,162.07,0,0,0,17.33.62" transform="translate(-92.66 -556.38)"/><path class="cls-8" d="M116.86,601.8a162.07,162.07,0,0,0,17.33.62" transform="translate(-92.66 -556.38)"/><path class="cls-8" d="M116.86,605a162.29,162.29,0,0,0,17.33.62" transform="translate(-92.66 -556.38)"/><path class="cls-10" d="M152.5,588.92a14.44,14.44,0,0,0-4.43-.7c-8.63,0-15.63,7.65-15.63,17.1s7,17.1,15.63,17.1a14.38,14.38,0,0,0,4.43-.7v-32.8Z" transform="translate(-92.66 -556.38)"/><path class="cls-9" d="M152.5,589.67a13.75,13.75,0,0,0-4.43-.73c-8.27,0-15,7.34-15,16.38s6.71,16.39,15,16.39a13.8,13.8,0,0,0,4.43-.73V589.67Z" transform="translate(-92.66 -556.38)"/><path class="cls-11" d="M152.5,593.23a11,11,0,0,0-4.43-.94c-6.58,0-11.91,5.83-11.91,13s5.33,13,11.91,13a11,11,0,0,0,4.43-.93v-24.2Z" transform="translate(-92.66 -556.38)"/><path class="cls-12" d="M152.5,594.6a9.94,9.94,0,0,0-4.43-1c-5.94,0-10.75,5.27-10.75,11.76s4.81,11.77,10.75,11.77a9.92,9.92,0,0,0,4.43-1V594.6Z" transform="translate(-92.66 -556.38)"/><path class="cls-10" d="M152.5,598.6a7.12,7.12,0,0,0-4.43-1.56c-4.19,0-7.58,3.71-7.58,8.29s3.39,8.29,7.58,8.29a7.11,7.11,0,0,0,4.43-1.56V598.6Z" transform="translate(-92.66 -556.38)"/><path class="cls-6" d="M152.5,599.13a6.78,6.78,0,0,0-4.43-1.67c-4,0-7.19,3.52-7.19,7.87s3.22,7.87,7.19,7.87a6.78,6.78,0,0,0,4.43-1.67v-12.4Z" transform="translate(-92.66 -556.38)"/><path class="cls-11" d="M152.5,604.13q-0.37-.25-0.74-0.51h0q-0.37-.27-0.72-0.56h0c-0.23-.19-0.46-0.39-0.68-0.6h0c-0.22-.2-0.43-0.41-0.64-0.63v0c0,0.22-.06.45-0.1,0.67l0,0.12c0,0.18-.07.35-0.1,0.53v0l0,0.19-0.1.41,0,0.08-0.05.19c0,0.13-.07.26-0.11,0.38l0,0.08-0.06.19c0,0.13-.08.26-0.13,0.38l-0.09.25-0.14.37-0.11.25-0.15.35-0.12.25-0.16.34-0.13.25-0.15.28,0,0.06-0.13.23-0.14.24-0.08.13-0.11.18-0.17.26-0.12.18-0.07.1-0.2.29-0.2.27-0.2.25-0.09.12-0.17.21L146,610l-0.15.17-0.24.27,0,0-0.2.21-0.31.3-0.16.16-0.13.12-0.28.26-0.07.06-0.21.18-0.33.27-0.25.19-0.23.18-0.29.21-0.24.17-0.3.2-0.24.15-0.31.19-0.25.14-0.33.18-0.25.13-0.34.17-0.24.12-0.37.16-0.23.1-0.42.16-0.2.07-0.54.18-0.08,0-0.64.18-0.1,0-0.55.13-0.2,0-0.45.09-0.24,0c-0.38.06-.76,0.11-1.14,0.13a15.23,15.23,0,0,0,12.62,7,14.41,14.41,0,0,0,4.41-.69V604.13Z" transform="translate(-92.66 -556.38)"/><path class="cls-12" d="M152.5,605.31a2.18,2.18,0,0,0-.68-1.14c-0.56-.61-1.32-1.07-1.9-1.68-0.82,6.65-6.47,13-13.16,13.51,3.75,5.6,15.31,9.92,15.75.84V605.31Z" transform="translate(-92.66 -556.38)"/><path class="cls-7" d="M123.83,573.93s-5.18,11.44-4.38,15.13,8.17-6.75,8.17-6.75Z" transform="translate(-92.66 -556.38)"/><path class="cls-6" d="M128.28,563.45s-8.23,2-12,13.36-2,15.76-2,15.76l5.73-4s-0.53-5.38,3.41-14.69,4.91-8.46,4.91-8.46v-2Z" transform="translate(-92.66 -556.38)"/><path class="cls-12" d="M133,564.45s-8.23,2-12,13.36-2,13.45-2,13.45l1.66-.37s-2.1-3.7,1.84-13S133,566.4,133,566.4v-2Z" transform="translate(-92.66 -556.38)"/><polygon class="cls-5" points="59.84 48.41 59.84 37.25 54.1 31.93 48.25 35.27 59.84 48.41"/><path class="cls-7" d="M139.66,591.92s12.54,14.44,12.85,14.6v-2.24L142,591.66Z" transform="translate(-92.66 -556.38)"/><path class="cls-11" d="M120.38,587.59l-5.12,3.9a49.73,49.73,0,0,0,32.18-1.25l-4.15-5.12Z" transform="translate(-92.66 -556.38)"/><path class="cls-12" d="M121.4,586.79l-5.12,3.9s13.82,5.11,31.16-1.54L143.29,584Z" transform="translate(-92.66 -556.38)"/><path class="cls-9" d="M125,582.36a8.58,8.58,0,0,1-3.63,4.43s13.52,2.44,21.89-1.66c0,0-1.29-8.3-5.32-6.58S125,582.36,125,582.36Z" transform="translate(-92.66 -556.38)"/><path class="cls-10" d="M123.52,571.76s-0.34,3,0,3.48a1.67,1.67,0,0,1,.28,1.54c-0.13.74-.13,4.29,0.45,5.06s3,5.41,4.68,5.45,8.68-2.85,8.78-6.6a1,1,0,0,0,1.19.29c0.67-.38.77-3.17,0.77-3.17s-5.74-12.53-11.37-12C128.28,565.82,123.5,569.24,123.52,571.76Z" transform="translate(-92.66 -556.38)"/><path class="cls-7" d="M128.28,563.45a11.28,11.28,0,0,1,10.6,3.35c4.64,4.95,9.74,16.82,13.62,18.11v4.9s-9.44-4.83-11.72-12.28S128.28,563.45,128.28,563.45Z" transform="translate(-92.66 -556.38)"/><path class="cls-13" d="M128.28,566.07s1.53,6.72,8.07,6.95c1.83-1.75-4.18-6.95-4.18-6.95a5.42,5.42,0,0,0-3.89-.66v0.66Z" transform="translate(-92.66 -556.38)"/><path class="cls-6" d="M128.28,565.4s6.33,1.63,11.58,14.54c8.91,14.4,12.64,13.69,12.64,13.69v-3.83a47.71,47.71,0,0,1-10.42-12.36c-4-7.15-6.59-14-13.8-14v2Z" transform="translate(-92.66 -556.38)"/><path class="cls-12" d="M128.28,563.45s-8.23,2-12,13.36-2,15.76-2,15.76l1.51-.91s-1.86-5.48,2.07-14.79,10.47-11.47,10.47-11.47v-2Z" transform="translate(-92.66 -556.38)"/><path class="cls-14" d="M128.28,566.07s-1,4.32-4.92,5.75c0,0-1.22-7,4.92-6.42v0.66Z" transform="translate(-92.66 -556.38)"/><path class="cls-9" d="M111.23,595.41l4.89-4.49s3.86,2,3.4,6-2.61,5.36-2.61,5.36Z" transform="translate(-92.66 -556.38)"/><path class="cls-7" d="M111.23,595.41l4.35-4s3.43,1.78,3,5.3-2.32,4.76-2.32,4.76Z" transform="translate(-92.66 -556.38)"/><path class="cls-5" d="M111.23,595.42l3.63-3.33s2.87,1.48,2.52,4.43-1.93,4-1.93,4Z" transform="translate(-92.66 -556.38)"/><path class="cls-13" d="M123.49,574.75a3.6,3.6,0,0,1,.46-0.2,4.71,4.71,0,0,1,1.08-.25,2.14,2.14,0,0,1,1.11.06,2.31,2.31,0,0,1,.46.23v0a2.55,2.55,0,0,1-.5,0c-0.14,0-.31,0-0.49,0s-0.37,0-.56,0a6,6,0,0,0-1.54.18v0Z" transform="translate(-92.66 -556.38)"/><path class="cls-13" d="M133,574.63a10.3,10.3,0,0,0-2-.16c-0.25,0-.5,0-0.73.06s-0.45,0-.64,0a3.88,3.88,0,0,1-.65-0.05v0a3.52,3.52,0,0,1,.61-0.25,2.9,2.9,0,0,1,.66-0.11,4.88,4.88,0,0,1,.76,0,7.75,7.75,0,0,1,1.4.26,5.77,5.77,0,0,1,.61.2v0Z" transform="translate(-92.66 -556.38)"/><path class="cls-15" d="M129.56,575.75s0.2,0,.49.08a6.59,6.59,0,0,0,1.06.06,3.17,3.17,0,0,0,.57,0,4.24,4.24,0,0,0,.5-0.05l0.49-.06-0.46.2a3.41,3.41,0,0,1-1.09.19,4.31,4.31,0,0,1-.59,0A3.35,3.35,0,0,1,130,576,2.27,2.27,0,0,1,129.56,575.75Z" transform="translate(-92.66 -556.38)"/><path class="cls-15" d="M126.26,575.75a1.52,1.52,0,0,1-.35.2,2.3,2.3,0,0,1-.4.12,2.69,2.69,0,0,1-.48,0,2.23,2.23,0,0,1-.87-0.18l-0.35-.19,0.39,0.07a2.46,2.46,0,0,0,.39.06,1.91,1.91,0,0,0,.44,0,3.8,3.8,0,0,0,.83-0.07A3.06,3.06,0,0,0,126.26,575.75Z" transform="translate(-92.66 -556.38)"/><path class="cls-10" d="M128.05,583.29a1.81,1.81,0,0,0,1.62,0" transform="translate(-92.66 -556.38)"/><path class="cls-15" d="M128.05,583.29l0.26,0.05a2.74,2.74,0,0,0,.55,0,2.79,2.79,0,0,0,.55,0l0.26,0-0.23.14a1.38,1.38,0,0,1-.58.14,1.56,1.56,0,0,1-.32,0,1.34,1.34,0,0,1-.26-0.09A0.93,0.93,0,0,1,128.05,583.29Z" transform="translate(-92.66 -556.38)"/><path class="cls-15" d="M126.94,582.14a19.44,19.44,0,0,1,3.85,0A19.44,19.44,0,0,1,126.94,582.14Z" transform="translate(-92.66 -556.38)"/><path class="cls-15" d="M127.39,580a0.9,0.9,0,0,0,.25.23,1.25,1.25,0,0,0,.31.15,2,2,0,0,0,.38.11c0.13,0,.27,0,0.4.06a2.91,2.91,0,0,0,.36,0l0.36,0-0.35.07a2.48,2.48,0,0,1-.8,0,2.07,2.07,0,0,1-.41-0.14,1,1,0,0,1-.31-0.22,0.68,0.68,0,0,1-.15-0.22A0.4,0.4,0,0,1,127.39,580Z" transform="translate(-92.66 -556.38)"/><path class="cls-10" d="M101.94,627.53a14.38,14.38,0,0,0,4.43.7c8.63,0,15.63-7.65,15.63-17.1S115,594,106.37,594a14.38,14.38,0,0,0-4.43.7v32.8Z" transform="translate(-92.66 -556.38)"/><path class="cls-9" d="M101.94,626.78a13.8,13.8,0,0,0,4.43.73c8.27,0,15-7.34,15-16.38s-6.71-16.39-15-16.39a13.75,13.75,0,0,0-4.43.73v31.31Z" transform="translate(-92.66 -556.38)"/><path class="cls-11" d="M101.94,623.22a11,11,0,0,0,4.43.93c6.58,0,11.91-5.83,11.91-13s-5.33-13-11.91-13a11,11,0,0,0-4.43.94v24.2Z" transform="translate(-92.66 -556.38)"/><path class="cls-12" d="M101.94,621.85a10,10,0,0,0,4.43,1c5.94,0,10.75-5.27,10.75-11.77s-4.82-11.77-10.75-11.77a9.92,9.92,0,0,0-4.43,1v21.44Z" transform="translate(-92.66 -556.38)"/><path class="cls-10" d="M101.94,617.85a7.12,7.12,0,0,0,4.43,1.56c4.19,0,7.58-3.71,7.58-8.29s-3.39-8.29-7.58-8.29a7.11,7.11,0,0,0-4.43,1.56v13.46Z" transform="translate(-92.66 -556.38)"/><path class="cls-6" d="M101.94,617.32a6.77,6.77,0,0,0,4.43,1.67c4,0,7.19-3.52,7.19-7.87s-3.22-7.87-7.19-7.87a6.78,6.78,0,0,0-4.43,1.67v12.4Z" transform="translate(-92.66 -556.38)"/><path class="cls-11" d="M101.94,612.32c0.25,0.16.5,0.34,0.74,0.51h0q0.37,0.27.72,0.56h0c0.23,0.19.46,0.39,0.68,0.6h0c0.22,0.2.43,0.41,0.64,0.63v0q0-.34.1-0.67l0-.12c0-.18.06-0.35,0.1-0.53h0l0-.19,0.1-.41,0-.08,0.05-.19,0.11-.38,0-.08,0.06-.19,0.13-.38,0.09-.25,0.14-.37,0.11-.25,0.15-.35,0.12-.25,0.16-.34,0.13-.25,0.15-.28,0-.06,0.13-.23,0.14-.24,0.08-.14,0.11-.18,0.17-.26,0.12-.18,0.07-.1,0.2-.29,0.2-.27,0.2-.25,0.1-.12,0.17-.21,0.15-.18,0.15-.17,0.24-.27,0,0,0.2-.21,0.31-.3,0.16-.16,0.13-.12,0.28-.26,0.07-.06,0.21-.18,0.33-.27,0.24-.19L111,604l0.29-.21,0.24-.17,0.3-.2,0.24-.15,0.31-.19,0.25-.14,0.33-.18,0.25-.13,0.34-.17,0.24-.12,0.37-.16,0.23-.1,0.42-.16,0.2-.07,0.54-.18,0.08,0,0.64-.18,0.1,0,0.55-.13,0.2,0,0.45-.09,0.24,0c0.38-.06.76-0.11,1.14-0.13a15.23,15.23,0,0,0-12.62-7,14.35,14.35,0,0,0-4.41.69v17.6Z" transform="translate(-92.66 -556.38)"/><path class="cls-12" d="M101.94,611.14a2.18,2.18,0,0,0,.68,1.14c0.56,0.61,1.32,1.07,1.9,1.68,0.82-6.65,6.47-13,13.16-13.51-3.75-5.6-15.31-9.92-15.75-.84v11.53Z" transform="translate(-92.66 -556.38)"/><polygon class="cls-5" points="9.28 55.27 9.28 66.43 15.02 71.75 20.87 68.41 9.28 55.27"/><path class="cls-7" d="M114.79,624.53s-12.54-14.44-12.85-14.6v2.23l10.51,12.63Z" transform="translate(-92.66 -556.38)"/><path class="cls-7" d="M130.61,642.52s5.18-11.44,4.38-15.13-8.17,6.75-8.17,6.75Z" transform="translate(-92.66 -556.38)"/><path class="cls-6" d="M126.17,653s8.23-2,12-13.36,2-15.76,2-15.76l-5.73,4s0.53,5.38-3.41,14.69-4.91,8.46-4.91,8.46v2Z" transform="translate(-92.66 -556.38)"/><path class="cls-12" d="M121.45,652s8.23-2,12-13.36,2-13.45,2-13.45l-1.66.37s2.1,3.7-1.84,13S121.45,650,121.45,650v2Z" transform="translate(-92.66 -556.38)"/><path class="cls-11" d="M134.07,628.86l5.12-3.9A49.74,49.74,0,0,0,107,626.2l4.15,5.12Z" transform="translate(-92.66 -556.38)"/><path class="cls-12" d="M133,629.66l5.12-3.9s-13.82-5.11-31.16,1.54l4.15,5.12Z" transform="translate(-92.66 -556.38)"/><path class="cls-9" d="M129.42,634.09a8.59,8.59,0,0,1,3.63-4.43s-13.52-2.44-21.89,1.66c0,0,1.29,8.3,5.32,6.58S129.42,634.09,129.42,634.09Z" transform="translate(-92.66 -556.38)"/><path class="cls-10" d="M130.92,644.69s0.34-3,0-3.48a1.67,1.67,0,0,1-.28-1.54c0.13-.74.13-4.29-0.45-5.06s-3-5.41-4.68-5.45-8.68,2.85-8.78,6.6a0.94,0.94,0,0,0-1.18-.29c-0.67.38-.77,3.17-0.77,3.17s5.74,12.53,11.37,12C126.17,650.63,130.94,647.21,130.92,644.69Z" transform="translate(-92.66 -556.38)"/><path class="cls-7" d="M126.17,653a11.28,11.28,0,0,1-10.6-3.35c-4.64-4.95-9.74-16.82-13.62-18.11v-4.9s9.44,4.82,11.72,12.28S126.17,653,126.17,653Z" transform="translate(-92.66 -556.38)"/><path class="cls-13" d="M126.17,650.38s-1.53-6.72-8.07-6.95c-1.83,1.75,4.18,6.95,4.18,6.95a5.42,5.42,0,0,0,3.89.66v-0.66Z" transform="translate(-92.66 -556.38)"/><path class="cls-6" d="M126.17,651s-6.33-1.62-11.58-14.54c-8.91-14.4-12.64-13.69-12.64-13.69v3.83A47.69,47.69,0,0,1,112.37,639c4,7.15,6.59,14,13.8,14v-2Z" transform="translate(-92.66 -556.38)"/><path class="cls-12" d="M126.17,653s8.23-2,12-13.36,2-15.76,2-15.76l-1.51.91s1.86,5.47-2.07,14.78S126.17,651,126.17,651v2Z" transform="translate(-92.66 -556.38)"/><path class="cls-14" d="M126.17,650.38s1-4.32,4.92-5.75c0,0,1.22,7-4.92,6.42v-0.66Z" transform="translate(-92.66 -556.38)"/><path class="cls-13" d="M131,641.7a3.61,3.61,0,0,1-.46.2,4.7,4.7,0,0,1-1.08.25,2.14,2.14,0,0,1-1.11-.06,2.3,2.3,0,0,1-.46-0.23v0a2.55,2.55,0,0,1,.5,0c0.14,0,.31,0,0.49,0s0.37,0,.56,0a6,6,0,0,0,1.54-.18v0Z" transform="translate(-92.66 -556.38)"/><path class="cls-13" d="M121.46,641.82a10.3,10.3,0,0,0,2,.16c0.25,0,.5,0,0.73-0.06s0.45,0,.64,0a3.87,3.87,0,0,1,.65.05v0a3.52,3.52,0,0,1-.61.25,2.9,2.9,0,0,1-.66.11,4.76,4.76,0,0,1-.76,0,7.73,7.73,0,0,1-1.39-.26,5.77,5.77,0,0,1-.61-0.2v0Z" transform="translate(-92.66 -556.38)"/><path class="cls-15" d="M124.89,640.7s-0.2,0-.49-0.08a6.71,6.71,0,0,0-1.06-.06,3.17,3.17,0,0,0-.57,0,4.25,4.25,0,0,0-.5.05l-0.49.06s0.18-.09.46-0.2a3.39,3.39,0,0,1,1.09-.19,4.17,4.17,0,0,1,.59,0,3.47,3.47,0,0,1,.5.13A2.31,2.31,0,0,1,124.89,640.7Z" transform="translate(-92.66 -556.38)"/><path class="cls-15" d="M128.19,640.7a1.54,1.54,0,0,1,.35-0.21,2.28,2.28,0,0,1,.4-0.12,2.59,2.59,0,0,1,.48,0,2.21,2.21,0,0,1,.87.18l0.35,0.19-0.39-.07a2.45,2.45,0,0,0-.39-0.06,2,2,0,0,0-.44,0,3.92,3.92,0,0,0-.83.07A3.12,3.12,0,0,0,128.19,640.7Z" transform="translate(-92.66 -556.38)"/><path class="cls-10" d="M126.39,633.15a1.81,1.81,0,0,0-1.62,0" transform="translate(-92.66 -556.38)"/><path class="cls-15" d="M126.39,633.15l-0.26-.05a2.74,2.74,0,0,0-.55,0,2.8,2.8,0,0,0-.55,0l-0.26,0L125,633a1.38,1.38,0,0,1,.58-0.14,1.56,1.56,0,0,1,.32,0,1.34,1.34,0,0,1,.26.09A0.93,0.93,0,0,1,126.39,633.15Z" transform="translate(-92.66 -556.38)"/><path class="cls-15" d="M127.51,634.31a19.44,19.44,0,0,1-3.85,0A19.44,19.44,0,0,1,127.51,634.31Z" transform="translate(-92.66 -556.38)"/><path class="cls-15" d="M127.06,636.5a0.89,0.89,0,0,0-.25-0.23,1.24,1.24,0,0,0-.31-0.15,1.92,1.92,0,0,0-.38-0.11c-0.13,0-.27,0-0.4-0.06a2.92,2.92,0,0,0-.36,0l-0.36,0,0.35-.07a2.48,2.48,0,0,1,.8,0,2.06,2.06,0,0,1,.41.14,1,1,0,0,1,.31.22,0.69,0.69,0,0,1,.15.22A0.4,0.4,0,0,1,127.06,636.5Z" transform="translate(-92.66 -556.38)"/></svg>