<svg id="Objects" xmlns="http://www.w3.org/2000/svg" viewBox="0 0 69.12 103.69"><defs><style>.cls-1{fill:#f2f2f2;}.cls-2,.cls-4{fill:#333;}.cls-3{fill:#4d4d4d;}.cls-4{font-size:8.44px;font-family:ChunkFive;}</style></defs><title>10</title><rect class="cls-1" width="69.12" height="103.69" rx="2.72" ry="2.72"/><path class="cls-2" d="M321.43,463.83a9.89,9.89,0,0,1-1.28-1.18,0.32,0.32,0,0,0-.24-0.11h0a0.32,0.32,0,0,0-.24.11,10,10,0,0,1-1.28,1.18c-1,.78-1.95,1.6-1.95,2.85a1.85,1.85,0,0,0,1.94,1.94,2.12,2.12,0,0,0,1.36-.62,4.79,4.79,0,0,1-1,2.09h2.37a4.79,4.79,0,0,1-1-2.09,2.12,2.12,0,0,0,1.36.63,1.86,1.86,0,0,0,1.94-1.94C323.38,465.43,322.39,464.62,321.43,463.83Z" transform="translate(-312.49 -450.06)"/><path class="cls-3" d="M319.89,470.09v-7.55h0a0.32,0.32,0,0,0-.24.11,10,10,0,0,1-1.28,1.18c-1,.78-1.95,1.6-1.95,2.85a1.85,1.85,0,0,0,1.94,1.94,2.12,2.12,0,0,0,1.36-.62,4.79,4.79,0,0,1-1,2.09h1.18Z" transform="translate(-312.49 -450.06)"/><path class="cls-2" d="M372.67,540a9.82,9.82,0,0,1,1.28,1.18,0.32,0.32,0,0,0,.24.11h0a0.32,0.32,0,0,0,.24-0.11,9.76,9.76,0,0,1,1.28-1.18c1-.79,1.95-1.6,1.95-2.85a1.85,1.85,0,0,0-1.94-1.94,2.11,2.11,0,0,0-1.36.62,4.79,4.79,0,0,1,1-2.09H373a4.81,4.81,0,0,1,1,2.09,2.12,2.12,0,0,0-1.36-.62,1.86,1.86,0,0,0-1.94,1.94C370.72,538.37,371.72,539.18,372.67,540Z" transform="translate(-312.49 -450.06)"/><path class="cls-3" d="M374.21,533.71v7.55h0a0.32,0.32,0,0,0,.24-0.11,9.76,9.76,0,0,1,1.28-1.18c1-.79,1.95-1.6,1.95-2.85a1.85,1.85,0,0,0-1.94-1.94,2.11,2.11,0,0,0-1.36.62,4.79,4.79,0,0,1,1-2.09h-1.18Z" transform="translate(-312.49 -450.06)"/><path class="cls-2" d="M334.25,467.89a19,19,0,0,1-2.47-2.28,0.61,0.61,0,0,0-.47-0.22h0a0.61,0.61,0,0,0-.47.22,19,19,0,0,1-2.47,2.28c-1.85,1.51-3.76,3.08-3.76,5.51a3.58,3.58,0,0,0,3.75,3.74,4.08,4.08,0,0,0,2.62-1.2,9.23,9.23,0,0,1-1.94,4h4.58a9.27,9.27,0,0,1-1.94-4,4.08,4.08,0,0,0,2.63,1.21A3.58,3.58,0,0,0,338,473.4C338,471,336.1,469.41,334.25,467.89Z" transform="translate(-312.49 -450.06)"/><path class="cls-3" d="M331.28,480V465.39h0a0.61,0.61,0,0,0-.47.22,19,19,0,0,1-2.47,2.28c-1.85,1.51-3.76,3.08-3.76,5.51a3.58,3.58,0,0,0,3.75,3.74,4.08,4.08,0,0,0,2.62-1.2,9.23,9.23,0,0,1-1.94,4h2.27Z" transform="translate(-312.49 -450.06)"/><path class="cls-2" d="M365.71,467.89a19,19,0,0,1-2.47-2.28,0.61,0.61,0,0,0-.47-0.22h0a0.61,0.61,0,0,0-.47.22,19.08,19.08,0,0,1-2.47,2.28C357.94,469.4,356,471,356,473.4a3.58,3.58,0,0,0,3.74,3.74,4.08,4.08,0,0,0,2.63-1.2,9.23,9.23,0,0,1-1.94,4H365a9.26,9.26,0,0,1-1.94-4,4.07,4.07,0,0,0,2.63,1.21,3.58,3.58,0,0,0,3.75-3.74C369.47,471,367.56,469.41,365.71,467.89Z" transform="translate(-312.49 -450.06)"/><path class="cls-3" d="M362.73,480V465.39h0a0.61,0.61,0,0,0-.47.22,19.08,19.08,0,0,1-2.47,2.28C357.94,469.4,356,471,356,473.4a3.58,3.58,0,0,0,3.74,3.74,4.08,4.08,0,0,0,2.63-1.2,9.23,9.23,0,0,1-1.94,4h2.27Z" transform="translate(-312.49 -450.06)"/><path class="cls-2" d="M334.25,487.09a18.73,18.73,0,0,1-2.47-2.28,0.61,0.61,0,0,0-.47-0.21h0a0.61,0.61,0,0,0-.47.21,18.74,18.74,0,0,1-2.47,2.28c-1.85,1.52-3.76,3.08-3.76,5.51a3.58,3.58,0,0,0,3.75,3.74,4.09,4.09,0,0,0,2.62-1.2,9.25,9.25,0,0,1-1.94,4h4.58a9.28,9.28,0,0,1-1.94-4,4.09,4.09,0,0,0,2.63,1.21A3.58,3.58,0,0,0,338,492.6C338,490.18,336.1,488.61,334.25,487.09Z" transform="translate(-312.49 -450.06)"/><path class="cls-3" d="M331.28,499.17V484.6h0a0.61,0.61,0,0,0-.47.21,18.74,18.74,0,0,1-2.47,2.28c-1.85,1.52-3.76,3.08-3.76,5.51a3.58,3.58,0,0,0,3.75,3.74,4.09,4.09,0,0,0,2.62-1.2,9.25,9.25,0,0,1-1.94,4h2.27Z" transform="translate(-312.49 -450.06)"/><path class="cls-2" d="M365.71,487.09a18.73,18.73,0,0,1-2.47-2.28,0.61,0.61,0,0,0-.47-0.21h0a0.61,0.61,0,0,0-.47.21,18.81,18.81,0,0,1-2.47,2.28c-1.85,1.52-3.76,3.08-3.76,5.51a3.58,3.58,0,0,0,3.74,3.74,4.09,4.09,0,0,0,2.63-1.2,9.25,9.25,0,0,1-1.94,4H365a9.27,9.27,0,0,1-1.94-4,4.08,4.08,0,0,0,2.63,1.21,3.58,3.58,0,0,0,3.75-3.74C369.47,490.18,367.56,488.61,365.71,487.09Z" transform="translate(-312.49 -450.06)"/><path class="cls-3" d="M362.73,499.17V484.6h0a0.61,0.61,0,0,0-.47.21,18.81,18.81,0,0,1-2.47,2.28c-1.85,1.52-3.76,3.08-3.76,5.51a3.58,3.58,0,0,0,3.74,3.74,4.09,4.09,0,0,0,2.63-1.2,9.25,9.25,0,0,1-1.94,4h2.27Z" transform="translate(-312.49 -450.06)"/><path class="cls-2" d="M334.25,506.29a18.87,18.87,0,0,1-2.47-2.28,0.61,0.61,0,0,0-.47-0.22h0a0.61,0.61,0,0,0-.47.22,18.88,18.88,0,0,1-2.47,2.28c-1.85,1.51-3.76,3.08-3.76,5.51a3.58,3.58,0,0,0,3.75,3.74,4.08,4.08,0,0,0,2.62-1.2,9.23,9.23,0,0,1-1.94,4h4.58a9.27,9.27,0,0,1-1.94-4,4.08,4.08,0,0,0,2.63,1.21A3.58,3.58,0,0,0,338,511.8C338,509.38,336.1,507.81,334.25,506.29Z" transform="translate(-312.49 -450.06)"/><path class="cls-3" d="M331.28,518.37V503.79h0a0.61,0.61,0,0,0-.47.22,18.88,18.88,0,0,1-2.47,2.28c-1.85,1.51-3.76,3.08-3.76,5.51a3.58,3.58,0,0,0,3.75,3.74,4.08,4.08,0,0,0,2.62-1.2,9.23,9.23,0,0,1-1.94,4h2.27Z" transform="translate(-312.49 -450.06)"/><path class="cls-2" d="M365.71,506.29a18.87,18.87,0,0,1-2.47-2.28,0.61,0.61,0,0,0-.47-0.22h0a0.61,0.61,0,0,0-.47.22,18.94,18.94,0,0,1-2.47,2.28c-1.85,1.51-3.76,3.08-3.76,5.51a3.58,3.58,0,0,0,3.74,3.74,4.08,4.08,0,0,0,2.63-1.2,9.23,9.23,0,0,1-1.94,4H365a9.26,9.26,0,0,1-1.94-4,4.07,4.07,0,0,0,2.63,1.21,3.58,3.58,0,0,0,3.75-3.74C369.47,509.38,367.56,507.81,365.71,506.29Z" transform="translate(-312.49 -450.06)"/><path class="cls-3" d="M362.73,518.37V503.79h0a0.61,0.61,0,0,0-.47.22,18.94,18.94,0,0,1-2.47,2.28c-1.85,1.51-3.76,3.08-3.76,5.51a3.58,3.58,0,0,0,3.74,3.74,4.08,4.08,0,0,0,2.63-1.2,9.23,9.23,0,0,1-1.94,4h2.27Z" transform="translate(-312.49 -450.06)"/><path class="cls-2" d="M334.25,525.49a19,19,0,0,1-2.47-2.28,0.61,0.61,0,0,0-.47-0.22h0a0.61,0.61,0,0,0-.47.22,19,19,0,0,1-2.47,2.28c-1.85,1.51-3.76,3.08-3.76,5.51a3.58,3.58,0,0,0,3.75,3.74,4.09,4.09,0,0,0,2.62-1.2,9.24,9.24,0,0,1-1.94,4h4.58a9.28,9.28,0,0,1-1.94-4,4.08,4.08,0,0,0,2.63,1.21A3.58,3.58,0,0,0,338,531C338,528.58,336.1,527,334.25,525.49Z" transform="translate(-312.49 -450.06)"/><path class="cls-3" d="M331.28,537.57V523h0a0.61,0.61,0,0,0-.47.22,19,19,0,0,1-2.47,2.28c-1.85,1.51-3.76,3.08-3.76,5.51a3.58,3.58,0,0,0,3.75,3.74,4.09,4.09,0,0,0,2.62-1.2,9.24,9.24,0,0,1-1.94,4h2.27Z" transform="translate(-312.49 -450.06)"/><path class="cls-2" d="M365.71,525.49a19,19,0,0,1-2.47-2.28,0.6,0.6,0,0,0-.47-0.22h0a0.61,0.61,0,0,0-.47.22,19.08,19.08,0,0,1-2.47,2.28C357.94,527,356,528.57,356,531a3.58,3.58,0,0,0,3.74,3.74,4.09,4.09,0,0,0,2.63-1.2,9.24,9.24,0,0,1-1.94,4H365a9.27,9.27,0,0,1-1.94-4,4.07,4.07,0,0,0,2.63,1.21,3.58,3.58,0,0,0,3.75-3.74C369.47,528.58,367.56,527,365.71,525.49Z" transform="translate(-312.49 -450.06)"/><path class="cls-3" d="M362.73,537.57V523h0a0.61,0.61,0,0,0-.47.22,19.08,19.08,0,0,1-2.47,2.28C357.94,527,356,528.57,356,531a3.58,3.58,0,0,0,3.74,3.74,4.09,4.09,0,0,0,2.63-1.2,9.24,9.24,0,0,1-1.94,4h2.27Z" transform="translate(-312.49 -450.06)"/><text class="cls-4" transform="translate(3.08 8.71)">10</text><text class="cls-4" transform="translate(66.04 94.97) rotate(180)">10</text><path class="cls-2" d="M350,478a18.81,18.81,0,0,1-2.47-2.28,0.61,0.61,0,0,0-.47-0.21h0a0.61,0.61,0,0,0-.47.21,18.81,18.81,0,0,1-2.47,2.28c-1.85,1.52-3.76,3.08-3.76,5.51a3.58,3.58,0,0,0,3.74,3.74,4.09,4.09,0,0,0,2.63-1.2,9.25,9.25,0,0,1-1.94,4h4.58a9.27,9.27,0,0,1-1.94-4,4.09,4.09,0,0,0,2.63,1.21,3.58,3.58,0,0,0,3.75-3.74C353.77,481.08,351.86,479.52,350,478Z" transform="translate(-312.49 -450.06)"/><path class="cls-3" d="M347,490.08V475.5h0a0.61,0.61,0,0,0-.47.21,18.81,18.81,0,0,1-2.47,2.28c-1.85,1.52-3.76,3.08-3.76,5.51a3.58,3.58,0,0,0,3.74,3.74,4.09,4.09,0,0,0,2.63-1.2,9.25,9.25,0,0,1-1.94,4H347Z" transform="translate(-312.49 -450.06)"/><path class="cls-2" d="M350,516.37a18.94,18.94,0,0,1-2.47-2.28,0.6,0.6,0,0,0-.47-0.22h0a0.61,0.61,0,0,0-.47.22,18.94,18.94,0,0,1-2.47,2.28c-1.85,1.51-3.76,3.08-3.76,5.51a3.58,3.58,0,0,0,3.74,3.74,4.08,4.08,0,0,0,2.63-1.2,9.24,9.24,0,0,1-1.94,4h4.58a9.27,9.27,0,0,1-1.94-4,4.08,4.08,0,0,0,2.63,1.21,3.58,3.58,0,0,0,3.75-3.74C353.77,519.46,351.86,517.89,350,516.37Z" transform="translate(-312.49 -450.06)"/><path class="cls-3" d="M347,528.45V513.88h0a0.61,0.61,0,0,0-.47.22,18.94,18.94,0,0,1-2.47,2.28c-1.85,1.51-3.76,3.08-3.76,5.51a3.58,3.58,0,0,0,3.74,3.74,4.08,4.08,0,0,0,2.63-1.2,9.24,9.24,0,0,1-1.94,4H347Z" transform="translate(-312.49 -450.06)"/></svg>