<svg id="Objects" xmlns="http://www.w3.org/2000/svg" viewBox="0 0 69.12 103.68"><defs><style>.cls-1{fill:#f2f2f2;}.cls-2,.cls-4{fill:#333;}.cls-3{fill:#4d4d4d;}.cls-4{font-size:10.89px;font-family:ChunkFive;}</style></defs><title>2</title><rect class="cls-1" width="69.12" height="103.68" rx="2.72" ry="2.72"/><path class="cls-2" d="M350,54.64a18.94,18.94,0,0,1-2.47-2.28,0.61,0.61,0,0,0-.47-0.22h0a0.61,0.61,0,0,0-.47.22,19,19,0,0,1-2.47,2.28c-1.85,1.51-3.76,3.08-3.76,5.51a3.58,3.58,0,0,0,3.75,3.74,4.08,4.08,0,0,0,2.62-1.2,9.24,9.24,0,0,1-1.94,4h4.58a9.27,9.27,0,0,1-1.94-4A4.08,4.08,0,0,0,350,63.88a3.58,3.58,0,0,0,3.74-3.74C353.76,57.72,351.84,56.15,350,54.64Z" transform="translate(-312.49 -25.98)"/><path class="cls-3" d="M347,66.71V52.14h0a0.61,0.61,0,0,0-.47.22,19,19,0,0,1-2.47,2.28c-1.85,1.51-3.76,3.08-3.76,5.51a3.58,3.58,0,0,0,3.75,3.74,4.08,4.08,0,0,0,2.62-1.2,9.24,9.24,0,0,1-1.94,4H347Z" transform="translate(-312.49 -25.98)"/><path class="cls-2" d="M350,91.42a18.94,18.94,0,0,1-2.47-2.28,0.61,0.61,0,0,0-.47-0.22h0a0.61,0.61,0,0,0-.47.22,19,19,0,0,1-2.47,2.28c-1.85,1.51-3.76,3.08-3.76,5.51a3.58,3.58,0,0,0,3.75,3.74,4.08,4.08,0,0,0,2.62-1.2,9.24,9.24,0,0,1-1.94,4h4.58a9.27,9.27,0,0,1-1.94-4,4.08,4.08,0,0,0,2.63,1.21,3.58,3.58,0,0,0,3.74-3.74C353.76,94.51,351.84,92.94,350,91.42Z" transform="translate(-312.49 -25.98)"/><path class="cls-3" d="M347,103.5V88.92h0a0.61,0.61,0,0,0-.47.22,19,19,0,0,1-2.47,2.28c-1.85,1.51-3.76,3.08-3.76,5.51a3.58,3.58,0,0,0,3.75,3.74,4.08,4.08,0,0,0,2.62-1.2,9.24,9.24,0,0,1-1.94,4H347Z" transform="translate(-312.49 -25.98)"/><path class="cls-2" d="M321.42,39.75a9.83,9.83,0,0,1-1.28-1.18,0.31,0.31,0,0,0-.24-0.11h0a0.32,0.32,0,0,0-.24.11,9.83,9.83,0,0,1-1.28,1.18c-1,.78-1.95,1.6-1.95,2.85a1.85,1.85,0,0,0,1.94,1.94,2.12,2.12,0,0,0,1.36-.62,4.79,4.79,0,0,1-1,2.09h2.37a4.8,4.8,0,0,1-1-2.09,2.12,2.12,0,0,0,1.36.63,1.86,1.86,0,0,0,1.94-1.94C323.37,41.35,322.37,40.54,321.42,39.75Z" transform="translate(-312.49 -25.98)"/><path class="cls-3" d="M319.88,46V38.46h0a0.32,0.32,0,0,0-.24.11,9.83,9.83,0,0,1-1.28,1.18c-1,.78-1.95,1.6-1.95,2.85a1.85,1.85,0,0,0,1.94,1.94,2.12,2.12,0,0,0,1.36-.62,4.79,4.79,0,0,1-1,2.09h1.18Z" transform="translate(-312.49 -25.98)"/><path class="cls-2" d="M372.66,115.89a9.82,9.82,0,0,1,1.28,1.18,0.31,0.31,0,0,0,.24.11h0a0.31,0.31,0,0,0,.24-0.11,9.82,9.82,0,0,1,1.28-1.18c1-.78,1.95-1.6,1.95-2.85a1.85,1.85,0,0,0-1.94-1.94,2.12,2.12,0,0,0-1.36.62,4.79,4.79,0,0,1,1-2.09H373a4.79,4.79,0,0,1,1,2.09,2.12,2.12,0,0,0-1.36-.62,1.85,1.85,0,0,0-1.94,1.94C370.71,114.29,371.7,115.1,372.66,115.89Z" transform="translate(-312.49 -25.98)"/><path class="cls-3" d="M374.2,109.63v7.55h0a0.31,0.31,0,0,0,.24-0.11,9.82,9.82,0,0,1,1.28-1.18c1-.78,1.95-1.6,1.95-2.85a1.85,1.85,0,0,0-1.94-1.94,2.12,2.12,0,0,0-1.36.62,4.79,4.79,0,0,1,1-2.09H374.2Z" transform="translate(-312.49 -25.98)"/><text class="cls-4" transform="translate(4.62 10.45)">2</text><text class="cls-4" transform="translate(64.51 93.23) rotate(180)">2</text></svg>