<svg id="Objects" xmlns="http://www.w3.org/2000/svg" viewBox="0 0 69.12 103.68"><defs><style>.cls-1{fill:#f2f2f2;}.cls-2,.cls-4{fill:#333;}.cls-3{fill:#4d4d4d;}.cls-4{font-size:10.89px;font-family:ChunkFive;}</style></defs><title>3</title><rect class="cls-1" width="69.12" height="103.68" rx="2.72" ry="2.72"/><path class="cls-2" d="M691.48,48.5A19,19,0,0,1,689,46.22a0.61,0.61,0,0,0-.47-0.22h0a0.61,0.61,0,0,0-.47.22,19,19,0,0,1-2.47,2.28C683.71,50,681.8,51.59,681.8,54a3.58,3.58,0,0,0,3.74,3.74,4.08,4.08,0,0,0,2.62-1.2,9.24,9.24,0,0,1-1.94,4h4.58a9.28,9.28,0,0,1-1.94-4,4.08,4.08,0,0,0,2.63,1.21A3.58,3.58,0,0,0,695.24,54C695.24,51.59,693.33,50,691.48,48.5Z" transform="translate(-638.21 -25.98)"/><path class="cls-3" d="M688.5,60.58V46h0a0.61,0.61,0,0,0-.47.22,19,19,0,0,1-2.47,2.28C683.71,50,681.8,51.59,681.8,54a3.58,3.58,0,0,0,3.74,3.74,4.08,4.08,0,0,0,2.62-1.2,9.24,9.24,0,0,1-1.94,4h2.27Z" transform="translate(-638.21 -25.98)"/><path class="cls-2" d="M660,97.55a18.94,18.94,0,0,1-2.47-2.28,0.61,0.61,0,0,0-.47-0.22h0a0.61,0.61,0,0,0-.47.22,18.89,18.89,0,0,1-2.47,2.28c-1.85,1.51-3.76,3.08-3.76,5.51a3.58,3.58,0,0,0,3.74,3.74,4.09,4.09,0,0,0,2.63-1.2,9.25,9.25,0,0,1-1.94,4h4.58a9.27,9.27,0,0,1-1.94-4A4.07,4.07,0,0,0,660,106.8a3.58,3.58,0,0,0,3.75-3.74C663.75,100.64,661.84,99.07,660,97.55Z" transform="translate(-638.21 -25.98)"/><path class="cls-3" d="M657,109.63V95.06h0a0.61,0.61,0,0,0-.47.22,18.89,18.89,0,0,1-2.47,2.28c-1.85,1.51-3.76,3.08-3.76,5.51a3.58,3.58,0,0,0,3.74,3.74,4.09,4.09,0,0,0,2.63-1.2,9.25,9.25,0,0,1-1.94,4H657Z" transform="translate(-638.21 -25.98)"/><path class="cls-2" d="M675.73,73a18.88,18.88,0,0,1-2.47-2.28,0.61,0.61,0,0,0-.47-0.22h0a0.61,0.61,0,0,0-.47.22A18.82,18.82,0,0,1,669.82,73c-1.85,1.51-3.76,3.08-3.76,5.51a3.58,3.58,0,0,0,3.75,3.74,4.09,4.09,0,0,0,2.63-1.2,9.25,9.25,0,0,1-1.94,4h4.58a9.27,9.27,0,0,1-1.94-4,4.08,4.08,0,0,0,2.63,1.21,3.58,3.58,0,0,0,3.75-3.74C679.5,76.11,677.58,74.54,675.73,73Z" transform="translate(-638.21 -25.98)"/><path class="cls-3" d="M672.76,85.11V70.53h0a0.61,0.61,0,0,0-.47.22A18.82,18.82,0,0,1,669.82,73c-1.85,1.51-3.76,3.08-3.76,5.51a3.58,3.58,0,0,0,3.75,3.74,4.09,4.09,0,0,0,2.63-1.2,9.25,9.25,0,0,1-1.94,4h2.27Z" transform="translate(-638.21 -25.98)"/><path class="cls-2" d="M647.14,39.75a9.84,9.84,0,0,1-1.28-1.18,0.31,0.31,0,0,0-.24-0.11h0a0.32,0.32,0,0,0-.24.11,9.82,9.82,0,0,1-1.28,1.18c-1,.78-1.95,1.6-1.95,2.85a1.85,1.85,0,0,0,1.94,1.94,2.11,2.11,0,0,0,1.36-.62,4.78,4.78,0,0,1-1,2.09h2.37a4.8,4.8,0,0,1-1-2.09,2.11,2.11,0,0,0,1.36.63,1.86,1.86,0,0,0,1.94-1.94C649.09,41.35,648.1,40.54,647.14,39.75Z" transform="translate(-638.21 -25.98)"/><path class="cls-3" d="M645.6,46V38.46h0a0.32,0.32,0,0,0-.24.11,9.82,9.82,0,0,1-1.28,1.18c-1,.78-1.95,1.6-1.95,2.85a1.85,1.85,0,0,0,1.94,1.94,2.11,2.11,0,0,0,1.36-.62,4.78,4.78,0,0,1-1,2.09h1.18Z" transform="translate(-638.21 -25.98)"/><path class="cls-2" d="M698.38,115.89a9.83,9.83,0,0,1,1.28,1.18,0.31,0.31,0,0,0,.24.11h0a0.31,0.31,0,0,0,.24-0.11,9.89,9.89,0,0,1,1.28-1.18c1-.78,1.95-1.6,1.95-2.85a1.85,1.85,0,0,0-1.94-1.94,2.11,2.11,0,0,0-1.36.62,4.79,4.79,0,0,1,1-2.09h-2.37a4.81,4.81,0,0,1,1,2.09,2.12,2.12,0,0,0-1.36-.62,1.85,1.85,0,0,0-1.94,1.94C696.43,114.29,697.42,115.1,698.38,115.89Z" transform="translate(-638.21 -25.98)"/><path class="cls-3" d="M699.92,109.63v7.55h0a0.31,0.31,0,0,0,.24-0.11,9.89,9.89,0,0,1,1.28-1.18c1-.78,1.95-1.6,1.95-2.85a1.85,1.85,0,0,0-1.94-1.94,2.11,2.11,0,0,0-1.36.62,4.79,4.79,0,0,1,1-2.09h-1.18Z" transform="translate(-638.21 -25.98)"/><text class="cls-4" transform="translate(4.62 10.45)">3</text><text class="cls-4" transform="translate(64.51 93.23) rotate(180)">3</text></svg>