<svg id="Objects" xmlns="http://www.w3.org/2000/svg" viewBox="0 0 69.12 103.68"><defs><style>.cls-1{fill:#f2f2f2;}.cls-2,.cls-4{fill:#333;}.cls-3{fill:#4d4d4d;}.cls-4{font-size:10.89px;font-family:ChunkFive;}</style></defs><title>4</title><rect class="cls-1" width="69.12" height="103.68" rx="2.72" ry="2.72"/><path class="cls-2" d="M334.25,155a18.87,18.87,0,0,1-2.47-2.28,0.61,0.61,0,0,0-.47-0.22h0a0.61,0.61,0,0,0-.47.22,18.88,18.88,0,0,1-2.47,2.28c-1.85,1.51-3.76,3.08-3.76,5.51a3.58,3.58,0,0,0,3.75,3.74,4.08,4.08,0,0,0,2.62-1.2,9.24,9.24,0,0,1-1.94,4h4.58a9.28,9.28,0,0,1-1.94-4,4.08,4.08,0,0,0,2.63,1.21,3.58,3.58,0,0,0,3.74-3.74C338,158,336.1,156.48,334.25,155Z" transform="translate(-312.49 -132.43)"/><path class="cls-3" d="M331.28,167V152.47h0a0.61,0.61,0,0,0-.47.22,18.88,18.88,0,0,1-2.47,2.28c-1.85,1.51-3.76,3.08-3.76,5.51a3.58,3.58,0,0,0,3.75,3.74,4.08,4.08,0,0,0,2.62-1.2,9.24,9.24,0,0,1-1.94,4h2.27Z" transform="translate(-312.49 -132.43)"/><path class="cls-2" d="M321.43,146.21a9.76,9.76,0,0,1-1.28-1.18,0.32,0.32,0,0,0-.24-0.11h0a0.32,0.32,0,0,0-.24.11,9.83,9.83,0,0,1-1.28,1.18c-1,.78-1.95,1.6-1.95,2.85a1.85,1.85,0,0,0,1.94,1.94,2.12,2.12,0,0,0,1.36-.62,4.79,4.79,0,0,1-1,2.09h2.37a4.8,4.8,0,0,1-1-2.09,2.12,2.12,0,0,0,1.36.63,1.86,1.86,0,0,0,1.94-1.94C323.38,147.81,322.39,147,321.43,146.21Z" transform="translate(-312.49 -132.43)"/><path class="cls-3" d="M319.89,152.47v-7.55h0a0.32,0.32,0,0,0-.24.11,9.83,9.83,0,0,1-1.28,1.18c-1,.78-1.95,1.6-1.95,2.85a1.85,1.85,0,0,0,1.94,1.94,2.12,2.12,0,0,0,1.36-.62,4.79,4.79,0,0,1-1,2.09h1.18Z" transform="translate(-312.49 -132.43)"/><path class="cls-2" d="M372.67,222.34a9.82,9.82,0,0,1,1.28,1.18,0.31,0.31,0,0,0,.24.11h0a0.32,0.32,0,0,0,.24-0.11,9.77,9.77,0,0,1,1.28-1.18c1-.78,1.95-1.6,1.95-2.85a1.85,1.85,0,0,0-1.94-1.94,2.11,2.11,0,0,0-1.36.62,4.78,4.78,0,0,1,1-2.09H373a4.81,4.81,0,0,1,1,2.09,2.11,2.11,0,0,0-1.36-.62,1.86,1.86,0,0,0-1.94,1.94C370.72,220.74,371.72,221.56,372.67,222.34Z" transform="translate(-312.49 -132.43)"/><path class="cls-3" d="M374.21,216.09v7.55h0a0.32,0.32,0,0,0,.24-0.11,9.77,9.77,0,0,1,1.28-1.18c1-.78,1.95-1.6,1.95-2.85a1.85,1.85,0,0,0-1.94-1.94,2.11,2.11,0,0,0-1.36.62,4.78,4.78,0,0,1,1-2.09h-1.18Z" transform="translate(-312.49 -132.43)"/><path class="cls-2" d="M365.71,155a18.87,18.87,0,0,1-2.47-2.28,0.61,0.61,0,0,0-.47-0.22h0a0.61,0.61,0,0,0-.47.22,18.94,18.94,0,0,1-2.47,2.28c-1.85,1.51-3.76,3.08-3.76,5.51a3.58,3.58,0,0,0,3.74,3.74,4.09,4.09,0,0,0,2.63-1.2,9.24,9.24,0,0,1-1.94,4H365a9.26,9.26,0,0,1-1.94-4,4.08,4.08,0,0,0,2.63,1.21,3.58,3.58,0,0,0,3.75-3.74C369.47,158,367.56,156.48,365.71,155Z" transform="translate(-312.49 -132.43)"/><path class="cls-3" d="M362.73,167V152.47h0a0.61,0.61,0,0,0-.47.22,18.94,18.94,0,0,1-2.47,2.28c-1.85,1.51-3.76,3.08-3.76,5.51a3.58,3.58,0,0,0,3.74,3.74,4.09,4.09,0,0,0,2.63-1.2,9.24,9.24,0,0,1-1.94,4h2.27Z" transform="translate(-312.49 -132.43)"/><path class="cls-2" d="M334.25,204a18.94,18.94,0,0,1-2.47-2.28,0.61,0.61,0,0,0-.47-0.22h0a0.61,0.61,0,0,0-.47.22,19,19,0,0,1-2.47,2.28c-1.85,1.51-3.76,3.08-3.76,5.51a3.58,3.58,0,0,0,3.75,3.74,4.08,4.08,0,0,0,2.62-1.2,9.24,9.24,0,0,1-1.94,4h4.58a9.28,9.28,0,0,1-1.94-4,4.08,4.08,0,0,0,2.63,1.21,3.58,3.58,0,0,0,3.74-3.74C338,207.09,336.1,205.53,334.25,204Z" transform="translate(-312.49 -132.43)"/><path class="cls-3" d="M331.28,216.09V201.51h0a0.61,0.61,0,0,0-.47.22,19,19,0,0,1-2.47,2.28c-1.85,1.51-3.76,3.08-3.76,5.51a3.58,3.58,0,0,0,3.75,3.74,4.08,4.08,0,0,0,2.62-1.2,9.24,9.24,0,0,1-1.94,4h2.27Z" transform="translate(-312.49 -132.43)"/><path class="cls-2" d="M365.71,204a18.94,18.94,0,0,1-2.47-2.28,0.61,0.61,0,0,0-.47-0.22h0a0.61,0.61,0,0,0-.47.22,19,19,0,0,1-2.47,2.28c-1.85,1.51-3.76,3.08-3.76,5.51a3.58,3.58,0,0,0,3.74,3.74,4.09,4.09,0,0,0,2.63-1.2,9.24,9.24,0,0,1-1.94,4H365a9.27,9.27,0,0,1-1.94-4,4.08,4.08,0,0,0,2.63,1.21,3.58,3.58,0,0,0,3.75-3.74C369.47,207.09,367.56,205.53,365.71,204Z" transform="translate(-312.49 -132.43)"/><path class="cls-3" d="M362.73,216.09V201.51h0a0.61,0.61,0,0,0-.47.22,19,19,0,0,1-2.47,2.28c-1.85,1.51-3.76,3.08-3.76,5.51a3.58,3.58,0,0,0,3.74,3.74,4.09,4.09,0,0,0,2.63-1.2,9.24,9.24,0,0,1-1.94,4h2.27Z" transform="translate(-312.49 -132.43)"/><text class="cls-4" transform="translate(4.62 10.45)">4</text><text class="cls-4" transform="translate(64.51 93.23) rotate(180)">4</text></svg>