<svg id="Objects" xmlns="http://www.w3.org/2000/svg" viewBox="0 0 69.12 103.68"><defs><style>.cls-1{fill:#f2f2f2;}.cls-2,.cls-4{fill:#333;}.cls-3{fill:#4d4d4d;}.cls-4{font-size:10.89px;font-family:ChunkFive;}</style></defs><title>5</title><rect class="cls-1" width="69.12" height="103.68" rx="2.72" ry="2.72"/><path class="cls-2" d="M660,154.91a18.94,18.94,0,0,1-2.47-2.28,0.61,0.61,0,0,0-.47-0.22h0a0.61,0.61,0,0,0-.47.22,18.88,18.88,0,0,1-2.47,2.28c-1.85,1.51-3.76,3.08-3.76,5.51a3.58,3.58,0,0,0,3.75,3.74,4.09,4.09,0,0,0,2.63-1.2,9.26,9.26,0,0,1-1.94,4h4.58a9.27,9.27,0,0,1-1.94-4,4.08,4.08,0,0,0,2.63,1.21,3.58,3.58,0,0,0,3.75-3.74C663.74,158,661.82,156.43,660,154.91Z" transform="translate(-638.21 -132.38)"/><path class="cls-3" d="M657,167V152.41h0a0.61,0.61,0,0,0-.47.22,18.88,18.88,0,0,1-2.47,2.28c-1.85,1.51-3.76,3.08-3.76,5.51a3.58,3.58,0,0,0,3.75,3.74,4.09,4.09,0,0,0,2.63-1.2,9.26,9.26,0,0,1-1.94,4H657Z" transform="translate(-638.21 -132.38)"/><path class="cls-2" d="M647.16,146.16a9.83,9.83,0,0,1-1.28-1.18,0.31,0.31,0,0,0-.24-0.11h0a0.32,0.32,0,0,0-.24.11,9.84,9.84,0,0,1-1.28,1.18c-1,.78-1.95,1.6-1.95,2.85a1.85,1.85,0,0,0,1.94,1.94,2.11,2.11,0,0,0,1.36-.62,4.78,4.78,0,0,1-1,2.09h2.37a4.8,4.8,0,0,1-1-2.09,2.11,2.11,0,0,0,1.36.63A1.85,1.85,0,0,0,649.1,149C649.1,147.76,648.11,146.94,647.16,146.16Z" transform="translate(-638.21 -132.38)"/><path class="cls-3" d="M645.62,152.41v-7.55h0a0.32,0.32,0,0,0-.24.11,9.84,9.84,0,0,1-1.28,1.18c-1,.78-1.95,1.6-1.95,2.85a1.85,1.85,0,0,0,1.94,1.94,2.11,2.11,0,0,0,1.36-.62,4.78,4.78,0,0,1-1,2.09h1.18Z" transform="translate(-638.21 -132.38)"/><path class="cls-2" d="M698.4,222.29a9.83,9.83,0,0,1,1.28,1.18,0.31,0.31,0,0,0,.24.11h0a0.32,0.32,0,0,0,.24-0.11,9.83,9.83,0,0,1,1.28-1.18c1-.78,1.95-1.6,1.95-2.85a1.85,1.85,0,0,0-1.94-1.94,2.11,2.11,0,0,0-1.36.62,4.79,4.79,0,0,1,1-2.09h-2.37a4.81,4.81,0,0,1,1,2.09,2.12,2.12,0,0,0-1.36-.62,1.86,1.86,0,0,0-1.94,1.94C696.45,220.69,697.44,221.51,698.4,222.29Z" transform="translate(-638.21 -132.38)"/><path class="cls-3" d="M699.94,216v7.55h0a0.32,0.32,0,0,0,.24-0.11,9.83,9.83,0,0,1,1.28-1.18c1-.78,1.95-1.6,1.95-2.85a1.85,1.85,0,0,0-1.94-1.94,2.11,2.11,0,0,0-1.36.62,4.79,4.79,0,0,1,1-2.09h-1.18Z" transform="translate(-638.21 -132.38)"/><path class="cls-2" d="M691.43,154.91a19,19,0,0,1-2.47-2.28,0.61,0.61,0,0,0-.47-0.22h0a0.61,0.61,0,0,0-.47.22,19,19,0,0,1-2.47,2.28c-1.85,1.51-3.76,3.08-3.76,5.51a3.58,3.58,0,0,0,3.74,3.74,4.08,4.08,0,0,0,2.63-1.2,9.25,9.25,0,0,1-1.94,4h4.58a9.28,9.28,0,0,1-1.94-4,4.08,4.08,0,0,0,2.63,1.21,3.58,3.58,0,0,0,3.75-3.74C695.19,158,693.28,156.43,691.43,154.91Z" transform="translate(-638.21 -132.38)"/><path class="cls-3" d="M688.46,167V152.41h0a0.61,0.61,0,0,0-.47.22,19,19,0,0,1-2.47,2.28c-1.85,1.51-3.76,3.08-3.76,5.51a3.58,3.58,0,0,0,3.74,3.74,4.08,4.08,0,0,0,2.63-1.2,9.25,9.25,0,0,1-1.94,4h2.27Z" transform="translate(-638.21 -132.38)"/><path class="cls-2" d="M660,204a18.93,18.93,0,0,1-2.47-2.28,0.61,0.61,0,0,0-.47-0.22h0a0.61,0.61,0,0,0-.47.22,18.88,18.88,0,0,1-2.47,2.28c-1.85,1.51-3.76,3.08-3.76,5.51a3.58,3.58,0,0,0,3.75,3.74,4.09,4.09,0,0,0,2.63-1.2,9.25,9.25,0,0,1-1.94,4h4.58a9.26,9.26,0,0,1-1.94-4,4.08,4.08,0,0,0,2.63,1.21,3.58,3.58,0,0,0,3.75-3.74C663.74,207,661.82,205.47,660,204Z" transform="translate(-638.21 -132.38)"/><path class="cls-3" d="M657,216V201.46h0a0.61,0.61,0,0,0-.47.22,18.88,18.88,0,0,1-2.47,2.28c-1.85,1.51-3.76,3.08-3.76,5.51a3.58,3.58,0,0,0,3.75,3.74,4.09,4.09,0,0,0,2.63-1.2,9.25,9.25,0,0,1-1.94,4H657Z" transform="translate(-638.21 -132.38)"/><path class="cls-2" d="M691.43,204a19,19,0,0,1-2.47-2.28,0.61,0.61,0,0,0-.47-0.22h0a0.61,0.61,0,0,0-.47.22,19,19,0,0,1-2.47,2.28c-1.85,1.51-3.76,3.08-3.76,5.51a3.58,3.58,0,0,0,3.74,3.74,4.08,4.08,0,0,0,2.63-1.2,9.24,9.24,0,0,1-1.94,4h4.58a9.27,9.27,0,0,1-1.94-4,4.08,4.08,0,0,0,2.63,1.21,3.58,3.58,0,0,0,3.75-3.74C695.19,207,693.28,205.47,691.43,204Z" transform="translate(-638.21 -132.38)"/><path class="cls-3" d="M688.46,216V201.46h0a0.61,0.61,0,0,0-.47.22,19,19,0,0,1-2.47,2.28c-1.85,1.51-3.76,3.08-3.76,5.51a3.58,3.58,0,0,0,3.74,3.74,4.08,4.08,0,0,0,2.63-1.2,9.24,9.24,0,0,1-1.94,4h2.27Z" transform="translate(-638.21 -132.38)"/><text class="cls-4" transform="translate(4.62 10.45)">5</text><text class="cls-4" transform="translate(64.51 93.23) rotate(180)">5</text><path class="cls-2" d="M675.73,179.71a18.94,18.94,0,0,1-2.47-2.28,0.61,0.61,0,0,0-.47-0.22h0a0.61,0.61,0,0,0-.47.22,18.88,18.88,0,0,1-2.47,2.28c-1.85,1.51-3.76,3.08-3.76,5.51A3.58,3.58,0,0,0,669.8,189a4.08,4.08,0,0,0,2.63-1.2,9.25,9.25,0,0,1-1.94,4h4.58a9.27,9.27,0,0,1-1.94-4,4.08,4.08,0,0,0,2.63,1.21,3.58,3.58,0,0,0,3.75-3.74C679.5,182.79,677.58,181.22,675.73,179.71Z" transform="translate(-638.21 -132.38)"/><path class="cls-3" d="M672.76,191.78V177.21h0a0.61,0.61,0,0,0-.47.22,18.88,18.88,0,0,1-2.47,2.28c-1.85,1.51-3.76,3.08-3.76,5.51A3.58,3.58,0,0,0,669.8,189a4.08,4.08,0,0,0,2.63-1.2,9.25,9.25,0,0,1-1.94,4h2.27Z" transform="translate(-638.21 -132.38)"/></svg>