<svg id="Objects" xmlns="http://www.w3.org/2000/svg" viewBox="0 0 69.12 103.68"><defs><style>.cls-1{fill:#f2f2f2;}.cls-2,.cls-4{fill:#333;}.cls-3{fill:#4d4d4d;}.cls-4{font-size:10.89px;font-family:ChunkFive;}</style></defs><title>7</title><rect class="cls-1" width="69.12" height="103.68" rx="2.72" ry="2.72"/><path class="cls-2" d="M660,261.31A18.94,18.94,0,0,1,657.5,259a0.61,0.61,0,0,0-.47-0.22h0a0.61,0.61,0,0,0-.47.22,18.88,18.88,0,0,1-2.47,2.28c-1.85,1.51-3.76,3.08-3.76,5.51a3.58,3.58,0,0,0,3.74,3.74,4.08,4.08,0,0,0,2.63-1.2,9.25,9.25,0,0,1-1.94,4h4.58a9.27,9.27,0,0,1-1.94-4,4.08,4.08,0,0,0,2.63,1.21,3.58,3.58,0,0,0,3.75-3.74C663.74,264.4,661.82,262.83,660,261.31Z" transform="translate(-638.21 -238.79)"/><path class="cls-3" d="M657,273.39V258.82h0a0.61,0.61,0,0,0-.47.22,18.88,18.88,0,0,1-2.47,2.28c-1.85,1.51-3.76,3.08-3.76,5.51a3.58,3.58,0,0,0,3.74,3.74,4.08,4.08,0,0,0,2.63-1.2,9.25,9.25,0,0,1-1.94,4H657Z" transform="translate(-638.21 -238.79)"/><path class="cls-2" d="M647.16,252.56a9.88,9.88,0,0,1-1.28-1.18,0.31,0.31,0,0,0-.24-0.11h0a0.32,0.32,0,0,0-.24.11,9.89,9.89,0,0,1-1.28,1.18c-1,.78-1.95,1.6-1.95,2.85a1.85,1.85,0,0,0,1.94,1.94,2.11,2.11,0,0,0,1.36-.62,4.78,4.78,0,0,1-1,2.09h2.37a4.8,4.8,0,0,1-1-2.09,2.11,2.11,0,0,0,1.36.63,1.85,1.85,0,0,0,1.94-1.94C649.1,254.16,648.11,253.35,647.16,252.56Z" transform="translate(-638.21 -238.79)"/><path class="cls-3" d="M645.62,258.82v-7.55h0a0.32,0.32,0,0,0-.24.11,9.89,9.89,0,0,1-1.28,1.18c-1,.78-1.95,1.6-1.95,2.85a1.85,1.85,0,0,0,1.94,1.94,2.11,2.11,0,0,0,1.36-.62,4.78,4.78,0,0,1-1,2.09h1.18Z" transform="translate(-638.21 -238.79)"/><path class="cls-2" d="M698.4,328.7a9.76,9.76,0,0,1,1.28,1.18,0.31,0.31,0,0,0,.24.11h0a0.32,0.32,0,0,0,.24-0.11,9.76,9.76,0,0,1,1.28-1.18c1-.78,1.95-1.6,1.95-2.85a1.85,1.85,0,0,0-1.94-1.94,2.12,2.12,0,0,0-1.36.62,4.79,4.79,0,0,1,1-2.09h-2.37a4.8,4.8,0,0,1,1,2.09,2.11,2.11,0,0,0-1.36-.62,1.85,1.85,0,0,0-1.94,1.94C696.45,327.1,697.44,327.91,698.4,328.7Z" transform="translate(-638.21 -238.79)"/><path class="cls-3" d="M699.94,322.44V330h0a0.32,0.32,0,0,0,.24-0.11,9.76,9.76,0,0,1,1.28-1.18c1-.78,1.95-1.6,1.95-2.85a1.85,1.85,0,0,0-1.94-1.94,2.12,2.12,0,0,0-1.36.62,4.79,4.79,0,0,1,1-2.09h-1.18Z" transform="translate(-638.21 -238.79)"/><path class="cls-2" d="M691.43,261.31A19,19,0,0,1,689,259a0.61,0.61,0,0,0-.47-0.22h0a0.61,0.61,0,0,0-.47.22,19,19,0,0,1-2.47,2.28c-1.85,1.51-3.76,3.08-3.76,5.51a3.58,3.58,0,0,0,3.75,3.74,4.08,4.08,0,0,0,2.62-1.2,9.24,9.24,0,0,1-1.94,4h4.58a9.27,9.27,0,0,1-1.94-4,4.08,4.08,0,0,0,2.63,1.21,3.58,3.58,0,0,0,3.74-3.74C695.19,264.4,693.28,262.83,691.43,261.31Z" transform="translate(-638.21 -238.79)"/><path class="cls-3" d="M688.46,273.39V258.82h0a0.61,0.61,0,0,0-.47.22,19,19,0,0,1-2.47,2.28c-1.85,1.51-3.76,3.08-3.76,5.51a3.58,3.58,0,0,0,3.75,3.74,4.08,4.08,0,0,0,2.62-1.2,9.24,9.24,0,0,1-1.94,4h2.27Z" transform="translate(-638.21 -238.79)"/><path class="cls-2" d="M660,285.84a18.94,18.94,0,0,1-2.47-2.28,0.61,0.61,0,0,0-.47-0.22h0a0.61,0.61,0,0,0-.47.22,18.88,18.88,0,0,1-2.47,2.28c-1.85,1.51-3.76,3.08-3.76,5.51a3.58,3.58,0,0,0,3.74,3.74,4.09,4.09,0,0,0,2.63-1.2,9.26,9.26,0,0,1-1.94,4h4.58a9.26,9.26,0,0,1-1.94-4,4.08,4.08,0,0,0,2.63,1.21,3.58,3.58,0,0,0,3.75-3.74C663.74,288.92,661.82,287.36,660,285.84Z" transform="translate(-638.21 -238.79)"/><path class="cls-3" d="M657,297.92V283.34h0a0.61,0.61,0,0,0-.47.22,18.88,18.88,0,0,1-2.47,2.28c-1.85,1.51-3.76,3.08-3.76,5.51a3.58,3.58,0,0,0,3.74,3.74,4.09,4.09,0,0,0,2.63-1.2,9.26,9.26,0,0,1-1.94,4H657Z" transform="translate(-638.21 -238.79)"/><path class="cls-2" d="M691.43,285.84a19,19,0,0,1-2.47-2.28,0.61,0.61,0,0,0-.47-0.22h0a0.61,0.61,0,0,0-.47.22,19,19,0,0,1-2.47,2.28c-1.85,1.51-3.76,3.08-3.76,5.51a3.58,3.58,0,0,0,3.75,3.74,4.08,4.08,0,0,0,2.62-1.2,9.24,9.24,0,0,1-1.94,4h4.58a9.27,9.27,0,0,1-1.94-4,4.08,4.08,0,0,0,2.63,1.21,3.58,3.58,0,0,0,3.74-3.74C695.19,288.92,693.28,287.36,691.43,285.84Z" transform="translate(-638.21 -238.79)"/><path class="cls-3" d="M688.46,297.92V283.34h0a0.61,0.61,0,0,0-.47.22,19,19,0,0,1-2.47,2.28c-1.85,1.51-3.76,3.08-3.76,5.51a3.58,3.58,0,0,0,3.75,3.74,4.08,4.08,0,0,0,2.62-1.2,9.24,9.24,0,0,1-1.94,4h2.27Z" transform="translate(-638.21 -238.79)"/><path class="cls-2" d="M660,310.36a18.94,18.94,0,0,1-2.47-2.28,0.61,0.61,0,0,0-.47-0.22h0a0.61,0.61,0,0,0-.47.22,18.88,18.88,0,0,1-2.47,2.28c-1.85,1.51-3.76,3.08-3.76,5.51a3.58,3.58,0,0,0,3.74,3.74,4.09,4.09,0,0,0,2.63-1.2,9.25,9.25,0,0,1-1.94,4h4.58a9.27,9.27,0,0,1-1.94-4,4.07,4.07,0,0,0,2.63,1.21,3.58,3.58,0,0,0,3.75-3.74C663.74,313.45,661.82,311.88,660,310.36Z" transform="translate(-638.21 -238.79)"/><path class="cls-3" d="M657,322.44V307.87h0a0.61,0.61,0,0,0-.47.22,18.88,18.88,0,0,1-2.47,2.28c-1.85,1.51-3.76,3.08-3.76,5.51a3.58,3.58,0,0,0,3.74,3.74,4.09,4.09,0,0,0,2.63-1.2,9.25,9.25,0,0,1-1.94,4H657Z" transform="translate(-638.21 -238.79)"/><path class="cls-2" d="M691.43,310.36a19,19,0,0,1-2.47-2.28,0.61,0.61,0,0,0-.47-0.22h0a0.61,0.61,0,0,0-.47.22,19,19,0,0,1-2.47,2.28c-1.85,1.51-3.76,3.08-3.76,5.51a3.58,3.58,0,0,0,3.75,3.74,4.08,4.08,0,0,0,2.62-1.2,9.24,9.24,0,0,1-1.94,4h4.58a9.28,9.28,0,0,1-1.94-4,4.08,4.08,0,0,0,2.63,1.21,3.58,3.58,0,0,0,3.74-3.74C695.19,313.45,693.28,311.88,691.43,310.36Z" transform="translate(-638.21 -238.79)"/><path class="cls-3" d="M688.46,322.44V307.87h0a0.61,0.61,0,0,0-.47.22,19,19,0,0,1-2.47,2.28c-1.85,1.51-3.76,3.08-3.76,5.51a3.58,3.58,0,0,0,3.75,3.74,4.08,4.08,0,0,0,2.62-1.2,9.24,9.24,0,0,1-1.94,4h2.27Z" transform="translate(-638.21 -238.79)"/><text class="cls-4" transform="translate(4.62 10.45)">7</text><text class="cls-4" transform="translate(64.51 93.23) rotate(180)">7</text><path class="cls-2" d="M675.73,272.41a18.94,18.94,0,0,1-2.47-2.28,0.61,0.61,0,0,0-.47-0.22h0a0.61,0.61,0,0,0-.47.22,18.88,18.88,0,0,1-2.47,2.28c-1.85,1.51-3.76,3.08-3.76,5.51a3.58,3.58,0,0,0,3.75,3.74,4.09,4.09,0,0,0,2.63-1.2,9.25,9.25,0,0,1-1.94,4h4.58a9.27,9.27,0,0,1-1.94-4,4.07,4.07,0,0,0,2.63,1.21,3.58,3.58,0,0,0,3.75-3.74C679.5,275.49,677.58,273.93,675.73,272.41Z" transform="translate(-638.21 -238.79)"/><path class="cls-3" d="M672.76,284.49V269.91h0a0.61,0.61,0,0,0-.47.22,18.88,18.88,0,0,1-2.47,2.28c-1.85,1.51-3.76,3.08-3.76,5.51a3.58,3.58,0,0,0,3.75,3.74,4.09,4.09,0,0,0,2.63-1.2,9.25,9.25,0,0,1-1.94,4h2.27Z" transform="translate(-638.21 -238.79)"/></svg>