<svg id="Objects" xmlns="http://www.w3.org/2000/svg" viewBox="0 0 69.12 103.68"><defs><style>.cls-1{fill:#f2f2f2;}.cls-2,.cls-4{fill:#333;}.cls-3{fill:#4d4d4d;}.cls-4{font-size:10.89px;font-family:ChunkFive;}</style></defs><title>8</title><rect class="cls-1" width="69.12" height="103.68" rx="2.72" ry="2.72"/><path class="cls-2" d="M334.25,366.65a19,19,0,0,1-2.47-2.28,0.61,0.61,0,0,0-.47-0.22h0a0.61,0.61,0,0,0-.47.22,19,19,0,0,1-2.47,2.28c-1.85,1.51-3.76,3.08-3.76,5.51a3.58,3.58,0,0,0,3.75,3.74,4.08,4.08,0,0,0,2.62-1.2,9.24,9.24,0,0,1-1.94,4h4.58a9.29,9.29,0,0,1-1.94-4,4.08,4.08,0,0,0,2.63,1.21,3.58,3.58,0,0,0,3.74-3.74C338,369.74,336.1,368.17,334.25,366.65Z" transform="translate(-312.49 -344.12)"/><path class="cls-3" d="M331.28,378.73V364.16h0a0.61,0.61,0,0,0-.47.22,19,19,0,0,1-2.47,2.28c-1.85,1.51-3.76,3.08-3.76,5.51a3.58,3.58,0,0,0,3.75,3.74,4.08,4.08,0,0,0,2.62-1.2,9.24,9.24,0,0,1-1.94,4h2.27Z" transform="translate(-312.49 -344.12)"/><path class="cls-2" d="M321.43,357.9a9.76,9.76,0,0,1-1.28-1.18,0.32,0.32,0,0,0-.24-0.11h0a0.32,0.32,0,0,0-.24.11,9.84,9.84,0,0,1-1.28,1.18c-1,.78-1.95,1.6-1.95,2.85a1.85,1.85,0,0,0,1.94,1.94,2.12,2.12,0,0,0,1.36-.62,4.79,4.79,0,0,1-1,2.09h2.37a4.8,4.8,0,0,1-1-2.09,2.12,2.12,0,0,0,1.36.63,1.85,1.85,0,0,0,1.94-1.94C323.38,359.5,322.39,358.69,321.43,357.9Z" transform="translate(-312.49 -344.12)"/><path class="cls-3" d="M319.89,364.16v-7.55h0a0.32,0.32,0,0,0-.24.11,9.84,9.84,0,0,1-1.28,1.18c-1,.78-1.95,1.6-1.95,2.85a1.85,1.85,0,0,0,1.94,1.94,2.12,2.12,0,0,0,1.36-.62,4.79,4.79,0,0,1-1,2.09h1.18Z" transform="translate(-312.49 -344.12)"/><path class="cls-2" d="M372.67,434a9.82,9.82,0,0,1,1.28,1.18,0.31,0.31,0,0,0,.24.11h0a0.31,0.31,0,0,0,.24-0.11,9.77,9.77,0,0,1,1.28-1.18c1-.79,1.95-1.6,1.95-2.86a1.85,1.85,0,0,0-1.94-1.94,2.11,2.11,0,0,0-1.36.62,4.79,4.79,0,0,1,1-2.09H373a4.81,4.81,0,0,1,1,2.09,2.11,2.11,0,0,0-1.36-.62,1.86,1.86,0,0,0-1.94,1.94C370.72,432.44,371.72,433.25,372.67,434Z" transform="translate(-312.49 -344.12)"/><path class="cls-3" d="M374.21,427.78v7.55h0a0.31,0.31,0,0,0,.24-0.11,9.77,9.77,0,0,1,1.28-1.18c1-.79,1.95-1.6,1.95-2.86a1.85,1.85,0,0,0-1.94-1.94,2.11,2.11,0,0,0-1.36.62,4.79,4.79,0,0,1,1-2.09h-1.18Z" transform="translate(-312.49 -344.12)"/><path class="cls-2" d="M365.71,366.65a18.94,18.94,0,0,1-2.47-2.28,0.61,0.61,0,0,0-.47-0.22h0a0.61,0.61,0,0,0-.47.22,19,19,0,0,1-2.47,2.28c-1.85,1.51-3.76,3.08-3.76,5.51a3.58,3.58,0,0,0,3.74,3.74,4.09,4.09,0,0,0,2.63-1.2,9.24,9.24,0,0,1-1.94,4H365a9.27,9.27,0,0,1-1.94-4,4.07,4.07,0,0,0,2.63,1.21,3.58,3.58,0,0,0,3.75-3.74C369.47,369.74,367.56,368.17,365.71,366.65Z" transform="translate(-312.49 -344.12)"/><path class="cls-3" d="M362.73,378.73V364.16h0a0.61,0.61,0,0,0-.47.22,19,19,0,0,1-2.47,2.28c-1.85,1.51-3.76,3.08-3.76,5.51a3.58,3.58,0,0,0,3.74,3.74,4.09,4.09,0,0,0,2.63-1.2,9.24,9.24,0,0,1-1.94,4h2.27Z" transform="translate(-312.49 -344.12)"/><path class="cls-2" d="M334.25,391.18a18.94,18.94,0,0,1-2.47-2.28,0.61,0.61,0,0,0-.47-0.22h0a0.61,0.61,0,0,0-.47.22,19,19,0,0,1-2.47,2.28c-1.85,1.51-3.76,3.08-3.76,5.51a3.58,3.58,0,0,0,3.75,3.74,4.08,4.08,0,0,0,2.62-1.2,9.24,9.24,0,0,1-1.94,4h4.58a9.28,9.28,0,0,1-1.94-4,4.08,4.08,0,0,0,2.63,1.21,3.58,3.58,0,0,0,3.74-3.74C338,394.26,336.1,392.69,334.25,391.18Z" transform="translate(-312.49 -344.12)"/><path class="cls-3" d="M331.28,403.25V388.68h0a0.61,0.61,0,0,0-.47.22,19,19,0,0,1-2.47,2.28c-1.85,1.51-3.76,3.08-3.76,5.51a3.58,3.58,0,0,0,3.75,3.74,4.08,4.08,0,0,0,2.62-1.2,9.24,9.24,0,0,1-1.94,4h2.27Z" transform="translate(-312.49 -344.12)"/><path class="cls-2" d="M365.71,391.18a18.94,18.94,0,0,1-2.47-2.28,0.61,0.61,0,0,0-.47-0.22h0a0.61,0.61,0,0,0-.47.22,19,19,0,0,1-2.47,2.28c-1.85,1.51-3.76,3.08-3.76,5.51a3.58,3.58,0,0,0,3.74,3.74,4.09,4.09,0,0,0,2.63-1.2,9.24,9.24,0,0,1-1.94,4H365a9.27,9.27,0,0,1-1.94-4,4.08,4.08,0,0,0,2.63,1.21,3.58,3.58,0,0,0,3.75-3.74C369.47,394.26,367.56,392.69,365.71,391.18Z" transform="translate(-312.49 -344.12)"/><path class="cls-3" d="M362.73,403.25V388.68h0a0.61,0.61,0,0,0-.47.22,19,19,0,0,1-2.47,2.28c-1.85,1.51-3.76,3.08-3.76,5.51a3.58,3.58,0,0,0,3.74,3.74,4.09,4.09,0,0,0,2.63-1.2,9.24,9.24,0,0,1-1.94,4h2.27Z" transform="translate(-312.49 -344.12)"/><path class="cls-2" d="M334.25,415.7a18.87,18.87,0,0,1-2.47-2.28,0.61,0.61,0,0,0-.47-0.22h0a0.61,0.61,0,0,0-.47.22,18.88,18.88,0,0,1-2.47,2.28c-1.85,1.51-3.76,3.08-3.76,5.51a3.58,3.58,0,0,0,3.75,3.74,4.08,4.08,0,0,0,2.62-1.2,9.24,9.24,0,0,1-1.94,4h4.58a9.29,9.29,0,0,1-1.94-4,4.08,4.08,0,0,0,2.63,1.21,3.58,3.58,0,0,0,3.74-3.74C338,418.79,336.1,417.22,334.25,415.7Z" transform="translate(-312.49 -344.12)"/><path class="cls-3" d="M331.28,427.78V413.2h0a0.61,0.61,0,0,0-.47.22,18.88,18.88,0,0,1-2.47,2.28c-1.85,1.51-3.76,3.08-3.76,5.51a3.58,3.58,0,0,0,3.75,3.74,4.08,4.08,0,0,0,2.62-1.2,9.24,9.24,0,0,1-1.94,4h2.27Z" transform="translate(-312.49 -344.12)"/><path class="cls-2" d="M365.71,415.7a18.87,18.87,0,0,1-2.47-2.28,0.61,0.61,0,0,0-.47-0.22h0a0.61,0.61,0,0,0-.47.22,18.94,18.94,0,0,1-2.47,2.28c-1.85,1.51-3.76,3.08-3.76,5.51a3.58,3.58,0,0,0,3.74,3.74,4.08,4.08,0,0,0,2.63-1.2,9.25,9.25,0,0,1-1.94,4H365a9.28,9.28,0,0,1-1.94-4,4.07,4.07,0,0,0,2.63,1.21,3.58,3.58,0,0,0,3.75-3.74C369.47,418.79,367.56,417.22,365.71,415.7Z" transform="translate(-312.49 -344.12)"/><path class="cls-3" d="M362.73,427.78V413.2h0a0.61,0.61,0,0,0-.47.22,18.94,18.94,0,0,1-2.47,2.28c-1.85,1.51-3.76,3.08-3.76,5.51a3.58,3.58,0,0,0,3.74,3.74,4.08,4.08,0,0,0,2.63-1.2,9.25,9.25,0,0,1-1.94,4h2.27Z" transform="translate(-312.49 -344.12)"/><text class="cls-4" transform="translate(4.62 10.45)">8</text><text class="cls-4" transform="translate(64.51 93.23) rotate(180)">8</text><path class="cls-2" d="M350,377.74a18.89,18.89,0,0,1-2.47-2.28,0.61,0.61,0,0,0-.47-0.22h0a0.61,0.61,0,0,0-.47.22,18.89,18.89,0,0,1-2.47,2.28c-1.85,1.51-3.76,3.08-3.76,5.51a3.58,3.58,0,0,0,3.74,3.74,4.08,4.08,0,0,0,2.63-1.2,9.25,9.25,0,0,1-1.94,4h4.58a9.27,9.27,0,0,1-1.94-4A4.08,4.08,0,0,0,350,387a3.58,3.58,0,0,0,3.75-3.74C353.77,380.83,351.86,379.26,350,377.74Z" transform="translate(-312.49 -344.12)"/><path class="cls-3" d="M347,389.82V375.25h0a0.61,0.61,0,0,0-.47.22,18.89,18.89,0,0,1-2.47,2.28c-1.85,1.51-3.76,3.08-3.76,5.51a3.58,3.58,0,0,0,3.74,3.74,4.08,4.08,0,0,0,2.63-1.2,9.25,9.25,0,0,1-1.94,4H347Z" transform="translate(-312.49 -344.12)"/><path class="cls-2" d="M350,403.78a18.94,18.94,0,0,1-2.47-2.28,0.61,0.61,0,0,0-.47-0.21h0a0.61,0.61,0,0,0-.47.21,18.94,18.94,0,0,1-2.47,2.28c-1.85,1.52-3.76,3.08-3.76,5.51a3.58,3.58,0,0,0,3.74,3.74,4.08,4.08,0,0,0,2.63-1.2,9.25,9.25,0,0,1-1.94,4h4.58a9.27,9.27,0,0,1-1.94-4A4.08,4.08,0,0,0,350,413a3.58,3.58,0,0,0,3.75-3.74C353.77,406.86,351.86,405.29,350,403.78Z" transform="translate(-312.49 -344.12)"/><path class="cls-3" d="M347,415.86V401.28h0a0.61,0.61,0,0,0-.47.21,18.94,18.94,0,0,1-2.47,2.28c-1.85,1.52-3.76,3.08-3.76,5.51a3.58,3.58,0,0,0,3.74,3.74,4.08,4.08,0,0,0,2.63-1.2,9.25,9.25,0,0,1-1.94,4H347Z" transform="translate(-312.49 -344.12)"/></svg>