<svg id="Objects" xmlns="http://www.w3.org/2000/svg" viewBox="0 0 69.12 103.68"><defs><style>.cls-1{fill:#f2f2f2;}.cls-2,.cls-4{fill:#333;}.cls-3{fill:#4d4d4d;}.cls-4{font-size:10.89px;font-family:ChunkFive;}</style></defs><title>9</title><rect class="cls-1" width="69.12" height="103.68" rx="2.72" ry="2.72"/><path class="cls-2" d="M647.16,357.9a9.82,9.82,0,0,1-1.28-1.18,0.31,0.31,0,0,0-.24-0.11h0a0.32,0.32,0,0,0-.24.11,9.83,9.83,0,0,1-1.28,1.18c-1,.78-1.95,1.6-1.95,2.85a1.85,1.85,0,0,0,1.94,1.94,2.12,2.12,0,0,0,1.36-.62,4.78,4.78,0,0,1-1,2.09h2.37a4.8,4.8,0,0,1-1-2.09,2.11,2.11,0,0,0,1.36.63,1.85,1.85,0,0,0,1.94-1.94C649.1,359.5,648.11,358.69,647.16,357.9Z" transform="translate(-638.21 -344.12)"/><path class="cls-3" d="M645.62,364.16v-7.55h0a0.32,0.32,0,0,0-.24.11,9.83,9.83,0,0,1-1.28,1.18c-1,.78-1.95,1.6-1.95,2.85a1.85,1.85,0,0,0,1.94,1.94,2.12,2.12,0,0,0,1.36-.62,4.78,4.78,0,0,1-1,2.09h1.18Z" transform="translate(-638.21 -344.12)"/><path class="cls-2" d="M698.4,434a9.76,9.76,0,0,1,1.28,1.18,0.31,0.31,0,0,0,.24.11h0a0.32,0.32,0,0,0,.24-0.11,9.77,9.77,0,0,1,1.28-1.18c1-.79,1.95-1.6,1.95-2.85a1.85,1.85,0,0,0-1.94-1.94,2.11,2.11,0,0,0-1.36.62,4.8,4.8,0,0,1,1-2.09h-2.37a4.81,4.81,0,0,1,1,2.09,2.11,2.11,0,0,0-1.36-.62,1.86,1.86,0,0,0-1.94,1.94C696.45,432.44,697.44,433.25,698.4,434Z" transform="translate(-638.21 -344.12)"/><path class="cls-3" d="M699.94,427.78v7.55h0a0.32,0.32,0,0,0,.24-0.11,9.77,9.77,0,0,1,1.28-1.18c1-.79,1.95-1.6,1.95-2.85a1.85,1.85,0,0,0-1.94-1.94,2.11,2.11,0,0,0-1.36.62,4.8,4.8,0,0,1,1-2.09h-1.18Z" transform="translate(-638.21 -344.12)"/><path class="cls-2" d="M660,362a18.94,18.94,0,0,1-2.47-2.28,0.61,0.61,0,0,0-.47-0.22h0a0.61,0.61,0,0,0-.47.22,18.88,18.88,0,0,1-2.47,2.28c-1.85,1.51-3.76,3.08-3.76,5.51a3.58,3.58,0,0,0,3.74,3.74,4.09,4.09,0,0,0,2.63-1.2,9.25,9.25,0,0,1-1.94,4h4.58a9.27,9.27,0,0,1-1.94-4,4.07,4.07,0,0,0,2.63,1.21,3.58,3.58,0,0,0,3.75-3.74C663.74,365,661.82,363.48,660,362Z" transform="translate(-638.21 -344.12)"/><path class="cls-3" d="M657,374V359.46h0a0.61,0.61,0,0,0-.47.22,18.88,18.88,0,0,1-2.47,2.28c-1.85,1.51-3.76,3.08-3.76,5.51a3.58,3.58,0,0,0,3.74,3.74,4.09,4.09,0,0,0,2.63-1.2,9.25,9.25,0,0,1-1.94,4H657Z" transform="translate(-638.21 -344.12)"/><path class="cls-2" d="M691.43,362a19,19,0,0,1-2.47-2.28,0.61,0.61,0,0,0-.47-0.22h0a0.61,0.61,0,0,0-.47.22,19,19,0,0,1-2.47,2.28c-1.85,1.51-3.76,3.08-3.76,5.51a3.58,3.58,0,0,0,3.75,3.74,4.08,4.08,0,0,0,2.62-1.2,9.24,9.24,0,0,1-1.94,4h4.58a9.28,9.28,0,0,1-1.94-4,4.08,4.08,0,0,0,2.63,1.21,3.58,3.58,0,0,0,3.74-3.74C695.19,365,693.28,363.48,691.43,362Z" transform="translate(-638.21 -344.12)"/><path class="cls-3" d="M688.46,374V359.46h0a0.61,0.61,0,0,0-.47.22,19,19,0,0,1-2.47,2.28c-1.85,1.51-3.76,3.08-3.76,5.51a3.58,3.58,0,0,0,3.75,3.74,4.08,4.08,0,0,0,2.62-1.2,9.24,9.24,0,0,1-1.94,4h2.27Z" transform="translate(-638.21 -344.12)"/><path class="cls-2" d="M660,381.16a18.94,18.94,0,0,1-2.47-2.28,0.61,0.61,0,0,0-.47-0.22h0a0.61,0.61,0,0,0-.47.22,18.88,18.88,0,0,1-2.47,2.28c-1.85,1.51-3.76,3.08-3.76,5.51a3.58,3.58,0,0,0,3.74,3.74,4.08,4.08,0,0,0,2.63-1.2,9.25,9.25,0,0,1-1.94,4h4.58a9.27,9.27,0,0,1-1.94-4,4.08,4.08,0,0,0,2.63,1.21,3.58,3.58,0,0,0,3.75-3.74C663.74,384.24,661.82,382.68,660,381.16Z" transform="translate(-638.21 -344.12)"/><path class="cls-3" d="M657,393.24V378.66h0a0.61,0.61,0,0,0-.47.22,18.88,18.88,0,0,1-2.47,2.28c-1.85,1.51-3.76,3.08-3.76,5.51a3.58,3.58,0,0,0,3.74,3.74,4.08,4.08,0,0,0,2.63-1.2,9.25,9.25,0,0,1-1.94,4H657Z" transform="translate(-638.21 -344.12)"/><path class="cls-2" d="M691.43,381.16a19,19,0,0,1-2.47-2.28,0.61,0.61,0,0,0-.47-0.22h0a0.61,0.61,0,0,0-.47.22,19,19,0,0,1-2.47,2.28c-1.85,1.51-3.76,3.08-3.76,5.51a3.58,3.58,0,0,0,3.75,3.74,4.08,4.08,0,0,0,2.62-1.2,9.24,9.24,0,0,1-1.94,4h4.58a9.27,9.27,0,0,1-1.94-4,4.08,4.08,0,0,0,2.63,1.21,3.58,3.58,0,0,0,3.74-3.74C695.19,384.24,693.28,382.68,691.43,381.16Z" transform="translate(-638.21 -344.12)"/><path class="cls-3" d="M688.46,393.24V378.66h0a0.61,0.61,0,0,0-.47.22,19,19,0,0,1-2.47,2.28c-1.85,1.51-3.76,3.08-3.76,5.51a3.58,3.58,0,0,0,3.75,3.74,4.08,4.08,0,0,0,2.62-1.2,9.24,9.24,0,0,1-1.94,4h2.27Z" transform="translate(-638.21 -344.12)"/><path class="cls-2" d="M660,400.36a18.87,18.87,0,0,1-2.47-2.28,0.61,0.61,0,0,0-.47-0.22h0a0.61,0.61,0,0,0-.47.22,18.82,18.82,0,0,1-2.47,2.28c-1.85,1.51-3.76,3.08-3.76,5.51a3.58,3.58,0,0,0,3.74,3.74,4.08,4.08,0,0,0,2.63-1.2,9.25,9.25,0,0,1-1.94,4h4.58a9.26,9.26,0,0,1-1.94-4,4.07,4.07,0,0,0,2.63,1.21,3.58,3.58,0,0,0,3.75-3.74C663.74,403.45,661.82,401.88,660,400.36Z" transform="translate(-638.21 -344.12)"/><path class="cls-3" d="M657,412.44V397.86h0a0.61,0.61,0,0,0-.47.22,18.82,18.82,0,0,1-2.47,2.28c-1.85,1.51-3.76,3.08-3.76,5.51a3.58,3.58,0,0,0,3.74,3.74,4.08,4.08,0,0,0,2.63-1.2,9.25,9.25,0,0,1-1.94,4H657Z" transform="translate(-638.21 -344.12)"/><path class="cls-2" d="M691.43,400.36a18.94,18.94,0,0,1-2.47-2.28,0.61,0.61,0,0,0-.47-0.22h0a0.61,0.61,0,0,0-.47.22,18.88,18.88,0,0,1-2.47,2.28c-1.85,1.51-3.76,3.08-3.76,5.51a3.58,3.58,0,0,0,3.75,3.74,4.08,4.08,0,0,0,2.62-1.2,9.24,9.24,0,0,1-1.94,4h4.58a9.26,9.26,0,0,1-1.94-4,4.08,4.08,0,0,0,2.63,1.21,3.58,3.58,0,0,0,3.74-3.74C695.19,403.45,693.28,401.88,691.43,400.36Z" transform="translate(-638.21 -344.12)"/><path class="cls-3" d="M688.46,412.44V397.86h0a0.61,0.61,0,0,0-.47.22,18.88,18.88,0,0,1-2.47,2.28c-1.85,1.51-3.76,3.08-3.76,5.51a3.58,3.58,0,0,0,3.75,3.74,4.08,4.08,0,0,0,2.62-1.2,9.24,9.24,0,0,1-1.94,4h2.27Z" transform="translate(-638.21 -344.12)"/><path class="cls-2" d="M660,419.56a19.14,19.14,0,0,1-2.47-2.28,0.61,0.61,0,0,0-.47-0.22h0a0.61,0.61,0,0,0-.47.22,19.09,19.09,0,0,1-2.47,2.28c-1.85,1.51-3.76,3.08-3.76,5.51a3.58,3.58,0,0,0,3.74,3.74,4.09,4.09,0,0,0,2.63-1.2,9.26,9.26,0,0,1-1.94,4h4.58a9.27,9.27,0,0,1-1.94-4,4.08,4.08,0,0,0,2.63,1.21,3.58,3.58,0,0,0,3.75-3.74C663.74,422.65,661.82,421.08,660,419.56Z" transform="translate(-638.21 -344.12)"/><path class="cls-3" d="M657,431.64V417.06h0a0.61,0.61,0,0,0-.47.22,19.09,19.09,0,0,1-2.47,2.28c-1.85,1.51-3.76,3.08-3.76,5.51a3.58,3.58,0,0,0,3.74,3.74,4.09,4.09,0,0,0,2.63-1.2,9.26,9.26,0,0,1-1.94,4H657Z" transform="translate(-638.21 -344.12)"/><path class="cls-2" d="M691.43,419.56a19.22,19.22,0,0,1-2.47-2.28,0.6,0.6,0,0,0-.47-0.22h0a0.61,0.61,0,0,0-.47.22,19.16,19.16,0,0,1-2.47,2.28c-1.85,1.51-3.76,3.08-3.76,5.51a3.58,3.58,0,0,0,3.75,3.74,4.09,4.09,0,0,0,2.62-1.2,9.25,9.25,0,0,1-1.94,4h4.58a9.27,9.27,0,0,1-1.94-4,4.09,4.09,0,0,0,2.63,1.21,3.58,3.58,0,0,0,3.74-3.74C695.19,422.65,693.28,421.08,691.43,419.56Z" transform="translate(-638.21 -344.12)"/><path class="cls-3" d="M688.46,431.64V417.06h0a0.61,0.61,0,0,0-.47.22,19.16,19.16,0,0,1-2.47,2.28c-1.85,1.51-3.76,3.08-3.76,5.51a3.58,3.58,0,0,0,3.75,3.74,4.09,4.09,0,0,0,2.62-1.2,9.25,9.25,0,0,1-1.94,4h2.27Z" transform="translate(-638.21 -344.12)"/><text class="cls-4" transform="translate(4.62 10.45)">9</text><text class="cls-4" transform="translate(64.51 93.23) rotate(180)">9</text><path class="cls-2" d="M675.73,391.17a18.86,18.86,0,0,1-2.47-2.28,0.61,0.61,0,0,0-.47-0.22h0a0.61,0.61,0,0,0-.47.22,18.81,18.81,0,0,1-2.47,2.28c-1.85,1.51-3.76,3.08-3.76,5.51a3.58,3.58,0,0,0,3.75,3.74,4.09,4.09,0,0,0,2.63-1.2,9.25,9.25,0,0,1-1.94,4h4.58a9.27,9.27,0,0,1-1.94-4,4.08,4.08,0,0,0,2.63,1.21,3.58,3.58,0,0,0,3.75-3.74C679.5,394.26,677.58,392.69,675.73,391.17Z" transform="translate(-638.21 -344.12)"/><path class="cls-3" d="M672.76,403.25V388.68h0a0.61,0.61,0,0,0-.47.22,18.81,18.81,0,0,1-2.47,2.28c-1.85,1.51-3.76,3.08-3.76,5.51a3.58,3.58,0,0,0,3.75,3.74,4.09,4.09,0,0,0,2.63-1.2,9.25,9.25,0,0,1-1.94,4h2.27Z" transform="translate(-638.21 -344.12)"/></svg>