<svg id="Objects" xmlns="http://www.w3.org/2000/svg" viewBox="0 0 69.12 103.68"><defs><style>.cls-1{fill:#f2f2f2;}.cls-2,.cls-4{fill:#333;}.cls-3{fill:#4d4d4d;}.cls-4{font-size:10.89px;font-family:ChunkFive;}</style></defs><title>A</title><rect class="cls-1" width="69.12" height="103.68" rx="2.72" ry="2.72"/><path class="cls-2" d="M680.44,709.7a49.22,49.22,0,0,1-6.44-5.94,1.59,1.59,0,0,0-1.22-.56h-0.09a1.6,1.6,0,0,0-1.22.56A49.24,49.24,0,0,1,665,709.7c-4.82,3.95-9.8,8-9.8,14.36a9.33,9.33,0,0,0,9.76,9.74c2.78,0,5.2-1.63,6.84-3.13a24.1,24.1,0,0,1-5.05,10.5h11.92a24.17,24.17,0,0,1-5.05-10.52c1.64,1.5,4.07,3.14,6.85,3.14a9.33,9.33,0,0,0,9.76-9.74C690.25,717.74,685.26,713.65,680.44,709.7Z" transform="translate(-638.22 -670.34)"/><path class="cls-3" d="M672.69,741.17v-38h0a1.6,1.6,0,0,0-1.22.56A49.24,49.24,0,0,1,665,709.7c-4.82,3.95-9.8,8-9.8,14.36a9.33,9.33,0,0,0,9.76,9.74c2.78,0,5.2-1.63,6.84-3.13a24.1,24.1,0,0,1-5.05,10.5h5.92Z" transform="translate(-638.22 -670.34)"/><path class="cls-2" d="M647.16,684.11a9.75,9.75,0,0,1-1.28-1.18,0.32,0.32,0,0,0-.24-0.11h0a0.31,0.31,0,0,0-.24.11,9.82,9.82,0,0,1-1.28,1.18c-1,.79-1.95,1.6-1.95,2.86a1.85,1.85,0,0,0,1.94,1.94,2.12,2.12,0,0,0,1.36-.62,4.8,4.8,0,0,1-1,2.09h2.37a4.81,4.81,0,0,1-1-2.09,2.11,2.11,0,0,0,1.36.63,1.86,1.86,0,0,0,1.94-1.94C649.11,685.71,648.11,684.9,647.16,684.11Z" transform="translate(-638.22 -670.34)"/><path class="cls-3" d="M645.62,690.37v-7.55h0a0.31,0.31,0,0,0-.24.11,9.82,9.82,0,0,1-1.28,1.18c-1,.79-1.95,1.6-1.95,2.86a1.85,1.85,0,0,0,1.94,1.94,2.12,2.12,0,0,0,1.36-.62,4.8,4.8,0,0,1-1,2.09h1.18Z" transform="translate(-638.22 -670.34)"/><text class="cls-4" transform="translate(4.08 10.45)">A</text><path class="cls-2" d="M698.4,760.25a9.77,9.77,0,0,1,1.28,1.18,0.31,0.31,0,0,0,.24.11h0a0.32,0.32,0,0,0,.24-0.11,9.77,9.77,0,0,1,1.28-1.18c1-.78,1.95-1.6,1.95-2.85a1.85,1.85,0,0,0-1.94-1.94,2.12,2.12,0,0,0-1.36.62,4.79,4.79,0,0,1,1-2.09h-2.37a4.79,4.79,0,0,1,1,2.09,2.11,2.11,0,0,0-1.36-.62,1.85,1.85,0,0,0-1.94,1.94C696.45,758.65,697.44,759.46,698.4,760.25Z" transform="translate(-638.22 -670.34)"/><path class="cls-3" d="M699.94,754v7.55h0a0.32,0.32,0,0,0,.24-0.11,9.77,9.77,0,0,1,1.28-1.18c1-.78,1.95-1.6,1.95-2.85a1.85,1.85,0,0,0-1.94-1.94,2.12,2.12,0,0,0-1.36.62,4.79,4.79,0,0,1,1-2.09h-1.18Z" transform="translate(-638.22 -670.34)"/><text class="cls-4" transform="translate(65.04 93.23) rotate(180)">A</text></svg>