<svg id="Objects" xmlns="http://www.w3.org/2000/svg" viewBox="0 0 69.12 103.68"><defs><style>.cls-1{fill:#f2f2f2;}.cls-2,.cls-4{fill:#333;}.cls-3{fill:#4d4d4d;}.cls-4{font-size:10.89px;font-family:ChunkFive;}.cls-5{fill:#0b050f;}.cls-6{fill:#aa292e;}.cls-7{fill:#3856c8;}.cls-8{fill:#bf9b4d;}.cls-9{fill:#e8efff;}.cls-10{fill:#c9d8f7;}.cls-11{fill:#715c57;}.cls-12{fill:#aa7941;}.cls-13{fill:#e6e6e6;}.cls-14{fill:#666;}.cls-15{fill:gray;}.cls-16{fill:#999;}.cls-17{fill:#b3b3b3;}.cls-18{fill:#ccc;}.cls-19{fill:#2a3757;}</style></defs><title>K</title><rect class="cls-1" width="69.12" height="103.68" rx="2.72" ry="2.72"/><path class="cls-2" d="M647.16,570.16a10,10,0,0,1-1.28-1.18,0.31,0.31,0,0,0-.24-0.11h0a0.32,0.32,0,0,0-.24.11,9.9,9.9,0,0,1-1.28,1.18c-1,.78-1.95,1.6-1.95,2.85a1.85,1.85,0,0,0,1.94,1.94,2.11,2.11,0,0,0,1.36-.62,4.79,4.79,0,0,1-1,2.09h2.37a4.8,4.8,0,0,1-1-2.09,2.11,2.11,0,0,0,1.36.63A1.85,1.85,0,0,0,649.1,573C649.1,571.76,648.11,570.94,647.16,570.16Z" transform="translate(-638.21 -556.38)"/><path class="cls-3" d="M645.62,576.41v-7.55h0a0.32,0.32,0,0,0-.24.11,9.9,9.9,0,0,1-1.28,1.18c-1,.78-1.95,1.6-1.95,2.85a1.85,1.85,0,0,0,1.94,1.94,2.11,2.11,0,0,0,1.36-.62,4.79,4.79,0,0,1-1,2.09h1.18Z" transform="translate(-638.21 -556.38)"/><text class="cls-4" transform="translate(4.46 10.45)">K</text><path class="cls-2" d="M698.4,646.29a10,10,0,0,1,1.28,1.18,0.31,0.31,0,0,0,.24.11h0a0.31,0.31,0,0,0,.24-0.11,10,10,0,0,1,1.28-1.18c1-.78,1.95-1.6,1.95-2.85a1.85,1.85,0,0,0-1.94-1.94,2.12,2.12,0,0,0-1.36.62,4.8,4.8,0,0,1,1-2.09h-2.37a4.8,4.8,0,0,1,1,2.09,2.11,2.11,0,0,0-1.36-.62,1.85,1.85,0,0,0-1.94,1.94C696.45,644.69,697.44,645.51,698.4,646.29Z" transform="translate(-638.21 -556.38)"/><path class="cls-3" d="M699.94,640v7.55h0a0.31,0.31,0,0,0,.24-0.11,10,10,0,0,1,1.28-1.18c1-.78,1.95-1.6,1.95-2.85a1.85,1.85,0,0,0-1.94-1.94,2.12,2.12,0,0,0-1.36.62,4.8,4.8,0,0,1,1-2.09h-1.18Z" transform="translate(-638.21 -556.38)"/><text class="cls-4" transform="translate(64.66 93.23) rotate(180)">K</text><path class="cls-2" d="M655.86,631.79a22.12,22.12,0,0,1-7.83-5.56v-5h7.83v10.58Z" transform="translate(-638.21 -556.38)"/><path class="cls-2" d="M648,618.72V590.56a16,16,0,0,1,10.64-5.18S658.81,613.9,648,618.72Z" transform="translate(-638.21 -556.38)"/><rect class="cls-5" x="30.6" y="30.55" width="3.62" height="6.65"/><rect class="cls-5" x="23.33" y="28.25" width="3.62" height="6.65"/><rect class="cls-6" x="34.25" y="27.9" width="3.62" height="6.65"/><rect class="cls-6" x="26.97" y="30.07" width="3.62" height="6.65"/><rect class="cls-5" x="37.75" y="25.9" width="3.62" height="6.65"/><rect class="cls-6" x="41.4" y="25.77" width="3.62" height="4.14"/><path class="cls-5" d="M657.71,585.49S659,604.12,648,618.72c0,1.29,0,1.94,0,1.94s6.44-3,10.1-15.79,2-19.38,2-19.38h-2.45Z" transform="translate(-638.21 -556.38)"/><path class="cls-1" d="M659.38,585.91s0.34,12.26-2.69,19.6-5.13,12.35-8.66,15.12v5.6s9.94-9.61,13.2-20.43a64,64,0,0,0,2.65-20.29Z" transform="translate(-638.21 -556.38)"/><ellipse class="cls-6" cx="23.06" cy="29.2" rx="2.08" ry="0.83"/><ellipse class="cls-6" cx="661.39" cy="587.52" rx="0.82" ry="2.04" transform="translate(-598.37 660.66) rotate(-86.98)"/><ellipse class="cls-6" cx="661.37" cy="589.73" rx="0.8" ry="2" transform="translate(-634.11 627.66) rotate(-83.84)"/><ellipse class="cls-6" cx="661.23" cy="592.18" rx="0.79" ry="1.97" transform="translate(-669.2 591.44) rotate(-80.6)"/><ellipse class="cls-6" cx="660.96" cy="594.81" rx="0.78" ry="1.95" transform="translate(-703.2 551.93) rotate(-77.26)"/><ellipse class="cls-6" cx="660.54" cy="597.59" rx="0.77" ry="1.93" transform="translate(-735.17 509.85) rotate(-73.88)"/><ellipse class="cls-6" cx="659.98" cy="600.47" rx="0.77" ry="1.92" transform="translate(-765.21 464.58) rotate(-70.41)"/><ellipse class="cls-6" cx="659.27" cy="603.41" rx="0.77" ry="1.92" transform="translate(-792.43 417.13) rotate(-66.93)"/><ellipse class="cls-6" cx="658.41" cy="606.36" rx="0.77" ry="1.92" transform="translate(-816.53 367.89) rotate(-63.45)"/><ellipse class="cls-6" cx="657.38" cy="609.29" rx="0.77" ry="1.93" transform="translate(-837.25 317.34) rotate(-59.99)"/><ellipse class="cls-6" cx="656.18" cy="612.14" rx="0.78" ry="1.95" transform="translate(-854.37 266.3) rotate(-56.58)"/><ellipse class="cls-6" cx="654.81" cy="614.88" rx="0.79" ry="1.97" transform="translate(-867.89 215.13) rotate(-53.24)"/><ellipse class="cls-6" cx="653.26" cy="617.46" rx="0.8" ry="2" transform="translate(-877.88 164.48) rotate(-49.99)"/><ellipse class="cls-6" cx="651.52" cy="619.84" rx="0.82" ry="2.04" transform="translate(-884.46 115.36) rotate(-46.88)"/><ellipse class="cls-6" cx="649.6" cy="621.97" rx="0.83" ry="2.08" transform="translate(-887.96 67.24) rotate(-43.86)"/><rect class="cls-7" x="30.84" y="39.04" width="5.76" height="6.37"/><polygon class="cls-8" points="36.35 45.13 30.84 45.13 30.84 50.91 36.35 45.13"/><rect class="cls-8" x="30.74" y="39.92" width="5.81" height="4.73"/><polygon class="cls-8" points="36.55 39.5 30.84 39.5 30.84 37.96 36.55 34.5 36.55 39.5"/><path class="cls-2" d="M667.94,607.85l0.22-13.4-4.72-2.67s-0.93,11.1-2,13.1S667.94,607.85,667.94,607.85Z" transform="translate(-638.21 -556.38)"/><polygon class="cls-9" points="29.65 51.5 31.05 50.81 31.05 37.09 29.65 37.09 29.65 51.5"/><polygon class="cls-5" points="29.19 52.03 30.6 51.33 30.6 37.62 29.19 37.62 29.19 52.03"/><path class="cls-5" d="M658.23,613.06a39.28,39.28,0,0,1,1.88-3.46,19.15,19.15,0,0,0,2-5.91h0.09a6.89,6.89,0,0,1,6.4,4.34,6.54,6.54,0,0,1-.69.72c-0.48.41-1,.73-1.55,1.11-1.22.94-2.16,2.23-3.52,3a23.87,23.87,0,0,1-3.22,1.33,12.34,12.34,0,0,1-1.44.46l-0.44-.06C657.89,614.05,658,613.54,658.23,613.06Z" transform="translate(-638.21 -556.38)"/><path class="cls-8" d="M658.23,613.06a39.28,39.28,0,0,1,1.88-3.46,19.41,19.41,0,0,0,1.89-5.36h0.18a6.35,6.35,0,0,1,6,4.25,3.56,3.56,0,0,1-.28.27c-0.48.41-1,.73-1.55,1.11-1.22.94-2.16,2.23-3.52,3a23.87,23.87,0,0,1-3.22,1.33,12.34,12.34,0,0,1-1.44.46l-0.44-.06C657.89,614.05,658,613.54,658.23,613.06Z" transform="translate(-638.21 -556.38)"/><path class="cls-7" d="M660.11,609.6a21.13,21.13,0,0,0,1-2.3,3.44,3.44,0,0,1,4.47,3.17,14.5,14.5,0,0,1-2.8,2.35,16.85,16.85,0,0,1-2,.9,3.45,3.45,0,0,1-1.86-2C659.31,611,659.75,610.3,660.11,609.6Z" transform="translate(-638.21 -556.38)"/><polygon class="cls-2" points="43.39 40.64 37.75 43.89 37.47 33.4 43.39 30.14 43.39 40.64"/><rect class="cls-9" x="36.35" y="33.87" width="1.4" height="10.62"/><path class="cls-10" d="M687,583.33a16.25,16.25,0,0,0-4.93-1.71l-0.3,15.22s3.84-1.42,5.56-1.36Z" transform="translate(-638.21 -556.38)"/><polygon class="cls-11" points="48.75 26.94 49.62 27.27 49.62 38.99 48.75 38.99 48.75 26.94"/><path class="cls-5" d="M687.84,583.66a11.25,11.25,0,0,1,1.85,1v10.58h-1.85V583.66Z" transform="translate(-638.21 -556.38)"/><path class="cls-2" d="M689.69,584.63a22.12,22.12,0,0,1,7.83,5.56v5h-7.83V584.63Z" transform="translate(-638.21 -556.38)"/><rect class="cls-5" x="36.87" y="33.4" width="1.4" height="10.62"/><rect class="cls-11" x="42.95" y="25.23" width="0.87" height="14.93"/><path class="cls-12" d="M658.85,614.81a5.9,5.9,0,0,0,2.07-.43c2.85-1.08,6.34-4.06,10.37-8.85,4.85-5.77,9.62-8.06,12.77-9a25.7,25.7,0,0,1,7.29-.79l0.17-.94a25.91,25.91,0,0,0-7.66.8c-3.29.94-8.27,3.31-13.3,9.29-9,10.76-12.5,8.8-12.53,8.78l-0.54.79A2.4,2.4,0,0,0,658.85,614.81Z" transform="translate(-638.21 -556.38)"/><path class="cls-9" d="M681.17,585.92s-11.66,7.61-12.76,7.61-4.41-2.31-4.41-2.31v1.34s4,2.66,4.5,2.66,12.66-7.87,12.66-7.87v-1.42Z" transform="translate(-638.21 -556.38)"/><path class="cls-8" d="M679.86,582.27s-9.86,7.24-11.25,7.24-5.46-3.62-5.46-3.62Z" transform="translate(-638.21 -556.38)"/><path class="cls-8" d="M681.17,585s-11.66,7.74-12.76,7.74-4.41-2.61-4.41-2.61v1.3s4,2.57,4.5,2.57,12.66-7.63,12.66-7.63V585Z" transform="translate(-638.21 -556.38)"/><path class="cls-12" d="M664.32,586.43s0,12.3-2.85,20.42-10.12,19.53-12.25,20.57L648,626.23s5.1-4.2,12.39-20c1.9-7.81,2-4.43,2.88-20.34S664.32,586.43,664.32,586.43Z" transform="translate(-638.21 -556.38)"/><path class="cls-2" d="M697.52,597.7v28.15A16,16,0,0,1,686.88,631S686.75,602.52,697.52,597.7Z" transform="translate(-638.21 -556.38)"/><rect class="cls-5" x="34.9" y="66.46" width="3.62" height="6.65"/><rect class="cls-5" x="42.17" y="68.75" width="3.62" height="6.65"/><rect class="cls-6" x="31.25" y="69.1" width="3.62" height="6.65"/><rect class="cls-6" x="38.53" y="66.93" width="3.62" height="6.65"/><rect class="cls-5" x="27.75" y="71.1" width="3.62" height="6.65"/><rect class="cls-6" x="24.1" y="73.74" width="3.62" height="4.14"/><path class="cls-5" d="M687.85,630.93s-1.27-18.63,9.67-33.23c0-1.29,0-1.94,0-1.94s-6.44,3-10.1,15.79-2,19.38-2,19.38h2.45Z" transform="translate(-638.21 -556.38)"/><path class="cls-1" d="M686.17,630.51s-0.33-12.26,2.69-19.6,5.13-12.35,8.66-15.12v-5.6s-5.44,1.1-13.2,20.43a64,64,0,0,0-2.65,20.29Z" transform="translate(-638.21 -556.38)"/><ellipse class="cls-6" cx="46.06" cy="74.46" rx="2.08" ry="0.83"/><ellipse class="cls-6" cx="684.17" cy="628.9" rx="0.82" ry="2.04" transform="translate(-618.11 722.61) rotate(-86.98)"/><ellipse class="cls-6" cx="684.18" cy="626.69" rx="0.8" ry="2" transform="translate(-650.47 683.34) rotate(-83.84)"/><ellipse class="cls-6" cx="684.32" cy="624.24" rx="0.79" ry="1.97" transform="translate(-681.24 641.38) rotate(-80.63)"/><ellipse class="cls-6" cx="684.6" cy="621.61" rx="0.78" ry="1.95" transform="translate(-710.93 595.83) rotate(-77.26)"/><ellipse class="cls-6" cx="685.01" cy="618.83" rx="0.77" ry="1.93" transform="translate(-738.17 548.26) rotate(-73.85)"/><ellipse class="cls-6" cx="685.57" cy="615.95" rx="0.77" ry="1.92" transform="translate(-762.78 498.97) rotate(-70.41)"/><ellipse class="cls-6" cx="686.28" cy="613.01" rx="0.77" ry="1.92" transform="translate(-784.83 447.82) rotate(-66.93)"/><ellipse class="cls-6" cx="687.15" cy="610.05" rx="0.77" ry="1.92" transform="translate(-803.98 395.55) rotate(-63.44)"/><ellipse class="cls-6" cx="688.17" cy="607.13" rx="0.77" ry="1.93" transform="translate(-820.03 342.82) rotate(-59.98)"/><ellipse class="cls-6" cx="689.37" cy="604.27" rx="0.78" ry="1.95" transform="translate(-832.89 290.47) rotate(-56.58)"/><ellipse class="cls-6" cx="690.74" cy="601.54" rx="0.79" ry="1.97" transform="translate(-842.77 238.57) rotate(-53.24)"/><ellipse class="cls-6" cx="692.29" cy="598.96" rx="0.8" ry="2" transform="translate(-849.76 187.79) rotate(-49.99)"/><ellipse class="cls-6" cx="694.03" cy="596.58" rx="0.82" ry="2.04" transform="translate(-854.03 139.02) rotate(-46.88)"/><ellipse class="cls-6" cx="695.96" cy="594.45" rx="0.83" ry="2.08" transform="translate(-855.96 91.68) rotate(-43.86)"/><rect class="cls-7" x="32.52" y="58.25" width="5.76" height="6.37"/><polygon class="cls-8" points="32.77 58.52 38.28 58.52 38.28 52.74 32.77 58.52"/><rect class="cls-8" x="32.57" y="59.01" width="5.81" height="4.73"/><polygon class="cls-8" points="32.57 64.15 38.28 64.15 38.28 65.69 32.57 69.15 32.57 64.15"/><path class="cls-2" d="M677.61,608.57L677.39,622l4.72,2.67s0.93-11.1,2-13.09S677.61,608.57,677.61,608.57Z" transform="translate(-638.21 -556.38)"/><polygon class="cls-9" points="39.48 52.15 38.07 52.84 38.07 66.56 39.48 66.56 39.48 52.15"/><polygon class="cls-5" points="39.93 51.62 38.52 52.32 38.52 66.04 39.93 66.04 39.93 51.62"/><path class="cls-5" d="M687.32,603.35c-0.48,1.2-1.28,2.31-1.88,3.46a19.18,19.18,0,0,0-2,5.91h-0.09a6.89,6.89,0,0,1-6.4-4.34,6.62,6.62,0,0,1,.69-0.72c0.48-.41,1.05-0.73,1.55-1.11,1.22-.94,2.15-2.23,3.52-3a23.9,23.9,0,0,1,3.22-1.33,12.67,12.67,0,0,1,1.44-.46l0.44,0.07C687.67,602.37,687.51,602.88,687.32,603.35Z" transform="translate(-638.21 -556.38)"/><path class="cls-8" d="M687.32,603.35c-0.48,1.2-1.28,2.31-1.88,3.46a19.42,19.42,0,0,0-1.89,5.36h-0.18a6.35,6.35,0,0,1-6-4.25,3.73,3.73,0,0,1,.28-0.27c0.48-.41,1.05-0.73,1.55-1.11,1.22-.94,2.15-2.23,3.52-3a23.9,23.9,0,0,1,3.22-1.33,12.67,12.67,0,0,1,1.44-.46l0.44,0.07C687.67,602.37,687.51,602.88,687.32,603.35Z" transform="translate(-638.21 -556.38)"/><path class="cls-7" d="M685.44,606.81a21,21,0,0,0-1,2.3,3.44,3.44,0,0,1-4.47-3.17,14.56,14.56,0,0,1,2.8-2.35,17,17,0,0,1,2-.9,3.45,3.45,0,0,1,1.86,2C686.24,605.44,685.8,606.12,685.44,606.81Z" transform="translate(-638.21 -556.38)"/><polygon class="cls-2" points="25.74 63.01 31.37 59.76 31.66 70.25 25.74 73.52 25.74 63.01"/><rect class="cls-9" x="31.37" y="59.16" width="1.4" height="10.62"/><path class="cls-10" d="M658.59,633.09a16.24,16.24,0,0,0,4.93,1.71l0.3-15.22s-3.84,1.42-5.56,1.36Z" transform="translate(-638.21 -556.38)"/><polygon class="cls-11" points="20.37 76.71 19.5 76.38 19.5 64.67 20.37 64.67 20.37 76.71"/><path class="cls-5" d="M657.71,632.76a11.18,11.18,0,0,1-1.85-1V621.21h1.85v11.55Z" transform="translate(-638.21 -556.38)"/><rect class="cls-5" x="30.85" y="59.63" width="1.4" height="10.62"/><rect class="cls-11" x="25.3" y="63.49" width="0.87" height="14.93"/><path class="cls-12" d="M686.71,601.61a5.89,5.89,0,0,0-2.07.43c-2.85,1.08-6.34,4.06-10.37,8.85-4.85,5.77-9.62,8.06-12.77,9a20.31,20.31,0,0,1-7.13.53l-0.17.94a20.87,20.87,0,0,0,7.49-.53c3.29-.94,8.27-3.31,13.29-9.29,9-10.76,12.5-8.8,12.53-8.78l0.54-.79A2.4,2.4,0,0,0,686.71,601.61Z" transform="translate(-638.21 -556.38)"/><path class="cls-9" d="M664.39,630.5s11.66-7.61,12.76-7.61,4.41,2.31,4.41,2.31v-1.34s-4-2.66-4.5-2.66-12.67,7.87-12.67,7.87v1.42Z" transform="translate(-638.21 -556.38)"/><path class="cls-8" d="M665.69,634.15s9.86-7.24,11.25-7.24,5.45,3.62,5.45,3.62Z" transform="translate(-638.21 -556.38)"/><path class="cls-8" d="M664.39,631.43s11.66-7.74,12.76-7.74,4.41,2.61,4.41,2.61V625s-4-2.57-4.5-2.57-12.67,7.63-12.67,7.63v1.38Z" transform="translate(-638.21 -556.38)"/><path class="cls-12" d="M681.24,630s0-12.3,2.85-20.42,9.46-19.41,12.41-20.41l1,1c-2.55,1.29-10.84,13.84-12.39,20-1.9,7.81-2,4.43-2.88,20.34S681.24,630,681.24,630Z" transform="translate(-638.21 -556.38)"/><path class="cls-13" d="M662.89,569.37s0.63,5.84,0,7-1.82,3.84-1.82,3.84,2.59-.94,2.65,1.74-2.13,2.53-2.93,2.53-3.1-.94-1.59-4.64,1.78-2.22,2-4.9a36.21,36.21,0,0,0,0-5.44Z" transform="translate(-638.21 -556.38)"/><path class="cls-1" d="M662.06,567.65s0.63,5.84,0,7-1.82,3.84-1.82,3.84,2.59-.94,2.65,1.74-2.13,2.53-2.93,2.53-3.1-.94-1.59-4.64,1.78-2.22,2-4.9a36.22,36.22,0,0,0,0-5.44Z" transform="translate(-638.21 -556.38)"/><path class="cls-13" d="M661,576.05s-4.47,17,5.68,17,9-13,5.78-17.58S661,576.05,661,576.05Z" transform="translate(-638.21 -556.38)"/><path class="cls-9" d="M661.19,569s-0.75,2.84-.3,3.74,0,2.46.08,3.36,1.3,2.43,4,.62c0,0,6.85,3.66,6.91-1.06a56,56,0,0,0-.28-7.25S663.3,567.44,661.19,569Z" transform="translate(-638.21 -556.38)"/><path class="cls-14" d="M679.78,566.86s-0.63,5.84,0,7,1.82,3.84,1.82,3.84-2.59-.94-2.65,1.74,2.13,2.53,2.93,2.53,3.1-.94,1.59-4.64-1.78-2.22-2-4.9a36.2,36.2,0,0,1,0-5.44Z" transform="translate(-638.21 -556.38)"/><path class="cls-15" d="M679,567.65s-0.63,5.84,0,7,1.82,3.84,1.82,3.84-2.59-.94-2.65,1.74,2.14,2.53,2.93,2.53,3.1-.94,1.59-4.64-1.78-2.22-2-4.9a36.22,36.22,0,0,1,0-5.44Z" transform="translate(-638.21 -556.38)"/><path class="cls-16" d="M677.81,568.48s-0.63,5.84,0,7,1.82,3.84,1.82,3.84-2.59-.94-2.65,1.74,2.13,2.53,2.93,2.53,3.1-.94,1.59-4.64-1.78-2.22-2-4.9a36.21,36.21,0,0,1,0-5.44Z" transform="translate(-638.21 -556.38)"/><path class="cls-17" d="M676.11,568.74s-0.63,5.84,0,7,1.82,3.84,1.82,3.84-2.59-.94-2.65,1.74,2.13,2.53,2.93,2.53,3.1-.94,1.59-4.64-1.78-2.22-2-4.9a36.06,36.06,0,0,1,0-5.44Z" transform="translate(-638.21 -556.38)"/><path class="cls-18" d="M674.46,568.48s-0.63,5.84,0,7,1.82,3.84,1.82,3.84-2.59-.94-2.65,1.74,2.13,2.53,2.93,2.53,3.1-.94,1.59-4.64-1.78-2.22-2-4.9a36,36,0,0,1,0-5.44Z" transform="translate(-638.21 -556.38)"/><path class="cls-13" d="M672.78,568.25s-0.63,5.83,0,7,1.82,3.84,1.82,3.84-2.59-.94-2.65,1.74,2.14,2.53,2.93,2.53,3.1-.94,1.59-4.64-1.78-2.22-2-4.9a36.22,36.22,0,0,1,0-5.44Z" transform="translate(-638.21 -556.38)"/><path class="cls-1" d="M671.28,567.94s-0.63,5.84,0,7,1.82,3.84,1.82,3.84-2.59-.94-2.65,1.74,2.13,2.53,2.93,2.53,3.1-.94,1.59-4.64-1.78-2.22-2-4.9a36.19,36.19,0,0,1,0-5.44Z" transform="translate(-638.21 -556.38)"/><path class="cls-1" d="M664.93,576.67s-2.74.24-3.73,1.91a3.15,3.15,0,0,0,3.57.36,8.21,8.21,0,0,0,4.59.28A6.25,6.25,0,0,0,664.93,576.67Z" transform="translate(-638.21 -556.38)"/><path class="cls-8" d="M683,561l-3.34-.69L679,563.53c-0.84-.2-1.73-0.36-2.64-0.49l0.38-3.09-3.54-.43-0.39,3.16c-1-.07-2-0.11-3-0.13V559.3h-3.61v3.24c-1.1,0-2.08.06-2.91,0.1l-0.55-3.26-3.89.65,1.31,7.81,0.72-.12v0.35l19.43,0.75,0-.31,1,0.21Z" transform="translate(-638.21 -556.38)"/><path class="cls-5" d="M660.38,569.18a61.58,61.58,0,0,1,21,1.06l0.1-1.76s-13.77-3.21-21.37-.83Z" transform="translate(-638.21 -556.38)"/><path class="cls-15" d="M663.82,571.64a3.9,3.9,0,0,0-.43-0.05,4.76,4.76,0,0,0-.94,0c-0.17,0-.32.08-0.48,0.1a2.31,2.31,0,0,1-.4.12,2.67,2.67,0,0,1-.39.18l0,0a1.76,1.76,0,0,1,.29-0.38,2.14,2.14,0,0,1,.44-0.21,2.44,2.44,0,0,1,.54,0,4.35,4.35,0,0,1,1.4.28v0Z" transform="translate(-638.21 -556.38)"/><path class="cls-15" d="M666.73,571.61a4.35,4.35,0,0,1,1.4-.28,2.43,2.43,0,0,1,.54,0,2.14,2.14,0,0,1,.44.21,1.76,1.76,0,0,1,.29.38l0,0a2.62,2.62,0,0,1-.39-0.18,2.22,2.22,0,0,1-.4-0.12c-0.15,0-.31-0.08-0.48-0.1a4.76,4.76,0,0,0-.94,0,3.9,3.9,0,0,0-.43.05v0Z" transform="translate(-638.21 -556.38)"/><path class="cls-19" d="M665.83,572.81a2.12,2.12,0,0,0,.48.28,3.12,3.12,0,0,0,.53.17,2.25,2.25,0,0,0,.63.06,2.73,2.73,0,0,0,.63-0.07,3.44,3.44,0,0,0,.54-0.1,3.83,3.83,0,0,1,.56-0.09v0a3.37,3.37,0,0,1-.5.3,1.37,1.37,0,0,1-.57.17,1.78,1.78,0,0,1-.69,0,2.46,2.46,0,0,1-.67-0.14,2.52,2.52,0,0,1-.54-0.25,2.2,2.2,0,0,1-.44-0.36Z" transform="translate(-638.21 -556.38)"/><path class="cls-19" d="M663.74,572.84a1.67,1.67,0,0,1-.32.26,2,2,0,0,1-.86.33,1.21,1.21,0,0,1-.5,0,0.92,0.92,0,0,1-.42-0.12,1.82,1.82,0,0,1-.35-0.24v0a2.12,2.12,0,0,1,.41,0c0.11,0,.25,0,0.39,0a2.23,2.23,0,0,0,.44,0,2.16,2.16,0,0,0,.83-0.17,1.65,1.65,0,0,0,.35-0.19Z" transform="translate(-638.21 -556.38)"/><path class="cls-19" d="M664.35,572.32a8.32,8.32,0,0,1,.05,1.17,7,7,0,0,1-.12,1.2c0,0.22-.12.44-0.18,0.67l-0.3.64a0.38,0.38,0,0,0,.06.49,1.18,1.18,0,0,0,.51.25,2.17,2.17,0,0,0,.57,0,1.28,1.28,0,0,0,.5-0.12,0.88,0.88,0,0,0,.35-0.24,1.06,1.06,0,0,0,.19-0.28,2.36,2.36,0,0,0,.08-0.3h0a2.31,2.31,0,0,1,0,.33,0.9,0.9,0,0,1-.15.37,1,1,0,0,1-.38.35,1.57,1.57,0,0,1-.58.19,1.83,1.83,0,0,1-.68,0,1.27,1.27,0,0,1-.66-0.36,0.73,0.73,0,0,1-.17-0.4,0.82,0.82,0,0,1,.1-0.4l0.33-.61c0.07-.21.15-0.42,0.21-0.63a8.08,8.08,0,0,0,.19-1.17,8.25,8.25,0,0,0,0-1.16h0Z" transform="translate(-638.21 -556.38)"/><path class="cls-13" d="M682.67,647.08s-0.63-5.84,0-7,1.82-3.84,1.82-3.84-2.59.94-2.65-1.74,2.13-2.53,2.93-2.53,3.1,0.94,1.59,4.64-1.78,2.22-2,4.9a36.24,36.24,0,0,0,0,5.44Z" transform="translate(-638.21 -556.38)"/><path class="cls-1" d="M683.49,648.79s-0.63-5.84,0-7,1.82-3.84,1.82-3.84-2.59.94-2.65-1.74,2.13-2.53,2.93-2.53,3.1,0.94,1.59,4.64-1.78,2.22-2,4.9a36.24,36.24,0,0,0,0,5.44Z" transform="translate(-638.21 -556.38)"/><path class="cls-13" d="M684.58,640.39s4.47-17-5.68-17-9,13-5.78,17.58S684.58,640.39,684.58,640.39Z" transform="translate(-638.21 -556.38)"/><path class="cls-9" d="M684.36,647.5s0.75-2.84.3-3.74,0-2.46-.08-3.36-1.3-2.43-4-.62c0,0-6.85-3.66-6.91,1.06a56.19,56.19,0,0,0,.28,7.25S682.26,649,684.36,647.5Z" transform="translate(-638.21 -556.38)"/><path class="cls-14" d="M665.78,649.59s0.63-5.84,0-7-1.82-3.84-1.82-3.84,2.59,0.94,2.65-1.74-2.14-2.53-2.93-2.53-3.1.94-1.59,4.64,1.78,2.22,2,4.9a36.24,36.24,0,0,1,0,5.44Z" transform="translate(-638.21 -556.38)"/><path class="cls-15" d="M666.57,648.79s0.63-5.84,0-7-1.82-3.84-1.82-3.84,2.59,0.94,2.65-1.74-2.13-2.53-2.93-2.53-3.1.94-1.59,4.64,1.78,2.22,2,4.9a36.22,36.22,0,0,1,0,5.44Z" transform="translate(-638.21 -556.38)"/><path class="cls-16" d="M667.74,648s0.63-5.84,0-7-1.82-3.84-1.82-3.84,2.59,0.94,2.65-1.74-2.13-2.53-2.93-2.53-3.1.94-1.59,4.64,1.78,2.22,2,4.9a36.07,36.07,0,0,1,0,5.44Z" transform="translate(-638.21 -556.38)"/><path class="cls-17" d="M669.44,647.71s0.63-5.84,0-7-1.82-3.84-1.82-3.84,2.59,0.94,2.65-1.74-2.14-2.53-2.93-2.53-3.1.94-1.59,4.64,1.78,2.22,2,4.9a36.24,36.24,0,0,1,0,5.44Z" transform="translate(-638.21 -556.38)"/><path class="cls-18" d="M671.09,648s0.63-5.84,0-7-1.82-3.84-1.82-3.84,2.59,0.94,2.65-1.74-2.13-2.53-2.93-2.53-3.1.94-1.59,4.64,1.78,2.22,2,4.9a36.22,36.22,0,0,1,0,5.44Z" transform="translate(-638.21 -556.38)"/><path class="cls-13" d="M672.77,648.2s0.63-5.83,0-7-1.82-3.84-1.82-3.84,2.59,0.94,2.65-1.74-2.13-2.53-2.93-2.53-3.1.94-1.59,4.64,1.78,2.22,2,4.9a36.22,36.22,0,0,1,0,5.44Z" transform="translate(-638.21 -556.38)"/><path class="cls-1" d="M674.28,648.51s0.63-5.84,0-7-1.82-3.84-1.82-3.84,2.59,0.94,2.65-1.74-2.13-2.53-2.93-2.53-3.1.94-1.59,4.64,1.78,2.22,2,4.9a36,36,0,0,1,0,5.44Z" transform="translate(-638.21 -556.38)"/><path class="cls-1" d="M680.62,639.78s2.74-.24,3.73-1.91a3.15,3.15,0,0,0-3.57-.36,8.21,8.21,0,0,0-4.59-.28A6.25,6.25,0,0,0,680.62,639.78Z" transform="translate(-638.21 -556.38)"/><path class="cls-8" d="M662.57,655.47l3.34,0.69,0.67-3.24c0.84,0.2,1.73.36,2.64,0.49l-0.38,3.1,3.54,0.43,0.39-3.16c1,0.07,2,.11,3,0.13v3.25h3.61V653.9c1.1,0,2.08-.06,2.91-0.1l0.55,3.26,3.89-.65-1.31-7.81-0.72.12v-0.35l-19.44-.75,0,0.31-1-.21Z" transform="translate(-638.21 -556.38)"/><path class="cls-5" d="M685.18,647.27a61.58,61.58,0,0,1-21-1.06l-0.1,1.76s13.77,3.21,21.37.83Z" transform="translate(-638.21 -556.38)"/><path class="cls-15" d="M681.73,644.81a3.87,3.87,0,0,0,.43.05,4.76,4.76,0,0,0,.94,0c0.17,0,.32-0.08.48-0.1a2.3,2.3,0,0,1,.4-0.12,2.68,2.68,0,0,1,.39-0.18l0,0a1.76,1.76,0,0,1-.29.38,2.14,2.14,0,0,1-.44.21,2.43,2.43,0,0,1-.54,0,4.35,4.35,0,0,1-1.4-.28v0Z" transform="translate(-638.21 -556.38)"/><path class="cls-15" d="M678.82,644.84a4.35,4.35,0,0,1-1.4.28,2.43,2.43,0,0,1-.54,0,2.13,2.13,0,0,1-.44-0.21,1.76,1.76,0,0,1-.29-0.38l0,0a2.63,2.63,0,0,1,.39.18,2.22,2.22,0,0,1,.4.12c0.15,0,.31.08,0.48,0.1a4.76,4.76,0,0,0,.94,0,3.87,3.87,0,0,0,.43-0.05v0Z" transform="translate(-638.21 -556.38)"/><path class="cls-19" d="M679.72,643.64a2.12,2.12,0,0,0-.48-0.28,3.12,3.12,0,0,0-.53-0.17,2.25,2.25,0,0,0-.63-0.06,2.77,2.77,0,0,0-.62.07,3.42,3.42,0,0,0-.54.1,3.88,3.88,0,0,1-.56.09v0a3.38,3.38,0,0,1,.5-0.3,1.35,1.35,0,0,1,.57-0.17,1.78,1.78,0,0,1,.69,0,2.44,2.44,0,0,1,.67.14,2.53,2.53,0,0,1,.54.25,2.2,2.2,0,0,1,.44.36Z" transform="translate(-638.21 -556.38)"/><path class="cls-19" d="M681.81,643.61a1.67,1.67,0,0,1,.32-0.26A2,2,0,0,1,683,643a1.21,1.21,0,0,1,.5,0,0.91,0.91,0,0,1,.42.12,1.81,1.81,0,0,1,.35.24v0a2.12,2.12,0,0,1-.41,0c-0.11,0-.25,0-0.39,0a2.23,2.23,0,0,0-.44,0,2.16,2.16,0,0,0-.83.17,1.65,1.65,0,0,0-.35.19Z" transform="translate(-638.21 -556.38)"/><path class="cls-19" d="M681.2,644.13a8.21,8.21,0,0,1-.05-1.17,7.14,7.14,0,0,1,.12-1.2c0-.22.12-0.44,0.18-0.67l0.3-.63a0.38,0.38,0,0,0-.06-0.49,1.18,1.18,0,0,0-.51-0.25,2.13,2.13,0,0,0-.57,0,1.3,1.3,0,0,0-.5.11,0.89,0.89,0,0,0-.35.24,1.08,1.08,0,0,0-.19.28,2.37,2.37,0,0,0-.08.3h0a2.31,2.31,0,0,1,0-.33,0.9,0.9,0,0,1,.15-0.37,1,1,0,0,1,.38-0.35,1.57,1.57,0,0,1,.58-0.19,1.85,1.85,0,0,1,.68,0,1.29,1.29,0,0,1,.66.36,0.73,0.73,0,0,1,.17.4,0.8,0.8,0,0,1-.1.4l-0.33.61c-0.07.21-.15,0.42-0.21,0.63a8.08,8.08,0,0,0-.19,1.17,8.32,8.32,0,0,0,0,1.16h0Z" transform="translate(-638.21 -556.38)"/></svg>