<svg id="Objects" xmlns="http://www.w3.org/2000/svg" viewBox="0 0 69.12 103.68"><defs><style>.cls-1{fill:#f2f2f2;}.cls-2,.cls-4{fill:#333;}.cls-3{fill:#4d4d4d;}.cls-4{font-size:10.89px;font-family:ChunkFive;}.cls-5{fill:#1f2d6c;}.cls-6{fill:#aa292e;}.cls-7{fill:#0b050f;}.cls-8{fill:none;stroke:#aa7941;stroke-miterlimit:10;stroke-width:0.77px;}.cls-9{fill:#dce3f2;}.cls-10{fill:#e8efff;}.cls-11{fill:#aa7941;}.cls-12{fill:#bf9b4d;}.cls-13{fill:#d28537;}.cls-14{fill:#bd7831;}.cls-15{fill:#2a3757;}</style></defs><title>Q</title><rect class="cls-1" width="69.12" height="103.68" rx="2.72" ry="2.72"/><path class="cls-2" d="M321.43,570.16a9.91,9.91,0,0,1-1.28-1.18,0.32,0.32,0,0,0-.24-0.11h0a0.32,0.32,0,0,0-.24.11,9.91,9.91,0,0,1-1.28,1.18c-1,.78-1.95,1.6-1.95,2.85a1.85,1.85,0,0,0,1.94,1.94,2.12,2.12,0,0,0,1.36-.62,4.8,4.8,0,0,1-1,2.09h2.37a4.8,4.8,0,0,1-1-2.09,2.11,2.11,0,0,0,1.36.63,1.86,1.86,0,0,0,1.94-1.94C323.38,571.76,322.39,570.94,321.43,570.16Z" transform="translate(-312.49 -556.38)"/><path class="cls-3" d="M319.89,576.41v-7.55h0a0.32,0.32,0,0,0-.24.11,9.91,9.91,0,0,1-1.28,1.18c-1,.78-1.95,1.6-1.95,2.85a1.85,1.85,0,0,0,1.94,1.94,2.12,2.12,0,0,0,1.36-.62,4.8,4.8,0,0,1-1,2.09h1.18Z" transform="translate(-312.49 -556.38)"/><text class="cls-4" transform="translate(3.66 10.45)">Q</text><path class="cls-2" d="M372.67,646.29a9.9,9.9,0,0,1,1.28,1.18,0.31,0.31,0,0,0,.24.11h0a0.32,0.32,0,0,0,.24-0.11,9.9,9.9,0,0,1,1.28-1.18c1-.78,1.95-1.6,1.95-2.85a1.85,1.85,0,0,0-1.94-1.94,2.12,2.12,0,0,0-1.36.62,4.79,4.79,0,0,1,1-2.09H373a4.8,4.8,0,0,1,1,2.09,2.11,2.11,0,0,0-1.36-.62,1.85,1.85,0,0,0-1.94,1.94C370.72,644.69,371.72,645.51,372.67,646.29Z" transform="translate(-312.49 -556.38)"/><path class="cls-3" d="M374.21,640v7.55h0a0.32,0.32,0,0,0,.24-0.11,9.9,9.9,0,0,1,1.28-1.18c1-.78,1.95-1.6,1.95-2.85a1.85,1.85,0,0,0-1.94-1.94,2.12,2.12,0,0,0-1.36.62,4.79,4.79,0,0,1,1-2.09h-1.18Z" transform="translate(-312.49 -556.38)"/><text class="cls-4" transform="translate(65.46 93.23) rotate(180)">Q</text><rect class="cls-5" x="29.92" y="44.48" width="4.06" height="1.38"/><rect class="cls-6" x="30.27" y="43.1" width="4.06" height="1.38"/><rect class="cls-5" x="30.87" y="41.73" width="4.06" height="1.38"/><rect class="cls-6" x="31.23" y="40.35" width="4.06" height="1.38"/><rect class="cls-5" x="31.83" y="38.98" width="4.06" height="1.38"/><rect class="cls-6" x="32.18" y="37.6" width="4.06" height="1.38"/><rect class="cls-5" x="32.78" y="36.22" width="4.06" height="1.38"/><polygon class="cls-2" points="34.34 45.91 37.31 38.21 45.02 37.66 40.6 46.49 34.34 45.91"/><polygon class="cls-2" points="24.74 45.42 23.66 36.9 31.52 37.26 31.65 40.4 28.94 45.98 24.74 45.42"/><path class="cls-7" d="M346.19,593.12l-3.49,9-2.56-.34s3.58-4.71,3-6.51-4.7-.7-4.7-0.7l-1.78-3.18Z" transform="translate(-312.49 -556.38)"/><path class="cls-7" d="M345.63,602.37l3.41-9.15,8.7-.65-1.15,2.6s-4.74-.9-6.11.22-2.69,6.85-2.69,6.85Z" transform="translate(-312.49 -556.38)"/><path class="cls-7" d="M354,605.6a162.07,162.07,0,0,1-17.33-.62V601.8a162.07,162.07,0,0,0,17.33.62" transform="translate(-312.49 -556.38)"/><path class="cls-8" d="M336.69,601.8a162.07,162.07,0,0,0,17.33.62" transform="translate(-312.49 -556.38)"/><path class="cls-8" d="M336.69,605a162.07,162.07,0,0,0,17.33.62" transform="translate(-312.49 -556.38)"/><path class="cls-9" d="M331.05,595.41l4.89-4.49s3.86,2,3.4,6-2.61,5.36-2.61,5.36Z" transform="translate(-312.49 -556.38)"/><path class="cls-7" d="M331.05,595.41l4.35-4s3.43,1.77,3,5.3-2.32,4.76-2.32,4.76Z" transform="translate(-312.49 -556.38)"/><path class="cls-5" d="M331.05,595.42l3.63-3.33s2.87,1.48,2.52,4.43-1.93,4-1.93,4Z" transform="translate(-312.49 -556.38)"/><rect class="cls-5" x="35.14" y="57.83" width="4.06" height="1.38"/><rect class="cls-6" x="34.79" y="59.21" width="4.06" height="1.38"/><rect class="cls-5" x="34.19" y="60.58" width="4.06" height="1.38"/><rect class="cls-6" x="33.83" y="61.96" width="4.06" height="1.38"/><rect class="cls-5" x="33.23" y="63.33" width="4.06" height="1.38"/><rect class="cls-6" x="32.88" y="64.71" width="4.06" height="1.38"/><rect class="cls-5" x="32.28" y="66.08" width="4.06" height="1.38"/><polygon class="cls-2" points="34.79 57.77 31.81 65.47 24.1 66.02 28.52 57.19 34.79 57.77"/><polygon class="cls-2" points="44.38 58.27 45.46 66.78 37.6 66.43 37.48 63.29 40.18 57.7 44.38 58.27"/><path class="cls-7" d="M347.92,623.33l3.49-9,2.56,0.34s-3.58,4.71-3,6.5,4.7,0.71,4.7.71l1.78,3.18Z" transform="translate(-312.49 -556.38)"/><path class="cls-7" d="M348.48,614.08l-3.41,9.15-8.7.65,1.15-2.6s4.74,0.9,6.11-.22,2.69-6.84,2.69-6.84Z" transform="translate(-312.49 -556.38)"/><path class="cls-7" d="M340.09,610.85a162.08,162.08,0,0,1,17.33.62v3.18a162.08,162.08,0,0,0-17.33-.62" transform="translate(-312.49 -556.38)"/><path class="cls-8" d="M357.42,614.65a162.08,162.08,0,0,0-17.33-.62" transform="translate(-312.49 -556.38)"/><path class="cls-8" d="M357.42,611.46a162.08,162.08,0,0,0-17.33-.62" transform="translate(-312.49 -556.38)"/><path class="cls-10" d="M321.77,627.53a14.38,14.38,0,0,0,4.43.7c8.63,0,15.63-7.65,15.63-17.1s-7-17.1-15.63-17.1a14.44,14.44,0,0,0-4.43.7v32.8Z" transform="translate(-312.49 -556.38)"/><path class="cls-9" d="M321.77,626.78a13.8,13.8,0,0,0,4.43.73c8.27,0,15-7.33,15-16.38s-6.7-16.38-15-16.38a13.8,13.8,0,0,0-4.43.73v31.31Z" transform="translate(-312.49 -556.38)"/><path class="cls-11" d="M321.77,623.22a11,11,0,0,0,4.43.93c6.58,0,11.91-5.84,11.91-13s-5.33-13-11.91-13a11,11,0,0,0-4.43.93v24.2Z" transform="translate(-312.49 -556.38)"/><path class="cls-12" d="M321.77,621.84a9.92,9.92,0,0,0,4.43,1c5.94,0,10.75-5.27,10.75-11.77s-4.81-11.76-10.75-11.76a10,10,0,0,0-4.43,1v21.44Z" transform="translate(-312.49 -556.38)"/><path class="cls-10" d="M321.77,617.85a7.11,7.11,0,0,0,4.43,1.56c4.19,0,7.58-3.71,7.58-8.29s-3.39-8.29-7.58-8.29a7.12,7.12,0,0,0-4.43,1.56v13.46Z" transform="translate(-312.49 -556.38)"/><path class="cls-2" d="M321.77,617.32A6.78,6.78,0,0,0,326.2,619c4,0,7.19-3.52,7.19-7.87s-3.22-7.87-7.19-7.87a6.78,6.78,0,0,0-4.43,1.67v12.4Z" transform="translate(-312.49 -556.38)"/><path class="cls-11" d="M321.77,612.32c0.25,0.16.5,0.34,0.74,0.51h0q0.37,0.27.72,0.56h0c0.23,0.19.46,0.39,0.68,0.6h0c0.22,0.2.43,0.41,0.64,0.63v0q0-.34.1-0.67l0-.12c0-.18.06-0.35,0.1-0.53v0l0-.19,0.1-.41,0-.08,0.05-.19,0.11-.38,0-.08,0.06-.19,0.13-.39,0.09-.25,0.14-.37,0.11-.25,0.15-.35,0.12-.25,0.16-.34,0.13-.25,0.15-.28,0-.06,0.13-.23,0.14-.24,0.08-.13,0.11-.18,0.17-.26,0.12-.18,0.07-.1,0.2-.29,0.2-.27,0.2-.25,0.1-.12,0.17-.21,0.15-.17,0.15-.17,0.24-.27,0,0,0.2-.2,0.31-.3,0.16-.16,0.13-.12,0.28-.26,0.07-.06,0.21-.18,0.33-.27,0.24-.19,0.23-.18,0.29-.21,0.24-.17,0.3-.2,0.24-.15,0.31-.19,0.25-.14,0.33-.18,0.25-.13,0.34-.17,0.24-.12,0.37-.16,0.23-.1,0.42-.16,0.2-.07,0.54-.18,0.08,0,0.64-.18,0.1,0,0.55-.13,0.2,0,0.45-.09,0.24,0c0.38-.06.76-0.11,1.14-0.13a15.23,15.23,0,0,0-12.62-7,14.41,14.41,0,0,0-4.41.69v17.61Z" transform="translate(-312.49 -556.38)"/><path class="cls-12" d="M321.77,611.14a2.18,2.18,0,0,0,.68,1.14c0.56,0.61,1.32,1.07,1.9,1.68,0.82-6.65,6.47-13,13.16-13.51-3.75-5.6-15.31-9.92-15.75-.85v11.53Z" transform="translate(-312.49 -556.38)"/><path class="cls-7" d="M350.44,642.52s5.18-11.44,4.38-15.13-8.17,6.75-8.17,6.75Z" transform="translate(-312.49 -556.38)"/><path class="cls-2" d="M346,653s8.23-2,12-13.36,2-15.76,2-15.76l-5.73,4s0.53,5.38-3.41,14.69S346,651,346,651v2Z" transform="translate(-312.49 -556.38)"/><path class="cls-12" d="M341.28,652s8.23-2,12-13.36,2-13.45,2-13.45l-1.66.37s2.1,3.7-1.83,13S341.28,650,341.28,650v2Z" transform="translate(-312.49 -556.38)"/><polygon class="cls-5" points="9.28 55.27 9.28 66.43 15.02 71.75 20.87 68.41 9.28 55.27"/><path class="cls-7" d="M334.62,624.53s-12.54-14.44-12.85-14.6v2.23l10.51,12.63Z" transform="translate(-312.49 -556.38)"/><path class="cls-11" d="M353.9,628.86L359,625a49.72,49.72,0,0,0-32.18,1.25l4.15,5.12Z" transform="translate(-312.49 -556.38)"/><path class="cls-12" d="M352.88,629.66l5.12-3.9s-13.82-5.11-31.16,1.54l4.15,5.12Z" transform="translate(-312.49 -556.38)"/><path class="cls-9" d="M349.25,634.09a8.59,8.59,0,0,1,3.63-4.43s-13.52-2.44-21.89,1.66c0,0,1.29,8.3,5.32,6.58S349.25,634.09,349.25,634.09Z" transform="translate(-312.49 -556.38)"/><path class="cls-10" d="M350.75,644.69s0.34-3,0-3.48a1.67,1.67,0,0,1-.28-1.54c0.13-.74.13-4.29-0.45-5.06s-3-5.41-4.68-5.45-8.68,2.85-8.78,6.6a0.94,0.94,0,0,0-1.18-.29c-0.67.38-.77,3.17-0.77,3.17s5.74,12.52,11.37,12C346,650.63,350.77,647.21,350.75,644.69Z" transform="translate(-312.49 -556.38)"/><path class="cls-7" d="M346,653a11.28,11.28,0,0,1-10.6-3.35c-4.64-4.95-9.74-16.82-13.62-18.11v-4.9s9.44,4.82,11.72,12.28S346,653,346,653Z" transform="translate(-312.49 -556.38)"/><path class="cls-13" d="M346,650.38s-1.53-6.71-8.07-6.94c-1.83,1.75,4.18,6.94,4.18,6.94A5.41,5.41,0,0,0,346,651v-0.66Z" transform="translate(-312.49 -556.38)"/><path class="cls-2" d="M346,651s-6.33-1.62-11.58-14.54c-8.91-14.4-12.64-13.69-12.64-13.69v3.83A47.69,47.69,0,0,1,332.2,639c4,7.15,6.59,14,13.8,14v-2Z" transform="translate(-312.49 -556.38)"/><path class="cls-12" d="M346,653s8.23-2,12-13.36,2-15.76,2-15.76l-1.51.91s1.86,5.47-2.07,14.78S346,651,346,651v2Z" transform="translate(-312.49 -556.38)"/><path class="cls-14" d="M346,650.38s1-4.32,4.92-5.75c0,0,1.22,7-4.92,6.41v-0.66Z" transform="translate(-312.49 -556.38)"/><path class="cls-9" d="M363.05,621l-4.89,4.49s-3.86-2-3.4-6,2.6-5.36,2.6-5.36Z" transform="translate(-312.49 -556.38)"/><path class="cls-7" d="M363.05,621l-4.35,4s-3.43-1.78-3-5.3S358,615,358,615Z" transform="translate(-312.49 -556.38)"/><path class="cls-5" d="M363.05,621l-3.63,3.33s-2.87-1.48-2.52-4.43,1.93-4,1.93-4Z" transform="translate(-312.49 -556.38)"/><path class="cls-13" d="M350.78,641.7a3.61,3.61,0,0,1-.46.2,4.7,4.7,0,0,1-1.08.25,2.14,2.14,0,0,1-1.11-.06,2.28,2.28,0,0,1-.46-0.23v0a2.55,2.55,0,0,1,.5,0c0.14,0,.31,0,0.49,0s0.37,0,.56,0a6,6,0,0,0,1.54-.18v0Z" transform="translate(-312.49 -556.38)"/><path class="cls-13" d="M341.29,641.82a10.34,10.34,0,0,0,2,.16c0.25,0,.5,0,0.73-0.06s0.45,0,.64,0a3.87,3.87,0,0,1,.65.05v0a3.52,3.52,0,0,1-.61.25,2.85,2.85,0,0,1-.66.11,4.87,4.87,0,0,1-.76,0,7.74,7.74,0,0,1-1.39-.26,5.77,5.77,0,0,1-.61-0.2v0Z" transform="translate(-312.49 -556.38)"/><path class="cls-15" d="M344.72,640.7s-0.2,0-.49-0.08a6.71,6.71,0,0,0-1.06-.06,3.17,3.17,0,0,0-.57,0,4,4,0,0,0-.5.05l-0.49.06,0.46-.2a3.41,3.41,0,0,1,1.09-.19,4.31,4.31,0,0,1,.59,0,3.35,3.35,0,0,1,.5.13A2.28,2.28,0,0,1,344.72,640.7Z" transform="translate(-312.49 -556.38)"/><path class="cls-15" d="M348,640.7a1.52,1.52,0,0,1,.35-0.2,2.29,2.29,0,0,1,.4-0.12,2.69,2.69,0,0,1,.48,0,2.23,2.23,0,0,1,.87.18l0.35,0.19-0.39-.07a2.46,2.46,0,0,0-.39-0.06,1.91,1.91,0,0,0-.44,0,3.79,3.79,0,0,0-.83.07A3,3,0,0,0,348,640.7Z" transform="translate(-312.49 -556.38)"/><path class="cls-10" d="M346.22,633.15a1.81,1.81,0,0,0-1.62,0" transform="translate(-312.49 -556.38)"/><path class="cls-15" d="M346.22,633.15L346,633.1a2.73,2.73,0,0,0-.55,0,2.8,2.8,0,0,0-.55,0l-0.26,0,0.23-.14a1.38,1.38,0,0,1,.58-0.14,1.56,1.56,0,0,1,.32,0,1.34,1.34,0,0,1,.26.09A0.93,0.93,0,0,1,346.22,633.15Z" transform="translate(-312.49 -556.38)"/><path class="cls-15" d="M347.34,634.31a19.44,19.44,0,0,1-3.85,0A19.44,19.44,0,0,1,347.34,634.31Z" transform="translate(-312.49 -556.38)"/><path class="cls-15" d="M346.89,636.5a0.89,0.89,0,0,0-.25-0.23,1.24,1.24,0,0,0-.31-0.15,1.92,1.92,0,0,0-.38-0.11c-0.13,0-.27,0-0.4-0.06a2.93,2.93,0,0,0-.36,0l-0.36,0,0.35-.07a2.48,2.48,0,0,1,.8,0,2.06,2.06,0,0,1,.41.14,1,1,0,0,1,.31.22,0.69,0.69,0,0,1,.15.22A0.41,0.41,0,0,1,346.89,636.5Z" transform="translate(-312.49 -556.38)"/><path class="cls-10" d="M372.34,588.92a14.45,14.45,0,0,0-4.43-.7c-8.63,0-15.63,7.66-15.63,17.1s7,17.1,15.63,17.1a14.39,14.39,0,0,0,4.43-.7v-32.8Z" transform="translate(-312.49 -556.38)"/><path class="cls-9" d="M372.34,589.67a13.81,13.81,0,0,0-4.43-.73c-8.27,0-15,7.34-15,16.38s6.71,16.38,15,16.38a13.81,13.81,0,0,0,4.43-.73V589.67Z" transform="translate(-312.49 -556.38)"/><path class="cls-11" d="M372.34,593.23a11,11,0,0,0-4.43-.93c-6.58,0-11.91,5.83-11.91,13s5.33,13,11.91,13a11,11,0,0,0,4.43-.93v-24.2Z" transform="translate(-312.49 -556.38)"/><path class="cls-12" d="M372.34,594.6a10,10,0,0,0-4.43-1c-5.94,0-10.76,5.27-10.76,11.76s4.82,11.77,10.76,11.77a9.93,9.93,0,0,0,4.43-1V594.6Z" transform="translate(-312.49 -556.38)"/><path class="cls-10" d="M372.34,598.6a7.12,7.12,0,0,0-4.43-1.56c-4.19,0-7.58,3.71-7.58,8.29s3.39,8.29,7.58,8.29a7.11,7.11,0,0,0,4.43-1.56V598.6Z" transform="translate(-312.49 -556.38)"/><path class="cls-2" d="M372.34,599.13a6.77,6.77,0,0,0-4.43-1.67c-4,0-7.19,3.52-7.19,7.87s3.22,7.87,7.19,7.87a6.78,6.78,0,0,0,4.43-1.67v-12.4Z" transform="translate(-312.49 -556.38)"/><path class="cls-11" d="M372.34,604.13c-0.25-.16-0.5-0.33-0.74-0.51h0q-0.37-.27-0.72-0.56h0c-0.23-.19-0.46-0.39-0.68-0.6h0c-0.22-.21-0.43-0.41-0.64-0.63h0c0,0.22-.06.45-0.1,0.67l0,0.11c0,0.18-.07.35-0.1,0.53v0l0,0.19-0.1.4,0,0.08-0.05.19-0.11.38,0,0.08-0.06.19c0,0.13-.08.26-0.13,0.38l-0.09.25-0.14.37-0.11.25-0.15.35-0.12.25-0.16.34-0.13.25-0.15.28,0,0.06-0.13.23-0.14.24-0.08.14-0.11.18-0.17.26-0.12.18-0.07.1-0.2.29-0.2.27-0.2.25-0.09.12-0.17.21-0.15.17-0.15.17-0.24.27,0,0-0.2.2-0.31.31-0.16.16-0.13.12-0.28.26-0.07.06-0.21.18-0.33.27-0.25.19-0.23.18-0.29.21-0.24.17-0.3.2-0.24.15-0.31.19-0.25.14-0.33.18-0.25.13-0.34.17-0.24.12-0.37.16-0.23.1-0.42.16-0.2.07-0.54.18-0.08,0L358,615l-0.1,0-0.55.13-0.2,0-0.45.09-0.24,0c-0.38.06-.76,0.11-1.14,0.13a15.23,15.23,0,0,0,12.62,7,14.42,14.42,0,0,0,4.41-.69V604.13Z" transform="translate(-312.49 -556.38)"/><path class="cls-12" d="M372.34,605.3a2.19,2.19,0,0,0-.68-1.14c-0.56-.61-1.32-1.07-1.9-1.68-0.82,6.65-6.47,13-13.16,13.51,3.75,5.6,15.31,9.92,15.75.84V605.3Z" transform="translate(-312.49 -556.38)"/><polygon class="cls-5" points="59.84 48.41 59.84 37.25 54.1 31.93 48.25 35.27 59.84 48.41"/><path class="cls-7" d="M359.49,591.92s12.54,14.44,12.85,14.6v-2.23l-10.51-12.63Z" transform="translate(-312.49 -556.38)"/><path class="cls-7" d="M343.66,573.93s-5.18,11.44-4.38,15.13,8.17-6.75,8.17-6.75Z" transform="translate(-312.49 -556.38)"/><path class="cls-2" d="M348.11,563.45s-8.23,2-12,13.36-2,15.76-2,15.76l5.73-4s-0.53-5.38,3.41-14.69,4.91-8.46,4.91-8.46v-2Z" transform="translate(-312.49 -556.38)"/><path class="cls-12" d="M352.83,564.45s-8.23,2-12,13.36-2,13.45-2,13.45l1.66-.37s-2.1-3.7,1.84-13,10.47-11.47,10.47-11.47v-2Z" transform="translate(-312.49 -556.38)"/><path class="cls-11" d="M340.21,587.59l-5.12,3.9a49.73,49.73,0,0,0,32.18-1.25l-4.15-5.12Z" transform="translate(-312.49 -556.38)"/><path class="cls-12" d="M341.23,586.79l-5.12,3.9s13.82,5.11,31.16-1.54L363.12,584Z" transform="translate(-312.49 -556.38)"/><path class="cls-9" d="M344.86,582.36a8.59,8.59,0,0,1-3.63,4.43s13.52,2.44,21.89-1.66c0,0-1.29-8.3-5.32-6.58S344.86,582.36,344.86,582.36Z" transform="translate(-312.49 -556.38)"/><path class="cls-10" d="M343.35,571.76s-0.34,3,0,3.48a1.67,1.67,0,0,1,.28,1.54c-0.13.74-.13,4.29,0.45,5.06s3,5.41,4.68,5.45,8.68-2.85,8.78-6.6a0.94,0.94,0,0,0,1.19.29c0.67-.38.77-3.17,0.77-3.17s-5.74-12.53-11.37-12C348.11,565.82,343.33,569.24,343.35,571.76Z" transform="translate(-312.49 -556.38)"/><path class="cls-7" d="M348.11,563.45a11.28,11.28,0,0,1,10.6,3.35c4.64,4.95,9.74,16.82,13.62,18.11v4.9s-9.44-4.82-11.72-12.28S348.11,563.45,348.11,563.45Z" transform="translate(-312.49 -556.38)"/><path class="cls-13" d="M348.11,566.07s1.53,6.72,8.07,6.95c1.83-1.75-4.18-6.95-4.18-6.95a5.42,5.42,0,0,0-3.89-.66v0.66Z" transform="translate(-312.49 -556.38)"/><path class="cls-2" d="M348.11,565.4s6.33,1.63,11.58,14.54c8.91,14.4,12.64,13.69,12.64,13.69v-3.83a47.68,47.68,0,0,1-10.43-12.36c-4-7.15-6.59-14-13.8-14v2Z" transform="translate(-312.49 -556.38)"/><path class="cls-12" d="M348.11,563.45s-8.23,2-12,13.36-2,15.76-2,15.76l1.51-.91s-1.86-5.47,2.07-14.78,10.47-11.47,10.47-11.47v-2Z" transform="translate(-312.49 -556.38)"/><path class="cls-14" d="M348.11,566.07s-1,4.32-4.92,5.75c0,0-1.22-7,4.92-6.42v0.66Z" transform="translate(-312.49 -556.38)"/><path class="cls-13" d="M343.32,574.75a3.84,3.84,0,0,1,.46-0.2,4.81,4.81,0,0,1,1.08-.25,2.14,2.14,0,0,1,1.11.06,2.29,2.29,0,0,1,.46.23v0a2.55,2.55,0,0,1-.5,0c-0.14,0-.31,0-0.49,0s-0.37,0-.56,0a6,6,0,0,0-1.54.17v0Z" transform="translate(-312.49 -556.38)"/><path class="cls-13" d="M352.82,574.63a10.3,10.3,0,0,0-2-.16c-0.25,0-.5,0-0.73.06s-0.45,0-.64,0a3.87,3.87,0,0,1-.65-0.05v0a3.52,3.52,0,0,1,.61-0.25,2.89,2.89,0,0,1,.66-0.11,4.76,4.76,0,0,1,.76,0,7.73,7.73,0,0,1,1.4.26,5.77,5.77,0,0,1,.61.2v0Z" transform="translate(-312.49 -556.38)"/><path class="cls-15" d="M349.39,575.75s0.2,0,.49.08a6.6,6.6,0,0,0,1.06.06,3.16,3.16,0,0,0,.57,0,4.2,4.2,0,0,0,.5-0.05l0.49-.06-0.46.2a3.41,3.41,0,0,1-1.09.19,4.28,4.28,0,0,1-.59,0,3.35,3.35,0,0,1-.5-0.13A2.28,2.28,0,0,1,349.39,575.75Z" transform="translate(-312.49 -556.38)"/><path class="cls-15" d="M346.09,575.75a1.52,1.52,0,0,1-.35.2,2.28,2.28,0,0,1-.4.12,2.68,2.68,0,0,1-.48,0,2.23,2.23,0,0,1-.87-0.18l-0.35-.19,0.39,0.07a2.46,2.46,0,0,0,.39.06,1.9,1.9,0,0,0,.44,0,3.79,3.79,0,0,0,.83-0.07A3.06,3.06,0,0,0,346.09,575.75Z" transform="translate(-312.49 -556.38)"/><path class="cls-10" d="M347.88,583.29a1.81,1.81,0,0,0,1.62,0" transform="translate(-312.49 -556.38)"/><path class="cls-15" d="M347.88,583.29l0.26,0.05a2.74,2.74,0,0,0,.55,0,2.79,2.79,0,0,0,.55,0l0.26,0-0.23.14a1.38,1.38,0,0,1-.58.14,1.56,1.56,0,0,1-.32,0,1.34,1.34,0,0,1-.26-0.09A0.93,0.93,0,0,1,347.88,583.29Z" transform="translate(-312.49 -556.38)"/><path class="cls-15" d="M346.77,582.14a19.44,19.44,0,0,1,3.85,0A19.44,19.44,0,0,1,346.77,582.14Z" transform="translate(-312.49 -556.38)"/><path class="cls-15" d="M347.22,580a0.9,0.9,0,0,0,.25.23,1.25,1.25,0,0,0,.31.15,2,2,0,0,0,.38.11c0.13,0,.27,0,0.4.06a2.91,2.91,0,0,0,.36,0l0.36,0-0.35.07a2.48,2.48,0,0,1-.8,0,2.07,2.07,0,0,1-.41-0.14,1,1,0,0,1-.31-0.22,0.68,0.68,0,0,1-.15-0.22A0.4,0.4,0,0,1,347.22,580Z" transform="translate(-312.49 -556.38)"/></svg>